<svg width="66" height="63" viewBox="0 0 66 63" fill="none" xmlns="http://www.w3.org/2000/svg">
<path d="M62.8022 38.5359H3.19777C2.34967 38.5359 1.5363 38.2136 0.936604 37.64C0.336906 37.0664 0 36.2885 0 35.4773C0 34.6661 0.336906 33.8881 0.936604 33.3145C1.5363 32.7409 2.34967 32.4187 3.19777 32.4187H62.8022C63.6503 32.4187 64.4637 32.7409 65.0634 33.3145C65.6631 33.8881 66 34.6661 66 35.4773C66 36.2885 65.6631 37.0664 65.0634 37.64C64.4637 38.2136 63.6503 38.5359 62.8022 38.5359V38.5359ZM3.19777 34.4821C3.05761 34.4774 2.9179 34.4997 2.78696 34.5478C2.65603 34.5958 2.53655 34.6686 2.43565 34.7617C2.33476 34.8549 2.25451 34.9665 2.19971 35.09C2.1449 35.2135 2.11665 35.3462 2.11665 35.4804C2.11665 35.6145 2.1449 35.7473 2.19971 35.8708C2.25451 35.9942 2.33476 36.1059 2.43565 36.199C2.53655 36.2922 2.65603 36.365 2.78696 36.413C2.9179 36.4611 3.05761 36.4834 3.19777 36.4787H62.8022C62.9424 36.4834 63.0821 36.4611 63.213 36.413C63.344 36.365 63.4635 36.2922 63.5644 36.199C63.6652 36.1059 63.7455 35.9942 63.8003 35.8708C63.8551 35.7473 63.8834 35.6145 63.8834 35.4804C63.8834 35.3462 63.8551 35.2135 63.8003 35.09C63.7455 34.9665 63.6652 34.8549 63.5644 34.7617C63.4635 34.6686 63.344 34.5958 63.213 34.5478C63.0821 34.4997 62.9424 34.4774 62.8022 34.4821H3.19777Z" fill="white"/>
<path d="M62.8022 30.7028H3.19777C2.34967 30.7028 1.5363 30.3805 0.936604 29.8069C0.336906 29.2333 0 28.4554 0 27.6442C0 26.833 0.336906 26.055 0.936604 25.4814C1.5363 24.9078 2.34967 24.5856 3.19777 24.5856H62.8022C63.6503 24.5856 64.4637 24.9078 65.0634 25.4814C65.6631 26.055 66 26.833 66 27.6442C66 28.4554 65.6631 29.2333 65.0634 29.8069C64.4637 30.3805 63.6503 30.7028 62.8022 30.7028V30.7028ZM3.19777 26.6515C3.06062 26.6515 2.92481 26.6773 2.79811 26.7275C2.6714 26.7777 2.55627 26.8513 2.4593 26.944C2.36232 27.0368 2.28539 27.1469 2.23291 27.2681C2.18042 27.3893 2.15341 27.5192 2.15341 27.6504C2.15341 27.7815 2.18042 27.9114 2.23291 28.0326C2.28539 28.1538 2.36232 28.2639 2.4593 28.3567C2.55627 28.4494 2.6714 28.523 2.79811 28.5732C2.92481 28.6234 3.06062 28.6493 3.19777 28.6493H62.8022C63.0792 28.6493 63.3449 28.544 63.5407 28.3567C63.7366 28.1694 63.8466 27.9153 63.8466 27.6504C63.8466 27.3854 63.7366 27.1314 63.5407 26.944C63.3449 26.7567 63.0792 26.6515 62.8022 26.6515H3.19777Z" fill="white"/>
<path d="M21.317 43.9073C21.2461 43.9071 21.1754 43.9 21.106 43.8862C21.0368 43.8736 20.9691 43.8541 20.9041 43.828C20.8394 43.8019 20.7775 43.77 20.7191 43.7327C20.6603 43.6966 20.6052 43.6552 20.5547 43.6089C20.5061 43.5609 20.4628 43.5082 20.4253 43.4517C20.3863 43.3959 20.353 43.3366 20.3257 43.2747C20.2996 43.2122 20.2792 43.1476 20.2649 43.0816C20.2508 43.0157 20.2439 42.9485 20.2441 42.8811C20.2439 42.8134 20.2509 42.7458 20.2649 42.6794C20.2794 42.6135 20.2997 42.5489 20.3257 42.4863C20.353 42.4244 20.3863 42.3651 20.4253 42.3093C20.4631 42.253 20.5064 42.2004 20.5547 42.1521C20.605 42.1056 20.66 42.0641 20.7191 42.0283C20.8363 41.9526 20.9684 41.9004 21.1073 41.8748C21.2461 41.8476 21.3892 41.8476 21.5279 41.8748C21.6668 41.9004 21.7989 41.9526 21.9161 42.0283C21.9752 42.0641 22.0303 42.1056 22.0805 42.1521C22.1288 42.2004 22.1722 42.253 22.2099 42.3093C22.2489 42.3651 22.2823 42.4244 22.3096 42.4863C22.3367 42.5485 22.357 42.6132 22.3704 42.6794C22.3848 42.7457 22.3922 42.8133 22.3924 42.8811C22.3922 42.9485 22.3848 43.0157 22.3704 43.0816C22.3572 43.1479 22.3368 43.2126 22.3096 43.2747C22.2823 43.3366 22.2489 43.3959 22.2099 43.4517C22.1725 43.5082 22.1291 43.5609 22.0805 43.6089C22.03 43.6552 21.975 43.6966 21.9161 43.7327C21.8578 43.77 21.7958 43.8019 21.7311 43.828C21.6661 43.8541 21.5984 43.8736 21.5292 43.8862C21.4594 43.9002 21.3883 43.9072 21.317 43.9073Z" fill="white"/>
<path d="M18.1629 57.2863C18.0245 57.2586 17.8931 57.2051 17.7763 57.1288C17.6595 57.0525 17.5596 56.955 17.4822 56.8418C17.4048 56.7286 17.3515 56.6019 17.3253 56.4689C17.2991 56.336 17.3005 56.1994 17.3295 56.067V56.067C17.3585 55.9347 17.4144 55.8091 17.4942 55.6974C17.5739 55.5857 17.6759 55.4902 17.7943 55.4163C17.9127 55.3423 18.0452 55.2915 18.1842 55.2666C18.3231 55.2417 18.4659 55.2432 18.6042 55.2711C18.7426 55.2988 18.874 55.3523 18.9907 55.4286C19.1075 55.5049 19.2073 55.6025 19.2846 55.7157C19.3619 55.829 19.4151 55.9557 19.4411 56.0886C19.4672 56.2215 19.4655 56.358 19.4363 56.4904V56.4904C19.3856 56.7214 19.2534 56.9288 19.0619 57.0778C18.8703 57.2267 18.6311 57.3082 18.3842 57.3086V57.3086C18.3099 57.3084 18.2357 57.301 18.1629 57.2863ZM18.8954 53.9368C18.6161 53.8806 18.3715 53.7206 18.2155 53.492C18.0594 53.2633 18.0047 52.9848 18.0633 52.7176V52.7176C18.0921 52.5852 18.1479 52.4596 18.2275 52.3479C18.3071 52.2362 18.409 52.1405 18.5272 52.0665C18.6455 51.9925 18.7779 51.9415 18.9168 51.9164C19.0557 51.8913 19.1984 51.8927 19.3367 51.9204V51.9204C19.4754 51.9481 19.607 52.0017 19.7239 52.0781C19.8409 52.1546 19.9409 52.2524 20.0182 52.3659C20.0955 52.4794 20.1486 52.6064 20.1745 52.7396C20.2003 52.8729 20.1984 53.0096 20.1688 53.1421V53.1421C20.1181 53.3733 19.986 53.5809 19.7944 53.73C19.6029 53.8792 19.3637 53.9609 19.1167 53.9616V53.9616C19.0422 53.9605 18.9681 53.9522 18.8954 53.9368ZM19.6292 50.5861C19.3498 50.5299 19.1051 50.3699 18.9488 50.1413C18.7926 49.9128 18.7375 49.6342 18.7958 49.3669C18.8545 49.0996 19.0218 48.8656 19.2608 48.7161C19.4997 48.5667 19.7909 48.514 20.0705 48.5697V48.5697C20.3499 48.626 20.5945 48.7859 20.7508 49.0145C20.907 49.2431 20.9621 49.5216 20.9039 49.789C20.8534 50.0203 20.7213 50.2279 20.5297 50.3771C20.3382 50.5263 20.0988 50.608 19.8518 50.6084C19.777 50.6082 19.7024 50.6008 19.6292 50.5861V50.5861ZM20.3629 47.2366C20.2245 47.2089 20.0931 47.1554 19.9763 47.0792C19.8595 47.0029 19.7596 46.9054 19.6822 46.7921C19.6048 46.6789 19.5515 46.5522 19.5253 46.4193C19.4991 46.2864 19.5005 46.1498 19.5295 46.0174V46.0174C19.5585 45.885 19.6144 45.7593 19.6942 45.6476C19.7739 45.5359 19.8759 45.4403 19.9942 45.3662C20.1126 45.2922 20.2451 45.2412 20.384 45.2162C20.523 45.1911 20.6658 45.1925 20.8042 45.2203V45.2203C20.9427 45.2479 21.074 45.3014 21.1909 45.3777C21.3077 45.454 21.4076 45.5515 21.485 45.6647C21.5624 45.778 21.6157 45.9046 21.6419 46.0376C21.6681 46.1705 21.6667 46.3071 21.6376 46.4395V46.4395C21.5871 46.6707 21.455 46.8782 21.2634 47.0272C21.0718 47.1762 20.8325 47.2575 20.5855 47.2577C20.5108 47.258 20.4362 47.2509 20.3629 47.2366V47.2366Z" fill="white"/>
<path d="M17.649 60.6583C17.5785 60.6581 17.5083 60.6511 17.4393 60.6372C17.3701 60.6247 17.3024 60.6052 17.2374 60.5791C17.1725 60.5527 17.1101 60.5208 17.0511 60.4837C16.9927 60.4476 16.9381 60.4062 16.888 60.36C16.7382 60.2154 16.6356 60.0321 16.593 59.8327C16.5654 59.6999 16.5654 59.5632 16.593 59.4304C16.6074 59.3643 16.6282 59.2997 16.6551 59.2373C16.6819 59.1754 16.7149 59.1162 16.7534 59.0603C16.7916 59.0043 16.835 58.9517 16.8829 58.9031C17.0088 58.7842 17.1631 58.6965 17.3324 58.6476C17.5018 58.5986 17.6811 58.5899 17.8547 58.6221C17.9238 58.6354 17.9914 58.6549 18.0566 58.6803C18.1213 58.7064 18.1833 58.7383 18.2417 58.7756C18.3605 58.8497 18.4619 58.9466 18.5393 59.0603C18.5783 59.1161 18.6117 59.1754 18.639 59.2373C18.6649 59.2999 18.6853 59.3645 18.6998 59.4304C18.7274 59.5632 18.7274 59.6999 18.6998 59.8327C18.6854 59.8986 18.6651 59.9632 18.639 60.0258C18.6117 60.0877 18.5783 60.1469 18.5393 60.2028C18.5019 60.2592 18.4585 60.3119 18.4099 60.36C18.3594 60.4062 18.3044 60.4476 18.2456 60.4837C18.1869 60.5213 18.1245 60.5532 18.0592 60.5791C17.9947 60.6052 17.9274 60.6247 17.8586 60.6372C17.7896 60.6509 17.7194 60.6579 17.649 60.6583Z" fill="white"/>
<path d="M54.3326 43.907C54.2621 43.9068 54.1919 43.8998 54.1229 43.8859C54.0537 43.8734 53.986 43.8539 53.921 43.8278C53.856 43.8014 53.7937 43.7695 53.7347 43.7325C53.6166 43.6579 53.5157 43.561 53.4383 43.4478C53.3993 43.3919 53.366 43.3327 53.3387 43.2708C53.3114 43.2086 53.291 43.1439 53.2779 43.0777C53.2635 43.0117 53.2561 42.9445 53.2559 42.8771C53.2555 42.7077 53.299 42.5407 53.3826 42.3913C53.4662 42.2418 53.5871 42.1144 53.7347 42.0206C53.7937 41.9835 53.856 41.9516 53.921 41.9253C53.9864 41.9003 54.054 41.8809 54.1229 41.8671C54.2617 41.8399 54.4048 41.8399 54.5435 41.8671C54.6124 41.881 54.6799 41.9005 54.7454 41.9253C54.8101 41.9514 54.8721 41.9833 54.9304 42.0206C55.0787 42.1138 55.2001 42.241 55.2838 42.3906C55.3674 42.5402 55.4105 42.7075 55.4093 42.8771C55.4094 42.9445 55.4025 43.0117 55.3886 43.0777C55.3742 43.1436 55.3538 43.2082 55.3277 43.2708C55.3005 43.3327 55.2671 43.3919 55.2281 43.4478C55.1507 43.5614 55.0493 43.6584 54.9304 43.7325C54.8721 43.7698 54.8101 43.8017 54.7454 43.8278C54.6803 43.8537 54.6127 43.8732 54.5435 43.8859C54.4741 43.8997 54.4034 43.9067 54.3326 43.907Z" fill="white"/>
<path d="M57.1619 50.7556C57.0995 50.6342 57.0628 50.5023 57.0539 50.3673C57.0449 50.2323 57.0639 50.0969 57.1097 49.969C57.1555 49.841 57.2272 49.7229 57.3208 49.6215C57.4143 49.5201 57.5279 49.4373 57.6549 49.378V49.378C57.7819 49.3183 57.9198 49.2832 58.061 49.2746C58.2021 49.2661 58.3436 49.2842 58.4774 49.328C58.6112 49.3718 58.7346 49.4404 58.8406 49.5299C58.9467 49.6194 59.0332 49.728 59.0953 49.8496V49.8496C59.221 50.0945 59.24 50.3771 59.148 50.6354C59.0561 50.8938 58.8607 51.1066 58.6048 51.2272V51.2272C58.4575 51.2966 58.2954 51.3326 58.1312 51.3324V51.3324C57.9293 51.3332 57.7312 51.2794 57.5598 51.1774C57.3883 51.0754 57.2504 50.9292 57.1619 50.7556ZM55.2608 47.0422C55.1359 46.7967 55.1181 46.5137 55.2113 46.2556C55.3045 45.9975 55.5011 45.7853 55.7578 45.6658V45.6658C55.8847 45.6062 56.0227 45.5711 56.1638 45.5625C56.3049 45.5539 56.4464 45.5721 56.5802 45.6159C56.714 45.6597 56.8374 45.7283 56.9435 45.8178C57.0495 45.9073 57.136 46.0159 57.1981 46.1374V46.1374C57.2602 46.2589 57.2967 46.3909 57.3055 46.5259C57.3143 46.6609 57.2952 46.7962 57.2493 46.9242C57.2034 47.0521 57.1316 47.1701 57.038 47.2715C56.9444 47.3729 56.8308 47.4557 56.7038 47.5151V47.5151C56.5569 47.5845 56.3952 47.6206 56.2314 47.6203V47.6203C56.0293 47.6209 55.8311 47.5672 55.6595 47.4652C55.4879 47.3632 55.3497 47.217 55.2608 47.0435V47.0422Z" fill="white"/>
<path d="M60.0286 55.0426C59.9577 55.0428 59.8871 55.0361 59.8176 55.0228C59.7489 55.0092 59.6817 54.9893 59.617 54.9634C59.5516 54.9385 59.4891 54.9069 59.4307 54.8693C59.372 54.8335 59.3174 54.792 59.2676 54.7455C59.2191 54.6979 59.1757 54.6456 59.1382 54.5896C59.0989 54.5337 59.0659 54.4739 59.0399 54.4113C59.0128 54.3494 58.992 54.2852 58.9777 54.2195C58.9638 54.1531 58.9568 54.0855 58.957 54.0177C58.9568 53.9504 58.9637 53.8832 58.9777 53.8172C58.9919 53.7511 59.0127 53.6864 59.0399 53.6241C59.0664 53.5617 59.0994 53.502 59.1382 53.4458C59.1756 53.3897 59.219 53.3375 59.2676 53.2899C59.3934 53.1708 59.5477 53.083 59.7171 53.034C59.8865 52.9851 60.0658 52.9764 60.2395 53.0089C60.3083 53.0215 60.3756 53.041 60.4401 53.0671C60.5052 53.0932 60.5676 53.1251 60.6264 53.1624C60.8044 53.2743 60.9425 53.4353 61.0224 53.6241C61.0496 53.6864 61.0704 53.7511 61.0846 53.8172C61.0986 53.8832 61.1055 53.9504 61.1053 54.0177C61.1044 54.2906 60.9909 54.5522 60.7895 54.7455C60.7397 54.792 60.6851 54.8335 60.6264 54.8693C60.5679 54.9067 60.5054 54.9382 60.4401 54.9634C60.3754 54.9893 60.3082 55.0092 60.2395 55.0228C60.1701 55.0361 60.0994 55.0428 60.0286 55.0426V55.0426Z" fill="white"/>
<path d="M11.2681 43.9074C11.1977 43.9072 11.1274 43.9001 11.0585 43.8864C10.9893 43.8736 10.9216 43.8541 10.8566 43.8282C10.7919 43.8021 10.7299 43.7702 10.6715 43.7329C10.5235 43.6397 10.4021 43.5127 10.3183 43.3634C10.2344 43.214 10.1908 43.0471 10.1914 42.8776C10.1916 42.8098 10.199 42.7422 10.2134 42.6758C10.2273 42.6098 10.2477 42.5451 10.2742 42.4827C10.3015 42.4208 10.3349 42.3616 10.3739 42.3057C10.4513 42.1924 10.5522 42.0956 10.6702 42.021C10.7292 41.984 10.7916 41.9521 10.8566 41.9257C10.9218 41.9002 10.9894 41.8807 11.0585 41.8675C11.2674 41.8265 11.4843 41.8463 11.6814 41.9244C11.8784 42.0025 12.0464 42.1353 12.1636 42.3057C12.2027 42.3616 12.236 42.4208 12.2633 42.4827C12.2904 42.5449 12.3108 42.6096 12.3241 42.6758C12.3385 42.7422 12.3459 42.8098 12.3461 42.8776C12.3469 43.0473 12.3034 43.2145 12.2196 43.3641C12.1357 43.5136 12.0142 43.6408 11.866 43.7341C11.8076 43.7714 11.7456 43.8034 11.6809 43.8294C11.6159 43.8554 11.5482 43.8748 11.4791 43.8876C11.4096 43.901 11.3389 43.9076 11.2681 43.9074V43.9074Z" fill="white"/>
<path d="M6.99537 51.2265C6.73902 51.1063 6.54307 50.8937 6.45061 50.6353C6.35815 50.377 6.37675 50.0941 6.50231 49.8488V49.8488C6.5644 49.7273 6.65093 49.6187 6.75696 49.5292C6.86299 49.4397 6.98644 49.3711 7.12022 49.3273C7.25401 49.2835 7.39552 49.2654 7.53664 49.2739C7.67777 49.2825 7.81574 49.3176 7.94266 49.3772V49.3772C8.06971 49.4366 8.18327 49.5194 8.27683 49.6208C8.3704 49.7222 8.44213 49.8403 8.48793 49.9683C8.53373 50.0962 8.55269 50.2316 8.54373 50.3666C8.53477 50.5015 8.49807 50.6335 8.43572 50.7549C8.34715 50.9282 8.20941 51.0742 8.03825 51.1762C7.86708 51.2781 7.66939 51.332 7.46772 51.3317V51.3317C7.30392 51.3317 7.14231 51.2957 6.99537 51.2265V51.2265ZM8.89643 47.5131C8.76939 47.4537 8.65582 47.371 8.56222 47.2696C8.46862 47.1682 8.39681 47.0502 8.35091 46.9222C8.305 46.7943 8.28589 46.659 8.29467 46.524C8.30345 46.389 8.33995 46.2569 8.40208 46.1354V46.1354C8.46416 46.0139 8.5507 45.9053 8.65673 45.8158C8.76276 45.7263 8.8862 45.6577 9.01999 45.6139C9.15378 45.5701 9.29528 45.552 9.43641 45.5605C9.57753 45.5691 9.71551 45.6042 9.84243 45.6638V45.6638C9.96942 45.7234 10.0829 45.8064 10.1763 45.908C10.2697 46.0096 10.3412 46.1279 10.3868 46.256C10.4323 46.3841 10.451 46.5195 10.4418 46.6545C10.4325 46.7895 10.3955 46.9214 10.3329 47.0428V47.0428C10.2444 47.2158 10.1069 47.3617 9.93597 47.4637C9.76506 47.5657 9.56764 47.6197 9.36619 47.6196C9.20324 47.6195 9.04249 47.5835 8.89643 47.5144V47.5131Z" fill="white"/>
<path d="M5.56958 55.0438C5.28449 55.0429 5.01117 54.9349 4.80864 54.743C4.76 54.695 4.71663 54.6423 4.67923 54.5858C4.63988 54.5299 4.6069 54.4701 4.58088 54.4075C4.55377 54.3456 4.53297 54.2814 4.51876 54.2157C4.50483 54.1493 4.49789 54.0817 4.49805 54.0139C4.49781 53.9466 4.50475 53.8794 4.51876 53.8134C4.53296 53.7473 4.55377 53.6826 4.58088 53.6203C4.60745 53.5579 4.6404 53.4982 4.67923 53.4421C4.71665 53.386 4.76002 53.3337 4.80864 53.2861C4.93417 53.1671 5.08825 53.0792 5.25743 53.0303C5.42662 52.9813 5.60576 52.9727 5.77923 53.0051C5.84851 53.0175 5.9162 53.037 5.98111 53.0633C6.04623 53.0894 6.10863 53.1213 6.16747 53.1586C6.28509 53.2336 6.38621 53.3299 6.46511 53.4421C6.50296 53.4988 6.53585 53.5584 6.56347 53.6203C6.59075 53.6825 6.61114 53.7472 6.62429 53.8134C6.63874 53.8794 6.64611 53.9465 6.64629 54.0139C6.64602 54.0817 6.63865 54.1493 6.62429 54.2157C6.61113 54.2815 6.59074 54.3458 6.56347 54.4075C6.53638 54.4697 6.50346 54.5293 6.46511 54.5858C6.42691 54.6417 6.38361 54.6943 6.3357 54.743C6.13182 54.936 5.85645 55.0441 5.56958 55.0438Z" fill="white"/>
<path d="M43.3241 43.9077C43.2533 43.9074 43.1826 43.9004 43.1132 43.8866C43.0444 43.874 42.9771 43.8545 42.9126 43.8284C42.8474 43.8026 42.7849 43.7707 42.7263 43.7331C42.6676 43.6973 42.613 43.6558 42.5632 43.6094C42.4495 43.5022 42.3624 43.3722 42.308 43.2286C42.2537 43.0851 42.2337 42.9318 42.2493 42.7799C42.2649 42.628 42.3159 42.4814 42.3984 42.3508C42.4809 42.2202 42.5929 42.1088 42.7263 42.025C42.7846 41.9877 42.8466 41.9558 42.9113 41.9297C42.9768 41.9049 43.0443 41.8854 43.1132 41.8715C43.2869 41.8392 43.4661 41.848 43.6355 41.8969C43.8048 41.9459 43.9592 42.0336 44.0851 42.1525C44.1851 42.248 44.2642 42.3616 44.318 42.4867C44.3451 42.5489 44.3655 42.6136 44.3788 42.6798C44.3933 42.7461 44.4006 42.8137 44.4008 42.8815C44.401 43.0508 44.3573 43.2175 44.2738 43.3667C44.1902 43.516 44.0694 43.6431 43.922 43.7369C43.863 43.7739 43.8007 43.8058 43.7357 43.8322C43.6707 43.8583 43.603 43.8778 43.5338 43.8903C43.4647 43.9029 43.3945 43.9087 43.3241 43.9077V43.9077Z" fill="white"/>
<path d="M45.2046 56.4835C45.1757 56.3512 45.1742 56.2147 45.2004 56.0819C45.2266 55.949 45.28 55.8224 45.3574 55.7093C45.4348 55.5962 45.5347 55.4988 45.6515 55.4226C45.7683 55.3465 45.8997 55.2931 46.0381 55.2656V55.2656C46.1763 55.2378 46.3189 55.2364 46.4578 55.2614C46.5966 55.2864 46.7289 55.3373 46.8472 55.4112C46.9654 55.4851 47.0673 55.5806 47.1469 55.6921C47.2266 55.8037 47.2825 55.9292 47.3115 56.0615V56.0615C47.3407 56.1938 47.3423 56.3303 47.3163 56.4632C47.2902 56.5962 47.237 56.7229 47.1598 56.8361C47.0825 56.9494 46.9826 57.0469 46.8658 57.1232C46.7491 57.1995 46.6178 57.253 46.4794 57.2807V57.2807C46.4061 57.2953 46.3316 57.3028 46.2568 57.303V57.303C46.0097 57.3026 45.7703 57.2209 45.5788 57.0717C45.3872 56.9225 45.2551 56.7148 45.2046 56.4835V56.4835ZM44.4709 53.1415C44.4419 53.0091 44.4404 52.8725 44.4666 52.7396C44.4928 52.6067 44.5461 52.48 44.6235 52.3667C44.7009 52.2535 44.8009 52.156 44.9177 52.0797C45.0345 52.0035 45.1659 51.95 45.3043 51.9223V51.9223C45.4426 51.8945 45.5853 51.8932 45.7242 51.9182C45.8631 51.9433 45.9955 51.9943 46.1138 52.0683C46.232 52.1424 46.3339 52.238 46.4135 52.3497C46.4931 52.4614 46.5489 52.5871 46.5777 52.7194V52.7194C46.6363 52.9866 46.5816 53.2652 46.4255 53.4938C46.2695 53.7224 46.0249 53.8824 45.7456 53.9386V53.9386C45.6724 53.9533 45.5978 53.9608 45.523 53.9609V53.9609C45.276 53.9603 45.0368 53.8785 44.8453 53.7294C44.6537 53.5802 44.5216 53.3727 44.4709 53.1415V53.1415ZM43.7371 49.7908C43.7081 49.6584 43.7067 49.5218 43.7329 49.3889C43.759 49.256 43.8124 49.1293 43.8898 49.016C43.9671 48.9028 44.0671 48.8053 44.1839 48.729C44.3007 48.6528 44.4321 48.5992 44.5705 48.5716V48.5716C44.709 48.5438 44.8517 48.5424 44.9907 48.5675C45.1297 48.5925 45.2622 48.6435 45.3805 48.7176C45.4989 48.7916 45.6009 48.8872 45.6806 48.9989C45.7603 49.1106 45.8163 49.2363 45.8452 49.3687V49.3687C45.8742 49.5011 45.8757 49.6377 45.8495 49.7706C45.8233 49.9035 45.77 50.0302 45.6926 50.1434C45.6152 50.2567 45.5152 50.3542 45.3984 50.4305C45.2816 50.5067 45.1503 50.5602 45.0118 50.5879V50.5879C44.939 50.6025 44.8649 50.61 44.7905 50.6102V50.6102C44.543 50.6097 44.3031 50.5278 44.1113 50.3781C43.9195 50.2284 43.7873 50.0202 43.7371 49.7883V49.7908ZM43.0034 46.4413C42.9743 46.3089 42.9729 46.1723 42.9991 46.0394C43.0253 45.9065 43.0786 45.7798 43.156 45.6666C43.2334 45.5533 43.3333 45.4558 43.4501 45.3795C43.567 45.3033 43.6983 45.2498 43.8368 45.2221V45.2221C43.9752 45.1943 44.118 45.193 44.257 45.218C44.3959 45.2431 44.5284 45.2941 44.6468 45.3681C44.7651 45.4421 44.8671 45.5377 44.9468 45.6494C45.0266 45.7612 45.0825 45.8868 45.1115 46.0192V46.0192C45.1405 46.1515 45.1419 46.288 45.1157 46.4209C45.0895 46.5537 45.0362 46.6803 44.9587 46.7935C44.8813 46.9066 44.7814 47.004 44.6646 47.0802C44.5478 47.1563 44.4164 47.2097 44.2781 47.2372V47.2372C44.2053 47.2519 44.1311 47.2594 44.0568 47.2595V47.2595C43.8093 47.2593 43.5695 47.1776 43.3776 47.0281C43.1858 46.8787 43.0536 46.6706 43.0034 46.4388V46.4413Z" fill="white"/>
<path d="M46.9927 60.6594C46.9219 60.6592 46.8512 60.6521 46.7818 60.6384C46.713 60.6258 46.6457 60.6063 46.5812 60.5802C46.4507 60.5284 46.332 60.4527 46.2318 60.3574C46.1318 60.2618 46.0526 60.1483 45.9988 60.0232C45.9717 59.9609 45.9509 59.8962 45.9367 59.8301C45.9227 59.7641 45.9158 59.6969 45.916 59.6296C45.9158 59.5618 45.9227 59.4943 45.9367 59.4278C45.9511 59.3618 45.9719 59.2971 45.9988 59.2347C46.0252 59.1726 46.0581 59.1133 46.0972 59.0577C46.1746 58.9441 46.276 58.8471 46.3948 58.773C46.4535 58.7355 46.5159 58.7036 46.5812 58.6777C46.6462 58.6528 46.7133 58.6333 46.7818 58.6196C46.921 58.5923 47.0645 58.5923 47.2037 58.6196C47.2722 58.6333 47.3393 58.6528 47.4043 58.6777C47.4694 58.7038 47.5318 58.7357 47.5906 58.773C47.649 58.8092 47.7036 58.8506 47.7537 58.8968C47.8016 58.9455 47.8449 58.9981 47.8831 59.054C47.9217 59.1099 47.9546 59.1692 47.9814 59.231C48.0084 59.2934 48.0292 59.3581 48.0436 59.4241C48.0569 59.4906 48.0638 59.5582 48.0643 59.6259C48.0638 59.6932 48.0569 59.7603 48.0436 59.8264C48.0153 59.9588 47.9608 60.0849 47.8831 60.1977C47.8449 60.2537 47.8016 60.3063 47.7537 60.3549C47.7036 60.4011 47.649 60.4426 47.5906 60.4787C47.5318 60.516 47.4694 60.548 47.4043 60.574C47.3397 60.6001 47.2725 60.6196 47.2037 60.6322C47.1345 60.648 47.0638 60.6572 46.9927 60.6594V60.6594Z" fill="white"/>
<path d="M32.3211 43.9072C32.2507 43.907 32.1805 43.9 32.1115 43.8862C32.0422 43.8737 31.9745 43.8542 31.9096 43.828C31.8445 43.8019 31.7821 43.77 31.7233 43.7327C31.5907 43.6482 31.4795 43.5366 31.3975 43.406C31.3155 43.2754 31.2649 43.129 31.2493 42.9774C31.2337 42.8258 31.2535 42.6728 31.3073 42.5294C31.361 42.386 31.4474 42.2558 31.5602 42.1483C31.61 42.1018 31.6646 42.0603 31.7233 42.0245C31.7821 41.9872 31.8445 41.9553 31.9096 41.9292C31.975 41.9041 32.0425 41.8846 32.1115 41.871C32.2502 41.8438 32.3933 41.8438 32.5321 41.871C32.6006 41.8848 32.6677 41.9042 32.7327 41.9292C32.7979 41.955 32.8603 41.9869 32.919 42.0245C32.9777 42.0603 33.0323 42.1018 33.0821 42.1483C33.2323 42.2925 33.3346 42.476 33.3759 42.6756C33.4173 42.8753 33.396 43.0823 33.3146 43.2703C33.2332 43.4584 33.0955 43.6193 32.9187 43.7326C32.7419 43.846 32.534 43.9067 32.3211 43.9072V43.9072Z" fill="white"/>
<path d="M32.2623 59.1807C32.1209 59.1802 31.981 59.1531 31.8505 59.1009C31.7201 59.0486 31.6017 58.9724 31.5021 58.8764C31.4025 58.7804 31.3236 58.6666 31.2699 58.5415C31.2163 58.4164 31.1889 58.2823 31.1895 58.1471V58.1471C31.19 58.0119 31.2183 57.878 31.2729 57.7533C31.3275 57.6285 31.4072 57.5153 31.5076 57.42C31.6079 57.3247 31.7269 57.2492 31.8577 57.1979C31.9885 57.1466 32.1287 57.1205 32.27 57.121V57.121C32.5555 57.1223 32.8288 57.2318 33.0299 57.4256C33.231 57.6194 33.3436 57.8815 33.3429 58.1545V58.1545C33.3418 58.427 33.228 58.688 33.0261 58.8803C32.8243 59.0727 32.5511 59.1807 32.2662 59.1807V59.1807H32.2623ZM32.2765 55.3621C32.1351 55.3617 31.9951 55.3347 31.8646 55.2826C31.7341 55.2304 31.6156 55.1542 31.5159 55.0582C31.4163 54.9622 31.3374 54.8483 31.2838 54.7231C31.2302 54.5979 31.203 54.4638 31.2037 54.3285C31.204 54.1933 31.2322 54.0595 31.2867 53.9348C31.3411 53.81 31.4207 53.6968 31.521 53.6015C31.6212 53.5062 31.7401 53.4307 31.8709 53.3794C32.0016 53.3281 32.1417 53.3019 32.283 53.3024V53.3024C32.4244 53.3027 32.5644 53.3297 32.6949 53.3819C32.8254 53.434 32.9439 53.5103 33.0436 53.6063C33.1432 53.7023 33.2221 53.8161 33.2757 53.9414C33.3293 54.0666 33.3565 54.2006 33.3558 54.3359V54.3359C33.3551 54.6083 33.2415 54.8693 33.0399 55.0617C32.8383 55.254 32.5652 55.3621 32.2804 55.3621H32.2765ZM32.2895 51.5435C32.004 51.5422 31.7307 51.4326 31.5296 51.2388C31.3285 51.0451 31.2159 50.7829 31.2166 50.5099V50.5099C31.217 50.3746 31.2452 50.2407 31.2997 50.1159C31.3543 49.9911 31.434 49.8777 31.5344 49.7824C31.6347 49.6871 31.7538 49.6117 31.8847 49.5604C32.0156 49.5092 32.1558 49.4831 32.2972 49.4838C32.4387 49.4841 32.5787 49.5111 32.7092 49.5633C32.8397 49.6154 32.9582 49.6917 33.0578 49.7877C33.1575 49.8837 33.2363 49.9975 33.2899 50.1228C33.3435 50.248 33.3707 50.382 33.37 50.5173C33.369 50.7898 33.2551 51.0508 33.0533 51.2431C32.8515 51.4355 32.5782 51.5435 32.2933 51.5435V51.5435H32.2895ZM32.3037 47.7249C32.1623 47.7245 32.0223 47.6975 31.8917 47.6454C31.7612 47.5932 31.6428 47.517 31.5431 47.421C31.4434 47.325 31.3646 47.2111 31.311 47.0859C31.2574 46.9607 31.2302 46.8266 31.2309 46.6913C31.2312 46.556 31.2594 46.4221 31.314 46.2973C31.3685 46.1725 31.4482 46.0591 31.5486 45.9638C31.649 45.8685 31.768 45.7931 31.8989 45.7418C32.0298 45.6906 32.17 45.6645 32.3115 45.6652C32.4529 45.6657 32.5928 45.6928 32.7232 45.745C32.8536 45.7972 32.972 45.8735 33.0717 45.9694C33.1713 46.0654 33.2502 46.1792 33.3038 46.3043C33.3574 46.4295 33.3848 46.5635 33.3843 46.6987V46.6987C33.3829 46.9711 33.2689 47.2319 33.0672 47.4242C32.8654 47.6164 32.5924 47.7245 32.3076 47.7249H32.3037Z" fill="white"/>
<path d="M32.2525 63C32.1817 63.0002 32.111 62.9936 32.0415 62.9802C31.9727 62.9663 31.9051 62.9468 31.8397 62.922C31.775 62.8959 31.713 62.864 31.6546 62.8267C31.5358 62.7526 31.4344 62.6557 31.357 62.542C31.318 62.4862 31.2846 62.4269 31.2573 62.365C31.2314 62.3024 31.211 62.2378 31.1965 62.1719C31.1825 62.1055 31.1756 62.0379 31.1758 61.9702C31.1755 61.9028 31.1825 61.8356 31.1965 61.7696C31.2109 61.7037 31.2312 61.6391 31.2573 61.5765C31.2846 61.5143 31.3179 61.4546 31.357 61.3983C31.4349 61.2853 31.5362 61.1889 31.6546 61.1148C31.713 61.0775 31.775 61.0456 31.8397 61.0195C31.9047 60.9936 31.9724 60.9741 32.0415 60.9614C32.1803 60.9341 32.3234 60.9341 32.4621 60.9614C32.5314 60.9739 32.599 60.9934 32.664 61.0195C32.729 61.0459 32.7914 61.0778 32.8504 61.1148C32.968 61.1894 33.0688 61.2858 33.1467 61.3983C33.1857 61.4546 33.2191 61.5143 33.2464 61.5765C33.2737 61.6387 33.294 61.7034 33.3072 61.7696C33.3216 61.8356 33.329 61.9028 33.3292 61.9702C33.329 62.0379 33.3216 62.1055 33.3072 62.1719C33.2938 62.2381 33.2735 62.3028 33.2464 62.365C33.2191 62.4269 33.1857 62.4862 33.1467 62.542C33.0693 62.6553 32.9685 62.7522 32.8504 62.8267C32.7914 62.8638 32.729 62.8957 32.664 62.922C32.5986 62.947 32.5311 62.9665 32.4621 62.9802C32.3931 62.9936 32.3229 63.0002 32.2525 63V63Z" fill="white"/>
<path d="M21.3169 21.1546C21.2465 21.1544 21.1763 21.1473 21.1073 21.1336C21.0381 21.121 20.9704 21.1015 20.9054 21.0754C20.8407 21.0493 20.7787 21.0174 20.7203 20.9801C20.6019 20.9061 20.5006 20.8096 20.4227 20.6966C20.384 20.6402 20.3506 20.5806 20.3231 20.5184C20.2958 20.4562 20.2754 20.3915 20.2622 20.3253C20.2478 20.2594 20.2404 20.1922 20.2402 20.1248C20.2411 19.8515 20.3545 19.5895 20.556 19.3957C20.6062 19.3492 20.6613 19.3077 20.7203 19.2719C20.7787 19.2346 20.8407 19.2027 20.9054 19.1766C20.9708 19.1517 21.0384 19.1322 21.1073 19.1185C21.246 19.0912 21.3891 19.0912 21.5279 19.1185C21.5968 19.1322 21.6644 19.1517 21.7298 19.1766C21.7945 19.2027 21.8564 19.2346 21.9148 19.2719C21.9739 19.3077 22.0289 19.3492 22.0792 19.3957C22.1275 19.444 22.1708 19.4967 22.2086 19.5529C22.2479 19.6091 22.2812 19.6688 22.3082 19.7312C22.3343 19.7933 22.3547 19.8575 22.3691 19.923C22.383 19.9894 22.39 20.057 22.3898 20.1248C22.39 20.1921 22.3831 20.2593 22.3691 20.3253C22.3547 20.3912 22.3343 20.4559 22.3082 20.5184C22.2807 20.5806 22.2473 20.6402 22.2086 20.6966C22.1105 20.8378 21.9773 20.9535 21.8211 21.0334C21.6648 21.1133 21.4903 21.155 21.3131 21.1546H21.3169Z" fill="white"/>
<path d="M19.5298 16.9854C19.5008 16.853 19.4993 16.7164 19.5255 16.5835C19.5517 16.4505 19.605 16.3238 19.6824 16.2106C19.7598 16.0974 19.8598 15.9999 19.9766 15.9236C20.0934 15.8473 20.2247 15.7938 20.3632 15.7661V15.7661C20.5016 15.7382 20.6444 15.7367 20.7835 15.7617C20.9225 15.7867 21.0551 15.8376 21.1735 15.9117C21.2919 15.9857 21.3939 16.0814 21.4736 16.1932C21.5532 16.305 21.6091 16.4308 21.6379 16.5633V16.5633C21.6669 16.6956 21.6683 16.8321 21.6421 16.9649C21.6159 17.0978 21.5626 17.2244 21.4852 17.3375C21.4078 17.4506 21.3078 17.5481 21.191 17.6242C21.0742 17.7003 20.9429 17.7537 20.8045 17.7813C20.7318 17.7966 20.6576 17.8041 20.5832 17.8035C20.3362 17.803 20.0969 17.7215 19.9052 17.5726C19.7135 17.4237 19.581 17.2164 19.5298 16.9854V16.9854ZM18.796 13.6346C18.7378 13.3673 18.7928 13.0888 18.9491 12.8602C19.1053 12.6316 19.35 12.4716 19.6294 12.4154V12.4154C19.7678 12.3877 19.9106 12.3863 20.0496 12.4113C20.1886 12.4364 20.321 12.4874 20.4394 12.5614C20.5578 12.6354 20.6598 12.731 20.7395 12.8428C20.8192 12.9545 20.8752 13.0801 20.9041 13.2126V13.2126C20.9331 13.345 20.9346 13.4815 20.9084 13.6145C20.8822 13.7474 20.8289 13.8741 20.7515 13.9873C20.6741 14.1005 20.5741 14.1981 20.4573 14.2743C20.3405 14.3506 20.2091 14.4041 20.0707 14.4318V14.4318C19.9979 14.4465 19.9238 14.4539 19.8494 14.4541V14.4541C19.6023 14.4532 19.363 14.3715 19.1713 14.2224C18.9797 14.0733 18.8472 13.8658 18.796 13.6346V13.6346ZM18.0635 10.2839C18.0049 10.0167 18.0597 9.73817 18.2157 9.50954C18.3717 9.28091 18.6163 9.12091 18.8956 9.0647V9.0647C19.175 9.00938 19.4659 9.06222 19.7045 9.21163C19.9432 9.36105 20.1103 9.59486 20.1691 9.86184V9.86184C20.1981 9.99424 20.1995 10.1308 20.1733 10.2637C20.1471 10.3967 20.0938 10.5234 20.0164 10.6366C19.939 10.7498 19.8391 10.8473 19.7223 10.9236C19.6055 10.9999 19.4741 11.0534 19.3356 11.0811V11.0811C19.2629 11.0958 19.1887 11.1033 19.1144 11.1033V11.1033C18.8675 11.1027 18.6285 11.0209 18.4372 10.8717C18.2459 10.7225 18.114 10.515 18.0635 10.2839ZM17.3298 6.93445C17.3006 6.80204 17.299 6.66543 17.3251 6.53244C17.3512 6.39944 17.4045 6.27268 17.482 6.15942C17.5594 6.04616 17.6594 5.94863 17.7763 5.8724C17.8932 5.79618 18.0247 5.74277 18.1632 5.71523V5.71523C18.3015 5.6875 18.4442 5.68613 18.5831 5.71119C18.722 5.73626 18.8544 5.78726 18.9727 5.8613C19.0909 5.93534 19.1928 6.03095 19.2724 6.14266C19.352 6.25438 19.4078 6.38001 19.4366 6.51237C19.4952 6.77958 19.4405 7.05812 19.2844 7.28675C19.1284 7.51538 18.8838 7.67539 18.6045 7.7316V7.7316C18.5312 7.74589 18.4566 7.75294 18.3819 7.75264C18.135 7.75229 17.8958 7.67081 17.7042 7.52186C17.5127 7.37291 17.3805 7.16553 17.3298 6.93445V6.93445Z" fill="white"/>
<path d="M17.6492 4.40395C17.5787 4.40378 17.5085 4.39672 17.4395 4.38291C17.3703 4.37033 17.3026 4.35083 17.2376 4.32473C17.1726 4.29838 17.1103 4.26648 17.0513 4.22942C16.9039 4.13549 16.7831 4.00822 16.6996 3.85891C16.616 3.70959 16.5723 3.54285 16.5723 3.37348C16.5723 3.20412 16.616 3.03738 16.6996 2.88806C16.7831 2.73875 16.9039 2.61147 17.0513 2.51755C17.1103 2.48048 17.1726 2.44859 17.2376 2.42224C17.303 2.39727 17.3706 2.3778 17.4395 2.36406C17.5783 2.33682 17.7214 2.33682 17.8601 2.36406C17.9286 2.3778 17.9957 2.39727 18.0607 2.42224C18.1259 2.44806 18.1884 2.47998 18.247 2.51755C18.3659 2.59162 18.4673 2.68858 18.5447 2.80224C18.584 2.85837 18.6173 2.91808 18.6443 2.98048C18.6704 3.04261 18.6908 3.10681 18.7052 3.17234C18.7192 3.23876 18.7261 3.30635 18.7259 3.3741C18.7261 3.44144 18.7192 3.50863 18.7052 3.57463C18.6908 3.64056 18.6704 3.70517 18.6443 3.76772C18.6171 3.82961 18.5837 3.88888 18.5447 3.94473C18.5073 4.0012 18.4639 4.05387 18.4153 4.10193C18.3648 4.14814 18.3097 4.18959 18.2509 4.22571C18.1922 4.26327 18.1298 4.2952 18.0646 4.32102C18 4.34711 17.9328 4.36661 17.864 4.37919C17.7934 4.39442 17.7215 4.40272 17.6492 4.40395Z" fill="white"/>
<path d="M54.3326 21.1544C54.2621 21.1543 54.1919 21.1472 54.1229 21.1334C54.0537 21.1208 53.986 21.1013 53.921 21.0752C53.856 21.0489 53.7937 21.017 53.7347 20.9799C53.617 20.9054 53.5163 20.809 53.4383 20.6965C53.3996 20.64 53.3662 20.5804 53.3387 20.5182C53.3114 20.4561 53.291 20.3913 53.2779 20.3251C53.2634 20.2592 53.256 20.192 53.2559 20.1246C53.2555 19.9551 53.299 19.7882 53.3826 19.6387C53.4662 19.4892 53.5871 19.3619 53.7347 19.268C53.7934 19.2309 53.8558 19.1994 53.921 19.174C53.9862 19.148 54.0538 19.1281 54.1229 19.1146C54.2617 19.0873 54.4048 19.0873 54.5435 19.1146C54.6126 19.1283 54.6802 19.1482 54.7454 19.174C54.8103 19.1991 54.8723 19.2307 54.9304 19.268C55.0787 19.3612 55.2001 19.4884 55.2838 19.6381C55.3674 19.7877 55.4105 19.9549 55.4093 20.1246C55.4095 20.1919 55.4026 20.2591 55.3886 20.3251C55.3742 20.391 55.3538 20.4557 55.3277 20.5182C55.3002 20.5804 55.2668 20.64 55.2281 20.6965C55.1502 20.8094 55.0489 20.9059 54.9304 20.9799C54.8721 21.0172 54.8101 21.0491 54.7454 21.0752C54.6803 21.1011 54.6127 21.1206 54.5435 21.1334C54.4741 21.1471 54.4034 21.1542 54.3326 21.1544V21.1544Z" fill="white"/>
<path d="M55.7562 17.3365C55.6291 17.2771 55.5156 17.1943 55.422 17.093C55.3284 16.9916 55.2566 16.8735 55.2107 16.7456C55.1647 16.6177 55.1456 16.4824 55.1544 16.3474C55.1632 16.2124 55.1997 16.0803 55.2618 15.9588V15.9588C55.3239 15.8373 55.4105 15.7287 55.5165 15.6392C55.6225 15.5496 55.7459 15.481 55.8796 15.4371C56.0134 15.3932 56.1548 15.3749 56.296 15.3833C56.4371 15.3917 56.5751 15.4266 56.7022 15.486V15.486C56.8292 15.5454 56.9428 15.6282 57.0364 15.7295C57.13 15.8309 57.2018 15.949 57.2477 16.0769C57.2936 16.2048 57.3127 16.3402 57.3039 16.4751C57.2952 16.6101 57.2587 16.7422 57.1965 16.8637C57.1079 17.037 56.9702 17.1831 56.7991 17.2853C56.6279 17.3874 56.4303 17.4416 56.2285 17.4417V17.4417C56.0648 17.4414 55.9032 17.4054 55.7562 17.3365V17.3365ZM57.6559 13.6231C57.5289 13.5637 57.4153 13.481 57.3217 13.3796C57.2281 13.2782 57.1563 13.1602 57.1104 13.0322C57.0645 12.9043 57.0454 12.769 57.0542 12.634C57.063 12.499 57.0995 12.367 57.1616 12.2454V12.2454C57.2875 12.0002 57.5101 11.8127 57.7804 11.7243C58.0507 11.6359 58.3467 11.6537 58.6032 11.7739V11.7739C58.7303 11.8333 58.8438 11.916 58.9374 12.0174C59.031 12.1188 59.1029 12.2368 59.1488 12.3647C59.1947 12.4927 59.2138 12.628 59.205 12.763C59.1962 12.898 59.1597 13.03 59.0976 13.1515V13.1515C59.0089 13.3247 58.8711 13.4706 58.7 13.5726C58.5289 13.6746 58.3312 13.7285 58.1296 13.7283V13.7283C57.9644 13.7292 57.8014 13.6932 57.6534 13.6231H57.6559Z" fill="white"/>
<path d="M60.0279 10.0164C59.8509 10.0158 59.6767 9.97372 59.5206 9.89388C59.3645 9.81405 59.2312 9.69889 59.1324 9.55844C59.0933 9.50241 59.0603 9.44268 59.034 9.38019C59.0069 9.3183 58.9861 9.25405 58.9719 9.18834C58.9579 9.12191 58.951 9.05432 58.9512 8.98658C58.9518 8.81727 58.9958 8.65069 59.0793 8.50138C59.1628 8.35207 59.2832 8.22457 59.43 8.13002C59.4887 8.09285 59.5511 8.06134 59.6164 8.03595C59.6811 8.01002 59.7482 7.99012 59.8169 7.97653C59.9563 7.95053 60.0995 7.95053 60.2388 7.97653C60.3075 7.99012 60.3747 8.01002 60.4394 8.03595C60.5045 8.0616 60.5669 8.0931 60.6258 8.13002C60.7583 8.21448 60.8696 8.32605 60.9515 8.45666C61.0335 8.58727 61.0841 8.73366 61.0997 8.88526C61.1153 9.03686 61.0955 9.18988 61.0418 9.33327C60.988 9.47666 60.9016 9.60684 60.7888 9.7144C60.7391 9.7609 60.6844 9.80238 60.6258 9.83818C60.5672 9.87557 60.5047 9.90709 60.4394 9.93225C60.3747 9.95818 60.3075 9.97808 60.2388 9.99167C60.1696 10.0067 60.0989 10.015 60.0279 10.0164V10.0164Z" fill="white"/>
<path d="M11.2681 21.1553C11.1977 21.1551 11.1274 21.1481 11.0585 21.1343C10.9893 21.1217 10.9216 21.1022 10.8566 21.0761C10.7919 21.05 10.7299 21.0181 10.6715 20.9808C10.6125 20.945 10.5574 20.9035 10.5072 20.857C10.4589 20.8091 10.4156 20.7569 10.3778 20.701C10.3388 20.6447 10.3054 20.5851 10.2781 20.5228C10.2509 20.4606 10.2305 20.3959 10.2173 20.3297C10.2029 20.2637 10.1955 20.1965 10.1953 20.1292C10.196 19.8562 10.3095 19.5945 10.5111 19.4013C10.5608 19.3548 10.6155 19.3134 10.6741 19.2776C10.7331 19.2405 10.7955 19.2086 10.8605 19.1822C10.9259 19.1573 10.9934 19.1378 11.0624 19.1241C11.2011 19.0968 11.3442 19.0968 11.483 19.1241C11.5518 19.138 11.6194 19.1574 11.6848 19.1822C11.7495 19.2083 11.8115 19.2403 11.8699 19.2776C11.929 19.3133 11.984 19.3548 12.0343 19.4013C12.2359 19.5945 12.3494 19.8562 12.35 20.1292C12.3498 20.1965 12.3425 20.2637 12.328 20.3297C12.3137 20.3956 12.2933 20.4602 12.2672 20.5228C12.2399 20.5851 12.2066 20.6447 12.1675 20.701C12.0886 20.8132 11.9875 20.9095 11.8699 20.9845C11.8115 21.0218 11.7495 21.0537 11.6848 21.0798C11.6198 21.1057 11.5521 21.1252 11.483 21.138C11.4122 21.1508 11.3402 21.1566 11.2681 21.1553Z" fill="white"/>
<path d="M8.40352 16.8636C8.34139 16.7421 8.30489 16.6101 8.29611 16.4751C8.28734 16.3401 8.30644 16.2047 8.35235 16.0768C8.39826 15.9489 8.47006 15.8309 8.56366 15.7295C8.65726 15.6281 8.77083 15.5453 8.89787 15.4859V15.4859C9.15397 15.3667 9.44903 15.3496 9.71833 15.4382C9.98763 15.5269 10.2092 15.7141 10.3343 15.9588V15.9588C10.4599 16.204 10.4785 16.4869 10.386 16.7452C10.2936 17.0036 10.0976 17.2162 9.84128 17.3364V17.3364C9.69417 17.4052 9.53267 17.4412 9.36893 17.4416V17.4416C9.1676 17.4413 8.97042 17.3869 8.79977 17.2847C8.62912 17.1825 8.49184 17.0366 8.40352 16.8636V16.8636ZM6.50375 13.1502C6.3786 12.9051 6.36022 12.6225 6.45266 12.3645C6.5451 12.1064 6.7408 11.894 6.99681 11.7738V11.7738C7.25321 11.6537 7.54897 11.6359 7.81908 11.7243C8.08918 11.8128 8.3115 12.0002 8.43716 12.2454V12.2454C8.49951 12.3668 8.53622 12.4987 8.54517 12.6337C8.55413 12.7687 8.53517 12.9041 8.48937 13.032C8.44357 13.16 8.37184 13.2781 8.27828 13.3795C8.18471 13.4809 8.07115 13.5637 7.94411 13.623V13.623C7.79716 13.6923 7.63555 13.7283 7.47175 13.7283V13.7283C7.27009 13.7286 7.07239 13.6747 6.90123 13.5727C6.73006 13.4707 6.59233 13.3247 6.50375 13.1514V13.1502Z" fill="white"/>
<path d="M5.56888 10.0156C5.28349 10.015 5.00994 9.90642 4.80794 9.71358C4.75932 9.66598 4.71595 9.61372 4.67853 9.55762C4.63944 9.50159 4.60648 9.44186 4.58017 9.37938C4.54997 9.31779 4.52613 9.25354 4.509 9.18752C4.49506 9.1211 4.48813 9.0535 4.48829 8.98576C4.48751 8.8162 4.53066 8.6491 4.6139 8.49939C4.69714 8.34968 4.81787 8.22204 4.96529 8.12787C5.11272 8.03371 5.28224 7.97595 5.45871 7.95976C5.63517 7.94358 5.81308 7.96947 5.97653 8.03513C6.04162 8.06078 6.10401 8.09228 6.16288 8.1292C6.30972 8.22376 6.43013 8.35125 6.51359 8.50056C6.59705 8.64987 6.64104 8.81645 6.6417 8.98576C6.64143 9.05354 6.63406 9.12114 6.6197 9.18752C6.60655 9.25334 6.58616 9.31765 6.55888 9.37938C6.53154 9.4414 6.49863 9.50103 6.46053 9.55762C6.42234 9.6132 6.37903 9.66539 6.33112 9.71358C6.28103 9.75974 6.22643 9.80119 6.16806 9.83736C6.10919 9.87428 6.04679 9.90578 5.9817 9.93143C5.91662 9.95754 5.84899 9.97744 5.77982 9.99085C5.71047 10.0054 5.63985 10.0136 5.56888 10.0156Z" fill="white"/>
<path d="M43.3248 21.1544C43.2539 21.1542 43.1832 21.1471 43.1138 21.1334C43.045 21.1208 42.9778 21.1013 42.9132 21.0752C42.848 21.0494 42.7856 21.0175 42.7269 20.9799C42.6093 20.9049 42.5081 20.8086 42.4292 20.6965C42.3905 20.64 42.3571 20.5804 42.3296 20.5182C42.3035 20.4557 42.2831 20.391 42.2688 20.3251C42.2547 20.2591 42.2478 20.1919 42.2481 20.1246C42.2478 20.0568 42.2548 19.9892 42.2688 19.9228C42.2831 19.8573 42.3035 19.7931 42.3296 19.731C42.3566 19.6686 42.39 19.6089 42.4292 19.5527C42.5067 19.4391 42.608 19.3421 42.7269 19.268C42.7856 19.2305 42.848 19.1985 42.9132 19.1727C42.9782 19.1478 43.0453 19.1283 43.1138 19.1146C43.2526 19.0873 43.3957 19.0873 43.5344 19.1146C43.6033 19.1283 43.6709 19.1478 43.7363 19.1727C43.8013 19.1991 43.8636 19.231 43.9226 19.268C43.981 19.3042 44.0357 19.3456 44.0857 19.3918C44.1336 19.4405 44.1769 19.4931 44.2151 19.549C44.254 19.6052 44.2869 19.6649 44.3135 19.7273C44.3407 19.789 44.3611 19.8533 44.3743 19.9191C44.3887 19.9855 44.3961 20.0531 44.3963 20.1209C44.3961 20.1883 44.3887 20.2554 44.3743 20.3214C44.3611 20.3876 44.3408 20.4523 44.3135 20.5145C44.2605 20.6399 44.1812 20.7537 44.0805 20.8487C44.0305 20.8949 43.9759 20.9363 43.9175 20.9725C43.8585 21.0095 43.7961 21.0414 43.7311 21.0678C43.6661 21.0939 43.5985 21.1134 43.5292 21.126C43.4622 21.142 43.3937 21.1515 43.3248 21.1544Z" fill="white"/>
<path d="M43.8368 17.7813C43.6983 17.7536 43.567 17.7001 43.4501 17.6238C43.3333 17.5475 43.2334 17.45 43.156 17.3368C43.0786 17.2236 43.0253 17.0969 42.9991 16.9639C42.9729 16.831 42.9743 16.6944 43.0034 16.562V16.562C43.0621 16.2949 43.2294 16.0609 43.4684 15.9117C43.7075 15.7624 43.9987 15.7101 44.2781 15.7661C44.4165 15.7938 44.5479 15.8473 44.6647 15.9236C44.7815 15.9999 44.8814 16.0974 44.9588 16.2106C45.0362 16.3238 45.0895 16.4505 45.1157 16.5835C45.1419 16.7164 45.1405 16.853 45.1115 16.9854V16.9854C45.0607 17.2166 44.9283 17.4242 44.7365 17.5732C44.5447 17.7221 44.3051 17.8035 44.0581 17.8036V17.8036C43.9837 17.8034 43.9095 17.7959 43.8368 17.7813ZM44.5705 14.4318C44.4321 14.4041 44.3007 14.3506 44.1839 14.2743C44.0671 14.1981 43.9671 14.1005 43.8898 13.9873C43.8124 13.8741 43.759 13.7474 43.7329 13.6145C43.7067 13.4815 43.7081 13.345 43.7371 13.2126V13.2126C43.7663 13.08 43.8226 12.9542 43.9027 12.8425C43.9828 12.7308 44.0852 12.6353 44.204 12.5615C44.3228 12.4876 44.4556 12.437 44.5949 12.4123C44.7342 12.3877 44.8772 12.3896 45.0157 12.4179V12.4179C45.1541 12.4456 45.2855 12.4991 45.4023 12.5754C45.5191 12.6516 45.6191 12.7492 45.6965 12.8624C45.7739 12.9756 45.8272 13.1023 45.8534 13.2352C45.8796 13.3682 45.8781 13.5047 45.8491 13.6371V13.6371C45.7984 13.8685 45.666 14.0762 45.4742 14.2254C45.2825 14.3746 45.0429 14.4562 44.7957 14.4566V14.4566C44.7199 14.4559 44.6445 14.4476 44.5705 14.4318V14.4318ZM45.3043 11.0811C45.1659 11.0534 45.0345 10.9999 44.9177 10.9236C44.8009 10.8474 44.7009 10.7498 44.6235 10.6366C44.5461 10.5234 44.4928 10.3967 44.4666 10.2638C44.4404 10.1308 44.4419 9.99426 44.4709 9.86186V9.86186C44.5297 9.59461 44.6969 9.36059 44.9359 9.21114C45.1749 9.0617 45.4661 9.00904 45.7456 9.06472V9.06472C46.0249 9.12093 46.2695 9.28093 46.4255 9.50956C46.5816 9.73819 46.6363 10.0167 46.5777 10.2839V10.2839C46.5272 10.5152 46.3951 10.7229 46.2036 10.8721C46.012 11.0213 45.7726 11.103 45.5256 11.1034V11.1034C45.4512 11.1032 45.3771 11.0958 45.3043 11.0811V11.0811ZM46.0381 7.73161C45.8996 7.70392 45.7683 7.65042 45.6514 7.57415C45.5346 7.49789 45.4347 7.40036 45.3573 7.28714C45.2799 7.17392 45.2266 7.04722 45.2004 6.91429C45.1742 6.78135 45.1756 6.64479 45.2046 6.51239V6.51239C45.2336 6.37998 45.2895 6.25432 45.3693 6.1426C45.449 6.03087 45.551 5.93527 45.6693 5.86124C45.7877 5.78722 45.9202 5.73622 46.0592 5.71117C46.1981 5.68612 46.3409 5.68751 46.4794 5.71525V5.71525C46.6178 5.74293 46.7491 5.79644 46.8658 5.87272C46.9826 5.94901 47.0825 6.04656 47.1598 6.15981C47.237 6.27305 47.2902 6.39977 47.3163 6.53269C47.3423 6.66562 47.3407 6.80215 47.3115 6.93447V6.93447C47.2607 7.16555 47.1285 7.37293 46.937 7.52188C46.7454 7.67083 46.5062 7.75231 46.2594 7.75266V7.75266C46.185 7.75301 46.1109 7.74596 46.0381 7.73161V7.73161Z" fill="white"/>
<path d="M46.9915 4.40395C46.9206 4.40369 46.8499 4.39664 46.7805 4.38291C46.7117 4.37032 46.6445 4.35082 46.5799 4.32473C46.4494 4.27289 46.3307 4.19721 46.2305 4.10193C46.1816 4.05415 46.1382 4.00144 46.1011 3.94473C46.062 3.88913 46.0291 3.82981 46.0028 3.76772C45.9756 3.7054 45.9548 3.64074 45.9406 3.57463C45.9266 3.50863 45.9197 3.44144 45.9199 3.3741C45.9197 3.30635 45.9266 3.23876 45.9406 3.17234C45.955 3.10627 45.9758 3.04162 46.0028 2.97925C46.0291 2.91715 46.062 2.85784 46.1011 2.80224C46.1785 2.68858 46.2799 2.59161 46.3988 2.51755C46.4574 2.47998 46.5199 2.44806 46.5851 2.42224C46.6501 2.39727 46.7172 2.3778 46.7857 2.36406C46.9249 2.33682 47.0684 2.33682 47.2076 2.36406C47.2761 2.3778 47.3432 2.39727 47.4082 2.42224C47.4733 2.44832 47.5357 2.48023 47.5945 2.51755C47.6529 2.55368 47.7075 2.59513 47.7576 2.64133C47.8055 2.68997 47.8488 2.74257 47.887 2.79853C47.9256 2.8544 47.9585 2.91367 47.9853 2.97553C48.0123 3.03791 48.0331 3.10256 48.0475 3.16863C48.0608 3.23513 48.0677 3.30267 48.0682 3.37039C48.0677 3.4377 48.0608 3.50483 48.0475 3.57091C48.0055 3.77063 47.9029 3.95405 47.7524 4.09821C47.7023 4.14441 47.6477 4.18586 47.5893 4.22199C47.5305 4.25931 47.4681 4.29122 47.403 4.3173C47.3385 4.34339 47.2712 4.36289 47.2024 4.37548C47.1333 4.39171 47.0626 4.40125 46.9915 4.40395V4.40395Z" fill="white"/>
<path d="M32.3209 21.1543C32.2504 21.1541 32.1802 21.1471 32.1112 21.1333C32.0419 21.1209 31.9742 21.1013 31.9093 21.0751C31.8442 21.049 31.7818 21.0171 31.723 20.9798C31.6646 20.9436 31.61 20.9022 31.5599 20.856C31.4592 20.761 31.3799 20.6472 31.327 20.5218C31.2999 20.4595 31.2791 20.3948 31.2648 20.3287C31.2515 20.2626 31.2446 20.1955 31.2441 20.1282C31.2448 19.8552 31.3583 19.5936 31.5599 19.4003C31.6094 19.3536 31.6641 19.3121 31.723 19.2766C31.7815 19.2392 31.844 19.2077 31.9093 19.1825C31.9744 19.1564 32.042 19.1365 32.1112 19.1231C32.2673 19.0937 32.4283 19.0977 32.5825 19.1348C32.7368 19.1719 32.8806 19.2412 33.0036 19.3378C33.1265 19.4343 33.2256 19.5557 33.2937 19.6932C33.3619 19.8307 33.3973 19.981 33.3976 20.1331C33.3978 20.2005 33.3909 20.2676 33.3769 20.3336C33.3626 20.3998 33.3418 20.4644 33.3147 20.5267C33.2882 20.5891 33.2552 20.6488 33.2164 20.705C33.179 20.7611 33.1356 20.8133 33.087 20.8609C32.8821 21.0516 32.6067 21.157 32.3209 21.1543Z" fill="white"/>
<path d="M31.2309 16.3078C31.2304 16.1727 31.2577 16.0387 31.3114 15.9136C31.365 15.7886 31.4439 15.6749 31.5436 15.579C31.6432 15.4831 31.7616 15.4069 31.892 15.3549C32.0225 15.3028 32.1624 15.2758 32.3037 15.2755V15.2755C32.4451 15.275 32.5852 15.3012 32.716 15.3525C32.8469 15.4038 32.9658 15.4792 33.0662 15.5745C33.1665 15.6698 33.2463 15.7831 33.3008 15.9078C33.3554 16.0326 33.3838 16.1664 33.3843 16.3016C33.385 16.5747 33.2724 16.8368 33.0713 17.0306C32.8702 17.2243 32.5969 17.3339 32.3115 17.3352V17.3352C32.17 17.3357 32.0297 17.3095 31.8988 17.2581C31.7679 17.2067 31.6489 17.1312 31.5485 17.0358C31.4482 16.9403 31.3684 16.8269 31.3139 16.702C31.2594 16.5771 31.2312 16.4432 31.2309 16.3078V16.3078ZM31.2166 12.4892C31.2159 12.2162 31.3285 11.9541 31.5296 11.7603C31.7307 11.5665 32.004 11.457 32.2895 11.4557V11.4557C32.5749 11.455 32.849 11.5627 33.0516 11.755C33.2541 11.9474 33.3687 12.2088 33.37 12.4818V12.4818C33.3707 12.6171 33.3435 12.7512 33.2899 12.8764C33.2363 13.0016 33.1575 13.1155 33.0578 13.2115C32.9582 13.3075 32.8397 13.3837 32.7092 13.4359C32.5787 13.488 32.4387 13.515 32.2972 13.5154V13.5154C32.1558 13.5159 32.0157 13.4897 31.8849 13.4384C31.7541 13.3871 31.6351 13.3116 31.5347 13.2164C31.4344 13.1211 31.3547 13.0078 31.3001 12.8831C31.2455 12.7583 31.2171 12.6245 31.2166 12.4892V12.4892ZM31.2037 8.67064C31.2032 8.5354 31.2305 8.40139 31.2842 8.27625C31.3378 8.15112 31.4167 8.03732 31.5163 7.94134C31.6159 7.84537 31.7343 7.7691 31.8648 7.71689C31.9952 7.66469 32.1351 7.63757 32.2765 7.63708V7.63708C32.5619 7.63642 32.8358 7.74413 33.0382 7.93653C33.2405 8.12893 33.3548 8.3903 33.3558 8.66321V8.66321C33.3562 8.79829 33.3287 8.93211 33.2749 9.05703C33.2212 9.18195 33.1423 9.29553 33.0427 9.39128C32.943 9.48702 32.8247 9.56306 32.6943 9.61505C32.564 9.66705 32.4242 9.69397 32.283 9.6943V9.6943C31.998 9.69528 31.7242 9.58803 31.5219 9.39609C31.3195 9.20415 31.2051 8.94323 31.2037 8.67064V8.67064ZM31.1895 4.85204C31.1889 4.7168 31.2163 4.58279 31.2699 4.45766C31.3236 4.33252 31.4025 4.21872 31.5021 4.12274C31.6017 4.02677 31.7201 3.9505 31.8505 3.8983C31.981 3.84609 32.1209 3.81897 32.2623 3.81848V3.81848C32.5477 3.81783 32.8218 3.92549 33.0244 4.11785C33.227 4.31022 33.3415 4.57159 33.3429 4.84462V4.84462C33.3436 5.11765 33.231 5.3798 33.0299 5.57356C32.8288 5.76732 32.5555 5.87686 32.27 5.87818V5.87818C32.1286 5.87883 31.9884 5.85278 31.8575 5.80154C31.7266 5.75029 31.6076 5.67485 31.5072 5.57953C31.4068 5.48422 31.3271 5.37089 31.2726 5.24606C31.218 5.12123 31.1898 4.98733 31.1895 4.85204V4.85204Z" fill="white"/>
<path d="M32.2525 2.05987C32.0753 2.06021 31.9008 2.01856 31.7445 1.93864C31.5882 1.85872 31.4551 1.74303 31.357 1.60188C31.3179 1.54561 31.2846 1.48593 31.2573 1.42364C31.2312 1.36152 31.2109 1.29732 31.1965 1.23178C31.1689 1.09857 31.1689 0.961473 31.1965 0.828263C31.2109 0.76273 31.2312 0.698531 31.2573 0.636404C31.2846 0.574118 31.3179 0.514438 31.357 0.458162C31.4552 0.31723 31.5882 0.201671 31.7443 0.121745C31.9004 0.0418195 32.0748 0 32.2518 0C32.4289 0 32.6032 0.0418195 32.7594 0.121745C32.9155 0.201671 33.0485 0.31723 33.1467 0.458162C33.1857 0.514438 33.2191 0.574118 33.2464 0.636404C33.2737 0.698131 33.294 0.76244 33.3072 0.828263C33.3365 0.961307 33.3365 1.09874 33.3072 1.23178C33.294 1.29761 33.2737 1.36192 33.2464 1.42364C33.2191 1.48593 33.1857 1.54561 33.1467 1.60188C33.0487 1.74285 32.9158 1.85844 32.7598 1.93835C32.6038 2.01826 32.4295 2.06001 32.2525 2.05987V2.05987Z" fill="white"/>
</svg>
