<svg width="66" height="63" viewBox="0 0 66 63" fill="none" xmlns="http://www.w3.org/2000/svg">
<path d="M32.4442 56.8868C32.2474 56.8867 32.0544 56.8349 31.8864 56.737C31.7184 56.6392 31.5818 56.499 31.4918 56.332C31.4017 56.165 31.3615 55.9775 31.3757 55.7901C31.3898 55.6027 31.4577 55.4227 31.572 55.2697L33.1089 53.2086C34.0327 51.9715 34.0327 49.8822 33.1089 48.645L31.5694 46.584C30.1175 44.6385 30.1175 41.5912 31.5694 39.6458L33.1089 37.5835C34.0327 36.3463 34.0327 34.257 33.1089 33.0211L31.5694 30.9588C30.1175 29.0134 30.1175 25.966 31.5694 24.0206L33.1089 21.9595C33.189 21.8465 33.292 21.7498 33.4117 21.6753C33.5315 21.6008 33.6657 21.55 33.8064 21.5257C33.947 21.5014 34.0914 21.5043 34.2309 21.5341C34.3704 21.5639 34.5023 21.62 34.6187 21.6991C34.7352 21.7783 34.8339 21.8789 34.909 21.995C34.9841 22.1111 35.0341 22.2404 35.0561 22.3752C35.078 22.5101 35.0715 22.6478 35.0369 22.7802C35.0023 22.9126 34.9403 23.037 34.8546 23.1462L33.3189 25.2097C32.3952 26.4395 32.3952 28.5301 33.3189 29.7721L34.8572 31.8344C36.3104 33.7799 36.3104 36.8272 34.8572 38.7726L33.3189 40.8275C32.3952 42.0647 32.3952 44.1479 33.3189 45.3911L34.8572 47.4522C36.3104 49.3977 36.3104 52.4462 34.8572 54.3904L33.3189 56.4576C33.2196 56.5906 33.0884 56.699 32.9362 56.7737C32.784 56.8483 32.6153 56.8871 32.4442 56.8868V56.8868Z" fill="white"/>
<path d="M46.6193 56.8868C46.4225 56.8867 46.2295 56.8349 46.0615 56.737C45.8935 56.6392 45.757 56.499 45.6669 56.332C45.5768 56.165 45.5367 55.9775 45.5508 55.7901C45.565 55.6027 45.6329 55.4227 45.7471 55.2697L47.2867 53.2086C48.2104 51.9715 48.2104 49.8822 47.2867 48.645L45.7471 46.584C44.2952 44.6385 44.2952 41.5912 45.7471 39.6458L47.2867 37.5835C48.2104 36.3463 48.2104 34.257 47.2867 33.0211L45.7471 30.9588C44.2952 29.0134 44.2952 25.966 45.7471 24.0206L47.2867 21.9595C47.3667 21.8465 47.4697 21.7498 47.5895 21.6753C47.7092 21.6008 47.8434 21.55 47.9841 21.5257C48.1248 21.5014 48.2691 21.5043 48.4086 21.5341C48.5482 21.5639 48.68 21.62 48.7965 21.6991C48.9129 21.7783 49.0116 21.8789 49.0867 21.995C49.1618 22.1111 49.2118 22.2404 49.2338 22.3752C49.2558 22.5101 49.2493 22.6478 49.2147 22.7802C49.1801 22.9126 49.1181 23.037 49.0323 23.1462L47.4864 25.2085C46.5639 26.4383 46.5639 28.5288 47.4864 29.7709L49.0323 31.8332C50.4855 33.7786 50.4855 36.8259 49.0323 38.7714L47.4864 40.8325C46.5639 42.0696 46.5639 44.1528 47.4864 45.3961L49.0323 47.4571C50.4855 49.4026 50.4855 52.4511 49.0323 54.3953L47.4864 56.4576C47.388 56.5898 47.258 56.6977 47.1073 56.7724C46.9565 56.847 46.7892 56.8863 46.6193 56.8868V56.8868Z" fill="white"/>
<path d="M25.1418 56.8871C24.9448 56.8874 24.7515 56.8359 24.5832 56.7381C24.4149 56.6403 24.2782 56.5001 24.188 56.3329C24.0978 56.1657 24.0577 55.978 24.0721 55.7905C24.0865 55.603 24.1549 55.4228 24.2696 55.27L25.8078 53.2089C26.7316 51.9718 26.7316 49.8824 25.8078 48.6453L24.2696 46.5843C22.8164 44.6388 22.8164 41.5915 24.2696 39.646L25.8078 37.5837C26.7316 36.3466 26.7316 34.2573 25.8078 33.0214L24.2696 30.9591C22.8164 29.0136 22.8164 25.9663 24.2696 24.0208L25.8078 21.9598C25.8895 21.8503 25.9929 21.7572 26.1122 21.6859C26.2315 21.6145 26.3644 21.5663 26.5032 21.544C26.642 21.5217 26.7841 21.5257 26.9213 21.5558C27.0585 21.5859 27.1882 21.6414 27.3029 21.7194C27.4176 21.7973 27.5151 21.896 27.5899 22.0099C27.6646 22.1238 27.7151 22.2506 27.7385 22.3831C27.7619 22.5157 27.7577 22.6513 27.7262 22.7822C27.6946 22.9132 27.6364 23.037 27.5548 23.1465L26.0153 25.21C25.0915 26.4398 25.0915 28.5303 26.0153 29.7724L27.5548 31.8347C29.0067 33.7801 29.0067 36.8274 27.5548 38.7729L26.0153 40.8278C25.0915 42.0649 25.0915 44.1481 26.0153 45.3914L27.5548 47.4525C29.0067 49.3979 29.0067 52.4465 27.5548 54.3907L26.0153 56.4579C25.916 56.5907 25.785 56.699 25.6331 56.7736C25.4811 56.8483 25.3127 56.8872 25.1418 56.8871V56.8871Z" fill="white"/>
<path d="M39.3166 56.8873C39.1198 56.8872 38.9268 56.8354 38.7588 56.7375C38.5908 56.6397 38.4543 56.4995 38.3642 56.3325C38.2741 56.1655 38.2339 55.978 38.2481 55.7906C38.2622 55.6032 38.3302 55.4232 38.4444 55.2702L39.9839 53.2091C40.9077 51.972 40.9077 49.8827 39.9839 48.6455L38.4444 46.5845C36.9925 44.639 36.9925 41.5917 38.4444 39.6462L39.9839 37.584C40.9077 36.3468 40.9077 34.2575 39.9839 33.0216L38.4444 30.9593C36.9925 29.0138 36.9925 25.9665 38.4444 24.0211L39.9839 21.9588C40.149 21.7378 40.3992 21.5885 40.6796 21.5436C40.96 21.4988 41.2475 21.5621 41.479 21.7196C41.7105 21.8771 41.867 22.116 41.914 22.3836C41.961 22.6513 41.8946 22.9258 41.7296 23.1467L40.1952 25.2102C39.2728 26.44 39.2728 28.5306 40.1952 29.7726L41.7412 31.8349C43.1944 33.7803 43.1944 36.8277 41.7412 38.7731L40.1952 40.828C39.2728 42.0652 39.2728 44.1484 40.1952 45.3916L41.7412 47.4527C43.1944 49.3981 43.1944 52.4467 41.7412 54.3909L40.1952 56.4581C40.0957 56.5919 39.9639 56.7007 39.811 56.7754C39.658 56.8501 39.4884 56.8885 39.3166 56.8873Z" fill="white"/>
<path d="M17.839 56.8868C17.642 56.8872 17.4488 56.8356 17.2805 56.7378C17.1122 56.6401 16.9754 56.4999 16.8853 56.3327C16.7951 56.1655 16.755 55.9778 16.7694 55.7902C16.7838 55.6027 16.8521 55.4226 16.9669 55.2697L18.5128 53.2086C19.4365 51.9715 19.4365 49.8822 18.5128 48.645L16.9669 46.584C15.5137 44.6385 15.5137 41.5912 16.9669 39.6458L18.5128 37.5835C19.4365 36.3463 19.4365 34.257 18.5128 33.0211L16.9669 30.9588C15.5137 29.0134 15.5137 25.966 16.9669 24.0206L18.5128 21.9595C18.5929 21.8465 18.6958 21.7498 18.8156 21.6753C18.9354 21.6008 19.0696 21.55 19.2103 21.5257C19.3509 21.5014 19.4953 21.5043 19.6348 21.5341C19.7743 21.5639 19.9062 21.62 20.0226 21.6991C20.1391 21.7783 20.2377 21.8789 20.3128 21.995C20.388 22.1111 20.438 22.2404 20.4599 22.3752C20.4819 22.5101 20.4754 22.6478 20.4408 22.7802C20.4062 22.9126 20.3442 23.037 20.2585 23.1462L18.7125 25.2097C17.7888 26.4395 17.7888 28.5301 18.7125 29.7721L20.252 31.8344C21.704 33.7799 21.704 36.8272 20.252 38.7726L18.7125 40.8275C17.7888 42.0647 17.7888 44.1479 18.7125 45.3911L20.252 47.4522C21.704 49.3977 21.704 52.4462 20.252 54.3904L18.7125 56.4576C18.6135 56.5907 18.4825 56.6991 18.3305 56.7738C18.1786 56.8485 18.01 56.8872 17.839 56.8868Z" fill="white"/>
<path d="M58.2314 62.8201H7.8586C7.57432 62.8201 7.30169 62.7123 7.10067 62.5204C6.89966 62.3285 6.78673 62.0683 6.78673 61.7969V29.4336H1.21995C1.0026 29.4328 0.79064 29.3689 0.612197 29.2505C0.433755 29.132 0.29726 28.9645 0.220818 28.7703C0.144376 28.5761 0.1316 28.3643 0.184184 28.163C0.236769 27.9617 0.352229 27.7804 0.515249 27.6431L32.8969 0.433716C33.0953 0.267214 33.3511 0.176509 33.6152 0.179005C33.8794 0.181502 34.1333 0.277024 34.3282 0.447243L65.5052 27.6554C65.6646 27.7946 65.7763 27.9765 65.8255 28.1772C65.8748 28.378 65.8593 28.5883 65.7812 28.7806C65.7031 28.9728 65.5659 29.138 65.3877 29.2546C65.2095 29.3711 64.9985 29.4335 64.7825 29.4336H59.3072V61.7969C59.3072 61.9316 59.2793 62.0649 59.2252 62.1893C59.1711 62.3137 59.0918 62.4266 58.9919 62.5217C58.8919 62.6168 58.7733 62.692 58.6428 62.7432C58.5123 62.7944 58.3725 62.8206 58.2314 62.8201V62.8201ZM8.92919 60.7738H57.1596V28.4068C57.1599 28.1355 57.2729 27.8755 57.4739 27.6837C57.6748 27.4919 57.9473 27.384 58.2314 27.3836H62.0191L33.5913 2.58209L4.05938 27.3873H7.8586C8.14199 27.3877 8.41371 27.4951 8.61433 27.6861C8.81496 27.8772 8.92816 28.1363 8.92919 28.4068V60.7738Z" fill="white"/>
</svg>
