<svg width="705" height="326" viewBox="0 0 705 326" fill="none" xmlns="http://www.w3.org/2000/svg">
<g clip-path="url(#clip0)">
<path d="M1 247.44H117.94C117.94 247.44 117.07 224.32 130.52 210.86C138.906 202.582 148.486 195.607 158.94 190.17C158.94 190.17 181.17 278.17 250.8 278.17C320.43 278.17 329.2 221.83 329.2 221.83C329.2 221.83 341.68 234.74 356.8 226.83C365.952 221.904 373.304 214.201 377.8 204.83C377.8 204.83 374.57 202.73 366.04 211.54C357.51 220.35 346.04 221.18 352.97 214.76C359.9 208.34 370.77 198.54 368.87 196.94C366.97 195.34 349.87 213.54 342.06 209.86C334.25 206.18 339.39 190.2 351.56 184.02C363.73 177.84 368.02 185.52 368.87 187.85C369.72 190.18 368.87 194.19 368.87 194.19L377.8 200.02C377.8 200.02 385.8 182.55 372.75 174.12C359.7 165.69 345 172.48 345 172.48C345 172.48 352.93 151.48 325.41 137.42C297.89 123.36 230.48 116.83 191.61 127.5C152.74 138.17 140.91 187.8 193.61 201.23C246.31 214.66 335.79 204.67 339.41 174C343.03 143.33 277.82 135.27 260 134.82C242.18 134.37 220.3 139.67 222.3 106.33C224.3 72.99 253.59 59.67 248.76 36C243.93 12.33 216.26 1 216.26 1C216.26 1 233 23.4 230.31 39.68C227.62 55.96 209.92 64.17 207.76 84.83C205.6 105.49 219.76 122.74 256.83 127.83C293.9 132.92 284.83 99.44 278.21 84.12C271.59 68.8 271.09 51.63 277.59 43.46C266.42 51.79 229.86 94.46 228.2 125.87C226.76 152.98 244.35 156.79 239.29 170.5C236.64 177.68 210.29 174.5 196.09 174.5C181.89 174.5 192.57 181.26 179.33 182.13C166.09 183 112.07 190.41 108.33 241.04C104.59 291.67 186.33 324.11 242.58 324.11C298.83 324.11 376.34 295.67 386 246.9C391 221.9 380.79 209.17 380.79 209.17C385.711 214.464 389.09 221.003 390.56 228.08C392.39 236.92 391.31 247.08 391.31 247.08H703.08" stroke="url(#paint0_linear)" stroke-width="2" stroke-linecap="round" stroke-linejoin="round"/>
</g>
<defs>
<linearGradient id="paint0_linear" x1="263.7" y1="400.26" x2="440.38" y2="94.22" gradientUnits="userSpaceOnUse">
<stop stop-color="#01DCEA"/>
<stop offset="1" stop-color="#5069F8"/>
</linearGradient>
<clipPath id="clip0">
<rect width="704.08" height="325.11" fill="white"/>
</clipPath>
</defs>
</svg>
