<svg width="703" height="325" viewBox="0 0 703 325" fill="none" xmlns="http://www.w3.org/2000/svg">
<path fill-rule="evenodd" clip-rule="evenodd" d="M181.637 239.302L181.638 239.304L181.638 239.304C182.779 241.17 183.919 243.036 185.193 244.813C185.728 245.556 186.439 246.14 187.159 246.733C187.658 247.144 188.162 247.558 188.615 248.031C195.457 255.373 202.953 261.86 211.607 266.989C220.462 272.269 229.92 275.689 240.033 277.6C249.24 279.36 258.547 279.611 267.805 278.354C285.363 275.991 299.903 267.693 311.374 254.267C318.267 246.271 323.751 237.371 327.474 227.464C328.07 225.91 328.578 224.311 329.114 222.626L329.115 222.625C329.393 221.75 329.68 220.85 329.989 219.921C330.643 220.46 331.248 220.994 331.83 221.506L331.831 221.507C333.042 222.573 334.15 223.549 335.373 224.296C341.259 227.967 347.649 228.068 354.139 226.207C363.648 223.492 369.987 216.955 374.917 208.557C372.565 207.741 371.541 208.985 370.404 210.368C370.349 210.434 370.294 210.501 370.238 210.568C366.515 215.094 362.641 219.419 356.856 221.38C355.95 221.681 354.843 221.983 353.938 221.782C352.78 221.531 351.271 221.028 350.718 220.123C349.762 218.614 350.466 217.005 352.026 216.1C357.575 212.977 360.92 207.953 364.304 202.87L364.318 202.85C364.58 202.456 364.843 202.061 365.107 201.668C365.409 201.215 365.61 200.712 365.358 199.757C365.126 199.963 364.894 200.172 364.661 200.383C363.985 200.993 363.302 201.609 362.591 202.17C361.395 203.09 360.213 204.028 359.031 204.967C356.334 207.107 353.636 209.249 350.768 211.172C347.649 213.284 343.875 213.787 340.655 211.423C336.58 208.456 336.027 205.087 337.385 199.958C339.247 192.968 343.422 187.286 350.315 184.419C355.497 182.257 360.981 181.553 366.465 183.665C369.484 184.822 371.446 188.744 370.993 192.666C370.918 193.264 370.788 193.861 370.685 194.335C370.649 194.499 370.616 194.649 370.591 194.778C371.813 195.648 372.992 196.496 374.147 197.326C375.464 198.273 376.75 199.198 378.037 200.109C381.206 191.711 379.043 182.358 371.094 176.323C368.578 174.412 365.962 173.306 362.692 173.407C358.928 173.581 355.14 173.538 351.362 173.495C349.685 173.476 348.011 173.457 346.341 173.457L346.244 173.457C345.128 173.458 344.18 173.46 344.278 171.798C345.032 162.092 340.806 154.348 334.216 147.761C328.681 142.229 321.94 138.558 314.745 135.642C304.934 131.669 294.721 129.004 284.206 127.495C283.15 127.345 282.043 127.093 281.036 126.741C278.836 125.947 276.895 126.674 274.955 127.402C273.702 127.871 272.448 128.341 271.125 128.401C269.72 128.451 268.31 128.551 266.897 128.651C264.061 128.853 261.218 129.054 258.396 128.853C254 128.526 249.647 127.634 245.297 126.742C244.968 126.675 244.639 126.607 244.309 126.54C242.808 126.249 241.341 125.819 239.876 125.389C238.297 124.926 236.72 124.463 235.102 124.176C233.442 123.875 231.178 123.875 230.071 124.83C228.612 126.087 229.518 130.311 230.926 131.569C233.593 133.982 236.813 134.988 240.234 135.139C243.02 135.249 245.82 135.286 248.62 135.322C253.457 135.385 258.296 135.447 263.075 135.893C270.581 136.599 278.009 137.847 285.428 139.094L285.428 139.094C286.463 139.268 287.498 139.442 288.533 139.614C293.866 140.519 299.149 141.676 304.431 142.984C314.393 145.448 324.204 148.565 332.304 155.102C335.272 157.466 338.039 160.533 339.85 163.903C343.775 171.244 340.806 177.832 336.127 183.715C331.046 190.102 324.103 194.024 316.707 197.192C305.84 201.869 294.47 204.785 282.848 206.746C279.32 207.357 275.762 207.891 272.207 208.425C269.323 208.858 266.44 209.291 263.578 209.764C251.856 211.675 240.033 211.524 228.26 210.518C222.524 210.015 216.789 209.16 211.204 207.903C202.601 206.042 193.948 204.132 185.546 201.466C176.942 198.701 169.194 194.024 163.409 186.783C162.302 185.375 160.994 185.475 159.585 185.727C145.649 188.392 134.882 196.337 125.675 206.646C119.336 213.736 114.858 221.983 112.544 231.186C111.689 234.571 111.182 238.025 110.661 241.581C110.416 243.255 110.167 244.952 109.877 246.674H115.814C115.462 233.298 119.99 221.531 128.191 211.172C136.241 200.964 146.756 194.074 158.931 188.543C159.454 190.286 159.948 192.025 160.438 193.752C161.503 197.505 162.552 201.204 163.861 204.785C165.824 210.166 168.088 215.496 170.553 220.676C172.183 224.07 174.019 227.35 175.861 230.639L175.861 230.64C176.748 232.223 177.636 233.808 178.502 235.41L177.747 236.013C177.504 235.787 177.23 235.579 176.955 235.37L176.955 235.37C176.435 234.975 175.913 234.578 175.584 234.052C168.44 222.587 163.006 210.417 159.182 197.494C158.858 196.373 158.585 195.235 158.303 194.059L158.303 194.058C158.105 193.23 157.902 192.383 157.673 191.51C147.762 196.136 138.957 201.969 131.863 210.015C122.707 220.374 117.676 232.493 118.128 246.523C118.179 248.383 117.676 249.138 115.764 248.987C114.615 248.882 113.465 248.899 112.049 248.918L112.047 248.918C111.418 248.927 110.736 248.937 109.978 248.937C110.291 250.304 110.567 251.64 110.836 252.946C111.389 255.626 111.917 258.185 112.695 260.653C114.808 267.241 118.833 272.772 123.109 278.103C123.466 278.53 123.57 279.159 123.671 279.776C123.713 280.03 123.755 280.282 123.814 280.516C123.567 280.402 123.3 280.308 123.033 280.215C122.483 280.023 121.939 279.833 121.6 279.46C114.607 271.415 109.525 262.464 108.368 251.702C108.116 249.389 107.261 248.886 105.098 248.886C57.8052 248.937 50.5126 248.937 3.21992 248.886C2.46352 248.886 1.68132 248.577 0.91026 248.272L0.909934 248.272C0.604102 248.151 0.300022 248.031 0 247.931C0.333641 247.82 0.667281 247.678 1.00092 247.537C1.72382 247.231 2.44672 246.925 3.16961 246.925C50.3113 246.875 57.4027 246.875 104.544 246.875H107.513C111.487 214.139 128.14 192.163 160.138 183.011C159.863 182.126 159.556 181.207 159.24 180.264L159.239 180.262C158.515 178.099 157.746 175.802 157.22 173.457C155.258 164.506 157.925 156.46 162.604 148.917C168.037 140.117 176.288 134.737 185.546 130.714C195.507 126.339 205.922 123.925 216.739 122.97C217.965 122.867 219.169 122.604 220.397 122.335C220.982 122.207 221.572 122.077 222.172 121.964C222.172 119.399 221.317 117.539 219.204 115.98C208.638 108.236 204.563 97.8768 206.928 85.0035C208.89 74.2925 214.173 65.4421 222.524 58.5026C226.147 55.4855 227.757 51.5631 228.26 46.9871C229.065 39.4441 226.901 32.3538 224.285 25.5148C222.398 20.5283 220.288 15.6231 218.174 10.7088L218.173 10.7081C216.961 7.89155 215.748 5.07194 214.575 2.23232C214.375 1.79806 214.352 1.27504 214.329 0.766448V0.766391V0.76618C214.318 0.50924 214.307 0.255986 214.273 0.0197224C214.507 0.036434 214.758 0.0253768 215.011 0.014236C215.518 -0.00814659 216.034 -0.0308668 216.437 0.170581C227.304 5.65178 237.215 12.4907 243.957 22.8497C251.152 33.9127 251.705 45.6293 245.517 57.2455C243.233 61.5503 240.631 65.7071 238.028 69.8667C236.617 72.121 235.206 74.376 233.844 76.656C229.367 84.1989 225.795 92.1944 224.084 100.793C223.378 104.403 223.323 108.184 223.269 111.91V111.91C223.258 112.7 223.246 113.487 223.229 114.27C223.178 116.634 224.889 117.891 228.411 118.595C228.864 117.321 229.305 116.041 229.747 114.762L229.747 114.762C230.63 112.203 231.513 109.644 232.486 107.129C236.209 97.4745 241.492 88.6241 247.278 80.1257C254.371 69.7165 262.019 59.6592 270.572 50.3563C271.341 49.5206 271.999 48.574 272.658 47.6251C273.983 45.7189 275.314 43.8038 277.565 42.763C278.004 42.5605 278.511 42.4939 279.025 42.4264C279.277 42.3933 279.531 42.36 279.779 42.3105C279.703 42.5523 279.646 42.8032 279.589 43.0523C279.456 43.6319 279.326 44.2016 278.974 44.6236C278.303 45.4758 277.533 46.2821 276.765 47.0875L276.765 47.0878C275.402 48.5161 274.042 49.9414 273.238 51.6134C270.924 56.4912 271.679 61.8718 272.987 66.9004C274.351 72.0642 275.849 77.1945 277.346 82.3204L277.347 82.3236C278.444 86.0818 279.541 89.8376 280.584 93.6024C280.713 94.0735 280.842 94.5443 280.972 95.0151C282.614 100.976 284.253 106.926 284.206 113.264C284.156 117.388 282.747 120.858 280.131 124.327C280.966 124.507 281.781 124.677 282.577 124.843L282.577 124.843C284.226 125.186 285.799 125.513 287.325 125.886C289.874 126.527 292.437 127.117 294.998 127.706L294.999 127.706C300.88 129.06 306.753 130.411 312.431 132.373C324.455 136.497 335.02 143.185 342.064 154.248C345.032 158.924 346.491 161.539 346.542 171.094C346.824 171.114 347.105 171.15 347.387 171.186C347.81 171.24 348.232 171.295 348.655 171.295C350.062 171.295 351.474 171.33 352.887 171.366C355.923 171.442 358.967 171.519 361.987 171.244C367.421 170.742 371.245 173.356 374.716 176.776C381.206 183.213 382.313 191.158 380.502 199.706C380.329 200.571 379.538 201.292 378.831 201.937C378.51 202.23 378.206 202.507 377.986 202.774C377.353 202.309 376.754 201.857 376.176 201.419L376.173 201.417C374.687 200.292 373.333 199.267 371.848 198.399C370.44 197.544 369.433 198.097 368.528 199.757C365.258 205.841 361.233 211.473 355.9 215.999C355.079 216.677 354.181 217.254 353.19 217.891C352.785 218.152 352.363 218.423 351.925 218.715C353.887 220.324 355.497 219.771 357.007 219.117C362.038 216.955 365.61 212.932 369.031 208.858C370.591 206.998 372.05 205.64 374.716 205.992C375.111 206.058 375.571 205.823 376.151 205.525C376.458 205.368 376.799 205.193 377.181 205.037C377.351 205.22 377.541 205.428 377.737 205.643L377.738 205.644C378.239 206.193 378.782 206.788 379.143 207.149C378.758 207.568 378.372 207.953 378.001 208.324C377.26 209.065 376.578 209.747 376.075 210.518C370.892 218.916 364.201 225.755 354.491 228.269C346.743 230.28 338.894 230.13 332.203 224.548C332.002 224.397 331.801 224.246 331.549 224.146C331.451 224.113 331.352 224.101 331.199 224.083C331.116 224.074 331.018 224.062 330.895 224.045C330.356 225.29 329.83 226.549 329.303 227.812L329.302 227.815C328.403 229.967 327.501 232.13 326.518 234.253C319.072 250.144 308.506 263.369 293.011 272.018C284.357 276.845 274.848 279.36 264.987 280.667C256.434 281.824 248.032 281.22 239.731 279.712C226.499 277.298 214.072 272.471 203.406 264.073C197.62 259.497 192.287 254.368 187.055 249.138C184.807 246.891 182.918 244.287 181.019 241.669L181.018 241.668C180.452 240.887 179.885 240.106 179.307 239.332C178.98 238.908 178.887 238.314 178.793 237.716V237.716C178.742 237.392 178.691 237.067 178.603 236.767C179.055 236.767 179.508 236.667 179.911 236.516C180.497 237.437 181.067 238.37 181.637 239.302ZM229.467 133.681C229.518 138.659 230.071 143.285 232.234 147.509C233.261 149.451 234.325 151.374 235.389 153.299L235.39 153.3L235.391 153.301C236.779 155.811 238.17 158.324 239.479 160.885C243.856 169.535 240.184 175.971 230.524 176.374C226.074 176.537 221.602 176.424 217.137 176.311H217.137C214.737 176.251 212.339 176.19 209.947 176.172C209.173 176.172 208.4 176.172 207.626 176.171C202.211 176.165 196.797 176.16 191.382 176.424C189.067 176.524 187.005 177.983 186.351 180.346C185.948 181.855 185.143 182.056 183.936 182.257C179.723 182.878 175.487 183.547 171.26 184.214C169.328 184.519 167.397 184.824 165.471 185.123C165.482 185.21 165.491 185.286 165.498 185.355C165.502 185.393 165.505 185.429 165.509 185.462C165.527 185.649 165.538 185.76 165.572 185.827C165.773 186.079 165.975 186.33 166.226 186.582C171.257 192.214 177.747 195.633 184.539 198.65C192.74 202.271 201.444 204.584 210.248 205.892C220.663 207.45 231.178 208.356 241.693 208.959C246.775 209.268 251.974 208.801 257.085 208.342C257.792 208.279 258.498 208.216 259.201 208.154C260.148 208.071 261.095 207.99 262.043 207.91C267.344 207.46 272.66 207.008 277.867 205.942C287.879 203.88 297.891 201.517 307.701 198.6C315.953 196.136 323.751 192.264 330.492 186.682C335.121 182.911 338.693 178.335 339.297 172.2C340.001 165.26 336.178 160.533 330.996 156.661C322.895 150.627 313.487 147.208 303.777 144.995C293.312 142.581 282.697 140.57 272.081 139.061C264.665 138.022 257.128 137.713 249.615 137.406L249.614 137.406C249.296 137.393 248.978 137.38 248.661 137.367C248.133 137.345 247.604 137.323 247.076 137.301C245.721 137.211 244.356 137.204 242.994 137.197H242.993C238.284 137.174 233.603 137.151 229.467 133.681ZM220.713 174.614V174.362C221.843 174.362 222.977 174.381 224.112 174.4C226.667 174.443 229.223 174.486 231.731 174.312C237.92 173.859 240.787 168.881 238.322 163.249C237.316 160.986 236.159 158.723 234.8 156.661C230.625 150.325 227.505 143.537 227.153 135.843C227.002 132.373 226.096 129.457 224.336 126.54C223.38 124.931 222.575 124.378 220.864 124.73C218.568 125.156 216.264 125.566 213.957 125.975C208.378 126.966 202.785 127.96 197.268 129.205C188.615 131.166 180.615 134.737 173.521 140.167C163.056 148.264 157.623 158.824 159.082 172.2C159.361 174.793 160.527 177.322 161.675 179.813C161.974 180.463 162.272 181.11 162.553 181.754C162.855 182.408 164.113 183.162 164.817 183.062C168.063 182.656 171.289 182.154 174.52 181.651L174.52 181.651L174.521 181.651C176.499 181.343 178.478 181.035 180.464 180.748C180.713 180.71 180.962 180.679 181.209 180.647C182.917 180.43 184.541 180.223 185.244 177.983C185.495 177.128 186.703 176.223 187.608 175.971C188.242 175.783 188.879 175.582 189.519 175.379C192.135 174.552 194.802 173.708 197.469 173.708C202.947 173.637 208.45 173.947 213.979 174.259L213.981 174.259C216.221 174.386 218.465 174.512 220.713 174.614ZM269.163 55.3346C269.087 55.4101 269.005 55.4909 268.917 55.5766C268.537 55.948 268.062 56.4127 267.654 56.9438C266.35 58.5997 265.035 60.2446 263.722 61.8884L263.721 61.8894C260.167 66.3353 256.621 70.7733 253.315 75.3988C244.209 87.9704 236.36 101.246 231.832 116.231C230.675 120.154 231.48 121.36 235.555 121.562L235.774 121.573L235.778 121.573C248.332 122.223 260.885 122.873 273.389 123.523C277.414 123.724 279.527 122.567 280.936 118.796C281.489 117.338 281.841 115.728 281.992 114.17C282.717 106.472 280.423 99.3041 278.123 92.1157L278.121 92.1097C277.867 91.3171 277.613 90.5242 277.364 89.7304C276.967 88.478 276.564 87.228 276.161 85.9777C274.671 81.3545 273.179 76.7292 272.031 71.9793C271.135 68.3284 270.569 64.5358 269.995 60.6826C269.73 58.9101 269.464 57.1249 269.163 55.3346ZM220.663 114.371C220.721 114.14 220.778 113.954 220.827 113.794C220.907 113.537 220.965 113.35 220.965 113.164C221.015 97.1728 226.901 83.1429 235.555 70.0182C236.018 69.3187 236.484 68.6206 236.952 67.922L236.956 67.9153L236.956 67.9152C240.451 62.6892 243.967 57.4305 245.919 51.3117C248.183 44.1208 248.284 37.0807 245.366 30.0406C241.945 21.7937 236.259 15.4073 229.216 10.2278C226.832 8.4921 224.333 6.91761 221.719 5.27051C220.471 4.48397 219.197 3.68087 217.896 2.83575C217.921 3.33835 217.921 3.64002 217.921 3.83489V3.83524C217.921 4.03006 217.921 4.11806 217.946 4.19348C223.682 16.1616 228.813 28.3309 230.373 41.707C231.228 48.898 229.769 55.1334 223.983 60.1621C213.418 69.3644 207.532 80.8297 208.789 95.1613C209.494 103.308 214.173 109.241 220.663 114.371ZM368.779 192.163C368.88 188.442 367.27 185.928 364.151 185.325C358.918 184.369 353.787 184.671 349.007 187.587C342.819 191.359 340.203 197.293 338.844 203.981C338.24 206.948 341.611 210.618 344.58 210.669C348.892 210.816 352.011 208.339 355.099 205.887L355.346 205.69C356.768 204.549 358.142 203.361 359.513 202.175C361.586 200.381 363.651 198.595 365.861 196.991C367.823 195.583 369.031 194.175 368.779 192.163ZM244.309 123.422C244.309 123.523 244.297 123.636 244.284 123.749C244.271 123.862 244.259 123.975 244.259 124.076C250.498 126.741 268.962 127.847 272.081 125.333C269.401 125.15 266.757 124.97 264.138 124.793L264.132 124.792C257.412 124.337 250.861 123.892 244.309 123.422ZM380.653 209.562C383.132 211.288 383.702 213.637 384.249 215.889C384.294 216.074 384.339 216.259 384.384 216.442C384.414 216.563 384.445 216.684 384.476 216.804C386.539 224.699 388.099 232.594 387.193 240.841C386.991 242.615 386.703 244.352 386.336 246.053H391.776H617.918H699.862C700.054 246.053 700.263 246.041 700.479 246.028C701.697 245.956 703.137 245.87 702.99 247.925H699.225C595.796 247.925 492.309 247.925 388.88 247.879C388.636 247.879 388.364 247.907 388.081 247.936C387.356 248.01 386.556 248.091 385.943 247.736C383.99 255.536 380.353 262.597 375.621 269.202C366.515 281.975 354.591 291.63 341.309 299.776C330.039 306.716 317.965 311.945 305.437 315.968C295.274 319.237 284.86 321.55 274.244 322.958C257.49 325.271 240.737 325.573 223.883 323.913C206.173 322.153 189.017 318.332 172.313 312.096C158.981 307.118 146.554 300.43 135.133 291.931C132.244 289.789 129.614 287.344 127.003 284.917L127.002 284.917L126.956 284.874C126.764 284.695 126.571 284.517 126.379 284.338C126.029 283.988 125.898 283.394 125.766 282.793C125.708 282.532 125.651 282.269 125.574 282.025C125.83 282.135 126.113 282.218 126.396 282.301C126.891 282.446 127.385 282.592 127.738 282.88C139.058 293.591 152.189 301.586 166.528 307.319C176.489 311.292 186.702 314.862 197.117 317.376C216.638 322.103 236.611 323.913 256.685 322.304C266.094 321.55 275.552 320.745 284.81 318.935C309.11 314.158 331.8 305.308 351.724 290.222C362.44 282.126 371.848 272.672 378.389 260.754C383.621 251.25 386.136 241.142 384.929 230.331C384.452 226.142 383.491 222 382.529 217.857C382.07 215.882 381.612 213.906 381.206 211.926C380.99 211.45 380.885 210.863 380.732 210.005L380.732 210.004C380.718 209.924 380.703 209.841 380.688 209.756C380.676 209.693 380.665 209.628 380.653 209.562Z" fill="url(#paint0_linear)"/>
<defs>
<linearGradient id="paint0_linear" x1="78.3725" y1="181.563" x2="406.759" y2="-77.3585" gradientUnits="userSpaceOnUse">
<stop stop-color="#01DCEA"/>
<stop offset="1" stop-color="#5069F8"/>
</linearGradient>
</defs>
</svg>
