<svg width="507" height="115" viewBox="0 0 507 115" fill="none" xmlns="http://www.w3.org/2000/svg">
<g clip-path="url(#clip0)">
<path d="M187.727 41.4469C186.575 43.9916 185.528 46.2575 184.551 48.5582C182.772 52.7064 181.097 56.9592 179.143 61.0028C178.724 61.8395 177.224 62.2926 176.107 62.5715C170.071 64.1053 163.964 65.5694 157.893 66.9637C156.532 67.2775 155.555 67.8003 154.752 69.0204C152.415 72.576 149.902 75.9922 147.46 79.4781C147.32 79.6524 147.25 79.8964 147.076 80.3147C149.239 80.733 151.298 81.1862 153.392 81.5348C156.532 82.0577 159.707 82.5109 162.848 83.0686C163.371 83.1732 164.209 83.7309 164.209 84.1144C164.209 84.6721 163.755 85.3693 163.301 85.8225C160.091 88.9598 156.881 92.0622 153.601 95.1298C152.554 96.1059 152.205 97.0122 152.484 98.5809C153.392 103.287 154.02 108.063 154.648 112.838C154.752 113.501 154.369 114.233 154.194 114.93C153.601 114.79 152.973 114.755 152.449 114.511C148.088 112.42 143.726 110.224 139.33 108.202C138.667 107.888 137.585 107.993 136.887 108.307C132.246 110.433 127.64 112.664 123 114.86C121.778 115.453 121.011 114.825 121.22 113.326C121.569 110.921 121.988 108.516 122.406 106.11C122.86 103.531 123.418 100.986 123.697 98.4066C123.802 97.57 123.453 96.4545 122.895 95.7921C120.941 93.4566 118.812 91.2605 116.823 88.9598C116.335 88.402 115.811 87.426 116.021 86.8682C116.37 85.7528 117.277 86.5196 118.045 86.6939C121.011 87.2517 123.977 87.7049 126.942 88.2626C129.804 88.7855 132.63 89.2735 135.456 89.8661C136.678 90.1101 137.585 89.8661 138.283 88.8552C139.993 86.4151 141.807 84.0447 143.377 81.4999C143.761 80.8376 143.656 79.5827 143.307 78.8158C141.737 75.3299 139.993 71.9137 138.108 68.1141C137.131 69.9965 136.224 71.6697 135.352 73.3778C134.061 75.8876 132.874 78.4672 131.444 80.9073C130.99 81.6742 129.978 82.3714 129.106 82.5457C124.151 83.4869 119.196 84.3584 114.206 85.0207C111.729 85.3693 109.217 85.3693 106.739 85.3693C71.7412 85.2996 36.7083 85.195 1.7103 85.0904C1.22179 85.0904 0.698392 85.0207 0.0703125 84.9859C0.105206 82.964 1.50094 82.964 2.7571 82.964C7.57238 82.9292 12.4226 82.9989 17.2378 82.9989C48.5371 83.0337 79.8016 83.1383 111.101 83.0686C115.044 83.0686 118.987 81.9531 122.93 81.3605C124.605 81.1165 126.279 80.9771 127.885 80.5239C128.687 80.3147 129.664 79.6873 130.048 78.9552C131.862 75.6785 133.537 72.2972 135.247 68.9507C135.736 68.0444 136.224 67.138 136.852 66.0225C137.515 66.0225 138.422 66.0225 139.504 66.0225C141.458 69.9616 143.447 74.0053 145.61 78.3975C147.809 75.2602 149.728 72.4366 151.752 69.6479C154.787 65.4299 154.822 65.4648 159.952 64.2796C165.151 63.0944 170.315 61.8395 175.479 60.6542C176.945 60.3057 177.712 59.4342 178.305 58.005C180.992 51.4863 183.853 45.0374 186.68 38.5536C186.854 38.1702 187.413 37.717 187.796 37.717C188.145 37.717 188.704 38.1702 188.878 38.5536C191.321 43.9219 193.728 49.3251 196.136 54.6933C196.485 55.4602 196.869 56.2271 197.392 57.3078C198.823 55.0419 200.079 53.055 201.335 51.0331C203.847 46.9895 206.325 42.9459 208.872 38.9022C209.186 38.449 209.814 38.0307 210.372 37.9262C214.629 37.1244 218.921 36.3924 223.178 35.6255C229.285 34.5448 235.391 33.4642 241.462 32.3836C242.719 32.1396 243.591 31.4424 244.184 30.2572C249.069 20.4966 253.989 10.7361 258.944 1.01043C259.153 0.592124 259.746 0.138956 260.2 0.104097C260.514 0.069238 261.038 0.626983 261.247 1.01043C263.655 5.78612 265.992 10.5618 268.365 15.3724C270.947 20.6012 273.46 25.8301 276.111 31.0241C276.46 31.6864 277.402 32.3138 278.17 32.4533C285.602 33.7431 293.035 34.8934 300.467 36.1483C303.887 36.7061 307.306 37.3684 310.726 38.0307C311.389 38.1702 311.947 38.6582 312.575 38.9719C312.226 39.5994 312.017 40.3314 311.528 40.8195C306.015 46.118 300.502 51.3469 294.954 56.6106C293 58.4581 290.976 60.2708 289.022 62.1183C289.162 62.3275 289.266 62.5366 289.406 62.7458C290.173 62.7458 290.941 62.8155 291.674 62.7458C297.85 62.0835 304.026 61.4211 310.202 60.724C311.877 60.5497 313.552 60.3754 315.192 60.0268C315.75 59.9222 316.343 59.3296 316.623 58.8067C320.077 52.1486 323.462 45.4906 326.916 38.8325C327.16 38.3793 327.754 37.8564 328.242 37.7867C328.556 37.7519 329.114 38.3793 329.359 38.8325C332.464 45.0723 335.57 51.312 338.57 57.6215C339.408 59.3296 340.42 60.4451 342.374 60.724C349.353 61.8046 356.331 62.9549 363.31 64.1401C363.973 64.2447 364.915 64.663 365.089 65.1162C365.229 65.6042 364.671 66.4757 364.217 66.9289C359.611 71.5303 354.935 76.0619 350.295 80.6633C349.876 81.0468 349.562 81.4999 349.038 82.0926C351.69 83.3126 354.272 83.208 356.889 82.5806C360.658 81.6742 364.426 80.733 368.195 79.9661C369.66 79.6524 370.568 79.0947 371.231 77.6306C373.185 73.3778 375.383 69.2644 377.546 65.1162C377.825 64.5933 378.523 63.931 379.012 63.931C379.5 63.931 380.128 64.6282 380.408 65.1859C382.571 69.5782 384.665 74.0401 386.863 78.4324C387.142 78.9901 387.875 79.5478 388.503 79.6873C390.876 80.2102 393.283 80.5588 395.691 80.9771C398.133 81.3954 400.716 81.4651 403.053 82.232C409.683 84.3932 416.487 83.208 423.222 83.4869C431.282 83.8355 439.377 83.6961 447.473 83.7309C448.868 83.7309 450.02 83.9401 450.194 85.7876C449.636 85.8225 449.113 85.8922 448.624 85.8922C435.434 85.8225 422.21 85.7876 409.02 85.6482C405.391 85.6133 402.251 86.1362 399.773 89.1341C397.994 91.2953 395.796 93.108 393.876 95.1647C393.423 95.6527 393.144 96.5939 393.248 97.2562C393.981 102.311 394.819 107.33 395.551 112.385C395.621 112.943 395.447 113.814 395.063 114.058C394.679 114.302 393.842 114.093 393.318 113.849C388.887 111.723 384.49 109.492 380.024 107.365C379.535 107.121 378.733 107.121 378.244 107.365C373.603 109.492 368.997 111.723 364.357 113.884C363.833 114.128 362.996 114.337 362.612 114.058C362.263 113.814 362.089 112.943 362.193 112.385C362.926 107.679 363.659 103.008 364.566 98.3369C364.845 96.9076 364.706 95.827 363.624 94.7812C361.321 92.5503 359.088 90.2496 356.889 87.914C356.471 87.4608 356.366 86.6591 356.122 86.0316C356.75 85.9619 357.448 85.7528 358.041 85.8573C360.449 86.2059 362.856 86.6591 365.229 87.0774C368.718 87.7049 372.208 88.2277 375.627 89.0295C379.221 89.8661 382.501 88.4718 385.886 87.8792C390.317 87.0774 394.679 85.927 399.076 84.951C399.494 84.8464 399.878 84.707 400.297 84.6024C400.297 84.4281 400.297 84.2887 400.297 84.1144C398.064 83.7309 395.865 83.3126 393.632 82.9292C391.399 82.5457 389.166 82.2668 386.968 81.7788C386.305 81.6394 385.607 80.9422 385.293 80.3147C383.199 76.2014 381.21 72.0532 378.977 67.4866C378 69.2993 377.163 70.8331 376.325 72.4366C374.929 75.1556 373.569 77.9095 372.103 80.5936C371.824 81.1165 371.196 81.6742 370.603 81.8137C365.648 82.964 360.693 84.219 355.703 85.0556C353.261 85.4739 350.678 85.0207 347.992 84.951C348.131 85.683 348.306 86.7288 348.48 87.8094C349.457 94.2932 350.434 100.742 351.376 107.226C351.446 107.749 351.341 108.516 350.993 108.795C350.713 109.039 349.911 108.934 349.457 108.69C342.827 105.483 336.268 102.206 329.603 99.0689C328.94 98.7552 327.858 98.7203 327.16 99.034C320.286 102.171 313.482 105.378 306.643 108.551C306.12 108.795 305.247 109.039 304.968 108.795C304.584 108.481 304.445 107.644 304.549 107.086C305.282 102.346 306.085 97.6048 306.887 92.864C307.341 90.1101 307.864 87.3911 308.178 84.6373C308.248 83.9052 307.864 82.9292 307.376 82.3714C303.782 78.5021 300.048 74.7024 296.419 70.8679C296.07 70.4845 296.001 69.857 295.791 69.3341C296.384 69.2296 297.047 68.9158 297.606 69.0204C300.223 69.5433 302.805 70.2056 305.387 70.7285C313.308 72.4017 321.298 73.831 329.149 75.7831C333.72 76.9334 338.082 78.8507 342.548 80.4542C343.63 80.8376 344.677 81.3257 345.793 81.6742C346.073 81.7788 346.596 81.5697 346.805 81.3605C351.621 76.55 356.401 71.7394 361.181 66.9289C361.286 66.8243 361.286 66.6151 361.426 66.2317C357.099 65.4997 352.842 64.8373 348.585 64.1053C345.444 63.5824 342.304 63.0595 339.199 62.3275C338.536 62.188 337.942 61.2468 337.593 60.5497C334.628 54.6236 331.731 48.6279 328.8 42.667C328.661 42.3881 328.382 42.1441 327.998 41.6561C326.951 43.6779 325.974 45.4906 325.067 47.3032C322.799 51.8 320.496 56.2969 318.263 60.8285C317.739 61.8743 317.041 62.2926 315.855 62.4321C308.144 63.2687 300.397 64.175 292.686 65.0465C291.255 65.2208 289.79 65.2905 288.185 65.4299C288.289 66.65 288.324 67.7306 288.499 68.7764C289.859 77.9443 291.255 87.1123 292.616 96.2802C292.756 97.2562 293 98.2323 293.104 99.2083C293.279 101.056 292.686 101.544 291.011 100.742C287.94 99.3129 284.905 97.7791 281.869 96.315C275.762 93.3172 269.551 90.4936 263.55 87.2865C261.317 86.1013 259.607 86.3454 257.478 87.3911C248.197 91.8879 238.88 96.2105 229.529 100.568C228.866 100.882 228.028 100.777 227.261 100.847C227.191 100.15 226.982 99.4175 227.086 98.7203C228.238 91.5045 229.494 84.3235 230.68 77.1426C231.273 73.5869 231.867 70.0662 232.285 66.5106C232.39 65.6042 232.111 64.3493 231.518 63.7218C226.109 58.005 220.596 52.3927 215.153 46.7106C214.769 46.3272 214.734 45.6649 214.525 45.1071C215.083 44.9677 215.676 44.5842 216.2 44.6888C223.876 46.0832 231.553 47.5472 239.264 48.9067C245.301 49.9874 251.407 50.824 257.409 52.1138C260.723 52.811 263.899 54.1356 267.074 55.3557C271.854 57.2032 276.565 59.225 281.311 61.1771C282.846 61.8046 284.416 62.4321 285.812 62.9898C293.523 55.4602 301.235 47.9656 309.225 40.192C304.619 39.4251 300.362 38.7279 296.105 37.9959C289.65 36.9152 283.195 35.8695 276.774 34.7191C276.042 34.5797 275.169 33.9174 274.855 33.255C270.214 23.9477 265.678 14.5706 261.107 5.22838C260.933 4.87979 260.689 4.56605 260.305 3.93859C259.188 6.13471 258.106 8.15653 257.06 10.2132C253.187 17.9171 249.348 25.6558 245.336 33.2899C244.882 34.1265 243.242 34.5797 242.056 34.7888C236.891 35.7649 231.657 36.5318 226.458 37.473C221.608 38.3445 216.793 39.2508 211.977 40.2268C211.384 40.3314 210.721 40.8543 210.407 41.3423C206.569 47.373 202.801 53.4733 199.032 59.5388C198.962 59.6782 198.962 59.8873 198.892 60.2359C199.765 60.48 200.602 60.8285 201.475 60.968C204.336 61.456 207.197 61.8395 210.058 62.2926C214.525 62.9898 218.991 63.7218 223.422 64.4887C223.981 64.5933 224.853 64.9768 224.923 65.3254C224.993 65.8831 224.644 66.65 224.19 67.0683C220.457 70.7634 216.618 74.3538 212.85 78.014C211.384 79.4084 209.954 80.8376 208.663 82.4063C208.209 82.964 207.895 83.9749 208 84.6721C208.732 90.0753 209.64 95.4436 210.442 100.812C210.756 102.869 211.07 104.925 211.28 107.017C211.349 107.644 211.175 108.411 210.826 108.899C210.652 109.108 209.675 108.864 209.186 108.62C202.591 105.448 196.066 102.206 189.436 99.1038C188.739 98.79 187.587 98.8598 186.854 99.2083C179.945 102.381 173.106 105.657 166.232 108.899C164.941 109.492 164.209 108.829 164.418 107.226C164.802 104.751 165.255 102.311 165.639 99.8707C166.442 94.8858 167.209 89.9358 168.047 84.951C168.221 83.8355 167.907 83.0337 167.105 82.1623C164.348 79.1644 161.696 76.0619 158.975 73.0292C158.626 72.6458 158.242 72.2623 158.032 71.8091C157.858 71.4257 157.683 70.6936 157.893 70.4845C158.242 70.1359 158.905 69.857 159.358 69.9268C162.743 70.4496 166.093 71.1468 169.443 71.6697C174.956 72.5412 180.434 73.3429 185.982 74.075C186.575 74.1447 187.517 73.7612 187.831 73.3081C190.413 69.2644 192.926 65.1511 195.403 61.0377C195.717 60.5148 195.892 59.6782 195.682 59.1553C193.344 53.6824 190.902 48.2444 188.494 42.8064C188.145 42.179 188.006 42.0047 187.727 41.4469ZM219.235 47.3729C219.933 48.1747 220.317 48.6627 220.736 49.1159C225.062 53.6824 229.424 58.249 233.751 62.8504C234.205 63.3384 234.693 64.175 234.588 64.7676C233.96 69.125 233.193 73.4475 232.46 77.8049C231.518 83.3823 230.506 88.9946 229.564 94.5721C229.389 95.5133 229.424 96.4893 229.354 97.7094C231.902 96.5242 234.17 95.4784 236.473 94.3978C242.963 91.3302 249.523 88.3672 255.943 85.1601C258.944 83.6612 261.7 82.9989 264.597 85.1253C265.015 85.439 265.504 85.6133 265.957 85.8573C272.134 88.8901 278.345 91.9228 284.521 94.9555C286.37 95.8619 288.254 96.6985 290.278 97.6397C290.278 97.0471 290.313 96.6985 290.278 96.3499C289.51 90.7376 288.743 85.0904 287.905 79.4781C287.312 75.5391 286.614 71.6 286.091 67.6261C285.847 65.7785 285.114 64.6979 283.265 64.0007C278.345 62.1532 273.564 60.0616 268.679 58.1095C265.574 56.8546 262.573 55.2162 259.328 54.5191C252.035 52.9504 244.638 51.8698 237.275 50.58C233.786 49.9525 230.331 49.2902 226.842 48.6627C224.504 48.2096 222.097 47.861 219.235 47.3729ZM166.546 105.797C167.384 105.378 167.837 105.134 168.291 104.925C174.153 102.171 180.05 99.3826 185.912 96.6288C187.099 96.071 188.285 95.7573 189.576 96.4196C192.019 97.6745 194.496 98.8946 197.008 100.08C200.812 101.927 204.615 103.74 208.523 105.657C208.523 104.96 208.593 104.437 208.523 103.914C207.546 97.6048 206.604 91.3302 205.592 85.0207C205.278 83.1383 205.452 81.6045 206.953 80.1753C211.489 75.8179 215.92 71.356 220.387 66.9289C220.631 66.6849 220.805 66.3711 221.085 65.918C216.897 65.2208 212.955 64.5933 209.012 63.931C205.522 63.3384 202.033 62.7458 198.578 62.1183C197.497 61.9092 196.764 62.1183 196.136 63.1292C193.728 67.1032 191.181 70.9725 188.843 74.9813C188.145 76.2014 187.343 76.3757 186.156 76.1665C183.26 75.6436 180.364 75.1207 177.433 74.6676C173.071 73.9704 168.745 73.2732 164.383 72.6109C163.58 72.5063 162.778 72.6109 161.557 72.6109C164.278 75.6088 166.791 78.2929 169.163 81.0816C169.687 81.6742 170.28 82.6154 170.175 83.3126C169.547 87.7746 168.71 92.2017 167.977 96.6636C167.454 99.5569 167.07 102.485 166.546 105.797ZM301.095 71.8789C301.06 72.0183 300.99 72.1229 300.955 72.2623C303.817 75.2602 306.678 78.2581 309.469 81.3257C309.888 81.7788 310.307 82.5109 310.342 83.1035C310.342 84.3235 310.098 85.5087 309.888 86.7288C308.946 92.3063 307.969 97.9186 307.027 103.496C306.922 104.158 307.027 104.821 307.027 105.657C307.725 105.344 308.213 105.1 308.737 104.855C314.494 102.136 320.286 99.4175 326.044 96.6985C327.265 96.1059 328.486 95.7921 329.847 96.4893C333.685 98.4414 337.593 100.324 341.467 102.206C343.839 103.357 346.247 104.507 348.899 105.797C348.41 102.52 347.992 99.5569 347.538 96.5939C346.945 92.864 346.247 89.1689 345.759 85.439C345.584 84.0795 344.991 83.3823 343.77 82.9989C342.13 82.476 340.49 81.9183 338.885 81.2908C332.639 78.8855 326.323 76.7243 319.658 75.6436C316.623 75.1556 313.657 74.3887 310.656 73.7612C307.446 73.0989 304.27 72.5063 301.095 71.8789ZM160.126 84.8813C159.358 84.7418 158.381 84.4978 157.369 84.3235C153.671 83.6961 149.937 83.0686 146.238 82.5457C145.785 82.476 145.052 82.9292 144.738 83.3475C142.889 85.8225 141.144 88.3672 139.399 90.9119C138.771 91.8531 138.073 92.4108 136.817 92.0971C135.317 91.7137 133.747 91.5393 132.211 91.2953C129.141 90.8073 126.035 90.3193 122.965 89.7964C122.232 89.657 121.499 89.4478 120.766 89.3084C122.092 91.4696 123.697 93.1777 125.093 95.0253C125.582 95.6527 126 96.6636 125.896 97.4305C125.372 101.37 124.674 105.309 124.046 109.248C123.907 110.084 123.872 110.921 123.767 111.967C128.059 109.945 132.072 108.132 136.015 106.18C137.62 105.378 138.981 105.413 140.586 106.25C144.319 108.202 148.158 109.98 152.345 112.036C151.612 107.296 151.089 102.938 150.251 98.6506C149.867 96.7682 150.112 95.4087 151.507 94.0143C154.438 91.0862 157.23 87.9837 160.126 84.8813ZM398.029 87.7746C397.889 87.5654 397.784 87.3911 397.645 87.182C396.738 87.3911 395.83 87.6003 394.958 87.8094C392.097 88.4718 389.236 89.1341 386.339 89.7615C383.618 90.3193 380.861 91.2953 378.174 91.1908C374.615 91.0513 371.126 90.0404 367.602 89.4478C365.403 89.0644 363.24 88.7506 360.484 88.3323C362.472 90.4936 364.182 92.2017 365.718 94.0492C366.241 94.6767 366.729 95.6527 366.625 96.4196C366.136 100.254 365.438 104.089 364.81 107.888C364.671 108.829 364.601 109.805 364.496 110.747C364.81 110.782 364.95 110.851 365.055 110.816C369.067 108.934 373.045 107.017 377.093 105.239C378 104.856 379.256 104.646 380.163 104.96C381.943 105.553 383.583 106.564 385.293 107.4C387.735 108.585 390.178 109.771 392.934 111.095C392.76 109.771 392.69 108.795 392.516 107.819C391.922 104.089 391.329 100.394 390.736 96.6636C390.562 95.5133 390.736 94.5721 391.678 93.7006C393.842 91.7834 395.9 89.7615 398.029 87.7746ZM467.92 85.7179C480.412 85.7527 492.939 85.8225 505.43 85.7876C505.954 85.7876 506.442 85.1253 506.966 84.7767C506.442 84.4281 505.919 83.7309 505.43 83.7309C493.567 83.6263 481.668 83.6264 469.804 83.5915C468.374 83.5915 467.606 84.219 467.362 85.5087C467.606 85.6133 467.78 85.7179 467.92 85.7179Z" fill="url(#paint0_linear)"/>
</g>
<defs>
<linearGradient id="paint0_linear" x1="444.501" y1="84.501" x2="86.9452" y2="32.6076" gradientUnits="userSpaceOnUse">
<stop offset="0.0937085" stop-color="#5069F8"/>
<stop offset="0.589603" stop-color="#01DCEA"/>
<stop offset="1" stop-color="#01DCEA"/>
</linearGradient>
<clipPath id="clip0">
<rect width="507" height="115" fill="white"/>
</clipPath>
</defs>
</svg>
