<svg width="703" height="325" viewBox="0 0 703 325" fill="none" xmlns="http://www.w3.org/2000/svg">
<g clip-path="url(#clip0)">
<path fill-rule="evenodd" clip-rule="evenodd" d="M316.949 62.3328C317.086 62.3688 317.222 62.4048 317.352 62.448L317.373 62.4268L317.399 62.3996L317.439 62.3576L317.468 62.3272C317.626 62.1587 317.792 61.9815 318 61.9294C317.597 61.5455 317.211 61.1331 316.825 60.7209L316.825 60.7206L316.824 60.72C315.908 59.7408 314.993 58.7628 313.853 58.1699C297.071 49.16 280.223 40.3445 263.376 31.529C260.59 30.0382 257.544 28.4177 254.499 28.0936C247.242 27.3157 242.576 31.4642 239.401 37.6869L205.577 104.386C195.212 124.736 184.781 145.086 174.351 165.436L174.345 165.446C171.627 170.753 168.901 176.057 166.176 181.36L166.173 181.367L166.154 181.402C156.871 199.469 147.589 217.532 138.577 235.711C135.338 242.258 130.607 244.656 123.739 244.591C105.343 244.488 55.3697 244.508 24.0413 244.521C15.974 244.524 9.14315 244.527 4.40619 244.527C3.17505 244.527 2.0087 244.591 0.84236 244.786C0.453578 244.851 0 245.499 0 245.888C0.0647969 246.212 0.583172 246.73 0.971953 246.86C1.43943 247.016 1.99017 247.005 2.52406 246.995C2.6562 246.992 2.78731 246.99 2.91586 246.99H126.784C132.681 246.99 137.022 244.267 139.614 239.276C146.383 226.345 152.992 213.293 159.598 200.247L159.601 200.241L159.607 200.229L159.613 200.217C161.413 196.663 163.212 193.11 165.015 189.559C169.453 180.841 173.892 172.107 178.33 163.372C182.769 154.638 187.207 145.903 191.646 137.185C195.585 129.454 199.564 121.724 203.547 113.987L203.548 113.986L203.548 113.986L203.548 113.985L203.548 113.985C208.215 104.921 212.886 95.8474 217.5 86.7554C220.511 80.8255 223.505 74.8956 226.497 68.9688L226.504 68.955L226.504 68.9543L226.505 68.9539L226.505 68.9528C231.753 58.5589 236.996 48.1746 242.317 37.8165C246.075 30.5567 252.944 28.7418 260.201 32.7606C262.146 33.826 264.124 34.8252 266.111 35.8292L266.112 35.8293L266.117 35.8318L266.118 35.8328L266.12 35.8335C266.911 36.233 267.703 36.6332 268.495 37.0387C270.869 38.2644 273.26 39.4617 275.651 40.6592C281.353 43.5149 287.057 46.3712 292.535 49.6137C295.763 51.5135 299.151 53.0838 302.536 54.6528C307.235 56.8311 311.929 59.007 316.186 62.0591C316.402 62.1887 316.675 62.2607 316.949 62.3328ZM309.624 72.5519C309.224 72.5165 308.825 72.4812 308.445 72.4212C308.315 72.8095 308.186 73.2626 308.121 73.8452C308.386 74.0125 308.651 74.1828 308.917 74.3536L308.917 74.3538C309.884 74.9756 310.86 75.6028 311.875 76.1106C317.088 78.7819 322.321 81.4427 327.559 84.1057C335.393 88.089 343.237 92.077 351.034 96.1115C356.536 98.9595 358.736 105.562 356.147 111.193C353.817 116.177 351.293 121.096 348.769 126.016C344.141 135.078 339.497 144.123 334.853 153.169C330.209 162.215 325.565 171.26 320.937 180.322C310.192 201.294 299.513 222.33 288.898 243.367C287.668 245.827 286.179 246.668 283.461 246.668C265.208 246.539 247.02 246.603 228.768 246.733C226.373 246.733 223.719 246.992 221.648 248.092C216.405 250.811 213.816 255.406 214.01 261.491C214.204 267.252 217.182 271.329 222.036 273.724C231.818 278.586 241.712 283.169 251.562 287.731L251.564 287.732L251.569 287.735L251.571 287.736L253.881 288.806C254.417 289.029 255.137 288.914 255.851 288.799L255.852 288.799L255.852 288.799L255.853 288.799L255.854 288.799L255.855 288.799L255.856 288.799L255.856 288.799C256.176 288.747 256.494 288.696 256.794 288.676C256.276 287.317 255.823 286.799 255.24 286.54C252.439 285.212 249.629 283.893 246.817 282.573L246.815 282.572C242.089 280.354 237.358 278.132 232.651 275.86C231.855 275.481 231.052 275.108 230.247 274.735L230.244 274.733L230.241 274.732L230.238 274.73L230.235 274.729L230.232 274.727L230.229 274.726L230.229 274.726C226.789 273.129 223.327 271.523 220.289 269.323C216.47 266.604 215.564 261.038 217.246 256.701C219.123 251.782 223.072 248.869 228.314 248.869C246.761 248.804 265.208 248.804 283.655 248.804C284.05 248.804 284.445 248.876 284.913 248.962C285.213 249.017 285.542 249.077 285.92 249.128C284.924 251.092 283.951 252.99 282.995 254.853L282.993 254.857L282.993 254.858C281.651 257.474 280.344 260.021 279.059 262.591C278.419 263.853 277.725 265.098 277.032 266.343C275.415 269.247 273.797 272.151 272.846 275.278C271.357 280.068 269.156 283.757 264.69 286.087C263.919 286.447 263.229 287.053 262.555 287.644C262.382 287.796 262.209 287.948 262.036 288.094C262.101 288.256 262.15 288.401 262.198 288.547C262.247 288.693 262.295 288.838 262.36 289C262.583 288.981 262.81 288.974 263.039 288.966C263.608 288.946 264.182 288.926 264.69 288.741C268.861 287.256 270.812 283.652 272.682 280.201L272.683 280.199C272.931 279.741 273.178 279.285 273.428 278.838C276.522 273.238 279.402 267.519 282.284 261.797L282.285 261.796L282.285 261.795L282.286 261.794L282.286 261.793L282.287 261.792L282.287 261.791L282.288 261.79L282.289 261.789L282.289 261.788L282.289 261.787L282.29 261.786L282.29 261.785L282.291 261.784L282.291 261.784L282.292 261.783L282.292 261.782C284.171 258.051 286.051 254.319 287.991 250.616C288.445 249.71 289.933 248.869 290.969 248.869C295.286 248.772 299.566 248.784 303.864 248.796H303.865H303.866H303.866H303.867H303.868H303.868H303.869H303.869L303.88 248.796C305.312 248.8 306.747 248.804 308.186 248.804H311.875C311.94 248.48 312.005 248.092 312.069 247.704C311.626 247.581 311.185 247.459 310.736 247.334L310.731 247.333L310.731 247.332L310.728 247.332L310.727 247.331C309.279 246.928 307.733 246.499 305.662 245.956C306.358 244.685 307.042 243.46 307.711 242.262L307.711 242.261C309.155 239.675 310.528 237.214 311.81 234.693C316.505 225.433 321.2 216.189 325.895 206.945C330.585 197.709 335.276 188.474 339.966 179.222L374.529 110.869L374.586 110.758C376.703 106.589 378.792 102.475 377.701 97.4708C376.407 91.6453 372.329 88.6031 367.41 86.0787C360.716 82.6228 354.043 79.0851 347.368 75.546C342.166 72.788 336.962 70.0292 331.746 67.3077C329.03 65.8489 326.274 64.5074 323.51 63.1617C322.718 62.7758 321.924 62.3895 321.131 62C320.937 62.3236 320.678 62.712 320.419 63.0356C320.736 63.3524 321.034 63.6934 321.331 64.0327C322.006 64.8027 322.672 65.5638 323.526 66.0131C337.765 73.5215 352.07 81.0299 366.374 88.3442C375.241 92.8104 377.83 99.6068 372.588 109.186C368.449 116.646 364.629 124.297 360.815 131.938L360.815 131.939C359.201 135.171 357.589 138.402 355.953 141.615C351.816 149.793 347.695 157.987 343.573 166.182L343.558 166.213C339.432 174.416 335.306 182.62 331.163 190.808C328.121 196.828 325.078 202.865 322.036 208.902L322.002 208.969C318.972 214.982 315.941 220.994 312.911 226.991C310.063 232.687 307.15 238.383 304.173 244.014C303.655 244.985 302.749 246.28 301.907 246.344C299.218 246.537 296.565 246.515 293.63 246.491H293.63C292.609 246.483 291.554 246.474 290.451 246.474C290.734 245.822 290.98 245.236 291.206 244.695C291.655 243.627 292.028 242.738 292.458 241.878C296.209 234.504 299.961 227.145 303.713 219.787L303.724 219.766C307.476 212.406 311.229 205.046 314.982 197.669C318.995 189.805 322.992 181.957 326.989 174.108C330.985 166.26 334.982 158.412 338.995 150.547C341.333 145.94 343.688 141.341 346.042 136.745C350.268 128.49 354.491 120.243 358.607 111.97C361.779 105.562 358.672 97.0824 352.329 93.7813C338.93 86.8554 325.532 79.9296 312.134 73.0684C311.419 72.7107 310.518 72.631 309.624 72.5519ZM686.74 248.482L686.733 248.482C682.806 248.127 678.879 247.773 674.951 247.527C673.61 247.434 672.195 247.663 670.819 247.885C670.395 247.954 669.975 248.022 669.562 248.08C669.161 248.129 668.76 248.217 668.359 248.305C667.757 248.438 667.155 248.57 666.554 248.57C586.275 248.632 563.994 248.632 483.715 248.632C435.147 248.632 386.579 248.632 338.073 248.693C337.206 248.693 336.365 248.64 335.515 248.586L335.515 248.586L335.514 248.586L335.513 248.586L335.512 248.586L335.511 248.586C335.074 248.558 334.635 248.53 334.188 248.509L334 247.405C334.146 247.372 334.291 247.338 334.437 247.304C334.636 247.257 334.835 247.208 335.034 247.159C336.068 246.906 337.102 246.653 338.136 246.607C341.569 246.515 345.037 246.527 348.487 246.538H348.488C349.636 246.542 350.782 246.546 351.923 246.546H472.811C520.726 246.504 541.728 246.462 572.464 246.401H572.469L572.491 246.401L572.523 246.401C586.918 246.372 603.451 246.339 625.882 246.3C632.368 246.3 638.839 246.254 645.309 246.208C651.78 246.162 658.25 246.116 664.737 246.116C666.068 246.116 667.399 246.316 668.73 246.517C670.156 246.731 671.582 246.946 673.009 246.914C675.561 246.875 678.113 246.662 680.665 246.449L680.666 246.449L680.667 246.449L680.668 246.449L680.668 246.449L680.669 246.449C682.126 246.327 683.584 246.205 685.041 246.116C686.608 245.993 688.174 245.932 689.741 246.116C690.481 246.237 691.193 246.595 691.896 246.948C692.266 247.134 692.633 247.318 693 247.466C692.875 248.018 692.749 248.509 692.624 249C690.663 248.837 688.701 248.66 686.74 248.482ZM253.65 81.6165L253.65 81.6122C253.328 76.8116 253.013 72.1043 252.709 67.5271C252.194 62.3385 253.353 59.1605 255.735 56.4365C260.177 51.6371 265.328 51.3777 271.959 54.9448C279.278 58.9282 286.758 62.6937 294.203 66.4409L294.322 66.5008C294.959 66.8213 295.595 67.1418 296.232 67.4622C296.749 67.7227 297.41 67.6345 298.061 67.5477C298.383 67.5048 298.702 67.4622 299 67.4622C298.814 67.2333 298.648 66.9777 298.483 66.7232C298.133 66.1846 297.786 65.6511 297.262 65.3868C294.249 63.7619 291.193 62.2073 288.135 60.6519L288.134 60.6517L288.134 60.6514C282.892 57.9854 277.645 55.3166 272.603 52.2857C261.916 45.8648 248.46 53.6477 250.327 67.2028C250.928 71.4863 251.071 75.7988 251.214 80.1208C251.285 82.2773 251.357 84.4362 251.486 86.5951C251.904 93.2105 252.339 99.8422 252.773 106.474C253.208 113.105 253.642 119.737 254.061 126.353C254.492 132.915 254.816 139.513 255.139 146.094L255.14 146.095L255.14 146.102L255.14 146.109C255.251 148.369 255.362 150.626 255.477 152.879C255.67 156.835 254.383 160.273 251.292 162.802C240.034 172.017 228.749 181.205 217.454 190.401L217.426 190.424L217.405 190.442L217.398 190.447L217.374 190.466C211.127 195.552 204.877 200.641 198.627 205.738C196.382 207.573 194.137 209.405 191.892 211.238L191.889 211.24L191.888 211.241L191.885 211.244C181.517 219.707 171.165 228.157 160.899 236.739C153.366 243.031 154.783 255.353 163.346 259.893C169.496 263.126 175.676 266.234 181.867 269.346L181.868 269.347L181.877 269.352C184.626 270.734 187.378 272.118 190.129 273.513C197.044 277.013 203.976 280.512 210.908 284.012L210.927 284.022C217.863 287.523 224.8 291.025 231.72 294.527C232.405 294.872 233.086 295.22 233.766 295.568C236.028 296.725 238.278 297.875 240.605 298.873C241.049 299.096 241.677 298.98 242.299 298.866C242.578 298.814 242.856 298.763 243.116 298.743C242.984 298.554 242.864 298.348 242.743 298.141L242.743 298.141L242.742 298.141C242.449 297.64 242.155 297.137 241.699 296.862C240.514 296.083 239.245 295.429 237.96 294.766C237.641 294.601 237.32 294.436 236.999 294.268C224.702 288.041 212.47 281.88 200.237 275.719C196.288 273.73 192.332 271.762 188.376 269.795C180.464 265.86 172.552 261.926 164.698 257.818C157.358 253.991 156.521 243.939 162.831 238.555C169.443 232.91 176.201 227.413 182.937 221.935L182.954 221.92C183.952 221.109 184.948 220.298 185.944 219.487L185.957 219.477C208.036 201.45 230.115 183.423 252.194 165.461C256.443 162.024 258.439 157.549 258.117 151.971C257.879 148.063 257.648 144.147 257.416 140.229L257.415 140.209L257.414 140.189L257.413 140.171L257.412 140.154L257.411 140.139L257.41 140.122L257.41 140.116C256.956 132.433 256.502 124.741 255.992 117.078C255.222 105.077 254.42 93.1077 253.654 81.6676L253.651 81.6266L253.65 81.6165ZM261.344 307.297C261.492 307.26 261.64 307.222 261.79 307.183C262.666 306.958 263.563 306.727 264.421 306.727C269.75 306.792 273.237 303.982 275.605 299.602C276.994 297.024 278.302 294.405 279.608 291.79C280.652 289.699 281.695 287.611 282.776 285.549C283.138 284.875 283.717 284.325 284.3 283.771L284.301 283.771L284.301 283.77C284.566 283.518 284.832 283.266 285.079 283C285.243 283.098 285.391 283.196 285.539 283.294C285.687 283.392 285.836 283.49 286 283.588C285.912 283.915 285.846 284.249 285.781 284.583L285.781 284.584C285.649 285.252 285.517 285.92 285.211 286.53C282.711 291.563 280.145 296.596 277.513 301.629C274.092 308.23 265.211 311.041 261 307.38C261.04 307.371 261.079 307.362 261.119 307.352C261.194 307.334 261.269 307.316 261.344 307.297ZM287.477 280.087C290.243 276.258 292.88 272.606 294 268C290.98 268.555 285.145 278.916 286.106 282C286.562 281.355 287.021 280.719 287.476 280.088L287.477 280.087ZM247 301.079C248.989 300.391 257.46 304.332 259 306.709C256.369 307.897 250.914 305.333 247 301.079ZM315 246.736C321.618 245.31 329.458 246.061 331 248.088C326.952 249.74 316.799 249.064 315 246.736ZM294.426 265C293.295 262.692 294.63 261.038 295.941 259.414C296.577 258.626 297.207 257.845 297.547 257C300.348 258.744 298.988 262.353 294.426 265ZM302.176 68.0531C302.028 68.0824 301.874 68.113 301.732 68.113C301.65 68.2381 301.557 68.3633 301.462 68.492C301.304 68.7074 301.137 68.9327 301 69.1843C301.512 69.4967 302.016 69.8166 302.52 70.1365C303.528 70.7763 304.537 71.4161 305.61 71.9963C305.716 72.045 306.17 71.5986 306.579 71.1968C306.733 71.0457 306.88 70.901 307 70.7912L306.999 70.7907C305.609 69.8535 304.219 68.9163 302.756 68.046C302.622 67.9644 302.407 68.0072 302.176 68.0531Z" fill="url(#paint0_linear)"/>
</g>
<defs>
<linearGradient id="paint0_linear" x1="42.95" y1="185" x2="334.797" y2="-97.0301" gradientUnits="userSpaceOnUse">
<stop stop-color="#01DCEA"/>
<stop offset="1" stop-color="#5069F8"/>
</linearGradient>
<clipPath id="clip0">
<rect width="703" height="325" fill="white"/>
</clipPath>
</defs>
</svg>
