<svg width="703" height="325" viewBox="0 0 703 325" fill="none" xmlns="http://www.w3.org/2000/svg">
<g clip-path="url(#clip0)">
<path d="M0 246.39H116.53C131.96 246.39 133.03 250.08 145.83 224.92C158.63 199.76 234.83 50.09 240.19 39.6C245.55 29.11 252.19 28.76 262.43 33.98C272.67 39.2 360.55 84.68 365.43 87.87C370.31 91.06 378.6 95.27 370.74 110.35C362.88 125.43 279.65 289 275.78 296.84C271.91 304.68 268.9 310.53 252.56 302.45C240.64 296.56 174.67 263.3 168.21 259.67C161.75 256.04 157.21 254.38 157.63 247.28C158.03 241.11 163.29 236.84 166.04 234.54C168.18 232.77 217.6 193.47 241.79 172.67C248.84 166.67 254.23 162.78 255.44 159.98C256.78 156.9 255.12 143.14 254.28 125.98C253.05 101.09 252 70.68 251.64 65.55C251 56.87 254.88 54.17 256.87 53.18C258.86 52.19 261.72 50.09 276.23 57.28C291.47 64.82 337 89.22 347 94.07C357 98.92 357.67 105.85 353.56 114.07C349.45 122.29 279.07 260.93 274.42 268.87C269.77 276.81 265.08 291.19 249.8 284C234.52 276.81 227.12 273.44 223.14 271.28C217.45 268.18 212.29 263.77 215.07 256.12C217.85 248.47 227.01 248.42 237.01 248.4C247.01 248.38 702.01 248.4 702.01 248.4" stroke="url(#paint0_linear)" stroke-width="2" stroke-linecap="round" stroke-linejoin="round"/>
</g>
<defs>
<linearGradient id="paint0_linear" x1="263.18" y1="399.5" x2="438.83" y2="95.28" gradientUnits="userSpaceOnUse">
<stop stop-color="#01DCEA"/>
<stop offset="1" stop-color="#5069F8"/>
</linearGradient>
<clipPath id="clip0">
<rect width="703" height="325" fill="white"/>
</clipPath>
</defs>
</svg>
