<svg width="953" height="603" viewBox="0 0 953 603" fill="none" xmlns="http://www.w3.org/2000/svg">
<g clip-path="url(#clip0)">
<path d="M951.5 601.2L758.5 600.5L639.8 543L634.3 540.3L625.3 535.8L622 534.1L552.8 498.6L588.3 423.6C588.3 423.6 591 447.4 606.6 477.4C622.3 507.4 653.9 517.4 653.9 517.4L658.1 518.2C671.1 520.7 680.3 518.2 690.4 511C700.5 503.8 705.7 481.7 705.7 481.7L706.9 477.4L709.1 471.1L711.3 465.9C711.3 465.9 714 452.2 726.6 426.4C739.3 400.6 757.8 386.7 786.8 379.6C815.8 372.4 839.1 364.1 839.1 364.1L845.6 362.6C860.1 357.8 892.3 341.8 892.3 341.8L868 329L861.2 325.8L692.8 240C692.8 240 694.5 252.8 692.8 261.2C691.1 269.5 681.8 307.9 651.6 350.2C621.4 392.5 599.8 389.7 599.8 389.7L595.8 388.7H592.8L587.5 385.5C574.2 379 567.2 349.2 567.2 349.2L542.4 382.9C542.4 382.9 563.7 393.2 577.1 400.9C590.4 408.6 596.1 423.7 596.1 423.7L684.9 243.7C684.9 243.7 660.2 223.9 657.4 223.2C654.6 222.5 647.3 224.9 637.7 224.5C628.1 224.1 624 204.7 624 204.7L650.8 228L569.8 344.5C569.8 344.5 562 336.7 548.8 328C535.6 319.3 519.8 321.8 520.3 318.5C520.8 315.2 527.1 308.2 536 296.5C544.9 284.8 563.8 267.8 570 263.8C576.2 259.8 586.7 259.8 561.7 288.8C536.7 317.8 517 317.8 485.5 313C454 308.2 450.8 298.7 430.7 300.7C410.6 302.7 390.6 323.5 390.6 323.5C390.6 323.5 418.1 315 429.4 313.2C440.7 311.4 470.7 303.2 470.7 303.2L478.9 301.4C478.9 301.4 505.9 289.4 527.2 270.4C548.5 251.4 597.9 227.6 617.5 202.1C637.2 176.6 626.5 163.4 626.5 163.4L622.2 159.4C622.2 159.4 607.1 155.5 589.4 163.2C571.7 170.9 555.6 185 557.7 184.7C559.9 184.4 634 153.9 616.7 124.2C599.4 94.5 550.2 129.7 550.2 129.7C550.2 129.7 555.4 129.9 580.4 121.7C605.4 113.5 619.6 73.7 588.1 68C554.6 62 527 78.3 527 78.3C527 78.3 535.8 79 539.2 79C542.5 79 587 74.3 586 48.2C585 22.1 545.8 14 519.7 24.7C493.5 35.4 490.4 32.9 478.7 26.2C467 19.5 463.4 10.2 463.4 10.2C463.4 10.2 472.7 2.4 489.7 2.4C506.7 2.4 517 23.2 517 23.2C517 23.2 517.8 22.2 515 25.5C512.2 28.8 497.4 33.3 488.5 34.3C479.6 35.3 434.8 56.3 418 61.8C401.2 67.3 371.3 63 371 64.1C370.7 65.3 412.2 79.6 427.8 68.8C443.5 58 447.1 46.1 446.8 33C446.5 19.8 444.5 20.3 440 34.2C435.5 48.1 439 58.7 439 58.7C439 58.7 442 61.4 449.7 59.5C457.4 57.7 470.7 50.2 482.4 42.2C494.1 34.2 503.6 30.7 503.6 30.7C503.6 30.7 445.6 1.5 435.9 1.5C426.2 1.5 419.2 14.5 397.4 30C375.6 45.5 347.9 49.8 335.6 61.2C323.3 72.5 330.3 90.9 330.3 90.9C330.3 90.9 318.7 76.4 325.7 61.9C332.7 47.4 347.7 45.7 347.7 45.7L351.7 44.7C355.4 45 363 46.4 363 46.4C363 46.4 357.5 53.2 360.5 59.9C363.5 66.6 379.6 72.2 379.6 72.2C400.6 80.3 408.7 89.6 409.7 98.7C410.7 107.8 394.3 123 394.3 123C394.3 123 395.9 131.4 394.7 140.5C393.5 149.6 386.6 158.8 386.6 158.8C386.6 158.8 399.9 155.9 404.1 143C408.3 130.1 395.2 120.3 376.7 111.5C358.2 102.7 330.3 90.9 330.3 90.9C330.3 90.9 304.4 95.5 302.6 111.2C300.8 126.9 319.2 143.6 319.2 143.6C319.2 143.6 314.9 145 310.2 156.4C305.5 167.8 306.6 177.7 306.6 177.7C306.6 177.7 298.6 161.4 300.3 154.2C302 147 309.7 142.7 322.7 142.9C335.7 143.1 353 147.2 360.2 149.4C367.4 151.6 392.3 155.3 386.8 178.6C383 194.7 363.5 194.4 345.6 189.8C345.2 189.7 342.9 197.2 337.2 202.2C330.3 208.2 317.8 211.8 317.3 211.7C316.6 211.5 335.5 214 343.9 207.7C348.9 204 347.4 190.3 347.1 190.1C341.2 188.3 328.2 184.1 323.8 182.2C304.8 173.7 295 181.7 293 188.5C291 195.3 285 208.8 300 215.8C315 222.8 354.8 261.1 360.5 330.1C366.2 399.1 326.2 429.6 326.2 429.6L325.9 433.1L405.7 400.6C405.7 400.6 395.2 352.3 367.4 295.8C339.6 239.3 305.7 208.4 305.7 208.4L254.7 234L259.2 302.9V307.4L259.9 311.9L259.6 315.4C259.6 315.4 266.6 402.4 264.1 440.4C261.6 478.4 239.6 503 239.6 503L235 510.3L232.4 513.3L229.6 516.9L226 521.8L219.4 529.7L214.8 535.3L211.8 538.7L209.5 541.6L201.7 550.7L160.4 596C160.4 596 190.4 570 272.4 547C354.4 524 373.4 528 373.4 528C373.4 528 361.4 464 333.4 387C305.4 310 295 290.3 295 290.3L293 286.3L291 283.3L289 279.3C289 279.3 278 262.3 269 250.3C260 238.3 245 224.3 245 224.3C245 224.3 179.2 262.8 147 278.1C114.8 293.4 75.2 316.1 67.2 317.9C59.2 319.7 37.4 317.9 37.4 317.9L30 318.7H25H17.6H1.5" stroke="url(#paint0_linear)" stroke-width="3" stroke-miterlimit="10" stroke-linecap="round" stroke-linejoin="round"/>
</g>
<defs>
<linearGradient id="paint0_linear" x1="249.467" y1="686.922" x2="744.505" y2="191.884" gradientUnits="userSpaceOnUse">
<stop stop-color="#4D71D5"/>
<stop offset="1" stop-color="#9243C1"/>
</linearGradient>
<clipPath id="clip0">
<rect width="953" height="602.7" fill="white"/>
</clipPath>
</defs>
</svg>
