<svg width="950" height="603" viewBox="0 0 950 603" fill="none" xmlns="http://www.w3.org/2000/svg">
<path fill-rule="evenodd" clip-rule="evenodd" d="M380.281 71.4468L380.28 71.4466C378.727 70.6998 377.172 69.9522 375.63 69.1711C375.63 69.099 375.639 69.036 375.651 68.9578C375.669 68.8302 375.694 68.6621 375.694 68.348C375.909 68.4018 376.136 68.4213 376.36 68.4405C376.662 68.4665 376.959 68.4921 377.214 68.6012C385.067 71.7673 393.11 73.9203 401.597 74.4902C415.277 75.44 427.754 72.8438 437.19 61.8258C437.697 61.2559 438.9 60.6227 439.534 60.8127C445.487 62.5857 450.807 60.4327 455.81 57.7099C460.965 54.9225 466.02 51.9857 471.068 49.0526L471.069 49.0523L471.07 49.0516L471.071 49.0511C475.885 46.2544 480.693 43.4608 485.577 40.803C487.137 39.9537 488.655 38.999 490.177 38.0425C494.893 35.077 499.635 32.0955 505.717 32.1912C505.988 32.1912 506.26 32.0297 506.531 31.8682C506.64 31.8036 506.748 31.7389 506.857 31.6847C516.547 26.3656 526.87 22.9463 537.954 22.1864C551.19 21.3632 563.604 23.5795 574.117 32.2546C583.617 40.1065 585.58 50.1113 579.12 59.103C577.22 61.6992 574.497 64.6753 571.647 65.3085C566.929 66.385 562.147 67.1132 557.365 67.8414C552.584 68.5696 547.802 69.2978 543.084 70.3743C537.646 71.6251 532.319 73.6435 527.018 75.6519L527.014 75.6532L527.014 75.6534C525.339 76.288 523.666 76.9216 521.994 77.5296C521.502 77.7083 521.168 78.3284 520.836 78.945L520.836 78.946C520.697 79.2029 520.559 79.4591 520.41 79.6826C520.655 79.7844 520.899 79.9189 521.146 80.0546C521.666 80.3409 522.195 80.6324 522.754 80.6324C526.427 80.6957 530.164 80.6324 533.837 80.4424C545.364 79.8092 556.574 77.5929 566.96 72.2739C567.534 71.9743 568.103 71.6632 568.671 71.3525L568.672 71.3521C572.306 69.3646 575.904 67.3965 580.45 68.6012C581.696 68.9489 582.996 69.1508 584.293 69.3524C585.831 69.5914 587.367 69.8301 588.81 70.3109C593.624 71.8307 597.74 74.3635 600.4 78.9227C605.277 87.3445 603.694 100.199 595.65 108.177C594.384 109.444 592.737 111.027 591.154 111.153C582.54 111.85 574.307 113.876 566.58 117.612C561.311 120.151 556.224 123.051 551.125 125.957C549.482 126.894 547.838 127.831 546.187 128.757C545.698 129.024 545.427 129.666 545.156 130.309C545.041 130.582 544.926 130.855 544.794 131.1C545.015 131.163 545.241 131.238 545.47 131.315C546.155 131.543 546.868 131.781 547.58 131.733C548.521 131.69 549.433 131.474 550.336 131.261C550.77 131.158 551.202 131.055 551.634 130.973C564.49 128.567 577.03 125.148 588.114 117.929C592.357 115.206 596.22 113.94 601.477 115.459C611.484 118.435 618.07 129.137 614.967 139.078C612.054 148.387 606.544 154.719 596.664 157.948C579.944 163.457 565.82 173.779 552.204 184.67C551.824 184.966 551.669 185.486 551.514 186.007C551.437 186.267 551.359 186.527 551.254 186.76C551.477 186.834 551.716 186.941 551.961 187.05C552.55 187.314 553.168 187.59 553.66 187.456L554.327 187.238L554.328 187.237L554.33 187.237C558.166 185.979 562.05 184.706 565.82 183.15C578.36 177.895 589.38 170.296 599.83 161.811C602.934 159.278 606.164 158.075 609.9 158.202C612.034 158.289 614.167 158.705 616.301 159.121C617.271 159.31 618.241 159.5 619.21 159.658C619.539 159.707 619.864 159.757 620.186 159.806C620.485 159.852 620.782 159.897 621.079 159.943C621.696 160.038 622.314 160.133 622.947 160.228C620.246 155.998 616.232 155.706 611.895 155.389C610.844 155.313 609.773 155.235 608.697 155.099C616.107 147.437 620.35 139.078 617.944 128.757C615.474 118.182 607.62 113.433 597.36 111.47C597.507 111.226 597.637 111.003 597.756 110.797C598.102 110.203 598.361 109.757 598.69 109.38C604.517 102.858 606.67 95.2597 605.974 86.648C605.277 78.2262 599.514 70.6909 591.407 68.2846C588.618 67.4523 585.748 66.8115 582.849 66.1644L582.848 66.1643C581.336 65.8268 579.817 65.4875 578.297 65.1186C578.421 64.9535 578.531 64.7953 578.637 64.6437C578.855 64.3299 579.054 64.045 579.31 63.7888C589 53.7206 587.164 40.1698 577.664 31.3681C568.544 22.8829 557.46 19.7169 545.427 19.0203C535.61 18.4504 526.174 20.6667 517.624 23.4528C516.646 22.1906 515.715 20.9349 514.797 19.6983L514.795 19.6956C512.86 17.0872 510.989 14.5641 508.884 12.2449C500.777 3.18987 491.024 -1.87587 478.61 1.86012C475.115 2.90454 471.772 4.38219 468.437 5.85657L468.437 5.85673C466.515 6.7064 464.595 7.55499 462.65 8.31894C461.7 8.69887 460.244 8.76219 459.294 8.38226C457.237 7.55986 455.205 6.6544 453.17 5.74806C450.505 4.56084 447.837 3.37213 445.107 2.36669C439.407 0.277072 433.39 -1.49594 427.69 1.92344C424.247 3.99981 421.134 6.642 418.026 9.28038L418.026 9.28052L418.025 9.28096L418.023 9.2833L418.021 9.28424L418.021 9.28447C417.529 9.70224 417.037 10.1199 416.544 10.5352C413.963 12.7004 411.45 14.9242 408.943 17.1427L408.942 17.1438L408.941 17.144C404.557 21.0239 400.191 24.8873 395.517 28.3919C385.637 35.8006 374.174 40.3597 362.774 44.7923C362.113 45.0972 361.248 44.9534 360.441 44.8193C360.243 44.7864 360.048 44.7539 359.86 44.7289L359.858 44.7287L359.857 44.7285C356.375 44.2854 352.893 43.8423 349.22 43.3359C349.608 46.3967 351.347 46.5519 353.216 46.7187C354.093 46.797 354.998 46.8778 355.807 47.2618C355.37 47.5019 355.002 47.7118 354.672 47.8995L354.672 47.8996C354.045 48.2564 353.56 48.5326 353.02 48.7815C352.037 49.208 351.049 49.6237 350.06 50.0396L350.06 50.0397L350.059 50.0402C347.671 51.0443 345.279 52.05 342.95 53.2141C333.324 58.0898 326.167 64.8019 325.534 76.3898C325.492 77.3108 325.505 78.2041 325.52 79.1062V79.1068V79.1075V79.1082V79.1089V79.1096V79.1103V79.1111V79.1118V79.1126V79.1134V79.1142V79.1151V79.116V79.1168V79.1178V79.1187V79.1197V79.1221C325.527 79.5794 325.534 80.039 325.534 80.5057C319.517 70.0576 326.484 51.5677 347.827 46.8186C347.574 44.4757 346.117 44.0957 344.28 44.7289L343.958 44.8362C341.591 45.6243 339.178 46.4276 336.997 47.5784C324.394 54.2272 315.844 68.4113 322.874 83.6718C323.824 85.6981 324.837 87.7244 325.724 89.4974C323.981 90.3686 322.238 91.1799 320.514 91.9827C317.224 93.5141 314 95.0149 310.967 96.8428C303.557 101.212 298.3 107.481 299.694 116.599C300.454 121.538 302.797 126.351 305.14 130.847C306.451 133.298 308.213 135.524 310.05 137.844L310.051 137.846L310.051 137.846C310.966 139.001 311.899 140.18 312.804 141.421C312.242 141.568 311.736 141.705 311.265 141.833C310.516 142.036 309.855 142.216 309.194 142.371C302.354 143.827 297.224 149.147 297.224 155.922C297.224 159.721 298.174 163.647 299.25 167.32C299.853 169.514 300.835 171.62 301.86 173.817L301.86 173.817C302.343 174.854 302.837 175.912 303.304 177.008C294.627 178.718 291.207 185.05 289.244 192.269C289.197 192.445 289.149 192.623 289.102 192.8L288.984 193.237C287.207 199.848 285.35 206.754 291.207 212.912C289.37 213.988 287.914 214.811 286.457 215.571C282.519 217.686 278.571 219.782 274.624 221.877L274.622 221.878C268.289 225.241 261.959 228.602 255.677 232.035C254.157 232.921 253.27 232.731 252.194 231.528C249.787 228.869 247.317 226.209 244.72 223.803C244.087 223.233 242.377 223.043 241.617 223.486C235.905 226.756 230.227 230.093 224.549 233.429C214.613 239.269 204.676 245.108 194.56 250.588C181.611 257.598 168.5 264.312 155.386 271.028L155.381 271.03C148.357 274.627 141.332 278.225 134.33 281.869C127.039 285.651 119.748 289.45 112.454 293.251L112.441 293.258C99.5911 299.953 86.7319 306.654 73.847 313.277C73.165 313.63 72.4946 314.006 71.8243 314.383C69.0089 315.964 66.1934 317.546 62.5104 317.392C61.6139 317.36 60.7139 317.309 59.8124 317.257C55.3638 317.001 50.8793 316.743 46.6137 318.849C45.8535 319.229 44.737 319.003 43.6651 318.786L43.6638 318.786C43.3072 318.714 42.9556 318.643 42.6237 318.596C40.977 318.311 39.3462 318.01 37.7154 317.709C36.0845 317.408 34.4537 317.107 32.807 316.823C32.712 317.107 32.6329 317.408 32.5537 317.709C32.4745 318.01 32.3954 318.311 32.3004 318.596C32.7437 318.769 33.187 318.983 33.6304 319.198C34.6437 319.688 35.657 320.179 36.6704 320.179C40.269 320.236 43.8545 320.228 47.4389 320.22C51.7398 320.211 56.039 320.202 60.357 320.305C64.8537 320.432 68.8437 319.545 72.897 317.329C85.975 310.242 99.1961 303.393 112.436 296.534L112.521 296.49C114.513 295.459 116.505 294.427 118.497 293.393C124.648 290.208 130.811 287.059 136.975 283.908L136.985 283.904L136.99 283.901C144.912 279.853 152.836 275.804 160.74 271.674C176.89 263.252 192.977 254.831 209 246.155C216.925 241.866 224.729 237.364 232.537 232.859L232.537 232.859L232.537 232.859L232.537 232.859L232.538 232.859L232.538 232.859L232.538 232.859L232.538 232.859L232.539 232.858L232.539 232.858L232.539 232.858L232.539 232.858L232.54 232.858L232.54 232.858L232.54 232.858L232.54 232.857L232.54 232.857L232.541 232.857L232.541 232.857C236.026 230.846 239.512 228.835 243.01 226.842C243.407 227.238 243.807 227.656 244.216 228.083L244.217 228.084C245.378 229.294 246.609 230.578 248.014 231.655C251.244 234.124 252.13 237.417 252.32 241.28C252.954 255.335 253.714 269.328 254.474 283.32V283.32V283.321V283.321V283.321V283.321V283.322V283.322V283.322V283.323V283.323V283.323V283.323V283.324V283.324V283.324V283.324V283.325V283.325V283.325C254.79 289.53 255.297 295.735 255.804 301.94L255.804 301.942C255.994 304.348 256.12 304.348 258.654 303.968C257.514 282.692 256.31 261.416 255.044 239.317C268.027 252.551 278.414 266.355 287.154 281.742C287.85 280.539 288.484 279.209 288.04 278.45C282.087 267.368 275.057 256.983 266.697 247.485C263.214 243.559 259.667 239.633 255.994 235.581C256.187 235.436 256.344 235.309 256.478 235.201C256.694 235.026 256.85 234.899 257.007 234.821C263.023 231.623 269.024 228.41 275.024 225.197C281.025 221.983 287.027 218.769 293.044 215.571C293.55 215.318 294.5 215.318 294.944 215.634C296.927 217.085 298.947 218.492 300.966 219.899C305.911 223.345 310.848 226.785 315.21 230.832C325.787 240.71 333.387 252.994 339.657 265.912C344.09 274.904 347.954 284.275 351.057 293.837C354.794 305.361 357.2 317.329 357.517 329.487C357.77 340.378 357.77 351.27 356.567 362.034C355.11 374.762 351.437 387.11 345.674 398.698C344.732 400.58 343.712 402.409 342.578 404.442L342.577 404.444C341.956 405.556 341.301 406.729 340.607 408.006C340.172 406.655 339.795 405.437 339.446 404.31L339.446 404.309C338.829 402.317 338.3 400.608 337.694 398.951C336.109 394.64 334.551 390.313 332.992 385.982L332.988 385.972L332.988 385.97C329.189 375.42 325.383 364.848 321.164 354.436C315.355 340.045 309.258 325.741 303.165 311.445L303.164 311.442L303.162 311.44L303.161 311.437L303.16 311.434L303.159 311.432L303.158 311.429L303.157 311.426L303.156 311.424L303.155 311.421L303.154 311.418L303.153 311.416L303.151 311.413L303.15 311.41L303.149 311.408L303.148 311.405L303.145 311.398L303.145 311.397L303.144 311.395L303.143 311.393L303.142 311.391C300.208 304.506 297.274 297.623 294.374 290.734C293.424 288.518 292.284 288.454 290.89 289.784C292.732 293.987 294.584 298.157 296.43 302.312C300.868 312.304 305.268 322.21 309.384 332.273C314.919 345.714 319.987 359.33 325.037 372.897L325.04 372.906L325.041 372.909L325.66 374.572C329.904 385.907 333.894 397.305 337.757 408.702C338.2 410.095 337.82 412.438 336.87 413.578C333.007 418.391 328.89 423.076 324.774 427.636C322.747 429.915 322.177 432.448 323.76 435.361C325.19 434.782 326.624 434.208 328.059 433.634L328.067 433.631C331.97 432.069 335.879 430.505 339.72 428.839L339.745 428.828C343.901 427.065 344.03 427.011 345.357 431.372C346.37 434.712 347.396 438.049 348.421 441.386C351.497 451.394 354.572 461.402 357.327 471.518C361.235 485.682 364.818 499.94 368.394 514.172C368.99 516.545 369.586 518.917 370.184 521.289C370.45 522.398 370.499 523.54 370.548 524.69V524.69V524.691C370.568 525.181 370.589 525.673 370.627 526.164C366.916 526.809 363.229 527.444 359.56 528.076L359.533 528.08C349.872 529.744 340.331 531.387 330.79 533.13C319.327 535.219 307.8 537.372 296.4 539.778C295.351 540.001 294.302 540.224 293.253 540.446L293.237 540.449C282.06 542.817 270.853 545.191 259.857 548.2C249.21 551.087 238.678 554.659 228.205 558.211L228.204 558.212L228.203 558.212L228.202 558.213L228.201 558.213L228.2 558.213L228.199 558.214L228.198 558.214L228.197 558.214L228.196 558.215L228.195 558.215L228.193 558.215L228.192 558.216L228.191 558.216L228.19 558.217L228.189 558.217L228.188 558.217L228.187 558.218L228.183 558.219L226.544 558.775C212.42 563.587 198.867 569.856 185.947 577.328C183.02 578.995 180.118 580.74 177.227 582.479L177.22 582.483L177.216 582.485L177.212 582.488L177.204 582.493L177.197 582.497L177.189 582.502L177.181 582.506L177.174 582.511C175.578 583.471 173.986 584.428 172.394 585.37C172.33 585.275 172.251 585.196 172.172 585.117L172.172 585.116C172.093 585.037 172.014 584.958 171.95 584.864C177.017 579.133 182.068 573.402 187.119 567.672L187.133 567.655C192.179 561.93 197.225 556.205 202.287 550.48C202.192 550.322 202.082 550.148 201.971 549.975L201.97 549.973C201.86 549.799 201.749 549.625 201.654 549.467C201.219 549.684 200.742 549.87 200.26 550.058C199.195 550.474 198.108 550.898 197.41 551.683C187.784 562.321 178.22 573.022 168.784 583.787C167.834 584.8 167.074 586.257 166.947 587.586C166.694 590.689 165.3 592.272 162.197 592.969C160.689 593.331 159.353 594.67 158.189 595.836L158.017 596.008C157.704 596.321 157.77 596.948 157.835 597.579C157.863 597.844 157.89 598.108 157.89 598.351C158.096 598.351 158.311 598.365 158.527 598.379C159.111 598.417 159.708 598.455 160.17 598.224C160.926 597.824 161.62 597.268 162.316 596.709L162.317 596.709C162.613 596.472 162.909 596.234 163.21 596.008C181.514 581.697 201.907 571.123 223.567 563.018C236.234 558.332 249.28 554.469 262.264 550.733C271.51 548.01 281.01 545.921 290.447 543.894C301.72 541.551 312.994 539.462 324.267 537.436C329.239 536.549 334.226 535.71 339.214 534.871C344.201 534.032 349.189 533.193 354.16 532.306C357.684 531.663 361.208 530.983 364.818 530.286L364.824 530.285C367.961 529.68 371.164 529.062 374.49 528.444C367.65 493.554 357.517 459.93 346.75 426.116C356.187 422.19 365.37 418.391 374.554 414.591C379.398 412.597 384.241 410.619 389.085 408.641C393.931 406.661 398.778 404.682 403.624 402.687C405.65 401.864 406.474 400.85 405.65 398.381C404.443 394.604 403.329 390.796 402.216 386.991L402.215 386.988C400.585 381.415 398.956 375.848 397.037 370.393C391.907 355.765 386.587 341.138 380.76 326.764C375.82 314.606 370.5 302.575 364.547 290.924C357.707 277.563 350.487 264.392 342.507 251.728C333.801 237.92 322.704 225.934 311.644 213.989C311.038 213.334 310.432 212.68 309.827 212.025C308.952 211.089 308.242 210.293 307.649 209.627L307.649 209.627L307.648 209.626C306.089 207.877 305.33 207.025 304.461 206.892C303.637 206.765 302.713 207.285 300.915 208.297L300.914 208.298C300.058 208.78 299.004 209.373 297.667 210.062C294.057 211.898 293.234 211.772 291.397 208.099C290.827 207.023 290.447 205.63 290.574 204.49C290.713 203.485 290.838 202.47 290.962 201.454L290.962 201.453L290.962 201.452L290.962 201.451L290.962 201.45L290.963 201.449L290.963 201.449L290.963 201.448L290.963 201.447L290.963 201.446L290.963 201.445L290.963 201.444L290.963 201.444L290.963 201.443L290.963 201.442L290.963 201.441L290.964 201.44L290.964 201.439L290.964 201.438C291.403 197.848 291.846 194.227 292.98 190.876C295.767 182.707 301.467 178.971 309.827 180.871C317.452 182.555 324.922 184.86 332.432 187.177C335.651 188.17 338.878 189.166 342.127 190.116C338.454 198.284 333.45 204.11 325.407 206.769C324.029 207.229 322.612 207.636 321.191 208.044C319.477 208.537 317.759 209.03 316.097 209.619C315.346 209.884 314.718 210.457 314.106 211.016C313.84 211.259 313.578 211.498 313.31 211.708C313.55 211.875 313.796 212.078 314.045 212.285C314.651 212.788 315.279 213.31 315.907 213.355C316.97 213.453 318.036 213.569 319.103 213.686L319.104 213.686C322.868 214.097 326.646 214.509 330.347 214.115C338.137 213.291 345.04 210.379 347.067 201.704C347.542 199.676 347.428 197.532 347.308 195.25C347.252 194.181 347.194 193.083 347.194 191.952C347.67 192.014 348.146 192.071 348.622 192.129L348.622 192.129L348.623 192.129L348.624 192.129L348.624 192.129L348.625 192.129L348.625 192.129L348.626 192.129L348.626 192.13L348.627 192.13L348.627 192.13L348.628 192.13C350.11 192.309 351.583 192.488 353.02 192.775C360.494 194.168 367.904 194.675 375.25 192.205C380.254 190.496 383.927 187.393 386.017 182.327C388.614 175.932 387.41 169.853 385.13 163.837C383.294 159.025 380.19 155.099 374.934 153.389C372.74 152.658 370.546 151.881 368.348 151.101C365.405 150.059 362.453 149.012 359.48 148.07C346.244 143.891 332.754 141.295 318.82 141.231C317.807 141.231 316.414 140.725 315.844 139.965C315.097 138.962 314.342 137.963 313.585 136.965L313.584 136.962L313.582 136.96L313.58 136.958L313.579 136.956L313.577 136.953L313.575 136.951L313.573 136.949L313.572 136.946L313.57 136.944L313.568 136.942C310.416 132.779 307.26 128.61 304.76 124.071C300.58 116.346 302.164 108.494 308.18 103.048C313.627 98.1725 320.15 95.3864 327.054 93.4234C328.32 93.0434 330.094 93.4867 331.424 94.0566C333.429 94.8862 335.396 95.8101 337.367 96.7357L337.368 96.7361C339.007 97.506 340.649 98.2769 342.317 98.9957C347.088 101.095 351.867 103.162 356.646 105.229L356.647 105.229C365.125 108.896 373.602 112.562 382.027 116.409C388.17 119.195 394.124 122.615 392.35 131.163C392.312 131.279 392.344 131.419 392.375 131.553C392.387 131.605 392.398 131.656 392.406 131.705C392.411 131.737 392.414 131.767 392.414 131.796C392.357 132.708 392.351 133.643 392.345 134.578C392.332 136.76 392.319 138.945 391.654 140.851C390.323 144.531 388.621 148.087 386.915 151.649L386.914 151.649C386.184 153.175 385.453 154.701 384.75 156.239C384.383 157.077 384.06 158.003 383.743 158.908L383.742 158.912L383.742 158.913C383.677 159.099 383.612 159.284 383.547 159.468L384.307 160.228C385.352 159.848 386.397 159.452 387.442 159.056C388.487 158.661 389.532 158.265 390.577 157.885C398.874 154.972 405.967 143.891 404.827 136.546C404.067 131.606 401.47 127.744 398.114 124.388C396.15 122.425 396.53 121.285 398.114 119.512C400.71 116.662 403.307 113.686 405.587 110.584C411.667 102.225 411.034 92.8535 403.37 85.9514C399.317 82.2787 394.567 79.2393 389.817 76.3898C386.737 74.5508 383.513 73.0007 380.281 71.4468ZM347.257 422.38C346.94 422.507 346.624 422.57 345.927 422.697C345.545 421.626 345.157 420.579 344.773 419.544C343.886 417.151 343.024 414.826 342.317 412.438C342.127 411.805 342.634 410.855 343.014 410.222C351.564 396.101 356.82 380.841 359.354 364.567C362.077 347.407 361.697 330.247 358.847 313.213C355.807 295.23 350.044 278.07 341.177 261.986C334.59 250.018 327.624 238.24 317.554 228.869C313.696 225.233 309.372 222.063 305.061 218.902L305.059 218.901L305.058 218.9L305.057 218.899L305.055 218.898L305.054 218.897L305.053 218.896L305.051 218.895L305.05 218.894L305.048 218.893L305.047 218.892L305.046 218.891L305.044 218.89L305.043 218.889L305.042 218.888L305.04 218.887L305.039 218.886L305.037 218.885L305.036 218.884C303.198 217.537 301.363 216.191 299.567 214.811C299.06 214.495 298.554 214.115 297.667 213.418C298.23 213.106 298.772 212.827 299.291 212.561C300.35 212.017 301.314 211.522 302.164 210.885C303.62 209.745 304.634 210.379 305.647 211.455C307.087 213.057 308.531 214.655 309.976 216.254L309.977 216.255L309.979 216.257L309.98 216.258L309.981 216.259L309.982 216.26L309.991 216.27C322.648 230.276 335.317 244.294 344.977 260.656C352.134 272.687 358.467 285.162 364.674 297.699C369.677 307.831 374.3 318.216 378.48 328.727C384.434 343.861 389.944 359.185 395.39 374.509C396.703 378.151 397.795 381.862 398.886 385.571C399.9 389.018 400.914 392.462 402.104 395.848C403.244 399.077 401.914 400.027 399.317 401.04C394.179 402.981 389.144 405.076 384.072 407.187L384.064 407.19L384.063 407.19L384.062 407.191L384.061 407.191C383.51 407.42 382.959 407.65 382.407 407.879C376.587 410.27 370.768 412.676 364.948 415.082L364.934 415.087L364.92 415.093L364.906 415.099L364.892 415.105L364.878 415.111L364.864 415.116L364.85 415.122L364.836 415.128C358.977 417.55 353.117 419.973 347.257 422.38ZM366.352 64.2954C366.305 64.4853 366.257 64.6753 366.194 64.8653C365.703 64.4062 365.2 63.955 364.697 63.5038C363.189 62.1503 361.681 60.7968 360.494 59.2296C357.644 55.557 359.544 49.5414 363.914 47.9584C385.257 40.2331 404.194 28.8352 419.71 12.1182C421.04 10.6935 422.584 9.48241 424.128 8.27135C424.643 7.8677 425.157 7.46406 425.664 7.0525C430.35 3.2532 435.734 2.80994 441.18 4.70959C447.197 6.79921 453.15 9.26876 458.914 12.0549C460.62 12.8577 461.928 14.4555 463.217 16.0295C463.555 16.442 463.892 16.8528 464.234 17.2473C469.427 23.1362 475.634 27.6954 482.917 30.8615C483.575 31.1492 484.206 31.5436 484.897 31.9755C485.27 32.209 485.661 32.4534 486.084 32.6978C478.294 35.4718 470.584 38.2458 462.998 40.9749L462.98 40.9815L462.979 40.982C457.065 43.1096 451.228 45.21 445.487 47.2618C445.608 45.1676 445.748 43.0541 445.889 40.9275L445.889 40.9222V40.9215V40.9209L445.889 40.9202C446.191 36.3621 446.498 31.7438 446.627 27.1255C446.637 26.7831 446.67 26.4101 446.704 26.0232C446.876 24.049 447.079 21.7131 444.537 21.2366C441.846 20.7089 441.177 22.9512 440.589 24.9226C440.471 25.317 440.357 25.7006 440.23 26.049C437.444 33.8376 435.037 41.6262 434.91 49.9846C434.847 51.0611 434.214 52.6442 433.39 53.0241C432.089 53.6178 430.793 54.2242 429.497 54.83L429.496 54.8307C424.299 57.2615 419.118 59.6847 413.694 61.2559C408.437 62.7756 402.674 63.0923 397.164 63.1556C391.771 63.2315 386.401 63.0342 381.027 62.8368L381.026 62.8368C377.438 62.705 373.848 62.5731 370.247 62.5224C369.413 62.4785 368.548 62.8606 367.674 63.2468L367.674 63.247C367.287 63.4179 366.899 63.5895 366.51 63.7255C366.447 63.9154 366.4 64.1054 366.352 64.2954ZM346.117 55.4303C349.537 53.9106 352.957 52.3909 356.947 50.6812C355.11 57.8999 357.39 63.0289 364.104 66.6383C367.928 68.7122 371.819 70.6369 375.7 72.5566L375.7 72.5569C379.403 74.3883 383.096 76.2152 386.714 78.1628C391.084 80.5691 395.454 83.2286 399.317 86.3313C407.93 93.2967 408.817 101.529 402.104 110.267C399.76 113.37 397.164 116.219 394.504 119.069C394.06 119.512 392.54 119.512 391.97 119.132C381.41 111.675 369.557 106.804 357.682 101.923C356.951 101.623 356.221 101.323 355.49 101.022C354.561 100.638 353.632 100.255 352.702 99.872L352.699 99.8708C345.969 97.0969 339.256 94.3303 332.69 91.2704C331.297 90.6372 329.904 88.6742 329.524 87.0912C326.23 72.7172 332.057 61.6992 346.117 55.4303ZM313.475 178.13C311.013 177.392 308.512 176.644 305.964 175.868C306.85 166.813 308.877 157.505 314.197 149.02C316.477 145.411 318.947 144.271 323.064 144.397C333.894 144.651 344.407 146.804 354.73 149.78C357.707 150.635 360.62 151.664 363.534 152.693C366.447 153.722 369.36 154.751 372.337 155.605C378.607 157.442 381.837 161.938 383.294 167.763C385.384 175.995 384.94 183.087 377.72 187.709C373.097 190.686 367.777 190.939 362.457 190.749C351.5 190.306 341.24 186.95 330.917 183.53C325.221 181.647 319.461 179.922 313.48 178.131L313.477 178.13L313.477 178.13L313.476 178.13L313.476 178.13L313.476 178.13L313.476 178.13L313.475 178.13ZM489.187 4.20302C500.334 5.72274 506.73 14.0179 513.064 22.503C512.401 23.058 511.754 23.5877 511.122 24.105C509.518 25.4172 508.012 26.6495 506.604 28.012C504.957 29.6584 503.5 29.785 501.41 28.7719C490.869 23.7241 480.231 18.7735 469.069 13.5796L468.968 13.5322C467.421 12.8126 465.865 12.0883 464.297 11.3584C472.594 6.98918 480.32 2.99991 489.187 4.20302ZM379.05 66.1317C398.684 68.2846 417.557 66.5116 434.34 55.4936C437.127 57.6466 435.86 59.2929 434.34 60.9393C429.02 66.8916 422.244 70.121 414.454 71.3874C402.167 73.4137 390.514 70.5642 379.05 66.1317ZM442.066 58.6507C441.575 58.5814 441.067 58.5098 440.547 58.4698C441.687 53.7206 443.967 51.1244 448.02 49.668C456.601 46.716 465.149 43.5959 473.687 40.4792L473.69 40.4783C476.872 39.3166 480.053 38.1555 483.234 37.0037C484.564 36.5604 485.957 36.2438 487.54 36.3072C486.484 36.9654 485.431 37.6266 484.378 38.2876L484.377 38.2887L484.376 38.2892C480.568 40.6797 476.766 43.067 472.847 45.2988C466.134 49.0981 459.357 52.8341 452.454 56.3168C450.174 57.5199 447.514 58.1532 444.98 58.723C444.114 58.9396 443.129 58.8007 442.066 58.6507ZM401.534 139.775C400.457 146.614 395.264 153.136 389.057 154.466C394.947 145.664 396.467 136.419 394.884 126.414C399.887 129.01 402.167 135.912 401.534 139.775ZM300.327 154.276C301.404 149.653 306.217 146.044 313.247 145.157C308.18 152.819 304.697 160.481 303.937 169.156C301.34 167.193 299.314 158.645 300.327 154.276ZM469.237 17.8175L469.237 17.8172C469.364 17.5797 469.49 17.3423 469.617 17.1207C476.394 20.3252 483.17 23.4967 490.234 26.8026L490.238 26.8042L490.24 26.8052C492.945 28.0711 495.692 29.3568 498.497 30.6715C497.595 31.1355 496.787 31.5471 496.082 31.9061C495.055 32.4291 494.247 32.8407 493.684 33.1411C492.167 32.3498 490.696 31.6119 489.262 30.893L489.262 30.8929C486.566 29.5408 484.005 28.2558 481.524 26.8089C478.28 24.8819 475.176 22.7805 472.082 20.6859L472.081 20.6851C471.007 19.9579 469.934 19.2316 468.857 18.5137C468.984 18.2922 469.11 18.0549 469.237 17.8175ZM341.533 197.677C342.361 196.639 343.201 195.585 344.09 194.548C345.104 198.474 344.787 202.273 342.064 205.44C337.124 211.012 330.537 211.582 323.254 211.265C324.667 210.476 326.073 209.768 327.445 209.077C330.256 207.663 332.926 206.319 335.224 204.49C337.599 202.608 339.53 200.188 341.533 197.677ZM532.127 77.5929C543.717 77.403 554.927 75.3767 565.377 69.8677C553.85 70.3743 542.894 73.5403 532.127 77.5929ZM555.18 127.427C563.034 126.351 580.26 120.905 586.72 115.586C580.134 114.889 562.21 122.361 555.18 127.427ZM326.99 430.042L326.99 430.042C331.297 425.293 335.54 420.48 339.784 415.541C339.826 415.583 339.875 415.619 339.924 415.654C340.023 415.724 340.121 415.794 340.164 415.921C341.922 419.949 342.793 421.943 342.222 423.354C341.662 424.739 339.715 425.562 335.857 427.192C334.067 427.948 332.252 428.629 330.428 429.313L330.428 429.313L330.427 429.313C329.347 429.718 328.264 430.125 327.18 430.548C327.117 430.422 327.054 430.232 326.99 430.042ZM562.654 181.061C569.874 179.541 590.457 167.193 593.307 162.824C582.097 167.383 572.217 173.905 562.654 181.061ZM442.743 27.2991L443.017 26.429C445.297 33.5843 442.257 48.8449 437.824 50.7445C437.946 42.5048 440.304 35.0299 442.743 27.2991ZM3.7896 317.498H3.79408C6.94005 317.472 10.0722 317.447 13.2367 317.582C14.081 317.625 14.9253 317.948 15.7697 318.272L15.77 318.272C16.1922 318.434 16.6144 318.595 17.0367 318.722C16.9733 319.229 16.91 319.735 16.91 320.242C14.0923 320.337 11.2747 320.416 8.45704 320.495C5.63803 320.574 2.81901 320.653 0 320.748V317.519C1.24086 317.519 2.47676 317.509 3.71048 317.498H3.7148H3.71914H3.72349H3.72784H3.73221H3.73658H3.74095H3.74534H3.74973H3.75412H3.75853H3.76294H3.76736H3.7718H3.77624H3.78068H3.78514H3.7896ZM929.918 602.468L918.152 602.47C865.038 602.479 811.895 602.487 758.796 602.276C755.574 602.276 752.261 600.592 749.128 598.999L749.125 598.997C748.563 598.712 748.008 598.43 747.46 598.16C721.81 585.623 696.16 573.022 670.573 560.421C660.25 555.355 649.863 550.226 639.54 545.097C639.092 544.873 638.689 544.54 638.278 544.201C637.99 543.963 637.699 543.722 637.386 543.514C637.416 543.336 637.446 543.158 637.475 542.986C637.509 542.792 637.543 542.606 637.576 542.437C637.937 542.437 638.317 542.399 638.696 542.361C639.514 542.279 640.327 542.198 640.933 542.501C650.874 547.341 660.793 552.246 670.715 557.152L670.723 557.156L670.731 557.16L670.739 557.164L670.747 557.167L670.755 557.171L670.763 557.175L670.77 557.179C677.835 560.673 684.902 564.167 691.98 567.639C698.894 571.041 705.815 574.412 712.734 577.782C725.779 584.135 738.813 590.483 751.766 597.021C755.756 599.047 759.556 599.617 763.8 599.617C824.346 599.554 884.956 599.554 945.503 599.554C946.448 599.554 947.393 599.5 948.356 599.445H948.356H948.357H948.357H948.358H948.358H948.359H948.359H948.36H948.361H948.362H948.363H948.364H948.365L948.376 599.444L948.378 599.444H948.379L948.384 599.444L948.39 599.444C948.766 599.422 949.143 599.401 949.525 599.382C949.592 599.379 949.66 599.376 949.728 599.373L949.833 599.368L949.936 599.364C950 600.313 950 601.39 950 602.466L942.346 602.467C938.204 602.467 934.061 602.467 929.918 602.468ZM521.486 319.229C539.916 321.256 555.623 328.601 568.1 342.975C569.437 341.058 570.723 339.232 571.972 337.46L571.994 337.429L571.998 337.423L572 337.419C573.876 334.757 575.665 332.217 577.41 329.677L618.64 270.028C621.237 266.269 623.834 262.515 626.43 258.764L626.526 258.625L626.537 258.609C632.957 249.33 639.368 240.066 645.746 230.769C646.198 230.092 646.392 229.254 646.58 228.439C646.629 228.231 646.677 228.024 646.729 227.821C646.736 227.793 646.743 227.765 646.75 227.737C646.774 227.649 646.798 227.562 646.823 227.476C646.461 227.376 646.093 227.231 645.725 227.085C644.932 226.773 644.138 226.46 643.403 226.59C634.473 227.983 628.963 223.55 625.29 216.141C623.643 212.785 622.25 209.239 620.92 205.693C620.71 205.106 620.778 204.408 620.848 203.691C620.883 203.325 620.92 202.954 620.92 202.591C621.251 202.715 621.603 202.812 621.953 202.909C622.673 203.108 623.385 203.304 623.896 203.73L623.899 203.732L623.9 203.734L623.901 203.734L623.901 203.735L623.902 203.735L623.903 203.736L623.904 203.737L623.904 203.737L623.905 203.738L623.906 203.739L623.907 203.739L623.907 203.74L623.908 203.741L623.909 203.741L623.909 203.742L623.91 203.743L623.911 203.743L623.912 203.744C630.24 209.058 636.568 214.373 642.643 220.004C645.493 222.6 648.28 223.55 651.7 221.84C654.043 220.701 655.943 221.207 657.97 222.79C666.203 229.059 674.563 235.201 682.986 241.217C685.076 242.737 685.52 243.75 684.253 246.283C671.586 271.738 659.046 297.257 646.506 322.775C641.89 332.134 637.289 341.492 632.688 350.85L632.675 350.877C628.065 360.253 623.455 369.629 618.83 379.005C618.64 379.448 618.513 379.955 618.893 380.905C619.104 380.731 619.315 380.558 619.527 380.386C619.601 380.326 619.674 380.267 619.747 380.207L619.92 380.067C620.371 379.701 620.824 379.337 621.275 378.974L621.286 378.965L621.287 378.964L621.293 378.96C623.353 377.302 625.4 375.655 627.316 373.876C640.996 361.402 651.7 346.458 660.946 330.564C666.646 320.749 671.84 310.554 676.716 300.233C682.1 288.835 686.596 276.994 689.193 264.646C689.261 264.311 689.33 263.976 689.398 263.641C690.8 256.804 692.235 249.802 689.7 242.8C689.365 241.879 689.196 240.875 689.028 239.88C688.943 239.369 688.857 238.861 688.75 238.367C689.289 238.525 689.836 238.65 690.381 238.775C691.37 239.001 692.347 239.225 693.246 239.634C699.864 242.958 706.466 246.298 713.068 249.638C719.671 252.978 726.274 256.319 732.893 259.644C749.74 268.192 766.586 276.74 783.496 285.352C790.685 289.025 797.889 292.713 805.093 296.402C812.297 300.09 819.501 303.779 826.69 307.451C830.634 309.472 834.588 311.474 838.541 313.475L838.542 313.476L838.544 313.477L838.545 313.477L838.547 313.478L838.548 313.479C844.874 316.682 851.196 319.882 857.47 323.155C858.726 323.828 859.855 324.755 860.992 325.689L860.993 325.689C861.46 326.073 861.93 326.459 862.41 326.828C862.378 326.986 862.33 327.129 862.283 327.271C862.235 327.414 862.188 327.556 862.156 327.714C861.679 327.601 861.178 327.528 860.676 327.455C859.777 327.325 858.875 327.193 858.103 326.828C848.445 321.92 838.802 316.997 829.16 312.074L829.123 312.055C819.493 307.138 809.862 302.221 800.216 297.32C793.95 294.14 787.675 290.969 781.398 287.797L781.372 287.784L781.37 287.783L781.369 287.782L781.368 287.782L781.367 287.781L781.365 287.78L781.364 287.78L781.363 287.779L781.362 287.778L781.36 287.778L781.359 287.777L781.358 287.777L781.356 287.776L781.355 287.775L781.354 287.775L781.353 287.774L781.351 287.773L781.35 287.773C770.893 282.489 760.431 277.201 749.993 271.865C731.943 262.683 713.956 253.501 695.97 244.32C695.53 244.08 695.065 243.891 694.607 243.704C694.488 243.656 694.369 243.607 694.252 243.558C694.105 243.497 693.959 243.435 693.816 243.37C693.715 243.641 693.613 243.821 693.541 243.949L693.54 243.951L693.54 243.951C693.477 244.062 693.436 244.134 693.436 244.193C694.893 260.087 689.953 274.777 684.506 289.278C674.753 315.05 661.39 338.796 644.163 360.325C636.12 370.33 627.316 379.512 616.106 386.16C614.658 387.009 613.762 388.92 612.919 390.715L612.918 390.717C612.693 391.198 612.471 391.671 612.243 392.113C609.615 397.367 607.019 402.654 604.423 407.941C601.826 413.229 599.228 418.517 596.6 423.774C596.22 424.597 595.333 425.42 594.51 425.736C594.13 425.863 593.053 424.723 592.736 423.964C586.656 410.539 576.396 401.484 563.096 395.469C556.13 392.303 549.226 389.01 542.323 385.717C539.093 384.197 539.03 383.691 541.12 380.715C543.088 377.909 545.051 375.102 547.014 372.297C552.314 364.722 557.608 357.156 562.97 349.624C563.518 348.893 564.263 348.294 564.993 347.708C565.275 347.482 565.555 347.257 565.82 347.028C566.026 347.384 566.255 347.735 566.485 348.088L566.486 348.09L566.487 348.091L566.488 348.093C567.032 348.927 567.58 349.767 567.846 350.7C570.38 359.945 573.356 369.064 579.246 376.789C580.718 378.751 582.536 380.462 584.345 382.165C585.104 382.88 585.862 383.594 586.593 384.324C586.785 384.516 586.997 384.699 587.208 384.882C588.254 385.786 589.303 386.692 587.986 388.693C581.083 385.211 576.523 379.512 573.23 372.8C570.895 367.991 568.835 363.01 566.747 357.958C566.003 356.158 565.255 354.35 564.49 352.537C560.545 358.115 556.62 363.693 552.648 369.339L552.628 369.368C549.528 373.774 546.399 378.221 543.21 382.741C544.727 383.489 546.21 384.271 547.681 385.047C550.693 386.636 553.657 388.199 556.763 389.39C563.095 391.829 568.704 395.459 574.323 399.094C575.56 399.895 576.797 400.696 578.043 401.484C584.883 405.853 589.443 411.869 593.306 418.644C593.623 419.151 593.94 419.658 594.7 420.797C598.25 413.568 601.711 406.576 605.246 399.437L605.28 399.368C606.904 396.086 608.545 392.772 610.216 389.39C609.398 389.565 608.715 389.7 608.11 389.819C607.404 389.959 606.806 390.077 606.226 390.213C605.668 390.333 605.116 390.477 604.567 390.621L604.565 390.622L604.564 390.622C603.369 390.935 602.184 391.246 600.97 391.289C599.64 391.353 597.233 390.783 597.106 390.15C596.783 388.21 598.043 388.258 599.24 388.303C599.684 388.319 600.12 388.336 600.463 388.25C601.631 387.916 602.818 387.636 604.005 387.356L604.007 387.356C605.973 386.892 607.942 386.428 609.836 385.717C611.293 385.147 612.813 383.691 613.51 382.234C621.616 366.214 629.596 350.13 637.513 334.047C644.1 320.662 650.659 307.278 657.208 293.912L657.209 293.911C660.419 287.359 663.628 280.812 666.836 274.271C669.883 268.06 672.979 261.875 676.108 255.621C677.989 251.864 679.881 248.083 681.783 244.256C680.479 243.295 679.178 242.336 677.878 241.379L677.859 241.365C672.918 237.725 668.009 234.108 663.1 230.452C662.539 230.054 661.967 229.666 661.396 229.279C659.968 228.31 658.54 227.34 657.273 226.21C654.803 223.93 652.46 224.057 649.673 225.83C651.728 227.505 650.643 228.904 649.652 230.184C649.482 230.403 649.315 230.619 649.166 230.832C639.666 244.636 630.103 258.377 620.54 272.118C612.389 283.916 604.239 295.731 596.089 307.545L595.952 307.743C587.744 319.64 579.537 331.537 571.33 343.418C568.923 346.838 568.543 346.901 565.376 344.178C564.438 343.37 563.502 342.549 562.564 341.725C557.988 337.711 553.352 333.644 548.15 330.754C543.586 328.244 538.496 326.688 533.424 325.138L533.422 325.137C531.457 324.536 529.494 323.936 527.566 323.282C526.426 322.902 525.239 322.665 524.051 322.427C522.864 322.19 521.676 321.952 520.536 321.572C519.143 321.129 517.94 320.052 516.863 318.849C506.17 319.083 495.64 316.784 485.121 314.487L485.085 314.479L484.289 314.305L483.57 314.149C483.204 314.069 482.839 313.989 482.473 313.91C477.781 312.891 473.142 311.634 468.505 310.379C465.943 309.685 463.382 308.991 460.813 308.338C459.736 308.085 458.47 307.958 457.393 308.211C453.584 309.062 449.769 309.885 445.955 310.708L445.955 310.709C436.706 312.705 427.464 314.7 418.316 317.076C410.612 319.094 403.008 321.543 395.406 323.991L395.405 323.991C392.509 324.924 389.613 325.856 386.713 326.765C386.65 326.765 386.602 326.78 386.555 326.796C386.507 326.812 386.46 326.828 386.396 326.828C385.13 326.765 383.863 326.701 382.66 326.638C382.843 326.327 383.01 325.989 383.178 325.649L383.179 325.648C383.592 324.814 384.011 323.967 384.686 323.472C385.884 322.587 387.077 321.696 388.269 320.806L388.27 320.805L388.271 320.804L388.272 320.803L388.273 320.803C392.876 317.365 397.465 313.938 402.293 310.871C407.55 307.515 413.186 304.602 418.823 301.942C427.246 298.017 436.05 298.776 444.853 300.803L444.95 300.825C445.027 300.842 445.103 300.86 445.18 300.877C445.364 300.919 445.549 300.96 445.734 301.001L445.735 301.001C447.101 301.305 448.48 301.612 449.73 302.132C456.633 305.172 463.41 304.349 470.25 301.942C470.723 301.77 471.343 301.979 471.971 302.189C472.266 302.289 472.563 302.388 472.846 302.449C472.656 302.702 472.487 302.998 472.318 303.293C471.981 303.884 471.643 304.475 471.136 304.729C470.203 305.195 469.184 305.491 467.965 305.846C467.365 306.02 466.717 306.208 466.006 306.438C466.704 306.655 467.337 306.835 467.927 307.002L467.929 307.003L467.929 307.003L467.93 307.003C468.894 307.276 469.742 307.517 470.566 307.831C471.368 308.14 472.164 308.482 472.961 308.824C474.62 309.537 476.286 310.253 478.04 310.681C479.355 310.992 480.708 311.077 482.068 311.162H482.068C483.196 311.232 484.33 311.303 485.45 311.504C489.934 312.266 494.419 313.092 498.881 313.914L498.886 313.915L498.887 313.915L498.889 313.916L498.891 313.916L498.892 313.916L498.894 313.917L498.896 313.917L498.897 313.917L498.899 313.917L498.901 313.918L498.902 313.918L498.904 313.918L498.906 313.918L498.914 313.92L498.919 313.921L498.92 313.921L498.921 313.921C500.747 314.257 502.569 314.593 504.386 314.923C505.658 315.166 506.988 315.292 508.265 315.413L508.266 315.414L508.44 315.43C515.28 316.19 519.966 314.354 524.336 307.958C535.293 291.684 548.72 277.31 564.3 265.216C566.326 263.633 568.86 262.556 571.266 261.86C573.863 261.1 576.016 262.81 575.446 265.342C574.496 269.332 573.23 273.511 571.013 276.93C561.26 291.874 549.036 304.349 532.95 312.644C531.256 313.529 529.469 314.227 527.688 314.923C526.538 315.372 525.391 315.82 524.273 316.316C523.64 316.612 523.006 316.964 522.373 317.316C522.174 317.426 521.976 317.536 521.778 317.644C521.66 317.709 521.541 317.773 521.423 317.836C521.613 318.279 521.55 318.786 521.486 319.229ZM525.35 312.391C525.378 312.4 525.408 312.412 525.439 312.426C525.461 312.436 525.483 312.447 525.505 312.458L525.554 312.482C525.694 312.552 525.835 312.623 525.92 312.581C526.207 312.479 526.498 312.382 526.791 312.285C527.595 312.018 528.406 311.749 529.15 311.377C547.39 302.449 561.133 288.708 571.14 271.168C571.839 269.945 572.206 268.51 572.596 266.989L572.597 266.985C572.772 266.304 572.951 265.604 573.166 264.899C564.173 266.229 530.67 299.979 525.35 312.391ZM447.577 304.561L447.577 304.561C444.446 303.683 441.56 302.874 438.646 302.702C433.706 302.386 428.513 302.639 423.636 303.715C415.639 305.541 408.831 310.122 402.092 314.655L401.976 314.733C400.415 315.786 398.895 316.881 397.416 317.946L397.414 317.948C396.315 318.739 395.239 319.514 394.186 320.242C413.243 315.558 432.235 310.811 452.241 305.811L452.263 305.805C450.628 305.417 449.079 304.982 447.586 304.564L447.584 304.563L447.581 304.562L447.579 304.562L447.578 304.562L447.578 304.561L447.578 304.561L447.577 304.561L447.577 304.561ZM641.883 223.044C640.13 221.541 638.438 220.101 636.748 218.661L636.726 218.642L636.69 218.611C635.043 217.155 633.396 215.698 631.686 214.305C630.04 212.912 628.393 211.519 626.746 210.189C629.66 219.687 635.233 225.576 641.883 223.044ZM570.087 462.675C575.446 451.394 580.791 440.141 586.151 428.903C586.404 428.966 586.657 429.03 586.911 429.156C586.953 429.494 586.988 429.832 587.023 430.17C587.094 430.846 587.164 431.521 587.291 432.196C590.521 447.14 594.891 461.641 602.427 475.065C611.547 491.338 623.327 505.206 640.047 514.134C642.948 515.693 646.027 516.926 649.101 518.157L649.105 518.158C650.526 518.727 651.946 519.296 653.347 519.897L654.107 518.757C653.912 518.542 653.722 518.303 653.531 518.062C653.104 517.522 652.669 516.974 652.144 516.667C650.434 515.654 648.598 514.894 646.762 514.135L646.76 514.134C633.144 508.245 622.567 498.62 613.701 486.906C599.641 468.226 592.611 446.76 589.064 423.964C588.936 423.281 588.549 422.685 588.155 422.078C587.965 421.784 587.772 421.488 587.607 421.178C587.42 421.333 587.222 421.485 587.023 421.638C586.411 422.106 585.788 422.583 585.454 423.204C584.056 426 582.722 428.828 581.384 431.665C580.843 432.812 580.301 433.96 579.754 435.109C576.931 441.081 574.118 447.054 571.307 453.024L571.292 453.056C564.333 467.834 557.383 482.595 550.304 497.291C548.974 499.95 549.734 500.773 552.077 501.913C564.604 508.028 577.075 514.199 589.546 520.37L589.587 520.39L589.64 520.417C595.864 523.496 602.087 526.576 608.317 529.648C611.45 531.214 614.645 532.622 617.837 534.028L617.838 534.029C619.163 534.612 620.488 535.196 621.807 535.79C621.966 535.569 622.108 535.347 622.25 535.125C622.393 534.904 622.536 534.682 622.694 534.461C622.493 534.259 622.296 534.045 622.098 533.829C621.547 533.229 620.986 532.617 620.287 532.244C617.391 530.756 614.468 529.344 611.537 527.928L611.536 527.928C609.853 527.115 608.167 526.3 606.481 525.469C599.706 522.145 592.93 518.806 586.155 515.466L586.078 515.428C579.326 512.1 572.573 508.772 565.821 505.459L565.796 505.447C561.497 503.298 557.199 501.149 552.837 498.937C558.626 486.805 564.365 474.724 570.087 462.675ZM475.317 302.512C475.502 302.245 475.667 301.931 475.831 301.618C476.174 300.967 476.513 300.32 477.027 300.106C490.77 294.724 502.55 286.365 514.14 277.5C526.054 268.373 538.345 259.792 550.639 251.21L550.66 251.195L550.668 251.19L550.675 251.184L550.683 251.179C553.471 249.232 556.259 247.286 559.043 245.333C562.822 242.671 566.639 240.057 570.455 237.443L570.456 237.443L570.457 237.442L570.457 237.442L570.458 237.441L570.459 237.441L570.46 237.44L570.46 237.44L570.461 237.439L570.462 237.439L570.463 237.438L570.463 237.438L570.464 237.437L570.465 237.437L570.465 237.436L570.466 237.436C582.444 229.233 594.424 221.027 605.277 211.329C613.637 203.857 620.097 194.992 624.467 184.544C626.683 179.288 627.127 173.906 626.62 168.46C626.495 167.25 625.627 166.122 624.668 164.877L624.668 164.876C624.173 164.233 623.653 163.558 623.2 162.825C623.463 162.731 623.743 162.603 624.016 162.479C624.664 162.184 625.276 161.905 625.543 162.128C626.493 162.825 627.253 163.901 627.697 164.978C628.163 166.116 628.417 167.34 628.667 168.544L628.667 168.545C628.693 168.667 628.718 168.788 628.743 168.909C628.76 168.988 628.777 169.067 628.793 169.146C628.808 169.213 628.822 169.28 628.837 169.347C628.891 169.582 628.956 169.817 629.02 170.052C629.182 170.64 629.343 171.228 629.343 171.816C629.217 182.961 625.037 192.523 618.513 201.324C610.343 212.216 599.767 220.447 588.81 228.236C578.423 235.582 567.988 242.848 557.553 250.115C547.12 257.381 536.686 264.646 526.3 271.991C521.803 275.157 517.449 278.513 513.095 281.869L513.094 281.87L513.094 281.871L513.093 281.871L513.092 281.872L513.091 281.872L513.091 281.873L513.09 281.873L513.089 281.874L513.089 281.874L513.088 281.875L513.087 281.875L513.086 281.876L513.086 281.877L513.085 281.877L513.084 281.878C508.734 285.231 504.383 288.584 499.89 291.748C492.67 296.813 484.88 300.929 476.33 303.272C476.013 302.956 475.633 302.702 475.317 302.512ZM237.618 503.209C237.614 503.519 237.609 503.836 237.564 504.129C237.687 504.211 237.837 504.267 237.962 504.313C238.029 504.338 238.089 504.36 238.134 504.382C238.821 503.574 239.54 502.785 240.259 501.997L240.259 501.997L240.26 501.996L240.26 501.996L240.26 501.995L240.261 501.995L240.261 501.994L240.261 501.994L240.262 501.994C241.794 500.313 243.324 498.636 244.53 496.784C253.144 483.549 259.477 469.175 261.82 453.598C263.847 440.427 264.923 426.94 264.734 413.642C264.546 396.64 263.665 379.672 262.784 362.688V362.687V362.687V362.686V362.686V362.685V362.684V362.684V362.683V362.682V362.682V362.681V362.68V362.68V362.679L262.783 362.67L262.783 362.66L262.782 362.651L262.782 362.641L262.782 362.632L262.781 362.623L262.781 362.613L262.78 362.604L262.78 362.594L262.779 362.585L262.779 362.575L262.778 362.563C262.47 356.628 262.162 350.69 261.884 344.748C261.608 339.362 261.211 333.952 260.813 328.532L260.813 328.531L260.813 328.529L260.813 328.528L260.812 328.527L260.812 328.525L260.812 328.524L260.812 328.523L260.812 328.521L260.812 328.52L260.812 328.519L260.812 328.518L260.812 328.517L260.812 328.515L260.812 328.514L260.811 328.506C260.568 325.205 260.326 321.901 260.11 318.596C259.984 316.76 259.73 315.05 257.703 315.24C257.64 316.066 257.548 316.863 257.459 317.639C257.281 319.184 257.113 320.646 257.197 322.079C257.485 328.362 257.882 334.681 258.277 340.981L258.278 340.983L258.278 340.985L258.278 340.987L258.278 340.989L258.278 340.991L258.278 340.993L258.278 340.995L258.278 340.997C258.405 343.01 258.531 345.021 258.654 347.028C259.006 352.639 259.406 358.249 259.806 363.858C261.707 390.528 263.608 417.186 260.364 443.973C259.16 453.851 257.134 463.54 253.46 472.721C249.344 482.979 244.53 492.858 237.88 501.786C237.636 502.112 237.627 502.648 237.618 503.209ZM708.826 469.556C708.828 469.506 708.83 469.457 708.832 469.407C708.835 469.341 708.837 469.275 708.839 469.209C709.165 468.551 709.501 467.905 709.835 467.263L709.836 467.262L709.836 467.26L709.837 467.259C710.767 465.471 711.681 463.715 712.31 461.83C717.313 447.013 723.266 432.639 731.31 419.152C741.57 402.055 756.073 390.277 774.946 384.325C786.49 380.705 798.135 377.495 809.769 374.287L809.771 374.287L809.773 374.286L809.776 374.285L809.779 374.285L809.782 374.284L809.784 374.283L809.787 374.283L809.79 374.282L809.793 374.281L809.795 374.28L809.798 374.28L809.801 374.279L809.804 374.278L809.806 374.277C816.479 372.438 823.149 370.599 829.793 368.684C832.159 368.002 834.426 366.993 836.69 365.986C837.577 365.591 838.464 365.196 839.356 364.821C839.341 364.777 839.328 364.733 839.314 364.69C839.306 364.664 839.298 364.638 839.29 364.612C839.273 364.554 839.257 364.497 839.241 364.44C839.227 364.39 839.213 364.34 839.2 364.29L839.198 364.283L839.197 364.281C839.15 364.107 839.103 363.934 839.04 363.745C838.772 363.784 838.502 363.821 838.231 363.856C838.026 363.882 837.82 363.907 837.614 363.932C837.424 363.955 837.233 363.977 837.042 364L837.04 364L837.039 364C835.51 364.18 833.968 364.362 832.516 364.758C830.212 365.377 827.927 366.108 825.641 366.839L825.64 366.839L825.639 366.84L825.638 366.84L825.636 366.84L825.635 366.841L825.634 366.841L825.633 366.841L825.631 366.842L825.63 366.842L825.629 366.842L825.627 366.843C823.707 367.457 821.785 368.072 819.85 368.621C814.284 370.22 808.71 371.78 803.137 373.339C793.046 376.163 782.956 378.986 772.92 382.045C754.11 387.744 739.923 399.522 729.536 416.175C720.796 430.233 714.716 445.493 709.396 461.071C708.776 462.888 708.807 464.923 708.838 466.957C708.849 467.711 708.861 468.466 708.839 469.209C708.809 469.269 708.779 469.329 708.75 469.39L708.7 469.492L708.758 469.522L708.736 469.656C705.497 471.038 703.587 475.856 705.344 479.306C705.606 478.942 705.888 478.604 706.161 478.278L706.161 478.277L706.162 478.277C706.743 477.581 707.281 476.936 707.497 476.203C707.966 474.564 708.226 472.89 708.483 471.232L708.483 471.231L708.484 471.231L708.484 471.23L708.484 471.229L708.484 471.228L708.484 471.227L708.484 471.227L708.485 471.226L708.487 471.214L708.489 471.2L708.498 471.14L708.506 471.091C708.527 470.956 708.548 470.82 708.569 470.685C708.623 470.341 708.678 469.998 708.736 469.656C708.766 469.643 708.796 469.63 708.827 469.618C708.827 469.592 708.816 469.566 708.804 469.544L708.826 469.556ZM879.116 337.314L879.117 337.315C882.01 338.738 884.945 340.181 887.744 341.962C887.367 342.173 887.052 342.376 886.766 342.561C886.281 342.873 885.878 343.132 885.401 343.291C880.093 345.581 874.762 347.848 869.428 350.116C862.223 353.18 855.013 356.246 847.844 359.375C846.393 359.99 845.096 360.941 843.802 361.889C843.232 362.306 842.662 362.724 842.081 363.111C842.127 363.188 842.169 363.265 842.21 363.342L842.224 363.369L842.244 363.408L842.272 363.462C842.292 363.503 842.313 363.544 842.334 363.585L842.334 363.586L842.334 363.586L842.334 363.586C842.413 363.745 842.492 363.903 842.587 364.061C842.886 363.986 843.195 363.931 843.502 363.876L843.502 363.876C843.976 363.792 844.445 363.708 844.867 363.554C846.654 362.877 848.448 362.226 850.24 361.575C853.972 360.22 857.697 358.869 861.334 357.285C870.667 353.261 879.839 349.022 889.047 344.766L891.417 343.671C892.051 343.418 892.874 342.532 892.874 341.898C892.874 341.328 891.924 340.569 891.291 340.252C887.808 338.398 884.293 336.608 880.769 334.814L880.768 334.814L880.767 334.813L880.766 334.813L880.765 334.812L880.764 334.812L880.763 334.811L880.762 334.811L880.761 334.81L880.759 334.81L880.758 334.809L880.757 334.808L880.756 334.808L880.72 334.79C879.326 334.08 877.93 333.369 876.534 332.653L865.894 327.334C865.799 327.524 865.704 327.698 865.609 327.873C865.514 328.047 865.419 328.221 865.324 328.411C869.183 332.43 874.088 334.842 879.116 337.314ZM657.766 517.968H657.768H657.77C659.185 517.94 660.59 517.912 662.023 517.997C675.83 519.136 686.786 514.071 694.26 502.546C696.402 499.224 697.85 495.419 699.292 491.631L699.292 491.63L699.293 491.628L699.294 491.626L699.294 491.624C699.94 489.927 700.585 488.234 701.29 486.589C701.51 486.069 701.717 485.542 701.924 485.017L701.925 485.016L701.925 485.015L701.925 485.014L701.926 485.014L701.926 485.013L701.927 485.012L701.927 485.011C702.374 483.877 702.818 482.751 703.38 481.713C703.57 481.333 704.52 481.017 704.963 481.143C705.28 481.27 705.723 482.22 705.596 482.6C702.05 494.631 698.376 506.599 687.356 514.387C679.376 520.023 670.51 521.733 661.01 520.719C659.784 520.588 658.589 520.033 657.382 519.473C656.842 519.223 656.301 518.972 655.753 518.756C655.72 518.657 655.704 518.522 655.687 518.38C655.682 518.336 655.677 518.291 655.671 518.247C655.66 518.161 655.646 518.076 655.626 517.997C655.89 517.997 656.154 517.995 656.416 517.992C656.863 517.986 657.307 517.977 657.751 517.969L657.766 517.968ZM627.42 539.001C630.003 540.234 632.378 541.368 634.726 542.501C633.405 538.161 629.771 536.695 626.184 535.248L626.113 535.219C625.704 535.056 625.085 535.446 624.289 535.947L624.288 535.948L624.288 535.948L624.287 535.948L624.286 535.949C623.849 536.224 623.358 536.533 622.82 536.802C624.441 537.579 625.964 538.305 627.42 539.001ZM218.69 529.078C218.739 531.727 217.229 533.312 215.751 534.864L215.75 534.865C215.321 535.315 214.895 535.763 214.51 536.233C214.32 536.487 213.307 536.487 213.18 536.297C212.8 535.727 212.357 534.777 212.547 534.397C212.762 534.084 212.97 533.761 213.18 533.437L213.18 533.437L213.182 533.435C214.453 531.471 215.755 529.458 218.69 529.078ZM228.38 516.033C228.446 516.34 228.572 516.67 228.697 516.994C228.931 517.604 229.157 518.193 228.95 518.566C228.127 520.086 226.987 521.542 225.72 522.745C225.549 522.916 224.974 522.712 224.385 522.503C224.101 522.402 223.814 522.3 223.567 522.239L227.177 515.78C227.557 515.843 227.937 515.907 228.38 516.033ZM320.783 433.774C320.506 433.237 320.195 432.634 319.833 431.878C319.296 432.733 318.352 433.324 317.487 433.866C316.111 434.729 314.935 435.466 315.907 436.943C317.373 439.09 319.055 437.471 320.561 436.022L320.562 436.021C320.877 435.718 321.184 435.422 321.48 435.17C321.267 434.714 321.039 434.272 320.783 433.774ZM259.033 313.212C257.133 312.516 256.31 310.046 256.69 306.374C259.603 307.64 259.983 308.843 259.033 313.212ZM23.307 320.178H29.1336C29.3236 319.925 29.5136 319.672 29.6403 319.355C29.3543 319.171 29.0551 318.922 28.7534 318.67C28.1197 318.141 27.4747 317.603 26.917 317.646C25.9735 317.735 25.0619 318.239 24.137 318.751L24.1365 318.751L24.136 318.751C23.7574 318.961 23.3765 319.171 22.9903 319.355C23.0536 319.482 23.1011 319.624 23.1486 319.767L23.1487 319.767C23.1962 319.909 23.2437 320.052 23.307 320.178ZM590.077 386.919C590.855 387.084 591.572 387.232 592.283 387.378C593.481 387.625 594.662 387.868 596.093 388.186C595.9 388.507 595.729 388.886 595.565 389.25C595.244 389.961 594.95 390.613 594.573 390.655C592.42 390.845 590.837 389.832 590.077 386.919ZM291.944 287.15L291.944 287.149L291.953 287.144C292.199 286.995 292.47 286.831 292.727 286.681C292.212 285.938 291.723 285.246 291.254 284.582L291.251 284.578C290.683 283.774 290.144 283.011 289.623 282.249C289.473 282.38 289.284 282.534 289.094 282.689C288.642 283.055 288.186 283.426 288.23 283.515C289.053 284.971 290.067 286.301 291.08 287.631L291.08 287.631C291.08 287.673 291.464 287.44 291.944 287.15ZM234.27 510.715C233.922 511.443 233.557 512.171 233.193 512.9C232.829 513.628 232.465 514.356 232.117 515.084C231.8 515.084 231.483 515.084 231.23 515.021C231.126 514.795 230.983 514.541 230.838 514.281C230.454 513.595 230.05 512.873 230.28 512.551C230.809 511.734 231.63 511.099 232.466 510.453C232.635 510.322 232.804 510.192 232.971 510.059C233.067 509.983 233.162 509.906 233.257 509.829C233.51 510.145 233.89 510.462 234.27 510.715ZM209.444 537.753C209 539.019 208.557 540.222 208.114 541.426C208.367 541.552 208.62 541.663 208.874 541.774C209.127 541.885 209.38 541.995 209.634 542.122C209.76 541.837 209.891 541.552 210.022 541.267C210.413 540.412 210.805 539.558 211.09 538.703C211.135 538.614 210.59 538.34 210.064 538.074C209.838 537.96 209.615 537.848 209.444 537.753Z" fill="url(#paint0_linear)"/>
<defs>
<linearGradient id="paint0_linear" x1="221.24" y1="466.471" x2="815.482" y2="88.541" gradientUnits="userSpaceOnUse">
<stop stop-color="#4D71D5"/>
<stop offset="1" stop-color="#A835BB"/>
</linearGradient>
</defs>
</svg>
