<svg width="703" height="325" viewBox="0 0 703 325" fill="none" xmlns="http://www.w3.org/2000/svg">
<g clip-path="url(#clip0)">
<path fill-rule="evenodd" clip-rule="evenodd" d="M116.004 52.6686C111.008 54.2829 109.696 55.8973 109.545 60.4881C109.091 74.2606 111.362 87.4782 119.788 98.8291C121.62 101.294 123.892 103.428 126.168 105.567C127.34 106.668 128.513 107.77 129.628 108.919C130.031 109.322 130.345 109.816 130.659 110.309C130.816 110.556 130.973 110.802 131.141 111.038C130.941 111.177 130.745 111.33 130.549 111.482L130.549 111.482L130.549 111.482L130.549 111.483L130.549 111.483L130.549 111.483L130.548 111.483C130.105 111.829 129.663 112.174 129.173 112.349C126.662 113.208 124.129 114.003 121.531 114.817C120.163 115.246 118.776 115.68 117.366 116.133C141.233 150.69 161.416 187.316 173.274 228.684C174.586 226.565 175.646 224.85 176.705 223.135C179.581 218.392 184.123 216.173 189.269 214.76C198.15 212.389 205.87 215.971 213.54 219.553C213.956 219.761 214.157 220.421 214.357 221.075C214.449 221.374 214.539 221.671 214.65 221.924C214.508 222.03 214.367 222.111 214.208 222.203L214.208 222.203C214.14 222.242 214.069 222.282 213.994 222.327C213.088 221.942 212.182 221.55 211.277 221.159L211.269 221.156C209.453 220.371 207.636 219.586 205.82 218.846C201.43 217.081 196.939 215.87 192.095 216.677C185.636 217.787 180.49 220.663 177.412 226.716C176.503 228.482 175.393 230.197 174.283 231.862C173.93 232.417 173.173 233.123 172.719 233.023C172.164 232.922 171.558 232.114 171.357 231.509C170.659 229.279 170.001 227.032 169.342 224.783L169.342 224.781L169.342 224.781C168.049 220.366 166.755 215.944 165.15 211.632L164.972 211.151L164.972 211.151C161.549 201.926 158.112 192.661 153.797 183.835C147.389 170.718 140.527 157.854 133.16 145.242C129.231 138.463 124.823 131.948 120.414 125.432C118.425 122.492 116.435 119.552 114.49 116.587C114.191 116.122 114.023 115.548 113.857 114.98C113.771 114.685 113.685 114.391 113.582 114.115C113.784 114.048 113.983 113.977 114.181 113.906L114.181 113.906C114.724 113.712 115.261 113.52 115.852 113.409C117.661 113.018 119.469 112.639 121.357 112.243L121.358 112.243L121.36 112.242C123.371 111.821 125.472 111.38 127.761 110.886C126.399 109.676 125.642 108.97 124.885 108.264L124.885 108.264L124.885 108.264L124.884 108.263C115.751 100.191 110.655 89.8997 108.385 78.0947C106.972 70.8806 106.518 63.6159 107.577 56.3009C107.729 55.3928 108.385 54.3334 109.141 53.728C111.412 52.0128 113.784 50.4993 116.155 48.9858C117.77 47.9264 118.628 48.4309 118.678 50.348C118.767 52.3383 118.813 54.3374 118.858 56.3388V56.3389V56.339V56.3392V56.3393V56.3394V56.3396V56.3397V56.34C118.967 61.1358 119.076 65.945 119.788 70.6788C121.655 82.9882 125.894 94.3896 136.339 102.209C138.76 104.025 141.939 105.186 144.967 105.791C150.82 106.951 155.715 102.461 157.581 97.7192C160.306 90.8582 159.701 83.8459 158.288 76.8839C156.219 66.7438 152.283 57.2594 146.985 48.3805C143.453 42.478 138.256 38.8457 131.444 38.4925C127.054 38.2403 122.614 39.1484 118.88 41.9735C117.904 42.6991 116.929 43.4248 115.954 44.1501L115.942 44.1587C109.059 49.2802 102.195 54.3872 95.2149 59.3783C91.1278 62.3043 89.2608 66.5924 88.1003 71.0824C84.6186 84.9557 85.6783 98.93 87.5957 112.904C90.1691 131.469 96.8296 148.773 104.247 165.875C105.155 167.994 105.912 170.012 104.398 172.837C103.972 171.849 103.551 170.896 103.14 169.967L103.14 169.967L103.139 169.967L103.139 169.966C102.186 167.814 101.288 165.785 100.513 163.706L99.7852 161.755L99.7852 161.755C96.6986 153.482 93.6246 145.243 90.7241 136.918C87.1415 126.727 85.2746 116.183 84.215 105.488C83.1553 94.7428 82.8526 83.9972 85.0728 73.3525C86.2838 66.5924 88.8067 60.589 94.8617 56.4018C98.9789 53.5477 102.977 50.5295 106.977 47.5094L106.977 47.5093L106.977 47.5093L106.977 47.5092C110.33 44.9775 113.685 42.4445 117.114 40.006C125.389 34.1539 139.77 33.9521 147.137 44.5464C156.27 57.7135 161.618 72.4445 161.87 88.6385C161.971 93.7842 160.659 98.8796 157.279 102.966C151.779 109.575 144.008 110.231 136.187 105.287C128.82 100.645 124.481 93.5824 121.251 85.7629C117.215 75.9254 116.004 65.533 116.054 54.9388C116.004 54.2829 116.004 53.6271 116.004 52.6686ZM530.923 246.593H245.178C244.977 247.927 244.86 249.223 244.747 250.471C244.518 252.998 244.306 255.329 243.462 257.389C239.627 266.621 233.471 274.239 225.146 279.99C215.256 286.851 204.256 289.777 192.348 288.718C182.66 287.86 174.233 283.622 166.816 277.417C166.625 277.258 166.474 277.038 166.325 276.822C166.238 276.696 166.152 276.57 166.059 276.459C166.967 274.895 167.976 274.996 169.137 276.055C174.586 280.646 180.742 284.026 187.705 285.489C194.669 286.952 201.733 286.801 208.696 284.833C224.49 280.394 235.237 270.253 241.545 255.27C242.352 253.303 242.15 250.831 241.948 248.611C241.898 247.905 240.334 246.694 239.577 246.795C236.398 247.198 234.127 246.089 232.412 243.516C232.386 243.49 232.349 243.465 232.311 243.44C232.273 243.415 232.235 243.39 232.21 243.364C225.986 237.242 225.953 237.26 218.503 241.282L218.384 241.346C215.104 243.062 211.673 244.424 208.141 245.634C210.215 242.433 213.376 240.964 216.645 239.445C218.784 238.45 220.969 237.435 222.925 235.898C222.388 235.554 221.863 235.224 221.349 234.9L221.344 234.897L221.344 234.897C220.124 234.129 218.964 233.399 217.829 232.619C217.405 232.336 217.08 231.881 216.768 231.442C216.634 231.254 216.502 231.07 216.366 230.903C216.521 230.805 216.677 230.694 216.833 230.582C217.236 230.295 217.645 230.003 218.081 229.894C219.297 229.582 220.537 229.341 221.916 229.073C222.54 228.952 223.192 228.825 223.884 228.684C222.996 227.654 221.849 226.924 220.725 226.208C219.04 225.134 217.405 224.093 216.769 222.125C216.892 221.922 217.047 221.718 217.182 221.541L217.182 221.541L217.182 221.54C217.214 221.498 217.245 221.458 217.274 221.419C218.434 222.125 219.607 222.831 220.78 223.538L220.787 223.542C221.958 224.247 223.129 224.952 224.288 225.657C224.338 225.707 224.439 225.808 224.439 225.859C224.246 229.641 225.855 228.787 227.344 227.997L227.345 227.997C227.802 227.754 228.248 227.517 228.627 227.423C230.165 227.045 231.67 226.551 233.18 226.056L233.18 226.055L233.181 226.055L233.182 226.055L233.183 226.055L233.184 226.054L233.186 226.054L233.187 226.054C234.3 225.688 235.415 225.322 236.549 225.001C241.237 223.656 244.058 220.108 246.843 216.605C247.295 216.036 247.747 215.468 248.205 214.911C254.159 207.596 258.145 199.323 260.164 189.889C259.11 189.44 258.049 189.007 256.99 188.574L256.988 188.573C255.307 187.886 253.629 187.201 251.989 186.458C238.87 180.404 228.123 171.677 221.815 158.358C217.476 149.227 216.416 139.591 217.526 129.653C219.393 112.753 228.98 101.099 242.756 92.2706C251.434 86.6708 260.921 82.8871 270.81 80.0115C281.861 76.8333 293.113 74.8658 304.567 73.8064C314.98 72.8689 325.296 73.8616 335.563 74.8496L336.255 74.9162C346.397 75.9252 356.388 78.1954 365.824 82.1808C377.076 86.8726 386.814 93.4309 392.869 104.378C395.846 109.726 397.511 115.477 398.016 121.531C399.732 142.467 390.245 157.803 373.846 169.608C364.209 176.52 353.562 181.363 342.36 185.147C331.865 188.678 321.218 191.554 310.218 192.815C307.771 193.092 305.311 193.307 302.852 193.521C300.392 193.735 297.932 193.95 295.485 194.227C294.425 194.328 293.214 194.782 292.356 195.438C280.196 204.922 267.329 213.347 253.503 220.208C252.486 220.708 251.447 221.167 250.411 221.625C248.622 222.415 246.839 223.203 245.178 224.194C242.467 225.84 239.827 227.65 237.272 229.401L237.271 229.402L237.269 229.403L237.269 229.403C236.068 230.227 234.885 231.037 233.724 231.812C234.631 233.027 235.505 234.212 236.36 235.371L236.36 235.372C238.45 238.207 240.426 240.887 242.503 243.465C243.008 244.121 244.421 244.272 245.43 244.272C258.044 244.323 270.659 244.323 283.274 244.323H355.429H526.18C526.256 244.321 526.331 244.319 526.406 244.316C526.489 244.313 526.573 244.31 526.656 244.307L526.657 244.307L526.658 244.307C528.446 244.242 530.089 244.183 530.923 246.593ZM248.003 219.855C247.953 219.855 248.155 219.956 248.256 219.906C248.444 219.839 248.635 219.775 248.828 219.711L248.828 219.711L248.829 219.711C249.359 219.535 249.894 219.357 250.375 219.098C264.2 212.036 277.37 203.964 289.581 194.379C289.678 194.303 289.776 194.226 289.875 194.149L289.876 194.148L289.877 194.148L289.877 194.147L289.878 194.147L289.879 194.146L289.879 194.146C291.169 193.136 292.621 192 294.072 191.907C309.613 190.948 324.801 188.224 339.636 183.431C351.09 179.698 362.039 175.006 371.929 167.994C384.342 159.115 393.626 148.117 395.544 132.327C397.158 118.907 394.131 106.901 384.544 96.9623C376.117 88.2347 365.369 83.4925 353.865 80.7178C345.035 78.599 335.952 76.9846 326.92 76.3792C317.585 75.7738 308.099 76.127 298.815 76.9846C291.261 77.6882 283.795 79.3949 276.376 81.0909C275.816 81.219 275.256 81.347 274.696 81.4745C263.999 83.9465 253.907 88.0329 244.623 93.8849C232.613 101.402 223.581 111.239 220.756 125.668C217.224 143.88 221.815 159.62 235.389 172.433C242.756 179.395 251.586 184.037 261.122 187.265C262.989 187.921 262.939 188.829 262.687 190.242C261.476 196.195 259.508 201.895 256.43 207.092C254.459 210.426 252.29 213.589 250.135 216.731C249.42 217.773 248.707 218.812 248.003 219.855ZM228.123 236.251C228.908 236.987 229.693 237.696 230.468 238.397L230.468 238.397L230.468 238.397L230.468 238.397L230.468 238.397L230.468 238.397L230.468 238.397L230.469 238.397C232.084 239.857 233.654 241.275 235.086 242.809C236.549 244.424 238.012 244.525 240.434 243.768C239.771 242.989 239.136 242.226 238.515 241.481C236.967 239.621 235.51 237.872 233.925 236.251C231.402 233.628 231.1 233.678 228.123 236.251ZM228.93 232.316C227.589 230.196 226.133 230.658 224.644 231.129C223.724 231.421 222.791 231.716 221.866 231.408C223.733 234.838 225.347 234.99 228.93 232.316ZM104.903 174.25C115.802 198.162 127.962 221.167 141.384 244.272H137.953H30.7796C28.4349 244.272 26.087 244.269 23.7375 244.266C16.6828 244.257 9.6139 244.247 2.57338 244.323C1.97665 244.323 1.37992 244.713 0.783195 245.104C0.52213 245.275 0.261065 245.446 0 245.584C0.257335 245.705 0.51467 245.853 0.772006 246.002C1.37246 246.348 1.97292 246.694 2.57338 246.694C8.40024 246.77 14.2555 246.76 20.1178 246.751C22.0734 246.747 24.0297 246.744 25.9861 246.744H141.99C145.169 246.744 145.421 246.29 143.806 243.415C142.247 240.642 140.667 237.885 139.088 235.13L139.088 235.13C135.811 229.415 132.54 223.709 129.476 217.888C125.911 211.088 122.471 204.2 119.028 197.307C116.672 192.591 114.315 187.872 111.917 183.179C111.418 182.181 110.677 181.293 109.883 180.34C109.474 179.849 109.049 179.34 108.637 178.79C108.546 178.155 108.435 177.408 108.313 176.586C108.163 175.578 107.996 174.458 107.83 173.291C107.596 173.366 107.383 173.434 107.185 173.497L107.182 173.498C106.312 173.775 105.724 173.962 104.903 174.25ZM544 245.531C544.564 245.383 545.129 245.185 545.693 244.987C546.821 244.591 547.95 244.195 549.079 244.195C568.741 244.112 588.404 244.122 608.067 244.132C614.621 244.136 621.175 244.139 627.729 244.139C645.162 244.139 662.64 244.084 680.072 244.028C680.14 244.028 680.209 244.027 680.279 244.025C680.382 244.023 680.486 244.018 680.591 244.014C681.117 243.993 681.65 243.972 682.131 244.139C682.497 244.251 682.954 244.974 683 245.42C683 245.921 682.588 246.644 682.222 246.811C681.722 247.029 681.165 247.008 680.64 246.989L680.549 246.986L680.501 246.984C680.465 246.983 680.428 246.982 680.392 246.981C680.331 246.979 680.269 246.978 680.209 246.978C635.645 246.923 591.035 246.867 546.471 246.867H544.229C544.137 246.422 544.046 245.976 544 245.531ZM189.995 246.829L189.723 246.593L189.875 246.644C189.915 246.705 189.955 246.767 189.995 246.829ZM189.995 246.829C191.817 248.415 193.598 250.004 195.425 251.638C204.205 259.508 214.297 264.401 226.104 265.562C226.248 265.576 226.397 265.582 226.546 265.589H226.546C226.918 265.604 227.294 265.62 227.618 265.764C227.663 265.784 227.711 265.806 227.761 265.828C228.309 266.074 229.039 266.402 229.131 266.773C229.232 267.227 228.728 268.034 228.223 268.336L227.725 268.637C224.707 270.458 221.641 272.308 218.485 273.886C208.242 279.032 197.292 280.343 186.191 278.124C181.459 277.177 176.874 275.204 172.372 273.267C171.594 272.933 170.818 272.599 170.045 272.271C168.712 271.694 167.771 270.14 166.842 268.606C166.715 268.397 166.589 268.189 166.462 267.983C185.535 279.334 204.508 280.192 224.136 268.084C213.388 266.268 204.356 262.131 196.232 255.876C193.996 254.129 192.776 251.85 191.567 249.592L191.567 249.592L191.567 249.592L191.567 249.592L191.567 249.592C191.065 248.654 190.565 247.72 189.995 246.829ZM189.73 246.51L189.666 246.487L189.588 246.459C189.079 245.655 188.586 244.84 188.094 244.024C186.91 242.065 185.727 240.107 184.324 238.319C182.357 235.847 183.113 233.779 184.425 231.357C184.596 231.5 184.75 231.634 184.896 231.76L184.897 231.761C185.267 232.082 185.577 232.351 185.939 232.568C187.084 233.248 188.032 234.226 188.98 235.202L188.98 235.203C190.704 236.981 192.426 238.756 195.324 238.723C195.577 238.723 195.98 239.127 196.031 239.379C196.352 241.875 198.161 242.834 199.96 243.787C200.706 244.183 201.45 244.577 202.086 245.08C202.442 245.364 203.201 245.172 203.953 244.98L203.953 244.98C204.267 244.901 204.579 244.821 204.861 244.777C202.988 243.25 201.144 241.746 199.322 240.26C193.978 235.903 188.823 231.699 183.668 227.523C177.725 234.215 181.917 243.675 189.588 246.459L189.673 246.593C189.723 246.593 189.824 246.543 189.824 246.543C189.793 246.532 189.761 246.521 189.73 246.51ZM160.559 266.369C161.177 266.823 161.795 267.277 162.426 267.731C162.577 267.58 162.779 267.428 162.88 267.378C162.55 266.916 162.241 266.443 161.935 265.974C161.305 265.008 160.684 264.056 159.903 263.241C156.673 259.911 153.394 256.632 150.013 253.454C149.677 253.118 149.116 253.006 148.555 252.894C148.275 252.837 147.995 252.781 147.742 252.697C147.778 252.947 147.776 253.227 147.774 253.508C147.77 254.024 147.766 254.54 147.995 254.867C148.764 255.907 149.531 256.949 150.299 257.992C153.812 262.761 157.328 267.534 161.013 272.171C161.611 272.944 162.651 273.375 163.687 273.804C164.137 273.99 164.587 274.176 164.999 274.39C165.814 272.762 164.864 272.102 163.928 271.453C163.531 271.176 163.136 270.902 162.88 270.556C161.978 269.397 160.995 268.3 160.007 267.199L160.007 267.199C159.447 266.574 158.886 265.948 158.339 265.31C158.363 265.285 158.39 265.261 158.419 265.236C158.45 265.21 158.483 265.184 158.515 265.158C158.578 265.108 158.641 265.057 158.692 265.007C159.321 265.46 159.938 265.913 160.555 266.366L160.556 266.367L160.559 266.369ZM693.906 246.985C693.201 246.985 692.496 246.989 691.792 246.993H691.791C689.681 247.004 687.579 247.015 685.502 246.926C685.143 246.926 684.783 246.524 684.44 246.14L684.439 246.14C684.289 245.972 684.143 245.808 684 245.682C684.15 245.512 684.3 245.292 684.451 245.073C684.77 244.608 685.089 244.142 685.408 244.142C691.183 244.023 696.958 243.964 702.732 244.023C703.025 244.023 703.317 244.535 703.61 245.046C703.74 245.273 703.87 245.5 704 245.682C703.844 245.801 703.687 245.959 703.531 246.117C703.218 246.433 702.905 246.748 702.592 246.748C700.442 246.837 698.266 246.826 696.104 246.815C695.385 246.811 694.668 246.808 693.953 246.808C693.906 246.867 693.906 246.926 693.906 246.985ZM533.497 244.726C537.887 243.465 540.965 244.121 541.469 246.19C538.088 247.501 534.657 246.946 533.497 244.726Z" fill="url(#paint0_linear)"/>
<path d="M259.819 139.693C257.301 140.21 254.992 140.759 252.893 141.34C250.826 141.921 249.099 142.486 247.71 143.036C247.387 143.132 247.226 143.229 247.226 143.326C247.226 143.391 247.581 143.552 248.291 143.811C249.002 144.037 249.938 144.327 251.101 144.683C252.263 145.038 253.571 145.425 255.024 145.845C256.509 146.233 258.027 146.637 259.577 147.056C259.642 145.829 259.69 144.602 259.722 143.375C259.755 142.147 259.787 140.92 259.819 139.693ZM272.316 145.361C272.316 142.486 272.267 139.935 272.171 137.707C270.298 137.933 268.473 138.191 266.697 138.482C264.921 138.74 263.161 139.047 261.418 139.402C261.418 140.629 261.402 141.905 261.369 143.229C261.337 144.521 261.289 145.942 261.224 147.492C262.354 147.783 263.452 148.058 264.518 148.316C265.583 148.574 266.552 148.8 267.424 148.994C268.328 149.156 269.103 149.301 269.749 149.43C270.395 149.527 270.863 149.576 271.153 149.576C271.702 149.576 272.025 149.236 272.122 148.558C272.251 147.88 272.316 146.814 272.316 145.361ZM285.297 135.963C285.297 136.318 285.119 136.512 284.764 136.544C284.441 136.576 284.086 136.609 283.699 136.641C280.276 136.835 276.901 137.125 273.575 137.513C273.64 139.838 273.688 141.937 273.721 143.811C273.753 145.684 273.769 147.396 273.769 148.946C273.769 149.333 273.688 149.721 273.527 150.108C273.398 150.496 273.01 150.69 272.364 150.69C272.235 150.69 272.106 150.674 271.977 150.641C271.88 150.641 271.751 150.625 271.589 150.593C271.46 150.561 271.089 150.48 270.475 150.351C269.894 150.221 269.135 150.044 268.199 149.818C267.262 149.624 266.197 149.398 265.002 149.14C263.807 148.849 262.548 148.542 261.224 148.219C261.192 148.51 261.159 148.913 261.127 149.43C261.127 149.915 261.111 150.399 261.079 150.884C261.046 151.4 260.982 151.836 260.885 152.192C260.788 152.547 260.643 152.724 260.449 152.724C260.158 152.724 259.868 152.66 259.577 152.531C259.319 152.434 259.206 152.24 259.238 151.949C259.27 151.271 259.319 150.593 259.383 149.915C259.448 149.236 259.496 148.542 259.529 147.832C257.72 147.379 255.928 146.927 254.152 146.475C252.408 145.991 250.826 145.538 249.405 145.119C248.017 144.699 246.887 144.311 246.015 143.956C245.143 143.568 244.707 143.229 244.707 142.939C244.707 142.745 244.804 142.583 244.998 142.454C245.224 142.293 245.417 142.18 245.579 142.115C247.129 141.501 249.147 140.872 251.633 140.226C254.12 139.548 256.865 138.918 259.868 138.336V135.333C259.868 132.491 259.835 129.81 259.771 127.291C259.706 124.772 259.642 122.544 259.577 120.606C259.513 119.475 259.448 118.394 259.383 117.36C259.351 116.294 259.303 115.261 259.238 114.26C259.238 114.001 259.27 113.743 259.335 113.485C259.399 113.226 259.561 113.097 259.819 113.097C260.465 113.097 260.869 113.258 261.03 113.581C261.224 113.904 261.321 114.292 261.321 114.744C261.321 116.391 261.321 117.974 261.321 119.492C261.353 120.977 261.369 122.463 261.369 123.948C261.402 125.402 261.418 126.887 261.418 128.405C261.45 129.923 261.466 131.522 261.466 133.201V138.046C263.21 137.691 264.97 137.384 266.746 137.125C268.554 136.835 270.346 136.576 272.122 136.35C272.058 135.155 271.993 133.976 271.928 132.814C271.864 131.619 271.799 130.392 271.735 129.132C271.702 127.84 271.67 126.484 271.638 125.063C271.606 123.609 271.589 122.011 271.589 120.267C271.589 118.394 271.638 116.811 271.735 115.519C271.864 114.195 271.928 113.436 271.928 113.242C271.928 113.016 272.025 112.822 272.219 112.661C272.348 112.596 272.429 112.564 272.461 112.564C272.816 112.596 273.188 112.645 273.575 112.709C273.963 112.774 274.157 112.952 274.157 113.242C274.157 113.404 274.14 113.533 274.108 113.63C274.076 113.759 274.011 114.066 273.914 114.55C273.85 115.002 273.785 115.535 273.721 116.149C273.656 116.763 273.591 117.408 273.527 118.087C273.462 118.733 273.43 119.314 273.43 119.831C273.43 122.834 273.43 125.709 273.43 128.454C273.462 131.167 273.511 133.75 273.575 136.205C275.61 135.947 277.547 135.753 279.388 135.624C281.228 135.494 282.972 135.43 284.619 135.43C284.78 135.43 284.926 135.462 285.055 135.527C285.216 135.591 285.297 135.737 285.297 135.963Z" fill="white"/>
<path d="M292.75 136.641C292.75 135.769 292.524 135.058 292.072 134.509C291.652 133.928 290.958 133.637 289.989 133.637C289.472 133.637 289.004 133.799 288.584 134.122C288.164 134.445 287.809 134.881 287.519 135.43C287.228 135.947 287.002 136.56 286.841 137.271C286.679 137.981 286.598 138.724 286.598 139.499C286.598 140.726 286.727 141.824 286.986 142.793C287.276 143.73 287.68 144.553 288.197 145.264C288.875 144.715 289.488 144.085 290.037 143.375C290.586 142.664 291.054 141.921 291.442 141.146C291.862 140.371 292.185 139.596 292.411 138.821C292.637 138.046 292.75 137.319 292.75 136.641ZM305.004 139.644C304.778 140.129 304.536 140.629 304.278 141.146C304.052 141.631 303.761 142.115 303.406 142.6C301.824 144.86 300.015 146.572 297.981 147.735C295.979 148.865 294.058 149.43 292.217 149.43C291.184 149.43 290.215 149.253 289.311 148.897C288.439 148.542 287.68 148.009 287.034 147.299C286.388 146.588 285.872 145.7 285.484 144.634C285.097 143.568 284.903 142.309 284.903 140.856C284.903 139.887 285.048 138.918 285.339 137.949C285.63 136.98 286.017 136.108 286.501 135.333C287.018 134.558 287.599 133.928 288.245 133.444C288.923 132.959 289.634 132.717 290.376 132.717C291.571 132.717 292.443 133.072 292.992 133.783C293.541 134.461 293.815 135.333 293.815 136.399C293.815 137.852 293.363 139.435 292.459 141.146C291.587 142.826 290.328 144.392 288.681 145.845C289.908 147.234 291.49 147.928 293.428 147.928C294.881 147.928 296.399 147.492 297.981 146.62C299.563 145.716 301.049 144.327 302.437 142.454C302.792 142.002 303.083 141.518 303.309 141.001C303.567 140.452 303.826 139.919 304.084 139.402L305.004 139.644Z" fill="white"/>
<path d="M312.006 117.651C312.006 115.971 311.78 114.696 311.328 113.824C310.876 112.952 310.327 112.516 309.681 112.516C309.1 112.516 308.486 112.871 307.84 113.581C307.227 114.292 306.646 115.406 306.097 116.924C305.548 118.41 305.096 120.299 304.741 122.592C304.385 124.885 304.208 127.63 304.208 130.828C304.208 132.023 304.272 133.217 304.401 134.412C304.531 135.607 304.724 136.77 304.983 137.9C307.598 133.411 309.423 129.471 310.456 126.08C311.489 122.689 312.006 119.879 312.006 117.651ZM324.503 139.644C324.277 140.129 324.034 140.629 323.776 141.146C323.518 141.631 323.227 142.115 322.904 142.6C321.064 145.312 319.272 147.266 317.528 148.461C315.784 149.624 314.137 150.205 312.587 150.205C311.166 150.205 309.842 149.769 308.615 148.897C307.421 147.993 306.387 146.766 305.515 145.216C304.644 143.633 303.966 141.776 303.481 139.644C302.997 137.481 302.755 135.155 302.755 132.668C302.755 129.019 303.013 125.854 303.53 123.173C304.014 120.46 304.644 118.216 305.419 116.44C306.194 114.663 307.033 113.339 307.937 112.467C308.841 111.595 309.681 111.159 310.456 111.159C311.296 111.159 311.974 111.611 312.49 112.516C313.039 113.42 313.314 114.793 313.314 116.633C313.314 118.991 312.716 122.043 311.522 125.789C310.327 129.503 308.228 133.912 305.225 139.015C305.58 140.403 306.016 141.711 306.533 142.939C307.082 144.134 307.695 145.183 308.373 146.088C309.084 146.992 309.842 147.702 310.65 148.219C311.489 148.736 312.393 148.994 313.362 148.994C314.622 148.994 315.962 148.494 317.382 147.492C318.836 146.459 320.353 144.78 321.936 142.454C322.258 141.97 322.549 141.469 322.807 140.952C323.066 140.436 323.324 139.919 323.582 139.402L324.503 139.644Z" fill="white"/>
<path d="M331.541 117.651C331.541 115.971 331.315 114.696 330.863 113.824C330.411 112.952 329.862 112.516 329.217 112.516C328.635 112.516 328.022 112.871 327.376 113.581C326.762 114.292 326.181 115.406 325.632 116.924C325.083 118.41 324.631 120.299 324.276 122.592C323.921 124.885 323.743 127.63 323.743 130.828C323.743 132.023 323.808 133.217 323.937 134.412C324.066 135.607 324.26 136.77 324.518 137.9C327.134 133.411 328.958 129.471 329.992 126.08C331.025 122.689 331.541 119.879 331.541 117.651ZM344.038 139.644C343.812 140.129 343.57 140.629 343.312 141.146C343.053 141.631 342.763 142.115 342.44 142.6C340.599 145.312 338.807 147.266 337.063 148.461C335.32 149.624 333.673 150.205 332.123 150.205C330.702 150.205 329.378 149.769 328.151 148.897C326.956 147.993 325.923 146.766 325.051 145.216C324.179 143.633 323.501 141.776 323.017 139.644C322.532 137.481 322.29 135.155 322.29 132.668C322.29 129.019 322.548 125.854 323.065 123.173C323.549 120.46 324.179 118.216 324.954 116.44C325.729 114.663 326.569 113.339 327.473 112.467C328.377 111.595 329.217 111.159 329.992 111.159C330.831 111.159 331.509 111.611 332.026 112.516C332.575 113.42 332.849 114.793 332.849 116.633C332.849 118.991 332.252 122.043 331.057 125.789C329.862 129.503 327.763 133.912 324.76 139.015C325.116 140.403 325.551 141.711 326.068 142.939C326.617 144.134 327.231 145.183 327.909 146.088C328.619 146.992 329.378 147.702 330.185 148.219C331.025 148.736 331.929 148.994 332.898 148.994C334.157 148.994 335.497 148.494 336.918 147.492C338.371 146.459 339.889 144.78 341.471 142.454C341.794 141.97 342.085 141.469 342.343 140.952C342.601 140.436 342.86 139.919 343.118 139.402L344.038 139.644Z" fill="white"/>
<path d="M354.613 142.939C354.613 142.034 354.484 141.13 354.225 140.226C353.999 139.321 353.628 138.514 353.111 137.804C352.627 137.061 351.997 136.479 351.222 136.06C350.48 135.607 349.608 135.381 348.607 135.381C348.122 135.381 347.88 135.688 347.88 136.302C347.88 136.754 348.025 137.303 348.316 137.949C348.607 138.563 349.027 139.192 349.575 139.838C350.157 140.484 350.867 141.098 351.707 141.679C352.546 142.26 353.515 142.713 354.613 143.036V142.939ZM364.349 139.257C363.509 141.227 362.46 142.616 361.2 143.423C359.973 144.198 358.585 144.586 357.035 144.586C356.712 144.586 356.389 144.586 356.066 144.586C355.775 144.553 355.485 144.521 355.194 144.489C355.065 145.361 354.839 146.184 354.516 146.96C354.193 147.735 353.773 148.413 353.257 148.994C352.772 149.576 352.175 150.028 351.464 150.351C350.754 150.706 349.947 150.884 349.043 150.884C347.783 150.884 346.718 150.674 345.846 150.254C345.006 149.834 344.312 149.269 343.763 148.558C343.246 147.848 342.875 147.04 342.649 146.136C342.423 145.232 342.31 144.311 342.31 143.375C342.31 142.438 342.423 141.518 342.649 140.613C342.843 139.709 343.117 138.918 343.472 138.24C343.795 137.529 344.183 136.964 344.635 136.544C345.087 136.092 345.555 135.866 346.04 135.866C346.362 135.866 346.524 136.076 346.524 136.496C346.524 136.592 346.492 136.689 346.427 136.786C346.395 136.883 346.314 136.948 346.185 136.98C345.733 137.141 345.361 137.416 345.071 137.804C344.78 138.159 344.506 138.692 344.247 139.402C344.021 140.113 343.908 141.082 343.908 142.309C343.908 143.342 344.038 144.295 344.296 145.167C344.554 146.039 344.926 146.798 345.41 147.444C345.894 148.09 346.492 148.607 347.202 148.994C347.912 149.349 348.72 149.527 349.624 149.527C351.045 149.527 352.159 149.026 352.966 148.025C353.773 146.992 354.29 145.765 354.516 144.344C353.224 144.085 352.094 143.681 351.125 143.132C350.157 142.583 349.349 141.954 348.704 141.243C348.09 140.533 347.622 139.806 347.299 139.063C346.976 138.288 346.815 137.577 346.815 136.932C346.815 136.253 346.976 135.688 347.299 135.236C347.654 134.784 348.171 134.558 348.849 134.558C349.915 134.558 350.851 134.8 351.658 135.284C352.498 135.737 353.176 136.35 353.693 137.125C354.242 137.9 354.645 138.789 354.903 139.79C355.194 140.759 355.339 141.76 355.339 142.793V143.181C356.244 143.342 357.019 143.423 357.664 143.423C358.795 143.423 359.876 143.084 360.91 142.406C361.943 141.695 362.815 140.468 363.525 138.724L364.349 139.257Z" fill="white"/>
<path d="M371.277 148.413C371.277 148.833 371.18 149.253 370.986 149.672C370.793 150.092 370.421 150.302 369.872 150.302C369.614 150.27 369.356 150.173 369.097 150.012C368.904 149.85 368.726 149.64 368.565 149.382C368.403 149.123 368.322 148.768 368.322 148.316C368.322 147.864 368.435 147.444 368.661 147.056C368.887 146.669 369.243 146.475 369.727 146.475C370.373 146.475 370.793 146.669 370.986 147.056C371.18 147.412 371.277 147.864 371.277 148.413ZM370.454 140.856C370.454 141.211 370.437 141.485 370.405 141.679C370.405 141.841 370.405 141.954 370.405 142.018C370.405 142.309 370.324 142.503 370.163 142.6C370.001 142.696 369.856 142.745 369.727 142.745C369.404 142.745 369.243 142.487 369.243 141.97C369.243 141.615 369.226 140.904 369.194 139.838C369.162 138.74 369.113 137.416 369.049 135.866C368.984 134.316 368.887 132.588 368.758 130.682C368.661 128.777 368.548 126.807 368.419 124.772C368.322 122.705 368.193 120.654 368.032 118.62C367.903 116.585 367.757 114.647 367.596 112.806C367.596 112.645 367.693 112.483 367.886 112.322C368.112 112.16 368.322 112.08 368.516 112.08C368.904 112.08 369.146 112.16 369.243 112.322C369.307 112.451 369.356 112.532 369.388 112.564C369.485 112.887 369.582 113.711 369.679 115.035C369.775 116.327 369.856 117.893 369.921 119.734C369.985 121.542 370.05 123.512 370.115 125.644C370.211 127.776 370.276 129.843 370.308 131.845C370.341 133.815 370.373 135.607 370.405 137.222C370.437 138.837 370.454 140.048 370.454 140.856Z" fill="white"/>
</g>
<defs>
<linearGradient id="paint0_linear" x1="43.9279" y1="177.316" x2="305.628" y2="-110.045" gradientUnits="userSpaceOnUse">
<stop stop-color="#01DCEA"/>
<stop offset="1" stop-color="#5069F8"/>
</linearGradient>
<clipPath id="clip0">
<rect width="703" height="325" fill="white"/>
</clipPath>
</defs>
</svg>
