<svg width="703" height="325" viewBox="0 0 703 325" fill="none" xmlns="http://www.w3.org/2000/svg">
<g clip-path="url(#clip0)">
<path d="M0.620001 245.31H144.47C144.47 245.31 101.16 175.6 88.83 131.74C76.5 87.88 84.34 64.17 94.7 56.61C105.06 49.05 115.21 42 121.19 37.92C127.17 33.84 148.8 33.37 157.48 65.12C166.34 97.54 155.67 110.04 142.32 108.27C128 106.36 120.5 89.21 117.75 75.11C115.75 64.87 118.51 50.55 118.51 50.55L110.17 56.64C108.35 66.1019 108.579 75.8438 110.84 85.21C114.62 100 129 112.55 129 112.55L113.68 115.19C113.68 115.19 139.31 147.88 149.81 170.37C160.31 192.86 174.11 232.07 174.11 232.07C174.11 232.07 177.18 212.25 199.01 214.56C220.84 216.87 247.08 244.98 243.29 257.56C239.5 270.14 216.87 292.78 189 288.48C161.13 284.18 147.6 253.71 147.6 253.71C147.6 253.71 171.48 282.25 197.18 279.35C208.671 278.032 219.629 273.779 229 267C229 267 210.87 269.39 193.7 254.31C178.6 241 183.5 227.73 183.5 227.73C183.5 227.73 200.5 248.92 216.18 242.56C231.86 236.2 236.82 229 248 215.12C259.18 201.24 260 190.12 260 190.12C260 190.12 219 177.98 217 140.72C215.16 106.72 244.76 81.46 302 74.46C359.24 67.46 396.75 95 398.05 126C399.35 157 368.34 177.76 338.05 186.76C310.53 194.94 294.05 194.25 294.05 194.25C294.05 194.25 271.78 210.11 252.38 218.25C240.711 223.131 228.775 227.347 216.63 230.88C216.63 230.88 223.51 233.22 228.13 237.63C230.977 240.388 233.418 243.536 235.38 246.98H702.38" stroke="url(#paint0_linear)" stroke-width="2" stroke-linecap="round" stroke-linejoin="round"/>
</g>
<g class="phone-hello">
    <path d="M259.82 139.69C257.3 140.21 254.99 140.76 252.89 141.34C251.136 141.82 249.407 142.387 247.71 143.04C247.39 143.13 247.23 143.23 247.23 143.33C247.23 143.43 247.58 143.55 248.29 143.81C249 144.07 249.94 144.33 251.1 144.68C252.26 145.03 253.57 145.43 255.02 145.85C256.47 146.27 258.02 146.64 259.58 147.06C259.64 145.83 259.69 144.6 259.72 143.38C259.75 142.16 259.79 140.92 259.82 139.69ZM272.32 145.36C272.32 142.49 272.27 139.93 272.17 137.71C270.3 137.93 268.47 138.19 266.7 138.48C264.93 138.77 263.16 139.05 261.42 139.4C261.42 140.63 261.42 141.9 261.37 143.23C261.32 144.56 261.29 145.94 261.22 147.49L264.52 148.32C265.58 148.57 266.52 148.8 267.42 148.99L269.75 149.43C270.213 149.512 270.68 149.562 271.15 149.58C271.7 149.58 272.02 149.24 272.15 148.58C272.299 147.514 272.356 146.436 272.32 145.36V145.36ZM285.32 135.96C285.329 136.035 285.321 136.111 285.298 136.182C285.274 136.254 285.235 136.32 285.184 136.375C285.133 136.43 285.07 136.473 285 136.502C284.93 136.53 284.855 136.543 284.78 136.54L283.72 136.64C280.3 136.84 276.92 137.13 273.6 137.51C273.66 139.843 273.707 141.943 273.74 143.81C273.74 145.68 273.74 147.4 273.74 148.95C273.737 149.349 273.655 149.743 273.5 150.11C273.37 150.5 272.98 150.69 272.33 150.69C272.202 150.688 272.074 150.671 271.95 150.64C271.821 150.656 271.69 150.656 271.56 150.64L270.45 150.4L268.17 149.87L264.97 149.19L261.19 148.27C261.19 148.56 261.13 148.96 261.1 149.48C261.07 150 261.1 150.48 261.05 150.93C261.029 151.372 260.965 151.81 260.86 152.24C260.76 152.6 260.61 152.77 260.42 152.77C260.12 152.77 259.823 152.705 259.55 152.58C259.431 152.543 259.331 152.463 259.268 152.356C259.205 152.248 259.184 152.122 259.21 152C259.21 151.32 259.29 150.64 259.35 150C259.41 149.36 259.47 148.63 259.5 147.92L254.12 146.57C252.38 146.083 250.797 145.63 249.37 145.21C247.99 144.79 246.86 144.4 245.98 144.05C245.1 143.7 244.68 143.32 244.68 143.05C244.68 142.95 244.707 142.852 244.758 142.765C244.809 142.679 244.882 142.608 244.97 142.56C245.148 142.425 245.343 142.314 245.55 142.23C247.509 141.478 249.513 140.847 251.55 140.34C254.04 139.66 256.78 139.03 259.79 138.45V135.45C259.79 132.61 259.79 129.93 259.69 127.45C259.59 124.97 259.56 122.7 259.5 120.77C259.43 119.63 259.37 118.55 259.3 117.52C259.23 116.49 259.22 115.42 259.16 114.42C259.16 114.161 259.19 113.902 259.25 113.65C259.269 113.536 259.33 113.433 259.421 113.362C259.511 113.29 259.625 113.253 259.74 113.26C260.38 113.26 260.79 113.42 260.95 113.74C261.15 114.093 261.25 114.494 261.24 114.9V119.65C261.24 121.14 261.29 122.65 261.29 124.11C261.29 125.57 261.34 127.05 261.34 128.56C261.34 130.07 261.39 131.68 261.39 133.36V138.21C263.13 137.85 264.89 137.543 266.67 137.29C268.47 137 270.27 136.74 272.04 136.51C271.98 135.31 271.91 134.14 271.85 132.97C271.79 131.8 271.72 130.55 271.65 129.29C271.58 128.03 271.59 126.64 271.56 125.22C271.53 123.8 271.51 122.22 271.51 120.43C271.51 118.64 271.56 116.97 271.65 115.68C271.74 114.39 271.85 113.6 271.85 113.4C271.85 113.287 271.876 113.176 271.926 113.076C271.976 112.975 272.05 112.887 272.14 112.82C272.216 112.778 272.297 112.744 272.38 112.72C272.74 112.72 273.11 112.8 273.5 112.87C273.89 112.94 274.08 113.11 274.08 113.4C274.082 113.532 274.065 113.663 274.03 113.79C274.03 113.92 273.93 114.23 273.83 114.71C273.73 115.19 273.71 115.71 273.64 116.31C273.57 116.91 273.51 117.57 273.45 118.25C273.385 118.828 273.352 119.409 273.35 119.99V128.61C273.35 131.33 273.43 133.91 273.5 136.37C275.5 136.11 277.437 135.913 279.31 135.78C281.15 135.65 282.89 135.59 284.54 135.59C284.69 135.585 284.838 135.619 284.97 135.69C285.05 135.702 285.124 135.738 285.183 135.794C285.242 135.849 285.283 135.921 285.3 136L285.32 135.96Z" fill="white"/>
    <path d="M292.75 136.64C292.782 135.872 292.541 135.118 292.07 134.51C291.822 134.205 291.502 133.966 291.139 133.814C290.776 133.663 290.381 133.603 289.99 133.64C289.479 133.637 288.983 133.806 288.58 134.12C288.138 134.476 287.776 134.923 287.52 135.43C287.206 136.008 286.977 136.627 286.84 137.27C286.677 138.002 286.597 138.75 286.6 139.5C286.586 140.609 286.717 141.715 286.99 142.79C287.252 143.675 287.661 144.51 288.2 145.26C288.884 144.707 289.502 144.076 290.04 143.38C290.574 142.681 291.043 141.935 291.44 141.15C291.854 140.41 292.189 139.629 292.44 138.82C292.648 138.112 292.753 137.378 292.75 136.64V136.64ZM305 139.64C304.78 140.13 304.54 140.64 304.28 141.15C304.035 141.659 303.744 142.144 303.41 142.6C302.001 144.693 300.147 146.448 297.98 147.74C296.239 148.794 294.254 149.377 292.22 149.43C291.225 149.436 290.239 149.256 289.31 148.9C288.441 148.542 287.662 147.996 287.03 147.3C286.346 146.518 285.82 145.612 285.48 144.63C285.072 143.416 284.876 142.141 284.9 140.86C284.904 139.874 285.052 138.893 285.34 137.95C285.611 137.03 286.001 136.149 286.5 135.33C286.974 134.61 287.562 133.972 288.24 133.44C288.859 132.98 289.608 132.728 290.38 132.72C290.868 132.677 291.359 132.751 291.813 132.935C292.267 133.12 292.67 133.409 292.99 133.78C293.567 134.528 293.861 135.456 293.82 136.4C293.756 138.07 293.289 139.699 292.46 141.15C291.502 142.937 290.22 144.531 288.68 145.85C289.269 146.525 290.001 147.062 290.822 147.422C291.643 147.781 292.534 147.955 293.43 147.93C295.033 147.886 296.599 147.435 297.98 146.62C299.741 145.555 301.26 144.135 302.44 142.45C302.788 142.004 303.081 141.517 303.31 141L304.08 139.4L305 139.64Z" fill="white"/>
    <path d="M312 117.65C312.069 116.338 311.836 115.028 311.32 113.82C310.87 112.95 310.32 112.52 309.67 112.52C309.307 112.56 308.956 112.675 308.639 112.858C308.323 113.04 308.047 113.286 307.83 113.58C307.063 114.586 306.475 115.715 306.09 116.92C305.456 118.762 305 120.661 304.73 122.59C304.349 125.32 304.172 128.074 304.2 130.83C304.198 132.026 304.262 133.221 304.39 134.41C304.514 135.584 304.708 136.749 304.97 137.9C307.235 134.179 309.074 130.213 310.45 126.08C311.364 123.358 311.886 120.519 312 117.65ZM324.49 139.65C324.27 140.14 324.02 140.65 323.77 141.16C323.503 141.659 323.209 142.143 322.89 142.61C321.471 144.873 319.651 146.859 317.52 148.47C316.082 149.528 314.363 150.137 312.58 150.22C311.141 150.219 309.74 149.761 308.58 148.91C307.309 147.908 306.257 146.655 305.49 145.23C304.566 143.473 303.893 141.594 303.49 139.65C302.995 137.35 302.753 135.003 302.77 132.65C302.727 129.466 302.985 126.285 303.54 123.15C303.906 120.841 304.54 118.582 305.43 116.42C306 114.934 306.856 113.575 307.95 112.42C308.59 111.676 309.493 111.207 310.47 111.11C310.897 111.129 311.31 111.266 311.663 111.506C312.016 111.746 312.296 112.08 312.47 112.47C313.101 113.744 313.384 115.162 313.29 116.58C313.151 119.705 312.548 122.792 311.5 125.74C309.892 130.372 307.79 134.818 305.23 139C305.567 140.34 306.001 141.654 306.53 142.93C307.036 144.039 307.652 145.094 308.37 146.08C309.006 146.912 309.777 147.632 310.65 148.21C311.461 148.721 312.402 148.988 313.36 148.98C314.816 148.904 316.213 148.38 317.36 147.48C319.157 146.088 320.699 144.397 321.92 142.48C322.241 141.999 322.531 141.498 322.79 140.98C323.05 140.47 323.3 139.98 323.56 139.43L324.49 139.65Z" fill="white"/>
    <path d="M331.54 117.65C331.614 116.338 331.381 115.027 330.86 113.82C330.41 112.95 329.86 112.52 329.22 112.52C328.856 112.559 328.505 112.674 328.188 112.856C327.871 113.039 327.596 113.285 327.38 113.58C326.606 114.582 326.013 115.713 325.63 116.92C324.995 118.761 324.542 120.66 324.28 122.59C323.89 125.319 323.71 128.074 323.74 130.83C323.742 132.026 323.808 133.221 323.94 134.41C324.064 135.584 324.258 136.749 324.52 137.9C326.786 134.179 328.624 130.214 330 126.08C330.911 123.357 331.43 120.519 331.54 117.65V117.65ZM344.04 139.65C343.81 140.14 343.57 140.65 343.31 141.16C343.05 141.67 342.76 142.16 342.44 142.61C341.02 144.876 339.197 146.862 337.06 148.47C335.623 149.53 333.904 150.14 332.12 150.22C330.681 150.222 329.279 149.762 328.12 148.91C326.846 147.908 325.791 146.656 325.02 145.23C324.096 143.473 323.423 141.594 323.02 139.65C322.516 137.351 322.271 135.003 322.29 132.65C322.25 129.466 322.511 126.285 323.07 123.15C323.438 120.842 324.068 118.584 324.95 116.42C325.527 114.938 326.383 113.58 327.47 112.42C328.114 111.68 329.014 111.212 329.99 111.11C330.416 111.13 330.829 111.267 331.182 111.507C331.535 111.747 331.815 112.081 331.99 112.47C332.621 113.744 332.904 115.162 332.81 116.58C332.666 119.705 332.063 122.791 331.02 125.74C329.394 130.357 327.283 134.789 324.72 138.96C325.06 140.3 325.498 141.614 326.03 142.89C326.532 144.001 327.149 145.057 327.87 146.04C328.505 146.869 329.272 147.589 330.14 148.17C330.955 148.679 331.899 148.946 332.86 148.94C334.316 148.864 335.713 148.34 336.86 147.44C338.653 146.048 340.192 144.356 341.41 142.44C341.731 141.959 342.021 141.458 342.28 140.94L343.06 139.39L344.04 139.65Z" fill="white"/>
    <path d="M354.61 142.94C354.607 142.024 354.479 141.112 354.23 140.23C354.018 139.355 353.637 138.53 353.11 137.8C352.639 137.068 351.988 136.469 351.22 136.06C350.43 135.595 349.526 135.36 348.61 135.38C348.12 135.38 347.88 135.69 347.88 136.3C347.908 136.875 348.058 137.437 348.32 137.95C348.657 138.631 349.081 139.267 349.58 139.84C350.217 140.533 350.932 141.15 351.71 141.68C352.6 142.281 353.579 142.74 354.61 143.04V142.94ZM364.35 139.26C363.743 140.932 362.645 142.382 361.2 143.42C359.956 144.204 358.511 144.61 357.04 144.59H356.04L355.16 144.49C355.042 145.338 354.817 146.168 354.49 146.96C354.18 147.69 353.754 148.365 353.23 148.96C352.743 149.546 352.127 150.012 351.43 150.32C350.677 150.687 349.847 150.869 349.01 150.85C347.913 150.883 346.822 150.667 345.82 150.22C345.005 149.822 344.29 149.244 343.73 148.53C343.212 147.8 342.835 146.979 342.62 146.11C342.167 144.295 342.167 142.395 342.62 140.58C342.786 139.757 343.062 138.96 343.44 138.21C343.714 137.572 344.112 136.994 344.61 136.51C344.787 136.311 345.002 136.149 345.242 136.034C345.483 135.919 345.744 135.853 346.01 135.84C346.33 135.84 346.49 136.05 346.49 136.47C346.487 136.573 346.456 136.673 346.4 136.76C346.377 136.809 346.342 136.853 346.298 136.886C346.255 136.919 346.204 136.941 346.15 136.95C345.707 137.108 345.321 137.393 345.04 137.77C344.684 138.257 344.407 138.797 344.22 139.37C343.962 140.318 343.847 141.298 343.88 142.28C343.871 143.247 344.002 144.211 344.27 145.14C344.499 145.958 344.875 146.727 345.38 147.41C345.857 148.077 346.49 148.616 347.224 148.981C347.958 149.345 348.771 149.523 349.59 149.5C350.237 149.545 350.886 149.433 351.48 149.171C352.074 148.91 352.596 148.508 353 148C353.819 146.924 354.353 145.658 354.55 144.32C353.361 144.107 352.215 143.698 351.16 143.11C350.256 142.612 349.436 141.974 348.73 141.22C348.154 140.57 347.682 139.834 347.33 139.04C347.032 138.368 346.868 137.645 346.85 136.91C346.827 136.31 346.995 135.718 347.33 135.22C347.514 134.99 347.751 134.807 348.021 134.689C348.291 134.57 348.586 134.519 348.88 134.54C349.865 134.519 350.837 134.768 351.69 135.26C352.5 135.702 353.187 136.337 353.69 137.11C354.253 137.915 354.663 138.817 354.9 139.77C355.192 140.743 355.34 141.754 355.34 142.77V143.16C356.105 143.306 356.881 143.387 357.66 143.4C358.818 143.395 359.949 143.047 360.91 142.4C362.121 141.45 363.028 140.168 363.52 138.71L364.35 139.26Z" fill="white"/>
    <path d="M371.28 148.41C371.276 148.846 371.177 149.276 370.99 149.67C370.891 149.877 370.73 150.049 370.529 150.162C370.329 150.274 370.099 150.323 369.87 150.3C369.595 150.262 369.332 150.163 369.1 150.01C368.888 149.832 368.709 149.619 368.57 149.38C368.386 149.058 368.299 148.69 368.32 148.32C368.314 147.877 368.431 147.44 368.66 147.06C368.765 146.872 368.922 146.718 369.111 146.615C369.3 146.513 369.515 146.466 369.73 146.48C369.974 146.445 370.222 146.482 370.445 146.585C370.669 146.687 370.858 146.852 370.99 147.06C371.197 147.479 371.297 147.943 371.28 148.41V148.41ZM370.45 140.86C370.459 141.134 370.442 141.409 370.4 141.68V142C370.414 142.109 370.4 142.22 370.357 142.322C370.315 142.424 370.247 142.513 370.16 142.58C370.033 142.667 369.884 142.716 369.73 142.72C369.4 142.72 369.24 142.47 369.24 141.95C369.24 141.6 369.24 140.88 369.19 139.82C369.14 138.76 369.11 137.4 369.05 135.82C368.99 134.24 368.89 132.54 368.76 130.63C368.63 128.72 368.55 126.76 368.42 124.72C368.29 122.68 368.19 120.6 368.03 118.57C367.87 116.54 367.76 114.57 367.6 112.76C367.606 112.661 367.636 112.565 367.686 112.48C367.737 112.395 367.807 112.323 367.89 112.27C368.069 112.125 368.29 112.041 368.52 112.03C368.9 112.03 369.15 112.11 369.24 112.27C369.281 112.355 369.331 112.436 369.39 112.51C369.544 113.329 369.641 114.158 369.68 114.99C369.77 116.28 369.86 117.84 369.92 119.68C369.98 121.52 370.05 123.46 370.11 125.59C370.17 127.72 370.28 129.79 370.31 131.8C370.34 133.81 370.37 135.56 370.4 137.17C370.43 138.78 370.45 140.05 370.45 140.86V140.86Z" fill="white"/>
</g>
<defs>
<linearGradient id="paint0_linear" x1="257.31" y1="394.66" x2="433.02" y2="90.3" gradientUnits="userSpaceOnUse">
<stop stop-color="#01DCEA"/>
<stop offset="1" stop-color="#5069F8"/>
</linearGradient>
<clipPath id="clip0">
<rect width="703" height="325" fill="white"/>
</clipPath>
</defs>
</svg>
