<svg width="66" height="63" viewBox="0 0 66 63" fill="none" xmlns="http://www.w3.org/2000/svg">
<path d="M65.7455 53.2826L48.442 32.7298C48.4809 32.6132 48.5067 32.4966 48.5067 32.367V11.568C48.5067 6.60474 36.3024 4 24.2534 4C12.2043 4 0 6.59178 0 11.568V48.423C0 50.8075 2.82137 52.6606 7.09224 53.9176C7.27343 54.0602 7.50638 54.1509 7.76522 54.1509C7.80405 54.1509 7.85581 54.1509 7.89464 54.1379C11.9067 55.2135 17.0188 55.8226 22.2344 55.9521C22.3121 55.9651 22.3897 55.9781 22.4674 55.9781C22.5321 55.9781 22.5838 55.9781 22.6486 55.9651C23.1792 55.9781 23.7228 55.9781 24.2534 55.9781C28.5372 55.9781 32.7304 55.6541 36.3801 55.0321C36.4577 55.0191 36.5224 54.9932 36.6001 54.9673L40.5862 59.788C40.7933 60.0342 41.091 60.1767 41.4145 60.1767H48.5715C48.9856 60.1767 49.3739 59.9305 49.5421 59.5547C49.7233 59.1789 49.6586 58.7253 49.3868 58.4014L44.7406 52.8809L53.8518 50.4576L57.2944 54.6303C57.5015 54.8766 57.7991 55.0191 58.1227 55.0191H64.9173C65.3314 55.0191 65.7197 54.7729 65.8879 54.3971C66.082 54.0472 66.0173 53.6066 65.7455 53.2826ZM27.5924 32.5355C27.2947 32.1856 26.8288 32.056 26.4017 32.2115C25.9747 32.367 25.6899 32.7687 25.6899 33.2223V41.3604C25.6899 41.6067 25.7805 41.8529 25.9358 42.0473L26.9583 43.2913C26.0653 43.3172 25.1464 43.3432 24.2404 43.3432C24.0075 43.3432 23.7745 43.3432 23.5416 43.3432V29.529C23.7745 29.529 24.0075 29.529 24.2404 29.529C29.0419 29.529 33.8564 29.1143 37.9202 28.3109V40.6088L34.607 40.881L27.5924 32.5355ZM46.3584 21.974C46.3584 22.8422 44.7924 24.2806 40.3533 25.5247C40.2627 25.5506 40.1721 25.5765 40.0944 25.6025V17.4384C42.6958 16.7775 44.87 15.9222 46.3584 14.8984V21.974ZM37.9331 26.1078C34.0117 26.9372 29.2619 27.3778 24.2534 27.3778C24.0204 27.3778 23.7875 27.3778 23.5545 27.3778V19.123C23.7875 19.123 24.0204 19.123 24.2534 19.123C29.0549 19.123 33.8693 18.7083 37.9331 17.9049V26.1078ZM21.3932 27.326C16.6952 27.1575 12.3467 26.6003 8.83942 25.6932V17.5161C12.4632 18.3973 16.8635 18.9157 21.3932 19.0712V27.326ZM6.69103 25.0711C3.37786 23.9437 2.14837 22.7256 2.14837 21.974V14.8855C3.28727 15.676 4.84031 16.3628 6.69103 16.9459V25.0711ZM2.14837 25.2914C3.28727 26.0819 4.84031 26.7688 6.69103 27.3519V41.0494C3.37786 39.922 2.14837 38.7039 2.14837 37.9523V25.2914ZM8.83942 43.9133C12.4632 44.7946 16.8635 45.3129 21.3932 45.4684V53.788C16.6952 53.6196 12.3467 53.0623 8.83942 52.1552V43.9133ZM8.83942 41.6844V27.948C12.4632 28.8292 16.8635 29.3476 21.3932 29.5031V43.3172C16.6952 43.1488 12.3467 42.5786 8.83942 41.6844ZM36.5354 43.1617L36.3283 42.9155L46.9925 42.0343L48.1055 42.2676L37.1048 43.8486L36.5354 43.1617ZM52.5705 40.9717L48.0279 40.0257L45.323 36.7471V32.354L52.5705 40.9717ZM48.7785 44.328L50.461 46.3626L48.5067 46.6865V44.354L48.7785 44.328ZM52.5058 48.2157L53.593 48.3194L43.2005 51.0796L42.2428 49.9392L52.5058 48.2157ZM53.0235 46.1034L51.2763 43.9781L54.4989 43.5116C54.5636 43.4987 54.6154 43.4857 54.6801 43.4727L57.2426 46.5181L53.0235 46.1034ZM45.0642 28.7126C44.7665 28.3627 44.3006 28.2331 43.8735 28.3886C43.4464 28.5441 43.1617 28.9458 43.1617 29.3994V37.1229C43.1617 37.3691 43.2523 37.6153 43.4076 37.8097L45.2065 39.9868L40.0815 40.4145V27.8184C42.6828 27.1575 44.8571 26.3022 46.3454 25.2785V30.2417L45.0642 28.7126ZM8.15348 8.01725C12.4373 6.81208 18.1577 6.15117 24.2534 6.15117C30.3491 6.15117 36.0695 6.81208 40.3533 8.01725C44.7794 9.26131 46.3584 10.6997 46.3584 11.568C46.3584 12.4362 44.7924 13.8747 40.3533 15.1187C36.0695 16.3239 30.3491 16.9848 24.2534 16.9848C18.1577 16.9848 12.4373 16.3239 8.15348 15.1187C3.72731 13.8747 2.14837 12.4362 2.14837 11.568C2.14837 10.6997 3.72731 9.24835 8.15348 8.01725ZM2.14837 48.423V41.2697C3.28727 42.0602 4.84031 42.7471 6.69103 43.3302V51.5332C3.36492 50.3928 2.14837 49.1747 2.14837 48.423ZM24.2534 53.8269C24.0204 53.8269 23.7875 53.8269 23.5545 53.8269V45.5073C23.7875 45.5073 24.0204 45.5073 24.2534 45.5073C25.3405 45.5073 26.4276 45.4814 27.5018 45.4425C27.8901 45.4295 28.2913 45.4036 28.6925 45.3907L35.0341 53.0753C31.7339 53.5677 28.0324 53.8269 24.2534 53.8269ZM41.9192 58.0385L27.8513 40.9846V36.1769L33.3387 42.6823L34.374 43.9133L46.2548 58.0256H41.9192V58.0385ZM38.7355 45.7794L46.3454 44.6909V47.0753L40.625 48.0343L38.7355 45.7794ZM58.6404 52.8939L56.1425 49.8744L59.3392 49.0191L62.6006 52.8939H58.6404V52.8939Z" fill="white"/>
</svg>
