<svg width="66" height="63" viewBox="0 0 66 63" fill="none" xmlns="http://www.w3.org/2000/svg">
<path d="M65.9903 14.1518C65.9773 13.998 65.9385 13.8314 65.8479 13.6648C65.6926 12.204 64.7997 10.82 63.2467 9.67957C61.0467 8.05215 57.5137 6.86042 53.2948 6.32221C48.8559 5.75838 43.9382 5.93778 39.0852 6.83479C34.3098 7.71898 29.7415 9.46173 25.8591 11.8708C24.1379 12.9472 22.6237 14.1133 21.3943 15.3051C17.3695 15.0616 12.8271 16.0227 9.12586 17.9448C5.77404 19.6748 1.54221 22.9937 0.41631 28.9011C-0.476645 33.6424 0.0668929 37.8455 2.04692 41.4207C3.58695 44.1886 5.9811 46.6105 9.3588 48.8146C10.3941 49.4809 11.5071 50.3779 12.7883 51.4031C15.3507 53.4534 18.5342 55.9906 22.5072 57.8487C26.2602 59.5914 30.1168 60.45 34.2063 60.45C35.2157 60.45 36.251 60.3987 37.2992 60.2962C43.9382 59.6299 49.4512 57.0029 53.2042 52.6973C56.129 49.3528 58.0055 44.9062 58.3549 40.5237C58.9113 33.3605 54.0066 31.5408 49.27 29.7853C48.7912 29.6059 48.3124 29.4265 47.8335 29.2471C44.7535 28.0553 42.424 26.0563 41.1817 24.8005C41.8934 24.3136 42.6052 23.8138 43.3299 23.3012C43.6793 23.0577 44.0288 22.8143 44.3782 22.558C45.4911 22.9937 48.6488 23.7113 54.7054 21.5072C57.5784 20.4564 60.3478 19.1494 62.4961 17.8423C66.1197 15.6382 66.0291 14.6003 65.9903 14.1518ZM47.057 31.2205C47.5488 31.4127 48.0406 31.5921 48.5194 31.7715C53.0618 33.463 56.6595 34.7957 56.2195 40.3571C55.6372 47.751 50.2794 56.8492 37.0922 58.1691C26.0661 59.2839 19.1813 53.7609 14.1471 49.7372C12.8659 48.7121 11.6624 47.751 10.5494 47.0206C6.20111 44.2014 0.649255 39.2807 2.5387 29.2983C4.07872 21.1612 12.8918 17.6245 19.5437 17.4194C19.026 18.1242 18.5989 18.8418 18.2754 19.5466C17.5507 21.1612 17.4213 22.6989 17.8613 24.0701C17.3954 24.7749 16.6448 26.1204 16.3083 28.0041C15.8424 30.5029 16.0107 34.4753 19.466 39.191C23.1414 44.2142 28.965 46.0851 33.2098 46.7643C34.931 47.0462 36.6263 47.1615 38.2181 47.1615C41.4405 47.1615 44.2229 46.6618 45.9441 46.0082C49.8006 44.5218 53.9289 41.4207 54.3689 38.3581C54.5113 37.3714 54.343 35.9618 52.7513 34.7572C51.3018 33.6552 49.8394 33.2195 48.2994 32.7582C46.1641 32.1175 43.757 31.3999 40.5216 28.632C39.7452 27.9656 39.0204 27.248 38.4251 26.6329C38.7487 26.4279 39.0722 26.2229 39.3957 26.005C40.8193 27.53 43.4464 29.8237 47.057 31.2205ZM36.5357 27.7734C37.4028 28.6961 38.2569 29.529 39.0981 30.2466C42.6699 33.3092 45.4394 34.1293 47.6524 34.7957C49.1277 35.2314 50.2794 35.5774 51.4312 36.4487C52.2595 37.0766 52.2724 37.6661 52.2207 38.0633C51.9489 39.9599 48.7782 42.6253 45.1417 44.022C39.9781 46.0082 26.8426 45.6623 21.1872 37.9352C17.1625 32.4378 18.1331 28.2476 19.0907 26.2357C20.359 27.8759 22.0025 29.1061 23.892 29.8237C25.1343 30.285 26.4673 30.5157 27.852 30.5157C29.1721 30.5157 30.5568 30.2979 31.9415 29.875C33.4427 29.4137 34.9698 28.6832 36.5357 27.7734ZM53.9677 19.4954C50.5642 20.7384 48.2477 20.9434 46.837 20.8665C52.1559 17.2785 57.6043 14.2543 63.1691 14.7925C61.7843 15.9202 58.4972 17.8423 53.9677 19.4954ZM42.0876 21.5585C38.2181 24.2751 34.5557 26.838 31.3074 27.8375C26.7003 29.2471 22.572 27.8631 20.2425 24.1213C19.6084 23.0962 19.6084 21.8532 20.2425 20.418C22.119 16.2277 29.4956 10.7816 39.4734 8.94915C42.3334 8.42377 45.2194 8.15466 48.0018 8.15466C49.723 8.15466 51.4053 8.25718 53.0101 8.46221C56.8666 8.94915 60.0372 9.99993 61.9396 11.4095C62.4961 11.8196 62.9232 12.2424 63.2208 12.6781C55.6889 12.0118 48.4806 17.0606 42.0876 21.5585Z" fill="white"/>
</svg>
