<svg width="66" height="63" viewBox="0 0 66 63" fill="none" xmlns="http://www.w3.org/2000/svg">
<path d="M55.9575 21.1306C50.8975 19.3317 44.4658 18.2059 37.5164 17.8564V7.4647C37.5164 5.00588 35.4976 3 33.0129 3C30.5282 3 28.5094 5.00588 28.5094 7.4647V17.8694C21.56 18.2059 15.1412 19.3447 10.0682 21.1435C3.57176 23.447 0 26.6564 0 30.1764V41.6811C0 45.8352 3.54588 49.6528 10.0035 52.4481C16.1635 55.114 24.3294 56.5893 32.9999 56.5893C41.6705 56.5893 49.8364 55.114 55.9963 52.4481C62.2728 49.7305 65.7928 46.0423 65.9869 42.0176C65.9869 41.9787 65.9999 41.927 65.9999 41.8882V30.1764C66.0257 26.6435 62.441 23.4341 55.9575 21.1306ZM30.6834 7.4647C30.6834 6.19646 31.7317 5.16117 33.0258 5.16117C34.3199 5.16117 35.3682 6.19646 35.3682 7.4647V17.7917C34.5917 17.7659 33.8152 17.7659 33.0258 17.7659C32.2364 17.7659 31.4599 17.7788 30.6834 17.7917V7.4647ZM35.3682 23.7705L33.2588 24.4953L30.8776 23.6411C31.4599 23.6282 32.0423 23.6153 32.6376 23.6153C33.5564 23.6153 34.4623 23.6282 35.3682 23.667V23.7705V23.7705ZM32.6376 21.467C31.9776 21.467 31.3305 21.48 30.6834 21.4929V19.94C31.4599 19.9141 32.2364 19.9141 33.0258 19.9141C33.8152 19.9141 34.5917 19.927 35.3682 19.94V21.5188C34.4623 21.48 33.5564 21.467 32.6376 21.467ZM10.8059 23.1623C15.6588 21.4411 21.8188 20.3541 28.5223 20.0176V21.5706C27.6423 21.6223 26.7882 21.6741 25.934 21.7517C25.8564 21.7647 25.7787 21.7776 25.7011 21.8035C25.2093 21.7388 24.7305 22.0235 24.5494 22.5023C24.3423 23.0588 24.6399 23.68 25.1964 23.8741L28.5223 25.0776V28.4294C28.5223 29.0247 29.0011 29.5035 29.5964 29.5035C30.1917 29.5035 30.6705 29.0247 30.6705 28.4294V25.8541L32.8834 26.6564C32.9999 26.6952 33.1293 26.7211 33.2458 26.7211C33.3623 26.7211 33.4787 26.6952 33.5952 26.6564L35.3552 26.0482V28.4294C35.3552 29.0247 35.834 29.5035 36.4293 29.5035C37.0246 29.5035 37.5035 29.0247 37.5035 28.4294V25.3105L41.2823 24.0164C41.8387 23.8223 42.1493 23.2141 41.9552 22.6447C41.787 22.1529 41.3081 21.8682 40.8164 21.92C40.7387 21.8941 40.6611 21.8811 40.5834 21.8682C39.574 21.7647 38.5517 21.6741 37.5164 21.6094V20.0047C44.207 20.3411 50.3799 21.4282 55.2328 23.1494C60.7199 25.1035 63.8646 27.6529 63.8646 30.1505C63.8646 32.6482 60.7199 35.1976 55.2328 37.1517C49.3187 39.2482 41.4246 40.4129 33.0258 40.4129C24.6141 40.4129 16.7329 39.2611 10.8188 37.1517C5.33173 35.1976 2.18704 32.6482 2.18704 30.1505C2.18704 27.6529 5.31881 25.1164 10.8059 23.1623ZM63.8646 41.6682C63.8646 48.5787 49.7328 54.4152 33.0129 54.4152C16.2929 54.4152 2.16117 48.5787 2.16117 41.6682V34.7058C3.85646 36.4011 6.53529 37.9282 10.0682 39.1964C16.2153 41.3835 24.3552 42.574 32.9999 42.574C41.6446 42.574 49.7975 41.3705 55.9316 39.1964C59.4775 37.9411 62.1434 36.4141 63.8387 34.7058V41.6682H63.8646Z" fill="white"/>
<path d="M8.94139 33.5281C8.99315 33.567 9.04494 33.6058 9.0967 33.6446C9.30376 33.8646 9.58845 33.994 9.8861 33.994C9.98962 33.994 10.1061 33.9811 10.2096 33.9422L26.9167 28.7011C27.3567 28.5587 27.6543 28.1576 27.6673 27.7046C27.6802 27.2387 27.3955 26.8246 26.9555 26.6693L17.5732 23.2529C17.3143 23.1623 17.0296 23.1752 16.7967 23.2658C16.7449 23.2658 16.6931 23.2787 16.6414 23.2917C10.5202 24.8964 7.14258 27.3293 7.14258 30.1505C7.14258 31.354 7.7508 32.4928 8.94139 33.5281ZM17.159 25.3752L23.2543 27.6011L10.1579 31.7164C9.6014 31.1728 9.30374 30.6552 9.30374 30.1505C9.2908 28.9081 11.3484 26.9023 17.159 25.3752Z" fill="white"/>
<path d="M39.1204 28.7788L54.5591 34.2659C54.6756 34.3047 54.805 34.3306 54.9215 34.3306C55.2062 34.3306 55.478 34.2141 55.6721 34.02C55.7239 33.9941 55.7886 33.9553 55.8403 33.9165C57.3544 32.7776 58.1309 31.5094 58.1309 30.1376C58.1309 27.4329 55.1415 25.1294 49.4862 23.5118C49.4086 23.4859 49.3439 23.4729 49.2662 23.4729C49.0074 23.3435 48.7098 23.3177 48.425 23.4212L39.1204 26.7471C38.6933 26.9024 38.4086 27.3035 38.4086 27.7565C38.3957 28.2223 38.6933 28.6365 39.1204 28.7788ZM48.8262 25.5694C48.8392 25.5824 48.865 25.5824 48.878 25.5953C54.1062 27.0965 55.9697 28.9341 55.9697 30.1506C55.9697 30.8882 55.3356 31.5741 54.7274 32.0529L42.6792 27.7694L48.8262 25.5694Z" fill="white"/>
<path d="M16.5262 36.4918C16.6815 36.9059 17.0568 37.1776 17.4709 37.2035C17.5356 37.2294 17.6003 37.2553 17.665 37.2682C22.0132 38.2906 27.1767 38.8341 32.625 38.8341C37.9179 38.8341 42.965 38.3165 47.2356 37.3459C47.4556 37.2941 47.6497 37.1776 47.792 37.0094C47.9603 36.8929 48.1026 36.7247 48.1803 36.5176C48.4003 35.9612 48.1285 35.34 47.585 35.12L33.6603 29.5294C33.4144 29.4259 33.1426 29.4259 32.8967 29.5165L17.1862 35.12C16.6297 35.3141 16.3321 35.9353 16.5262 36.4918ZM33.2332 31.6777L43.625 35.8576C40.2473 36.4012 36.5073 36.6859 32.6379 36.6859C28.7168 36.6859 24.9509 36.4012 21.5603 35.8447L33.2332 31.6777Z" fill="white"/>
</svg>
