<svg width="66" height="63" viewBox="0 0 66 63" fill="none" xmlns="http://www.w3.org/2000/svg">
<path d="M50.5805 6.4495C50.5558 5.05334 49.1721 3.92901 46.4788 3.1012C46.17 3.00235 45.824 3.06413 45.5646 3.26182C45.4904 3.31124 45.4287 3.37301 45.3792 3.44715C44.7121 2.49578 43.2419 1.7174 40.9687 1.11198C38.263 0.395372 34.6925 0 30.8996 0C27.1068 0 23.5363 0.395372 20.8306 1.11198C17.6308 1.9645 16 3.16297 16 4.70739V57.403C16 60.2077 21.4978 61.3197 24.7841 61.7398C24.8335 61.7398 24.8706 61.7521 24.92 61.7521C25.1053 61.7521 25.2783 61.7027 25.4265 61.6162L34.6802 60.0594V61.9004C34.6802 61.9127 34.6802 61.9251 34.6802 61.9374C34.6802 61.9498 34.6802 61.9622 34.6802 61.9745C34.6802 62.5429 35.1373 63 35.7056 63C39.4985 63 43.069 62.6046 45.7746 61.888C48.9745 61.0355 50.6053 59.837 50.6053 58.2926C50.6053 58.2555 50.6053 58.2185 50.5929 58.1814C50.5929 58.1443 50.6053 58.1073 50.6053 58.0702V6.46186C50.5805 6.46186 50.5805 6.4495 50.5805 6.4495ZM48.5173 6.47421C48.4926 6.58541 48.2085 6.95607 47.2448 7.38851L47.2201 5.55991C48.2085 6.00471 48.505 6.37537 48.5173 6.47421ZM18.0508 57.403V7.26495C19.6693 8.11747 21.9673 8.61169 23.8328 8.89586L23.8699 59.5158C19.6199 58.8486 18.1126 57.749 18.0508 57.403ZM25.9207 59.4417L25.8837 8.00628C25.8837 7.48735 25.5007 7.05491 24.9818 6.99314C19.8793 6.3383 18.1126 5.09041 18.0385 4.70739C18.0756 4.53442 18.7551 3.75603 21.5472 3.05178C24.0552 2.4093 27.3786 2.06335 30.8873 2.06335C34.396 2.06335 37.707 2.4093 40.2274 3.05178C43.0195 3.75603 43.699 4.54677 43.7361 4.70739V8.43871C43.2913 8.5252 42.8218 8.61169 42.3277 8.68582V4.75682C42.3277 3.74368 41.2158 3.44715 40.7957 3.33595C40.2521 3.18768 39.4985 3.06413 38.5472 2.96529C36.6569 2.75525 34.1613 2.64405 31.505 2.64405C28.8488 2.64405 26.3408 2.75525 24.4629 2.96529C23.5116 3.07649 22.7579 3.20004 22.2143 3.33595C21.7943 3.44715 20.6824 3.74368 20.6824 4.75682C20.6824 5.70818 21.7202 5.98 22.2267 6.10355C22.7209 6.2271 23.4004 6.35066 24.2529 6.47421C25.5254 6.65954 27.0944 6.82016 28.5152 6.93136V10.1932L26.4891 16.5315C26.452 16.6674 26.4273 16.8033 26.4396 16.9392L29.8866 55.6362C29.9113 55.9204 30.0595 56.1798 30.2819 56.3528C30.4672 56.4887 30.6896 56.5752 30.912 56.5752C30.9614 56.5752 31.0232 56.5752 31.0726 56.5629L34.6802 55.9822V57.9837L25.9207 59.4417ZM35.6809 9.13061C35.1126 9.13061 34.6555 9.58776 34.6555 10.1561V53.8941L31.8139 54.3512L28.4782 16.9516L30.4796 10.6627C30.5167 10.5638 30.529 10.4526 30.529 10.3538V6.46186C30.529 6.37537 30.5166 6.28888 30.4919 6.21475C30.5043 6.15297 30.5167 6.07884 30.5167 6.01706C30.5414 5.44872 30.1089 4.96686 29.5406 4.92979C28.8611 4.89272 28.1693 4.8433 27.5021 4.78153C28.6511 4.71975 29.9731 4.68268 31.468 4.68268C36.2121 4.68268 39.2143 5.04099 40.2397 5.31281V8.90822C38.819 9.05648 37.2623 9.13061 35.6809 9.13061ZM45.021 59.9729C42.7601 60.5536 39.832 60.8872 36.7187 60.949V11.1816C38.3495 11.1445 39.9309 11.0457 41.4011 10.8727C41.4011 10.8727 41.4011 10.8727 41.4134 10.8727C42.686 10.7245 43.8843 10.5268 44.9592 10.2797C44.9716 10.2797 44.9963 10.2673 45.0086 10.2673C45.2681 10.2055 45.5152 10.1438 45.7622 10.082C46.8742 9.78545 47.8007 9.45185 48.5297 9.06884V58.0949C48.5297 58.132 48.5297 58.1691 48.542 58.2061C48.542 58.2432 48.5297 58.2803 48.5297 58.3173C48.4926 58.4779 47.8131 59.2563 45.021 59.9729Z" fill="white"/>
</svg>
