<svg width="66" height="63" viewBox="0 0 66 63" fill="none" xmlns="http://www.w3.org/2000/svg">
<path d="M55.9835 31.1238C49.8235 28.5225 41.6576 27.0859 32.9871 27.0859C32.7153 27.0859 32.4306 27.0859 32.1588 27.0859V13.2121C32.1588 9.78252 29.3506 7 25.9082 7C22.4659 7 19.6576 9.78252 19.6576 13.2121V14.5322C19.6576 15.1276 20.1365 15.6064 20.7318 15.6064C21.3271 15.6064 21.8059 15.1276 21.8059 14.5322V13.2121C21.8059 10.9732 23.6435 9.14837 25.9082 9.14837C28.1729 9.14837 30.0106 10.9732 30.0106 13.2121V27.1506C24.1871 27.3706 18.6871 28.2507 13.9765 29.7002V16.3182C13.9765 12.8886 11.1682 10.1061 7.72589 10.1061C4.28354 10.1061 1.4753 12.8886 1.4753 16.3182V17.6383C1.4753 18.2336 1.95413 18.7125 2.54942 18.7125C3.14471 18.7125 3.62353 18.2336 3.62353 17.6383V16.3182C3.62353 14.0793 5.46118 12.2544 7.72589 12.2544C9.99059 12.2544 11.8282 14.0793 11.8282 16.3182V30.412C11.2071 30.645 10.5988 30.8779 10.0035 31.1238C3.54589 33.8546 0 37.5948 0 41.6715C0 43.6128 0.815303 45.4764 2.3553 47.1977C2.3553 47.2107 2.36824 47.2107 2.36824 47.2236C4.06353 49.1002 6.63883 50.7956 10.0035 52.2192C16.1635 54.8205 24.3294 56.2571 33 56.2571C41.6706 56.2571 49.8365 54.8205 55.9965 52.2192C62.4541 49.4885 66 45.7482 66 41.6715C66 37.5948 62.4282 33.8546 55.9835 31.1238ZM32.9871 29.2343C41.3729 29.2343 49.2412 30.6061 55.1423 33.1039C60.6682 35.4464 63.8388 38.5654 63.8388 41.6715C63.8388 42.8622 63.3729 44.0658 62.48 45.2176C61.4447 46.3824 60.5647 46.3824 59.2576 45.9682C58.3388 45.6835 57.4588 44.2728 57.4459 42.5386C57.4847 42.3186 57.4847 42.0856 57.4717 41.8527C57.42 41.2962 56.9541 40.882 56.3976 40.882C55.8412 40.882 55.3753 41.3091 55.3235 41.8527C55.3106 41.9951 55.2976 42.1245 55.2976 42.2668C55.2717 42.3186 55.2459 42.3704 55.1941 42.4092C54.9871 42.6163 54.4565 42.8104 53.6671 42.7069C52.4765 42.5516 51.5059 41.3091 51.5059 39.9502C51.5059 39.3549 51.0271 38.876 50.4318 38.876C49.8365 38.876 49.3576 39.3549 49.3576 39.9373C49.3576 40.3255 49.1376 40.5844 48.9564 40.7526C48.5553 41.115 47.9341 41.2703 47.2482 41.1797C45.9023 41.0115 44.7765 39.7949 44.6988 38.4101C44.66 37.8407 44.1941 37.4007 43.6247 37.4007C43.0553 37.4007 42.5894 37.8407 42.5506 38.4101C42.5247 38.7466 42.3565 39.0702 42.0459 39.342C41.5929 39.7302 40.9329 39.9243 40.2212 39.8596C38.8623 39.7432 37.7365 38.6043 37.6588 37.2712C37.62 36.7018 37.1541 36.2618 36.5847 36.2618C36.0153 36.2618 35.5494 36.7018 35.5106 37.2712C35.4459 38.2548 34.4753 39.0831 33.2976 39.1478C33.2329 39.1478 33.1553 39.1478 33.0906 39.1478C33.0259 39.1478 32.9741 39.1478 32.9094 39.1349C32.7541 39.1219 32.6118 39.0961 32.4694 39.0572C32.3659 39.0313 32.2623 38.9925 32.1588 38.9537V29.2213C32.4306 29.2343 32.7153 29.2343 32.9871 29.2343ZM30.0106 36.1453C29.8941 36.0935 29.7647 36.0676 29.6223 36.0676C29.0529 36.0676 28.587 36.5077 28.5482 37.0771C28.4706 38.3195 27.3706 39.3937 26.0765 39.4843C25.4035 39.5361 24.7694 39.329 24.3423 38.9408C24.1223 38.7466 23.8635 38.4231 23.8506 37.9572C23.8376 37.3748 23.3588 36.9218 22.7894 36.9089C22.22 36.9089 21.7282 37.3618 21.7024 37.9313C21.6377 39.2772 20.5506 40.4679 19.2435 40.6362C18.5835 40.7138 17.9753 40.5585 17.5741 40.2091C17.3929 40.0538 17.1729 39.782 17.16 39.3808C17.1471 38.7984 16.6812 38.3195 16.0859 38.3195C16.0859 38.3195 16.0859 38.3195 16.0729 38.3195C15.4906 38.3195 15.0118 38.7854 14.9988 39.3678C14.9729 40.002 14.74 40.6232 14.3388 41.1279C14.2353 41.2574 14.1059 41.3738 13.9894 41.4774V36.9347L30.0235 34.1911V36.1453H30.0106ZM13.9765 43.9105C14.7529 43.6387 15.4647 43.1598 15.9953 42.4998C16.1247 42.3445 16.2412 42.1762 16.3447 42.008C17.1859 42.6422 18.3247 42.9269 19.4894 42.7845C20.9259 42.6033 22.1812 41.788 22.9706 40.6232C23.8247 41.348 25.0023 41.7233 26.2059 41.6327C27.5906 41.5421 28.8329 40.8303 29.6612 39.8079C29.7647 39.9243 29.8812 40.0279 29.9976 40.1314V43.6905L13.9635 46.4341V43.9105H13.9765ZM30.0106 29.299V32.0168L13.9765 34.7605V31.9521C18.6094 30.4379 24.1353 29.5319 30.0106 29.299ZM10.8318 33.1039C11.1553 32.9616 11.4788 32.8321 11.8153 32.7027V41.9821C11.0647 41.9303 10.6635 41.7233 10.56 41.6197C10.56 41.6068 10.56 41.5939 10.56 41.5809C10.5341 40.9985 10.0553 40.5456 9.48589 40.5456C9.48589 40.5456 9.48589 40.5456 9.47295 40.5456C8.8906 40.5456 8.42471 41.0115 8.39882 41.5939C8.39882 41.6715 8.39882 41.7492 8.39882 41.8268C8.43765 43.8716 7.53177 46.1106 6.38 46.7836C5.64236 47.2107 5.3447 47.0942 4.0247 45.8388C2.78235 44.4928 2.13529 43.0822 2.13529 41.6586C2.13529 38.5654 5.30589 35.4464 10.8318 33.1039ZM7.57059 48.6084C8.91647 47.7801 9.95177 45.9553 10.3788 43.9105C10.8059 44.0399 11.2976 44.1305 11.8282 44.1564V50.6403C11.4918 50.5109 11.1682 50.3814 10.8447 50.2391C9.62824 49.7214 8.54117 49.1778 7.57059 48.6084ZM55.1423 50.2391C49.2412 52.7369 41.3729 54.1087 32.9871 54.1087C26.0118 54.1087 19.3988 53.151 13.9765 51.4039V48.6343L30.0106 45.8906V48.1295C30.0106 48.7249 30.4894 49.2037 31.0847 49.2037C31.68 49.2037 32.1588 48.7249 32.1588 48.1295V41.2185C32.3529 41.2574 32.547 41.2832 32.7412 41.2962C32.8447 41.3091 32.9612 41.3091 33.0647 41.3091C33.1812 41.3091 33.3106 41.3091 33.4271 41.2962C34.6306 41.2315 35.7047 40.7267 36.4812 39.9632C37.3094 41.0891 38.6035 41.8656 40.0529 41.9951C41.2953 42.0986 42.4988 41.7492 43.3917 41.0244C44.1941 42.2539 45.5012 43.1339 47.0023 43.3151C48.1541 43.4575 49.2671 43.1857 50.1082 42.5904C50.8329 43.794 52.0235 44.6611 53.3953 44.8423C54.2106 44.9458 54.9741 44.8682 55.6212 44.6223C56.1388 46.2659 57.2259 47.586 58.6106 48.026C58.7788 48.0778 58.947 48.1295 59.1153 48.1684C57.9764 48.9061 56.6435 49.6049 55.1423 50.2391Z" fill="white"/>
</svg>
