<svg width="66" height="63" viewBox="0 0 66 63" fill="none" xmlns="http://www.w3.org/2000/svg">
<path d="M65.3909 41.8457C64.6792 38.4161 64.6662 36.3713 64.6533 35.0123C64.6403 34.0158 64.6404 33.2134 64.2909 32.5404C63.9674 31.8286 62.9192 29.6803 61.6768 28.6967C60.1368 27.4931 57.9239 27.3507 54.1063 27.4931C52.5533 27.5578 51.0133 27.4543 49.7969 27.3248C51.1686 26.1471 51.971 25.1247 52.2039 24.2576C52.631 22.614 51.3368 18.6408 50.1721 15.5865C48.9686 12.4546 47.3251 8.81787 46.3416 7.76957L46.2639 7.69192C45.3192 6.68245 43.7533 5 41.3075 5C41.2945 5 41.2686 5 41.2557 5C39.7028 5.01294 38.111 5.69887 36.4416 7.09659C35.6392 7.47191 31.6145 9.36143 27.3181 11.9239C26.684 12.2993 26.0757 12.6487 25.4934 12.9981C21.624 15.25 19.0746 16.7383 19.3075 19.7538C19.3981 20.9315 19.7863 22.7434 20.3558 24.3094C18.324 23.5976 16.4993 23.1187 15.2181 22.9893C11.6464 22.6269 10.5205 23.8046 8.06167 26.3671C7.24638 27.2213 6.22402 28.2955 4.8652 29.5767C0.219328 33.9641 -0.0783181 36.2936 0.0122699 38.4937C0.025211 38.7267 0.0252079 38.9338 0.0252079 39.1149C-0.000674436 39.6844 0.16756 40.1762 0.478148 40.5903C0.762853 41.8845 1.37109 44.7188 1.42286 45.6118C1.5005 46.9707 3.35109 49.3908 3.72639 49.8567C4.61933 50.9827 6.35344 52.9369 7.99697 53.3511C9.29108 53.6746 11.6334 55.0853 13.3287 56.1077C14.3769 56.7419 15.1275 57.1948 15.6063 57.389C16.2146 57.6478 17.2758 57.7902 18.3499 57.7902C19.3463 57.7902 20.3687 57.6737 21.0287 57.4148C21.4299 57.4537 21.844 57.4795 22.2581 57.4795C22.7628 57.4795 23.2546 57.4407 23.7463 57.376C27.991 56.7548 31.8345 54.6064 35.8592 50.6462C36.4028 50.1026 36.8816 49.5979 37.3216 49.1061C37.3863 49.805 37.5157 50.5815 37.7357 51.3968C38.6416 54.8006 41.5275 55.59 42.1616 55.7194C43.1063 56.043 45.6557 56.263 48.7616 56.263C51.311 56.263 54.2357 56.1077 56.9404 55.7453C63.7215 54.8265 64.058 54.697 64.1874 54.6453C64.4203 54.5547 64.6145 54.3864 64.7309 54.1664C64.8086 53.9723 67.0474 49.8697 65.3909 41.8457ZM54.1839 29.6544C57.3286 29.5379 59.3345 29.6156 60.3439 30.405C60.4604 30.4956 60.5898 30.625 60.7192 30.7674C58.2474 30.5733 54.5333 30.9615 50.8322 31.4015C50.0039 31.5051 49.3439 31.5827 48.9945 31.6086C47.6616 31.7122 44.5039 31.738 42.8992 31.738C43.0804 31.6086 43.2357 31.4792 43.3651 31.3886C43.6757 31.311 44.1416 31.1168 44.9698 30.6509C45.7075 30.2368 46.5486 29.7191 47.351 29.1755C48.438 29.3567 51.2333 29.7709 54.1839 29.6544ZM41.2686 7.14836C41.2816 7.14836 41.2816 7.14836 41.2945 7.14836C42.8086 7.14836 43.8827 8.31314 44.6722 9.15436L44.7498 9.23201C45.2933 9.8144 46.7427 12.7005 48.1404 16.3501C49.8357 20.7762 50.2498 23.1705 50.1074 23.7011C49.978 24.1799 49.0204 25.3188 46.7427 26.9495C46.6651 27.0013 46.5875 27.066 46.5098 27.1178C45.371 27.9202 44.3098 28.5543 43.611 28.9296C43.1322 27.7778 42.1228 25.5777 40.0133 21.0609C39.4957 19.935 39.0039 18.8867 38.6028 18.0325C36.7781 14.0723 36.0145 11.0827 36.144 10.358C38.0851 8.24843 39.8063 7.1613 41.2686 7.14836ZM21.4558 19.5856C21.3263 17.9808 22.944 16.9713 26.5804 14.8618C27.1628 14.5253 27.771 14.1629 28.4181 13.7876C30.4498 12.571 32.4298 11.5098 34.0087 10.6945C34.0345 11.3674 34.1898 12.2216 34.5004 13.3087C34.9663 14.9394 35.7298 16.9325 36.6616 18.9514C37.0628 19.8056 37.5545 20.8668 38.0722 21.9798C39.3145 24.6459 41.1004 28.4508 41.7086 29.9521C41.0616 30.418 39.8969 31.1557 38.5122 31.531H38.4992C38.3698 31.5698 38.2404 31.5957 38.111 31.6216C36.4028 31.9839 34.7981 32.5663 33.8145 32.9675C33.5687 32.5534 33.2969 32.1392 33.0251 31.751L32.9216 31.5957C31.3687 29.3438 27.111 27.1695 24.704 26.0565C24.251 25.8495 23.7851 25.6424 23.3193 25.4483C22.7887 24.9176 21.6369 21.9798 21.4558 19.5856ZM35.4451 34.65C35.6392 34.5723 35.8593 34.5076 36.0792 34.43C35.9887 34.6759 35.911 34.9218 35.8463 35.1547C35.7039 34.9735 35.5745 34.7923 35.4451 34.65ZM6.35343 31.1298C7.75107 29.8097 8.78637 28.7226 9.62755 27.8555C11.6593 25.72 12.2934 25.06 13.9499 25.06C14.2605 25.06 14.6099 25.0859 14.9981 25.1247C16.6287 25.293 19.4758 26.173 22.3746 27.4025C22.8405 27.5966 23.3193 27.8037 23.7852 28.0237C27.4734 29.7191 30.2298 31.5051 31.1357 32.8252L31.2393 32.9805C31.6275 33.537 32.0804 34.197 32.2487 34.6888C32.2487 34.7017 32.2616 34.7276 32.2616 34.7406C32.3134 34.9088 32.3263 35.0641 32.3004 35.1806C32.2616 35.31 32.0157 35.75 30.6181 36.2418C26.0369 37.8596 23.384 38.869 22.8275 40.4868C22.1287 41.5351 15.684 46.3236 13.7558 47.5013C13.277 47.1001 12.4746 46.3236 11.7887 45.6765C9.4593 43.4375 7.71225 41.8198 6.56049 41.3539C6.18519 41.1986 5.75814 41.0433 5.31814 40.888C4.47696 40.5903 3.53226 40.2538 2.87226 39.8656C2.3805 39.5809 2.16051 39.322 2.17345 39.1926C2.18639 38.9208 2.17344 38.649 2.1605 38.3902C2.10873 36.9795 2.03109 35.2194 6.35343 31.1298ZM8.50166 51.2415C6.79343 50.8145 3.7005 46.4142 3.55815 45.4694C3.51932 44.8094 3.28638 43.5152 3.0405 42.3245C3.55815 42.5446 4.08873 42.7387 4.59344 42.9199C5.00755 43.0752 5.40873 43.2175 5.7452 43.347C6.61226 43.7093 8.83813 45.8318 10.3005 47.2425C11.6205 48.5108 12.3581 49.1967 12.8628 49.5461C13.3417 50.7109 14.5193 53.5323 15.2569 54.7747C14.9981 54.6194 14.7005 54.4511 14.4158 54.2699C12.5134 53.0922 10.1193 51.6557 8.50166 51.2415ZM34.3192 49.0932C29.4922 53.8558 25.7781 54.8782 23.4099 55.2277C20.6146 55.6418 17.664 54.4252 17.224 53.817C16.7969 53.2346 15.8005 50.9698 15.0758 49.2226C15.3475 49.0543 15.6711 48.8343 16.0981 48.5496C17.1075 47.8637 18.3499 46.9707 19.5016 46.1036C24.484 42.3763 24.7557 41.6127 24.8722 41.2115C24.911 41.1468 25.1699 40.7586 26.7487 40.0468C27.9393 39.5032 29.531 38.9338 31.3428 38.2867C32.7145 37.7949 33.6204 37.1866 34.0992 36.4101C35.1216 37.7043 36.804 39.9303 37.5157 41.3021C38.1887 42.6093 39.0945 44.3823 34.3192 49.0932ZM39.7934 50.8145C39.1334 48.3425 39.4439 46.3107 39.5216 45.8706C40.5828 43.6705 40.2851 41.9751 39.431 40.3185C39.0428 39.555 38.4086 38.5973 37.7357 37.6525C37.7098 36.8889 37.7745 34.6241 39.2628 33.5499C39.7934 33.3946 40.2851 33.2005 40.7381 32.9934C40.4016 34.1841 39.9875 37.0313 40.8804 42.7775C41.5663 47.1778 41.3334 50.3744 41.2039 52.2898C41.191 52.4969 41.1781 52.704 41.1651 52.8981C40.6086 52.4969 40.0651 51.8369 39.7934 50.8145ZM63.0227 52.6651C62.3239 52.7816 60.6286 53.0405 56.6298 53.584C50.7545 54.3864 44.9051 54.0499 43.2616 53.7652C43.2616 53.4287 43.3004 52.924 43.3392 52.4451C43.4816 50.4391 43.7275 47.0872 43.0028 42.441C42.2263 37.4713 42.511 34.9218 42.731 33.8735C44.2839 33.8735 47.6875 33.8476 49.1627 33.7311C49.5639 33.7052 50.2369 33.6146 51.091 33.5111C53.6533 33.2005 60.4604 32.3851 61.8839 33.1358C62.1427 33.2781 62.2851 33.3558 62.3756 33.524C62.3756 33.524 62.3756 33.537 62.3886 33.537C62.4921 33.757 62.4921 34.1452 62.4921 34.9994C62.5051 36.436 62.518 38.6102 63.2686 42.2469C64.4721 48.0449 63.4627 51.5133 63.0227 52.6651Z" fill="white"/>
</svg>
