<svg width="66" height="63" viewBox="0 0 66 63" fill="none" xmlns="http://www.w3.org/2000/svg">
<path d="M18.7703 34.5828L21.0796 35.9413C21.2401 36.0401 21.4254 36.0772 21.5983 36.0772C21.9564 36.0772 22.2898 35.8919 22.4874 35.5708C22.7714 35.0768 22.6109 34.447 22.1169 34.1629L19.7459 32.7674L22.0922 31.3348C22.5738 31.0384 22.7344 30.4085 22.438 29.9269C22.1416 29.4453 21.5118 29.2847 21.0302 29.5811L18.7703 30.9519V28.2597C18.7703 27.6916 18.3134 27.2346 17.7453 27.2346C17.1773 27.2346 16.7203 27.6916 16.7203 28.2597V31.0013L14.411 29.6429C13.9171 29.3588 13.2873 29.5194 13.0032 30.0134C12.7192 30.5073 12.8797 31.1372 13.3737 31.4212L15.7448 32.8168L13.3984 34.2494C12.9168 34.5458 12.7562 35.1756 13.0526 35.6573C13.2502 35.9784 13.5837 36.1513 13.9294 36.1513C14.1147 36.1513 14.2999 36.1019 14.4604 36.0031L16.7203 34.6322V37.3245C16.7203 37.8926 17.1773 38.3495 17.7453 38.3495C18.3134 38.3495 18.7703 37.8926 18.7703 37.3245V34.5828V34.5828Z" fill="white"/>
<path d="M27.7966 46.8093L25.4256 45.4137L27.7719 43.9812C28.2535 43.6848 28.4141 43.0549 28.1177 42.5733C27.8213 42.0916 27.1915 41.9311 26.7099 42.2275L24.45 43.5983V40.906C24.45 40.3379 23.9931 39.881 23.425 39.881C22.8569 39.881 22.4 40.3379 22.4 40.906V43.6354L20.0907 42.2769C19.5968 41.9928 18.967 42.1534 18.6829 42.6474C18.3989 43.1414 18.5594 43.7712 19.0534 44.0553L21.4244 45.4508L19.0781 46.8834C18.5965 47.1798 18.4359 47.8096 18.7323 48.2913C18.9299 48.6124 19.2633 48.7853 19.6091 48.7853C19.7944 48.7853 19.9796 48.7359 20.1401 48.6371L22.4 47.2662V49.9585C22.4 50.5266 22.8569 50.9836 23.425 50.9836C23.9931 50.9836 24.45 50.5266 24.45 49.9585V47.2292L26.7593 48.5877C26.9198 48.6865 27.105 48.7235 27.2779 48.7235C27.6361 48.7235 27.9695 48.5383 28.1671 48.2172C28.4387 47.7232 28.2782 47.0933 27.7966 46.8093Z" fill="white"/>
<path d="M39.2063 14.7983C40.7376 14.7983 41.9848 13.5386 41.9848 11.9825C41.9848 10.4264 40.7376 9.16675 39.2063 9.16675C37.675 9.16675 36.4277 10.4264 36.4277 11.9825C36.4277 13.5386 37.6626 14.7983 39.2063 14.7983ZM39.2063 11.2292C39.6138 11.2292 39.9349 11.575 39.9349 11.9825C39.9349 12.3901 39.6138 12.7359 39.2063 12.7359C38.7988 12.7359 38.4777 12.3901 38.4777 11.9825C38.4777 11.575 38.7988 11.2292 39.2063 11.2292Z" fill="white"/>
<path d="M23.4133 19.0713C24.9446 19.0713 26.1919 17.8116 26.1919 16.2555C26.1919 14.6994 24.9446 13.4397 23.4133 13.4397C21.882 13.4397 20.6348 14.6994 20.6348 16.2555C20.6348 17.8116 21.882 19.0713 23.4133 19.0713ZM23.4133 15.5021C23.8209 15.5021 24.142 15.8479 24.142 16.2555C24.142 16.6754 23.8209 17.0088 23.4133 17.0088C23.0058 17.0088 22.6847 16.663 22.6847 16.2555C22.6847 15.8479 23.0182 15.5021 23.4133 15.5021Z" fill="white"/>
<path d="M33.1809 21.739C34.7122 21.739 35.9595 20.4793 35.9595 18.9232C35.9595 17.3671 34.7122 16.1074 33.1809 16.1074C31.6496 16.1074 30.4023 17.3671 30.4023 18.9232C30.4023 20.4793 31.6496 21.739 33.1809 21.739ZM33.1809 18.1699C33.5884 18.1699 33.9095 18.5157 33.9095 18.9232C33.9095 19.3308 33.5884 19.6765 33.1809 19.6765C32.7734 19.6765 32.4523 19.3308 32.4523 18.9232C32.4523 18.5157 32.7734 18.1699 33.1809 18.1699Z" fill="white"/>
<path d="M60.361 16.2432C60.361 16.2062 60.361 16.1691 60.3487 16.1444C60.3487 16.1321 60.3487 16.1321 60.3487 16.1197C60.3487 16.0827 60.3363 16.0333 60.324 15.9962C60.324 15.9839 60.324 15.9839 60.3116 15.9715C60.2993 15.9345 60.2869 15.9098 60.2746 15.8727C60.2746 15.8604 60.2622 15.848 60.2622 15.8357C60.2499 15.811 60.2375 15.7863 60.2252 15.7616C60.2128 15.7492 60.2128 15.7369 60.2005 15.7245C60.2005 15.7245 60.2005 15.7122 60.1881 15.7122C60.1758 15.6875 60.1511 15.6504 60.1264 15.6257C60.1017 15.5887 60.077 15.564 60.0399 15.5393C60.0276 15.5269 60.0276 15.5269 60.0153 15.5146C59.9906 15.4899 59.9658 15.4652 59.9411 15.4528C59.9288 15.4405 59.9288 15.4405 59.9165 15.4281C59.8794 15.4034 59.8424 15.3787 59.8053 15.354L33.6992 0.138937C33.3781 -0.0463122 32.9829 -0.0463122 32.6619 0.138937L6.51869 15.3664C6.48164 15.3911 6.44458 15.4158 6.40753 15.4405C6.39518 15.4405 6.39519 15.4528 6.38284 15.4652C6.35814 15.4899 6.33343 15.5022 6.30873 15.5269C6.29638 15.5393 6.29639 15.5393 6.28404 15.5516C6.25934 15.5763 6.23466 15.6134 6.20996 15.6381C6.20996 15.6381 6.20996 15.6381 6.20996 15.6504C6.18526 15.6751 6.17289 15.6998 6.16055 15.7245C6.16055 15.7245 6.16056 15.7369 6.14821 15.7369C6.13586 15.7492 6.13584 15.7616 6.12349 15.7739C6.11114 15.7986 6.09882 15.8233 6.08647 15.848C6.08647 15.8604 6.07411 15.8727 6.07411 15.8851C6.06176 15.9098 6.04941 15.9468 6.04941 15.9715C6.04941 15.9839 6.0494 15.9839 6.03705 15.9962C6.0247 16.0333 6.02471 16.0703 6.01236 16.1197C6.01236 16.1321 6.01236 16.1321 6.01236 16.1444C6.01236 16.1815 6.01235 16.2062 6 16.2432C6 16.2556 6 16.2556 6 16.2679V46.7352C6 47.1057 6.1976 47.4391 6.50633 47.6244L32.6495 62.8518C32.6495 62.8518 32.6495 62.8518 32.6619 62.8518C32.6989 62.8765 32.7359 62.8888 32.773 62.9135C32.81 62.9259 32.8471 62.9383 32.8841 62.9506C32.8965 62.9506 32.9088 62.9506 32.9088 62.9629C32.9335 62.9753 32.9706 62.9753 33.0076 62.9876C33.02 62.9876 33.0323 62.9876 33.0447 62.9876C33.0817 62.9876 33.1311 63 33.1682 63C33.2052 63 33.2546 63 33.2916 62.9876C33.304 62.9876 33.3164 62.9876 33.3287 62.9876C33.3657 62.9876 33.3905 62.9753 33.4275 62.9629C33.4398 62.9629 33.4522 62.9629 33.4522 62.9506C33.4892 62.9383 33.5263 62.9259 33.5634 62.9135C33.6004 62.9012 33.6374 62.8765 33.6745 62.8518C33.6745 62.8518 33.6745 62.8518 33.6868 62.8518L59.83 47.6244C60.1511 47.4391 60.3363 47.1057 60.3363 46.7352V16.2679C60.361 16.2556 60.361 16.2556 60.361 16.2432ZM33.1805 2.21372L57.3231 16.2803L39.9849 26.8888L35.5022 29.47C35.3293 29.5688 35.2058 29.7046 35.107 29.8775L33.1682 31.0631L9.02554 16.2926L33.1805 2.21372ZM53.8283 21.3067L52.2229 37.8062L50.4447 23.2456L53.8283 21.3067ZM44.7393 26.5307L42.7511 41.4741L40.8987 31.2731C40.8123 30.7914 40.3924 30.4333 39.9108 30.4333C39.8985 30.4333 39.8985 30.4333 39.8861 30.4333C39.4045 30.4333 38.9846 30.7667 38.8858 31.236L37.6139 36.9664L37.1076 31.0631L41.0346 28.6672L44.7393 26.5307ZM8.06233 18.0957L32.1555 32.8415V60.1719L8.06233 46.1424V18.0957ZM34.2055 60.1719V32.8415L35.1564 32.2611L36.1443 43.8453C36.1814 44.3516 36.5889 44.7468 37.0952 44.7839C37.6015 44.8209 38.0584 44.4751 38.1696 43.9811L39.7873 36.67L41.8867 48.2789C41.9731 48.7729 42.4053 49.1187 42.8993 49.1187C42.9116 49.1187 42.9116 49.1187 42.924 49.1187C43.4303 49.1063 43.8502 48.7235 43.9243 48.2295L47.0239 24.9993L48.4811 24.1101L51.3091 47.365C51.3708 47.8837 51.8154 48.2665 52.3341 48.2665H52.3464C52.8651 48.2542 53.3096 47.859 53.359 47.3403L56.0635 19.5283C56.0635 19.516 56.0635 19.4913 56.0635 19.4789L58.2987 18.1081V46.1547L34.2055 60.1719Z" fill="white"/>
</svg>
