<?xml version="1.0" encoding="UTF-8"?> <svg xmlns="http://www.w3.org/2000/svg" width="66" height="63" viewBox="0 0 66 63" fill="none"><g clip-path="url(#clip0)"><path d="M43.5641 40.1531C45.6395 37.6559 46.7828 34.5003 46.7828 31.2578C46.7828 27.4686 45.2791 23.9279 42.5699 21.2816C39.8483 18.6354 36.2568 17.2315 32.454 17.3434C28.8128 17.4427 25.4077 18.946 22.8601 21.5674C20.3125 24.1888 18.9082 27.6425 18.9082 31.2826C18.9082 34.4009 19.9273 37.3453 21.8411 39.8052C23.7797 42.3023 24.8485 45.3585 24.8485 48.4023V52.9866L23.1584 54.6762C22.9595 54.875 22.8601 55.1359 22.8601 55.4092C22.8601 55.6825 22.972 55.9434 23.1584 56.1422L24.6124 57.5958L23.1584 59.0493C22.9595 59.2481 22.8601 59.509 22.8601 59.7823C22.8601 60.0556 22.972 60.3165 23.1584 60.5153L25.3456 62.7019C25.5444 62.9006 25.8054 63 26.0788 63H39.2021C39.4755 63 39.7365 62.8882 39.9353 62.7019L42.1225 60.5153C42.3214 60.3165 42.4208 60.0556 42.4208 59.7823C42.4208 59.509 42.3089 59.2481 42.1225 59.0493L40.6685 57.5958L42.1225 56.1422C42.3214 55.9434 42.4208 55.6825 42.4208 55.4092C42.4208 55.1359 42.3089 54.875 42.1225 54.6762L40.4324 52.9866V48.9241C40.42 45.694 41.5384 42.5881 43.5641 40.1531ZM44.7074 31.2578C44.7074 34.0158 43.7381 36.7117 41.9734 38.8362C39.6371 41.6439 38.357 45.2219 38.357 48.9117V52.1294H33.5228C33.6098 52.0424 33.6968 51.9555 33.7962 51.8561C35.2378 50.3031 36.8285 47.483 36.2071 42.8614C35.7349 39.358 34.1442 37.7429 32.7399 36.3142C31.1989 34.7488 29.7449 33.2704 29.4963 29.0961C29.0738 21.878 35.536 20.3126 36.8409 20.0765C38.4192 20.6356 39.8856 21.5425 41.1283 22.7476C43.4398 25.0087 44.7074 28.0276 44.7074 31.2578ZM26.5013 56.5522L25.3456 55.3968L26.551 54.2041H30.0556H38.7174L39.9229 55.3968L38.7671 56.5522H26.5013ZM23.4691 38.5256C21.8411 36.4384 20.9836 33.9288 20.9712 31.2702C20.9587 24.8969 26.1285 19.5796 32.5037 19.3932C32.5783 19.3932 32.6405 19.3932 32.715 19.3932C32.454 19.5299 32.1931 19.6914 31.9321 19.8653C29.7076 21.3065 27.1351 24.1018 27.4334 29.2203C27.7192 34.1773 29.6082 36.0905 31.2734 37.7677C32.6156 39.1343 33.7838 40.3146 34.1566 43.1347C35.0389 49.7689 30.7266 51.8064 29.8816 52.1294H26.9239V48.3899C26.9114 44.8864 25.6811 41.383 23.4691 38.5256ZM38.7671 60.9129H26.5013L25.3456 59.7575L26.5013 58.6021H38.7671L39.9229 59.7575L38.7671 60.9129Z" fill="white"></path><path d="M32.678 15.0077C33.2496 15.0077 33.7094 14.548 33.7094 13.9765V1.03116C33.7094 0.459673 33.2496 0 32.678 0C32.1063 0 31.6465 0.459673 31.6465 1.03116V13.9765C31.6465 14.548 32.1063 15.0077 32.678 15.0077Z" fill="white"></path><path d="M45.1424 20.1386C45.4033 20.1386 45.6643 20.0392 45.8756 19.8404L55.0843 10.6842C55.4944 10.2867 55.4944 9.62823 55.0843 9.21825C54.6866 8.80827 54.0279 8.80827 53.6178 9.21825L44.4091 18.3744C43.999 18.772 43.999 19.4304 44.4091 19.8404C44.608 20.0392 44.8814 20.1386 45.1424 20.1386Z" fill="white"></path><path d="M19.4792 43.1346L10.2705 52.2908C9.86036 52.6884 9.86036 53.3468 10.2705 53.7568C10.4693 53.9556 10.7427 54.0674 11.0037 54.0674C11.2647 54.0674 11.5256 53.968 11.7369 53.7692L20.9456 44.6131C21.3557 44.2155 21.3557 43.557 20.9456 43.1471C20.5479 42.7371 19.8893 42.7371 19.4792 43.1346Z" fill="white"></path><path d="M19.4796 19.8405C19.6785 20.0392 19.9394 20.1386 20.2128 20.1386C20.4738 20.1386 20.7472 20.0392 20.946 19.828C21.3437 19.4181 21.3437 18.772 20.946 18.3621L11.7374 9.20588C11.3272 8.80833 10.681 8.80833 10.2709 9.20588C9.87324 9.61586 9.87324 10.2619 10.2709 10.6719L19.4796 19.8405Z" fill="white"></path><path d="M45.876 43.1347C45.4659 42.7372 44.8197 42.7372 44.4096 43.1347C44.0119 43.5447 44.0119 44.1907 44.4096 44.6007L53.6183 53.7569C53.8171 53.9557 54.0781 54.055 54.3515 54.055C54.6125 54.055 54.8859 53.9557 55.0847 53.7445C55.4824 53.3345 55.4824 52.6885 55.0847 52.2785L45.876 43.1347Z" fill="white"></path><path d="M63.3366 30.4502H50.3127C49.7411 30.4502 49.2812 30.9099 49.2812 31.4814C49.2812 32.0528 49.7411 32.5125 50.3127 32.5125H63.3366C63.9082 32.5125 64.3681 32.0528 64.3681 31.4814C64.3681 30.9099 63.9082 30.4502 63.3366 30.4502Z" fill="white"></path><path d="M16.0868 31.4938C16.0868 30.9223 15.627 30.4626 15.0553 30.4626H2.03148C1.45982 30.4626 1 30.9223 1 31.4938C1 32.0653 1.45982 32.525 2.03148 32.525H15.0553C15.627 32.525 16.0868 32.0653 16.0868 31.4938Z" fill="white"></path></g><defs><clipPath id="clip0"><rect width="66" height="63" fill="white"></rect></clipPath></defs></svg> 