<?xml version="1.0" encoding="UTF-8"?> <svg xmlns="http://www.w3.org/2000/svg" width="66" height="63" viewBox="0 0 66 63" fill="none"><path d="M6.61115 26.1509C6.44723 26.1512 6.28543 26.1155 6.13823 26.0467C5.99103 25.9778 5.86237 25.8776 5.76216 25.7537C5.12292 24.9857 4.75139 24.046 4.69962 23.0662C4.64784 22.0865 4.91841 21.1159 5.47342 20.2903C6.02844 19.4647 6.8401 18.8255 7.7947 18.4623C8.74931 18.099 9.79904 18.0299 10.7969 18.2646C11.1064 16.8778 11.9034 15.6338 13.0557 14.7391C14.2079 13.8443 15.6461 13.3526 17.1315 13.3456C20.7065 13.3456 23.6142 16.1506 23.6142 19.5989C23.6142 19.8702 23.5013 20.1305 23.3003 20.3223C23.0993 20.5142 22.8266 20.622 22.5424 20.622C22.2581 20.622 21.9855 20.5142 21.7844 20.3223C21.5834 20.1305 21.4705 19.8702 21.4705 19.5989C21.4705 17.2795 19.5239 15.3919 17.1315 15.3919C14.7391 15.3919 12.7925 17.2783 12.7925 19.5976C12.7925 19.6259 12.7925 19.6554 12.7925 19.6837V19.7292C12.7983 19.9169 12.7499 20.1024 12.6526 20.2656C12.5553 20.4288 12.4129 20.5632 12.2409 20.6543C12.0689 20.7453 11.8739 20.7895 11.6774 20.7818C11.4809 20.7742 11.2903 20.715 11.1267 20.6109C10.6811 20.3262 10.1569 20.1742 9.62064 20.1744C9.10003 20.1853 8.5928 20.3339 8.15536 20.6036C7.71793 20.8733 7.36743 21.2535 7.14287 21.702C6.9183 22.1504 6.82846 22.6496 6.88333 23.1439C6.93821 23.6382 7.13566 24.1083 7.45371 24.5019C7.57624 24.6531 7.65193 24.8341 7.6722 25.0243C7.69246 25.2145 7.6565 25.4063 7.56838 25.578C7.48026 25.7496 7.34352 25.8943 7.17365 25.9956C7.00377 26.0969 6.80757 26.1507 6.60729 26.1509H6.61115Z" fill="white"></path><path d="M56.8523 15.9631C56.6993 15.9633 56.5481 15.9318 56.4091 15.8708C56.1509 15.7585 55.9499 15.553 55.8502 15.2995C55.7504 15.0459 55.7601 14.7649 55.8771 14.5181C56.2987 13.6285 56.3677 12.623 56.0713 11.6884C55.7749 10.7539 55.1332 9.95379 54.2654 9.4368C53.4664 8.96144 52.5192 8.76603 51.5859 8.88403C50.6526 9.00204 49.7913 9.42612 49.1495 10.0836C49.0153 10.2208 48.8442 10.3201 48.6549 10.3707C48.4655 10.4212 48.2653 10.4211 48.076 10.3703C47.8868 10.3195 47.7158 10.2201 47.5818 10.0827C47.4478 9.94541 47.3559 9.77556 47.3162 9.59175L47.3034 9.53395C47.2943 9.49091 47.2866 9.44787 47.275 9.41098C47.0884 8.62826 46.7405 7.88883 46.2514 7.2358C45.7624 6.58277 45.142 6.0292 44.4266 5.60737C43.7345 5.19416 42.9635 4.91617 42.158 4.78951C41.3526 4.66286 40.5289 4.69005 39.7346 4.86952C36.3747 5.62704 34.2927 8.89079 35.0966 12.1447C35.1597 12.4082 35.1109 12.6849 34.961 12.9142C34.8111 13.1435 34.5722 13.3069 34.2965 13.3686C34.0208 13.4303 33.7307 13.3854 33.4896 13.2437C33.2484 13.1019 33.0759 12.8748 33.0096 12.612C31.939 8.26116 34.7359 3.89433 39.2437 2.87856C40.3118 2.63539 41.4198 2.59714 42.5035 2.76602C43.5871 2.9349 44.6248 3.30756 45.5564 3.86236C47.0691 4.75133 48.2497 6.07278 48.9305 7.63891C49.9088 7.07933 51.0298 6.78799 52.1703 6.79688C53.3108 6.80578 54.4266 7.11457 55.3952 7.68933C56.7067 8.46806 57.6768 9.67528 58.125 11.0861C58.5732 12.4969 58.4689 14.0152 57.8314 15.358C57.7467 15.5383 57.6092 15.6913 57.4355 15.7986C57.2618 15.906 57.0592 15.9631 56.8523 15.9631V15.9631Z" fill="white"></path><path d="M62.2244 50.7879C62.0509 50.7875 61.8801 50.7469 61.7266 50.6697C61.5732 50.5925 61.4416 50.481 61.3431 50.3446C61.2446 50.2083 61.1821 50.0513 61.161 49.8869C61.14 49.7225 61.1609 49.5557 61.2221 49.4008C62.0865 47.2315 60.9644 44.804 58.733 43.9899C58.2049 43.7964 57.6417 43.7049 57.0763 43.7207C56.5108 43.7365 55.9542 43.8594 55.4388 44.0821C54.9081 44.3093 54.4298 44.6348 54.0318 45.0396C53.6337 45.4445 53.3238 45.9208 53.1199 46.4408C53.1096 46.4678 53.0993 46.4949 53.0903 46.5219L53.0748 46.565C52.9815 46.8213 52.7854 47.0318 52.5295 47.1501C52.2737 47.2684 51.979 47.2849 51.7105 47.1958C51.4419 47.1068 51.2214 46.9196 51.0975 46.6753C50.9735 46.4311 50.9563 46.1499 51.0496 45.8935L51.0625 45.8579C51.0792 45.8099 51.0972 45.762 51.1153 45.714C51.4194 44.9415 51.8813 44.2344 52.4739 43.6336C53.0666 43.0328 53.7784 42.5503 54.5679 42.2141C55.3403 41.8808 56.1742 41.6971 57.0215 41.6739C57.8687 41.6507 58.7124 41.7883 59.5035 42.0789C62.8428 43.2963 64.515 46.9093 63.2318 50.13C63.1537 50.3243 63.0154 50.4913 62.8355 50.6088C62.6555 50.7263 62.4424 50.7888 62.2244 50.7879V50.7879Z" fill="white"></path><path d="M53.3572 22.072C53.1838 22.0713 53.0132 22.0306 52.8599 21.9533C52.7066 21.876 52.5751 21.7645 52.4768 21.6282C52.3784 21.4919 52.3161 21.3349 52.2951 21.1707C52.2741 21.0064 52.295 20.8397 52.3561 20.6848C53.2206 18.5156 52.0985 16.088 49.8671 15.2739C49.339 15.0804 48.7758 14.9889 48.2103 15.0047C47.6449 15.0206 47.0883 15.1434 46.5729 15.3662C46.0421 15.5932 45.5637 15.9186 45.1656 16.3235C44.7675 16.7284 44.4577 17.2047 44.254 17.7248C44.2424 17.7519 44.2334 17.7789 44.2231 17.806L44.2076 17.849C44.1143 18.1054 43.9182 18.3159 43.6623 18.4342C43.4065 18.5525 43.1119 18.5689 42.8433 18.4799C42.5747 18.3909 42.3542 18.2036 42.2303 17.9594C42.1063 17.7152 42.0891 17.4339 42.1824 17.1776L42.1953 17.1419C42.2133 17.094 42.2301 17.046 42.2494 16.9981C42.5535 16.2256 43.0154 15.5184 43.608 14.9176C44.2007 14.3168 44.9125 13.8344 45.702 13.4982C46.4743 13.1648 47.3083 12.9812 48.1556 12.958C49.0028 12.9347 49.8465 13.0724 50.6375 13.3629C53.9768 14.5804 55.6491 18.1921 54.3646 21.4141C54.2868 21.6086 54.1486 21.7757 53.9686 21.8933C53.7886 22.0109 53.5753 22.0732 53.3572 22.072V22.072Z" fill="white"></path><path d="M22.5452 11.573C22.3714 11.5734 22.2001 11.5334 22.0461 11.4564C21.8922 11.3794 21.7601 11.2679 21.6615 11.1313C21.5628 10.9947 21.5004 10.8373 21.4798 10.6726C21.4591 10.5078 21.4808 10.3408 21.5429 10.1858C21.7833 9.59589 21.7692 8.93905 21.5036 8.359C21.238 7.77895 20.7426 7.32289 20.1257 7.09057C19.8247 6.98005 19.5036 6.9277 19.1811 6.93656C18.8587 6.94543 18.5413 7.01533 18.2474 7.14222C17.9429 7.27258 17.6685 7.45924 17.4401 7.69143C17.2117 7.92361 17.0337 8.19671 16.9166 8.49494L16.9011 8.53921L16.8908 8.56627C16.8463 8.69518 16.7755 8.81437 16.6823 8.91688C16.5891 9.0194 16.4755 9.10319 16.3481 9.16339C16.2206 9.22359 16.0819 9.25898 15.94 9.26752C15.7981 9.27605 15.6559 9.25755 15.5215 9.21309C15.3872 9.16863 15.2635 9.09911 15.1576 9.00857C15.0516 8.91802 14.9657 8.80827 14.9046 8.6857C14.8436 8.56313 14.8087 8.43019 14.802 8.29462C14.7953 8.15905 14.8169 8.02357 14.8656 7.89605L14.8733 7.87515C14.8862 7.83949 14.8991 7.80382 14.9132 7.76816C15.129 7.21825 15.4571 6.71473 15.8784 6.28683C16.2997 5.85892 16.8059 5.51515 17.3675 5.27546C17.9182 5.03762 18.5129 4.90656 19.1171 4.88988C19.7213 4.8732 20.3229 4.97124 20.8871 5.17831C22.0347 5.60459 22.9586 6.44731 23.4569 7.52216C23.9553 8.59701 23.9873 9.81649 23.5462 10.9139C23.4688 11.1075 23.3317 11.2742 23.1529 11.3918C22.9742 11.5095 22.7623 11.5727 22.5452 11.573Z" fill="white"></path><path d="M7.06159 43.8824C6.8616 43.8822 6.66568 43.8285 6.49602 43.7274L6.47927 43.7176C6.4432 43.6967 6.40842 43.6758 6.37234 43.6524C5.34641 43.0013 4.63243 41.9889 4.38664 40.8365C4.14085 39.6842 4.38327 38.4858 5.06085 37.5037C5.39487 37.0225 5.82556 36.6093 6.32798 36.288C6.8304 35.9667 7.39459 35.7438 7.98788 35.632C8.58981 35.5161 9.20987 35.5154 9.81207 35.63C10.4143 35.7447 10.9866 35.9723 11.4959 36.2997C11.6207 36.3709 11.729 36.4655 11.8143 36.5778C11.8995 36.6901 11.96 36.8178 11.992 36.9531C12.0239 37.0884 12.0267 37.2285 12.0002 37.3649C11.9737 37.5013 11.9184 37.6311 11.8377 37.7464C11.757 37.8618 11.6526 37.9602 11.5307 38.0359C11.4089 38.1115 11.2723 38.1627 11.1291 38.1863C10.9859 38.21 10.8392 38.2056 10.6978 38.1734C10.5565 38.1413 10.4235 38.082 10.3068 37.9993C10.0315 37.8223 9.72211 37.6992 9.39659 37.6371C9.07107 37.5751 8.73588 37.5753 8.41045 37.6377C8.09277 37.6969 7.79064 37.8159 7.52167 37.9878C7.2527 38.1597 7.02228 38.3809 6.84386 38.6387C6.48081 39.1692 6.3525 39.8154 6.48696 40.4359C6.62142 41.0564 7.00772 41.6009 7.56145 41.9504L7.60654 41.9775L7.62587 41.9886C7.82404 42.1059 7.9767 42.2818 8.06071 42.4894C8.14473 42.6971 8.15549 42.9252 8.09139 43.1393C8.02729 43.3533 7.8918 43.5415 7.70549 43.6754C7.51919 43.8093 7.29222 43.8815 7.05901 43.8812L7.06159 43.8824Z" fill="white"></path><path d="M60.0355 39.0856H34.6559C34.5151 39.0856 34.3757 39.0591 34.2457 39.0077C34.1156 38.9563 33.9975 38.8809 33.8979 38.7859C33.7984 38.6909 33.7194 38.5781 33.6656 38.454C33.6117 38.3299 33.584 38.1968 33.584 38.0625C33.584 37.9281 33.6117 37.795 33.6656 37.6709C33.7194 37.5468 33.7984 37.434 33.8979 37.339C33.9975 37.244 34.1156 37.1686 34.2457 37.1172C34.3757 37.0658 34.5151 37.0393 34.6559 37.0393H60.0355C60.3198 37.0393 60.5924 37.1471 60.7934 37.339C60.9945 37.5309 61.1074 37.7911 61.1074 38.0625C61.1074 38.3338 60.9945 38.594 60.7934 38.7859C60.5924 38.9778 60.3198 39.0856 60.0355 39.0856V39.0856Z" fill="white"></path><path d="M29.4924 39.0856H19.3805C19.2397 39.0856 19.1003 39.0591 18.9703 39.0077C18.8402 38.9563 18.7221 38.8809 18.6225 38.7859C18.523 38.6909 18.4441 38.5781 18.3902 38.454C18.3363 38.3299 18.3086 38.1968 18.3086 38.0625C18.3086 37.9281 18.3363 37.795 18.3902 37.6709C18.4441 37.5468 18.523 37.434 18.6225 37.339C18.7221 37.244 18.8402 37.1686 18.9703 37.1172C19.1003 37.0658 19.2397 37.0393 19.3805 37.0393H29.4924C29.6332 37.0393 29.7725 37.0658 29.9026 37.1172C30.0326 37.1686 30.1508 37.244 30.2503 37.339C30.3499 37.434 30.4288 37.5468 30.4827 37.6709C30.5365 37.795 30.5643 37.9281 30.5643 38.0625C30.5643 38.1968 30.5365 38.3299 30.4827 38.454C30.4288 38.5781 30.3499 38.6909 30.2503 38.7859C30.1508 38.8809 30.0326 38.9563 29.9026 39.0077C29.7725 39.0591 29.6332 39.0856 29.4924 39.0856V39.0856Z" fill="white"></path><path d="M42.8024 44.3945H13.398C13.1138 44.3945 12.8411 44.2867 12.6401 44.0948C12.4391 43.9029 12.3262 43.6427 12.3262 43.3713C12.3262 43.0999 12.4391 42.8397 12.6401 42.6478C12.8411 42.4559 13.1138 42.3481 13.398 42.3481H42.8024C43.0867 42.3481 43.3593 42.4559 43.5603 42.6478C43.7613 42.8397 43.8742 43.0999 43.8742 43.3713C43.8742 43.6427 43.7613 43.9029 43.5603 44.0948C43.3593 44.2867 43.0867 44.3945 42.8024 44.3945V44.3945Z" fill="white"></path><path d="M54.8747 28.4606H31.5074C31.2231 28.4606 30.9505 28.3528 30.7495 28.1609C30.5485 27.9691 30.4355 27.7088 30.4355 27.4375C30.4355 27.1661 30.5485 26.9059 30.7495 26.714C30.9505 26.5221 31.2231 26.4143 31.5074 26.4143H54.8747C55.159 26.4143 55.4316 26.5221 55.6327 26.714C55.8337 26.9059 55.9466 27.1661 55.9466 27.4375C55.9466 27.7088 55.8337 27.9691 55.6327 28.1609C55.4316 28.3528 55.159 28.4606 54.8747 28.4606V28.4606Z" fill="white"></path><path d="M37.5403 33.7724H1.22031C0.936031 33.7724 0.663397 33.6646 0.462382 33.4727C0.261367 33.2808 0.148438 33.0206 0.148438 32.7492C0.148438 32.4779 0.261367 32.2176 0.462382 32.0257C0.663397 31.8339 0.936031 31.7261 1.22031 31.7261H37.5403C37.8246 31.7261 38.0972 31.8339 38.2982 32.0257C38.4992 32.2176 38.6122 32.4779 38.6122 32.7492C38.6122 33.0206 38.4992 33.2808 38.2982 33.4727C38.0972 33.6646 37.8246 33.7724 37.5403 33.7724V33.7724Z" fill="white"></path><path d="M64.7805 33.7724H43.191C42.9067 33.7724 42.6341 33.6646 42.4331 33.4727C42.2321 33.2808 42.1191 33.0206 42.1191 32.7492C42.1191 32.4779 42.2321 32.2176 42.4331 32.0257C42.6341 31.8339 42.9067 31.7261 43.191 31.7261H64.7805C65.0647 31.7261 65.3374 31.8339 65.5384 32.0257C65.7394 32.2176 65.8523 32.4779 65.8523 32.7492C65.8523 33.0206 65.7394 33.2808 65.5384 33.4727C65.3374 33.6646 65.0647 33.7724 64.7805 33.7724V33.7724Z" fill="white"></path><path d="M51.78 55.0205H8.65C8.50924 55.0205 8.36985 54.9941 8.23981 54.9427C8.10976 54.8912 7.9916 54.8159 7.89207 54.7209C7.79254 54.6259 7.71358 54.5131 7.65972 54.3889C7.60585 54.2648 7.57812 54.1318 7.57812 53.9974C7.57812 53.863 7.60585 53.73 7.65972 53.6059C7.71358 53.4817 7.79254 53.3689 7.89207 53.2739C7.9916 53.1789 8.10976 53.1035 8.23981 53.0521C8.36985 53.0007 8.50924 52.9742 8.65 52.9742H51.78C52.0642 52.9742 52.3369 53.082 52.5379 53.2739C52.7389 53.4658 52.8518 53.726 52.8518 53.9974C52.8518 54.2688 52.7389 54.529 52.5379 54.7209C52.3369 54.9127 52.0642 55.0205 51.78 55.0205V55.0205Z" fill="white"></path><path d="M43.1908 49.7088H27.2223C26.938 49.7088 26.6654 49.601 26.4643 49.4091C26.2633 49.2172 26.1504 48.957 26.1504 48.6856C26.1504 48.4143 26.2633 48.154 26.4643 47.9622C26.6654 47.7703 26.938 47.6625 27.2223 47.6625H43.1973C43.4816 47.6625 43.7542 47.7703 43.9552 47.9622C44.1562 48.154 44.2692 48.4143 44.2692 48.6856C44.2692 48.957 44.1562 49.2172 43.9552 49.4091C43.7542 49.601 43.4816 49.7088 43.1973 49.7088H43.1908Z" fill="white"></path><path d="M21.6503 49.7088H1.22031C0.936031 49.7088 0.663397 49.601 0.462382 49.4091C0.261367 49.2172 0.148438 48.957 0.148438 48.6856C0.148438 48.4143 0.261367 48.154 0.462382 47.9622C0.663397 47.7703 0.936031 47.6625 1.22031 47.6625H21.6503C21.9346 47.6625 22.2072 47.7703 22.4082 47.9622C22.6092 48.154 22.7222 48.4143 22.7222 48.6856C22.7222 48.957 22.6092 49.2172 22.4082 49.4091C22.2072 49.601 21.9346 49.7088 21.6503 49.7088V49.7088Z" fill="white"></path><path d="M39.6031 21.9944H28.0985C27.8205 21.9852 27.5571 21.8733 27.3638 21.6824C27.1705 21.4914 27.0625 21.2362 27.0625 20.9707C27.0625 20.7051 27.1705 20.45 27.3638 20.259C27.5571 20.068 27.8205 19.9561 28.0985 19.9469H39.6031C39.8811 19.9561 40.1445 20.068 40.3377 20.259C40.531 20.45 40.639 20.7051 40.639 20.9707C40.639 21.2362 40.531 21.4914 40.3377 21.6824C40.1445 21.8733 39.8811 21.9852 39.6031 21.9944Z" fill="white"></path><path d="M25.2092 26.1508H16.0777C15.7935 26.1508 15.5208 26.043 15.3198 25.8511C15.1188 25.6592 15.0059 25.399 15.0059 25.1276C15.0059 24.8563 15.1188 24.596 15.3198 24.4042C15.5208 24.2123 15.7935 24.1045 16.0777 24.1045H25.2092C25.4935 24.1045 25.7662 24.2123 25.9672 24.4042C26.1682 24.596 26.2811 24.8563 26.2811 25.1276C26.2811 25.399 26.1682 25.6592 25.9672 25.8511C25.7662 26.043 25.4935 26.1508 25.2092 26.1508V26.1508Z" fill="white"></path><path d="M40.2227 60.3307H19.3805C19.0962 60.3307 18.8236 60.2229 18.6225 60.0311C18.4215 59.8392 18.3086 59.5789 18.3086 59.3076C18.3086 59.0362 18.4215 58.776 18.6225 58.5841C18.8236 58.3922 19.0962 58.2844 19.3805 58.2844H40.2227C40.507 58.2844 40.7796 58.3922 40.9807 58.5841C41.1817 58.776 41.2946 59.0362 41.2946 59.3076C41.2946 59.5789 41.1817 59.8392 40.9807 60.0311C40.7796 60.2229 40.507 60.3307 40.2227 60.3307V60.3307Z" fill="white"></path><path d="M56.1117 60.3307H45.5875C45.3032 60.3307 45.0306 60.2229 44.8296 60.0311C44.6286 59.8392 44.5156 59.5789 44.5156 59.3076C44.5156 59.0362 44.6286 58.776 44.8296 58.5841C45.0306 58.3922 45.3032 58.2844 45.5875 58.2844H56.1117C56.396 58.2844 56.6686 58.3922 56.8696 58.5841C57.0706 58.776 57.1835 59.0362 57.1835 59.3076C57.1835 59.5789 57.0706 59.8392 56.8696 60.0311C56.6686 60.2229 56.396 60.3307 56.1117 60.3307V60.3307Z" fill="white"></path><path d="M12.3674 60.3307H3.90195C3.61767 60.3307 3.34504 60.2229 3.14402 60.0311C2.94301 59.8392 2.83008 59.5789 2.83008 59.3076C2.83008 59.0362 2.94301 58.776 3.14402 58.5841C3.34504 58.3922 3.61767 58.2844 3.90195 58.2844H12.3674C12.6517 58.2844 12.9243 58.3922 13.1253 58.5841C13.3264 58.776 13.4393 59.0362 13.4393 59.3076C13.4393 59.5789 13.3264 59.8392 13.1253 60.0311C12.9243 60.2229 12.6517 60.3307 12.3674 60.3307V60.3307Z" fill="white"></path></svg> 