<?xml version="1.0" encoding="UTF-8"?> <svg xmlns="http://www.w3.org/2000/svg" width="66" height="63" viewBox="0 0 66 63" fill="none"><path d="M55.6742 33.7973C55.3899 33.7973 55.1173 33.6895 54.9163 33.4977C54.7153 33.3058 54.6023 33.0455 54.6023 32.7742C54.6118 31.7717 54.2462 30.7989 53.5712 30.0308C52.8962 29.2628 51.9562 28.7499 50.9203 28.5844C50.7138 28.5519 50.5218 28.4624 50.3679 28.3269C50.2141 28.1914 50.1051 28.0159 50.0546 27.822C49.7985 26.8143 49.1955 25.9178 48.3422 25.2761C47.4889 24.6344 46.4347 24.2846 45.3484 24.2828C42.6739 24.2828 40.4992 26.3844 40.4992 28.9693C40.4992 29.2407 40.3863 29.5009 40.1853 29.6928C39.9843 29.8847 39.7116 29.9925 39.4273 29.9925C39.1431 29.9925 38.8704 29.8847 38.6694 29.6928C38.4684 29.5009 38.3555 29.2407 38.3555 28.9693C38.3555 25.2567 41.4925 22.2365 45.3484 22.2365C46.7961 22.2381 48.2075 22.669 49.3876 23.4695C50.5676 24.2701 51.4579 25.4008 51.9355 26.7054C53.3244 27.0716 54.548 27.8646 55.417 28.9617C56.2859 30.0589 56.7517 31.3988 56.7422 32.7742C56.7425 33.045 56.6303 33.3049 56.43 33.4967C56.2297 33.6886 55.9579 33.7967 55.6742 33.7973Z" fill="white"></path><path d="M51.563 14.0857C50.7209 14.0911 49.8962 13.8576 49.1933 13.415C48.4905 12.9724 47.9411 12.3404 47.615 11.5994C47.2889 10.8584 47.2006 10.0416 47.3615 9.25257C47.5223 8.46359 47.925 7.73796 48.5184 7.16771C49.1118 6.59745 49.8693 6.20825 50.6947 6.04946C51.5202 5.89067 52.3765 5.96944 53.1549 6.27579C53.9334 6.58213 54.5991 7.10224 55.0675 7.77018C55.5359 8.43812 55.786 9.22379 55.786 10.0276C55.7881 11.0998 55.3447 12.129 54.5531 12.8897C53.7615 13.6504 52.6862 14.0805 51.563 14.0857V14.0857ZM51.563 8.00832C51.144 8.00222 50.7327 8.11522 50.3812 8.33295C50.0298 8.55068 49.7541 8.8633 49.5893 9.23101C49.4246 9.59873 49.3781 10.0049 49.4559 10.3979C49.5337 10.7909 49.7323 11.1529 50.0262 11.4379C50.3202 11.7228 50.6964 11.9179 51.1068 11.9982C51.5173 12.0785 51.9435 12.0404 52.3312 11.8888C52.7189 11.7372 53.0506 11.4789 53.2841 11.1468C53.5175 10.8147 53.6422 10.4238 53.6423 10.0239C53.6464 9.49344 53.4297 8.98315 53.0398 8.60519C52.6498 8.22723 52.1187 8.01254 51.563 8.00832V8.00832Z" fill="white"></path><path d="M40.6497 60.5134C39.9187 60.5178 39.2028 60.3149 38.5927 59.9304C37.9827 59.5459 37.506 58.9971 37.2231 58.3536C36.9402 57.7102 36.8639 57.001 37.0038 56.3161C37.1437 55.6311 37.4935 55.0013 38.0089 54.5064C38.5243 54.0115 39.182 53.6738 39.8987 53.5362C40.6154 53.3986 41.3587 53.4673 42.0345 53.7335C42.7103 53.9996 43.288 54.4514 43.6945 55.0314C44.1009 55.6114 44.3178 56.2936 44.3176 56.9914C44.3196 57.9225 43.9345 58.8163 43.2469 59.4766C42.5592 60.137 41.6251 60.5099 40.6497 60.5134V60.5134ZM40.6497 55.5145C40.3429 55.5096 40.0415 55.592 39.7839 55.7512C39.5263 55.9103 39.3242 56.139 39.2032 56.4082C39.0822 56.6774 39.0479 56.9749 39.1046 57.2627C39.1613 57.5506 39.3065 57.8158 39.5217 58.0247C39.7368 58.2335 40.0122 58.3765 40.3128 58.4355C40.6133 58.4945 40.9255 58.4667 41.2095 58.3558C41.4935 58.2448 41.7365 58.0557 41.9075 57.8126C42.0785 57.5694 42.1699 57.2831 42.1699 56.9902C42.1727 56.6023 42.0142 56.2291 41.7293 55.9525C41.4443 55.6759 41.0561 55.5184 40.6497 55.5145Z" fill="white"></path><path d="M17.0444 40.9508C16.8808 40.9509 16.7194 40.9153 16.5724 40.8466C16.4255 40.778 16.297 40.6782 16.1967 40.5548C15.6617 39.8944 15.3303 39.1047 15.24 38.2743C15.1496 37.444 15.3039 36.6061 15.6853 35.8549C16.0667 35.1037 16.6603 34.469 17.399 34.0223C18.1378 33.5756 18.9926 33.3345 19.8671 33.3263C20.2192 33.3259 20.5703 33.3642 20.9132 33.4407C21.2205 32.1434 21.9794 30.9838 23.066 30.1512C24.1526 29.3186 25.5027 28.8621 26.8961 28.8562C30.2818 28.8562 33.0349 31.5075 33.0349 34.7664C33.0349 35.0377 32.922 35.298 32.7209 35.4898C32.5199 35.6817 32.2473 35.7895 31.963 35.7895C31.6787 35.7895 31.4061 35.6817 31.2051 35.4898C31.0041 35.298 30.8911 35.0377 30.8911 34.7664C30.8911 33.7553 30.4704 32.7857 29.7214 32.0707C28.9724 31.3558 27.9566 30.9542 26.8974 30.9542C25.8382 30.9542 24.8224 31.3558 24.0734 32.0707C23.3244 32.7857 22.9036 33.7553 22.9036 34.7664C22.9036 34.791 22.9036 34.8168 22.9036 34.8426V34.8869C22.9093 35.0743 22.8609 35.2597 22.7636 35.4227C22.6664 35.5856 22.5241 35.72 22.3523 35.811C22.1805 35.902 21.9858 35.9462 21.7895 35.9387C21.5932 35.9312 21.4028 35.8724 21.2391 35.7686C20.8325 35.5099 20.3545 35.3721 19.8658 35.3726C19.3913 35.3803 18.9284 35.5139 18.5289 35.7584C18.1294 36.003 17.8092 36.3489 17.604 36.7574C17.3989 37.1659 17.3169 37.6209 17.3674 38.0713C17.4178 38.5218 17.5986 38.9499 17.8895 39.3078C18.0106 39.4589 18.0852 39.6392 18.1047 39.8285C18.1243 40.0178 18.0881 40.2085 18.0003 40.3793C17.9125 40.55 17.7765 40.694 17.6076 40.7949C17.4387 40.8959 17.2437 40.9499 17.0444 40.9508V40.9508Z" fill="white"></path><path d="M28.8589 12.771C28.5733 12.7717 28.294 12.6916 28.0562 12.5407C27.8184 12.3898 27.6329 12.1749 27.5231 11.9233C27.4133 11.6717 27.3841 11.3947 27.4394 11.1272C27.4946 10.8598 27.6317 10.6141 27.8334 10.4211C28.035 10.2281 28.2921 10.0965 28.5721 10.0431C28.8521 9.98965 29.1424 10.0167 29.4063 10.1208C29.6702 10.225 29.8958 10.4015 30.0545 10.6281C30.2132 10.8547 30.2979 11.1211 30.2979 11.3937C30.2983 11.7584 30.1469 12.1084 29.877 12.3666C29.6072 12.6249 29.241 12.7703 28.8589 12.771V12.771ZM28.8589 10.7247C28.7204 10.7254 28.5853 10.7653 28.4706 10.8392C28.3558 10.9132 28.2666 11.0179 28.2142 11.1402C28.1617 11.2625 28.1484 11.3969 28.1758 11.5264C28.2033 11.656 28.2704 11.7748 28.3685 11.868C28.4667 11.9612 28.5916 12.0245 28.7274 12.0501C28.8633 12.0756 29.004 12.0621 29.1318 12.0114C29.2597 11.9606 29.3689 11.8749 29.4457 11.765C29.5226 11.655 29.5636 11.5258 29.5636 11.3937C29.5629 11.2158 29.4883 11.0455 29.3562 10.92C29.2241 10.7946 29.0452 10.7244 28.8589 10.7247V10.7247Z" fill="white"></path><path d="M11.6764 8.20103C11.2429 8.20249 10.8187 8.08112 10.4575 7.85229C10.0963 7.62347 9.81441 7.29748 9.64746 6.91561C9.48051 6.53374 9.43603 6.11316 9.51966 5.70715C9.60329 5.30113 9.81127 4.92794 10.1173 4.63483C10.4232 4.34172 10.8135 4.14188 11.2385 4.06061C11.6636 3.97935 12.1043 4.02031 12.505 4.17832C12.9056 4.33634 13.2481 4.60428 13.4891 4.94823C13.7301 5.29218 13.8588 5.69667 13.8588 6.11046C13.8588 6.66363 13.6291 7.19426 13.22 7.58611C12.811 7.97796 12.2559 8.19907 11.6764 8.20103V8.20103ZM11.6764 6.05881C11.6648 6.06063 11.6543 6.06659 11.6471 6.0755C11.6399 6.08441 11.6366 6.09558 11.6377 6.10677C11.6377 6.11161 11.6387 6.11641 11.6407 6.12088C11.6426 6.12536 11.6455 6.12943 11.649 6.13285C11.6526 6.13628 11.6569 6.139 11.6616 6.14085C11.6663 6.1427 11.6713 6.14366 11.6764 6.14366C11.6814 6.14366 11.6865 6.1427 11.6912 6.14085C11.6958 6.139 11.7001 6.13628 11.7037 6.13285C11.7073 6.12943 11.7101 6.12536 11.7121 6.12088C11.714 6.11641 11.715 6.11161 11.715 6.10677C11.7162 6.09558 11.7128 6.08441 11.7056 6.0755C11.6984 6.06659 11.688 6.06063 11.6764 6.05881V6.05881Z" fill="white"></path><path d="M63.6701 15.6272C63.3603 15.6282 63.0571 15.5414 62.799 15.3778C62.5409 15.2142 62.3395 14.9812 62.2202 14.7083C62.101 14.4353 62.0692 14.1347 62.1291 13.8446C62.1889 13.5544 62.3375 13.2877 62.5562 13.0783C62.775 12.8688 63.0539 12.726 63.3576 12.668C63.6614 12.6099 63.9764 12.6392 64.2627 12.7522C64.549 12.8651 64.7938 13.0566 64.966 13.3024C65.1383 13.5483 65.2302 13.8373 65.2302 14.1331C65.2302 14.5285 65.066 14.9078 64.7736 15.1878C64.4811 15.4679 64.0843 15.6259 63.6701 15.6272V15.6272ZM63.6701 13.5809C63.5555 13.5816 63.4438 13.6147 63.3489 13.676C63.254 13.7373 63.1803 13.8241 63.1371 13.9253C63.0938 14.0266 63.083 14.1378 63.1059 14.2449C63.1288 14.3521 63.1844 14.4503 63.2658 14.5273C63.3472 14.6043 63.4506 14.6565 63.563 14.6774C63.6755 14.6984 63.7919 14.687 63.8976 14.6448C64.0032 14.6026 64.0935 14.5315 64.1568 14.4404C64.2202 14.3494 64.2539 14.2424 64.2537 14.1331C64.2526 13.9861 64.1907 13.8454 64.0813 13.742C63.9719 13.6385 63.824 13.5806 63.6701 13.5809Z" fill="white"></path><path d="M6.09779 57.553C5.78793 57.5539 5.48474 57.4671 5.22663 57.3035C4.96851 57.1398 4.76708 56.9067 4.64786 56.6337C4.52863 56.3607 4.49697 56.0601 4.55689 55.7699C4.61681 55.4797 4.76561 55.213 4.98444 55.0036C5.20327 54.7942 5.48229 54.6515 5.78615 54.5936C6.09002 54.5357 6.40505 54.5652 6.69135 54.6783C6.97765 54.7914 7.22233 54.9831 7.3944 55.2291C7.56647 55.4751 7.65819 55.7643 7.65793 56.0601C7.65759 56.4553 7.49324 56.8342 7.20084 57.114C6.90844 57.3938 6.51182 57.5517 6.09779 57.553V57.553ZM6.09779 55.5067C5.98336 55.5076 5.87178 55.5409 5.77712 55.6023C5.68247 55.6637 5.60896 55.7505 5.56587 55.8517C5.52278 55.9529 5.51203 56.064 5.53498 56.171C5.55793 56.278 5.61355 56.3762 5.69483 56.4531C5.7761 56.53 5.87941 56.5822 5.99173 56.6031C6.10404 56.6241 6.22034 56.6129 6.32598 56.5708C6.43161 56.5288 6.52185 56.4579 6.58533 56.367C6.6488 56.2761 6.68268 56.1693 6.68268 56.0601C6.68098 55.9133 6.61853 55.7731 6.50895 55.6701C6.39937 55.5671 6.25157 55.5097 6.09779 55.5104V55.5067Z" fill="white"></path><path d="M51.5626 55.9841C51.2528 55.9851 50.9496 55.8983 50.6915 55.7346C50.4334 55.571 50.2319 55.3379 50.1127 55.0649C49.9935 54.7919 49.9618 54.4913 50.0217 54.2011C50.0817 53.9109 50.2305 53.6442 50.4493 53.4348C50.6681 53.2254 50.9471 53.0827 51.251 53.0248C51.5549 52.9669 51.8699 52.9963 52.1562 53.1095C52.4425 53.2226 52.6872 53.4143 52.8592 53.6603C53.0313 53.9062 53.123 54.1954 53.1228 54.4912C53.1228 54.8865 52.9585 55.2657 52.6661 55.5456C52.3736 55.8254 51.9768 55.9831 51.5626 55.9841V55.9841ZM51.5626 53.9378C51.4481 53.9386 51.3364 53.9716 51.2416 54.0329C51.1468 54.0941 51.0731 54.1808 51.0298 54.282C50.9865 54.3832 50.9756 54.4943 50.9984 54.6014C51.0212 54.7085 51.0767 54.8068 51.1579 54.8838C51.2392 54.9608 51.3425 55.0132 51.4548 55.0342C51.5672 55.0553 51.6835 55.0441 51.7892 55.0021C51.8949 54.9601 51.9853 54.8892 52.0488 54.7983C52.1123 54.7074 52.1462 54.6005 52.1462 54.4912C52.1456 54.344 52.0837 54.2031 51.9743 54.0993C51.8649 53.9956 51.7169 53.9375 51.5626 53.9378V53.9378Z" fill="white"></path><path d="M23.6798 52.552C22.4177 52.554 21.1687 52.3089 20.0098 51.8319C18.8509 51.355 17.8068 50.6562 16.9419 49.7789C16.0902 50.1204 15.1757 50.2964 14.2519 50.2966C10.396 50.2966 7.25899 47.2763 7.25899 43.5637C7.25707 42.7149 7.42317 41.8733 7.74855 41.0833C6.11392 40.7556 4.65115 39.8917 3.61427 38.6417C2.57738 37.3917 2.03186 35.8346 2.07242 34.2407C2.11299 32.6468 2.73708 31.1168 3.83634 29.9163C4.93559 28.7159 6.44057 27.9208 8.08995 27.6692C8.0848 27.5586 8.08222 27.4479 8.08222 27.3372C8.08222 23.3565 11.4112 20.1112 15.5299 20.0473C16.0556 16.0739 19.5894 12.9922 23.8563 12.9922C28.1888 12.9922 31.7652 16.1699 32.2045 20.2329C33.4882 19.9469 34.8301 20.0095 36.0784 20.4137C36.8514 16.7245 40.2577 13.9231 44.3069 13.9231C45.4358 13.921 46.5533 14.1386 47.5911 14.5628C48.6288 14.9869 49.5651 15.6087 50.3426 16.39C51.1742 16.0662 52.0636 15.8991 52.9617 15.8981C56.8176 15.8981 59.9546 18.9183 59.9546 22.631C59.9528 23.3779 59.8222 24.1195 59.5681 24.8261C60.6888 25.2211 61.6852 25.8827 62.463 26.7482C63.5628 27.9757 64.1672 29.5378 64.1672 31.1531C64.1672 32.7684 63.5628 34.3305 62.463 35.5581C61.6784 36.4313 60.6711 37.0967 59.5385 37.49C59.8802 38.4343 60.0544 39.4264 60.0538 40.4254C60.0538 45.3801 55.8681 49.4124 50.7239 49.4124C46.6529 49.4124 43.1822 46.8877 41.9119 43.378C41.8217 47.0156 38.7195 49.9474 34.9202 49.9474C33.5962 49.9482 32.2996 49.5867 31.1842 48.9058C30.3216 50.0338 29.1926 50.9518 27.8887 51.5853C26.5848 52.2189 25.1428 52.55 23.6798 52.552V52.552ZM17.2086 47.4879C17.3711 47.4875 17.5316 47.5226 17.6778 47.5903C17.8241 47.6581 17.9522 47.7568 18.0524 47.8789C18.7821 48.7731 19.734 49.4795 20.8218 49.9339C21.9097 50.3884 23.0991 50.5767 24.2823 50.4817C25.4656 50.3867 26.6054 50.0114 27.5984 49.3899C28.5914 48.7683 29.4063 47.9202 29.9693 46.9222C30.0477 46.7849 30.1579 46.6667 30.2915 46.5764C30.4252 46.4861 30.5787 46.4262 30.7404 46.4012C30.902 46.3763 31.0675 46.387 31.2241 46.4326C31.3808 46.4781 31.5244 46.5572 31.6441 46.6639C32.5337 47.458 33.7061 47.8998 34.9241 47.8998C37.5986 47.8998 39.7733 45.7982 39.7733 43.2145C39.7743 42.5786 39.6406 41.9491 39.3804 41.3637C39.3252 41.2398 39.2963 41.1067 39.2951 40.9721C39.294 40.8375 39.3207 40.7039 39.3737 40.5792C39.4267 40.4544 39.505 40.3409 39.6041 40.2451C39.7032 40.1493 39.8211 40.0731 39.9511 40.0208C40.6259 39.7495 41.2532 39.3812 41.8114 38.9288C41.9735 38.7975 42.1729 38.7152 42.3841 38.6924C42.5954 38.6695 42.809 38.7071 42.9978 38.8005C43.1866 38.8938 43.342 39.0386 43.4444 39.2165C43.5467 39.3944 43.5913 39.5973 43.5725 39.7995C43.5519 40.0221 43.5416 40.2262 43.5416 40.4242C43.5416 44.2512 46.7624 47.3649 50.7278 47.3649C54.6932 47.3649 57.914 44.2512 57.914 40.4242C57.9153 39.3247 57.6428 38.2406 57.1191 37.2613C57.0418 37.117 57.0016 36.9573 57.0017 36.7952C57.0019 36.6332 57.0424 36.4735 57.1199 36.3294C57.1974 36.1852 57.3097 36.0607 57.4476 35.9662C57.5854 35.8716 57.7448 35.8097 57.9127 35.7856C60.2587 35.4425 62.0353 33.449 62.0353 31.1531C62.0353 28.8572 60.2651 26.8625 57.9127 26.5194C57.7403 26.4942 57.5769 26.4291 57.4368 26.33C57.2967 26.2308 57.1841 26.1005 57.1087 25.9504C57.0333 25.8003 56.9974 25.6349 57.0042 25.4685C57.0109 25.3021 57.0601 25.1399 57.1474 24.9958C57.5831 24.2757 57.8119 23.4587 57.8109 22.6273C57.8109 20.0448 55.6362 17.9407 52.9617 17.9407C52.1326 17.9414 51.3177 18.1469 50.5964 18.5371C50.3724 18.658 50.1104 18.6981 49.8581 18.65C49.6058 18.6019 49.3799 18.4689 49.2217 18.2752C48.6431 17.556 47.8988 16.9735 47.0466 16.5728C46.1943 16.1721 45.2569 15.964 44.3069 15.9645C40.889 15.9645 38.0856 18.6503 38.0586 21.9521C38.057 22.1342 38.0047 22.3126 37.9069 22.469C37.8091 22.6254 37.6694 22.754 37.5022 22.8417C37.335 22.9294 37.1464 22.973 36.9556 22.9679C36.7649 22.9629 36.5791 22.9094 36.4173 22.813C35.706 22.388 34.8921 22.1454 34.0539 22.1083C33.2158 22.0712 32.3818 22.2411 31.6325 22.6014C31.4625 22.6822 31.2731 22.7184 31.0836 22.7064C30.8942 22.6943 30.7115 22.6344 30.5542 22.5328C30.3969 22.4313 30.2708 22.2916 30.1886 22.1282C30.1064 21.9648 30.0712 21.7835 30.0865 21.6029C30.1033 21.411 30.1123 21.234 30.1123 21.0802C30.1123 17.7501 27.3076 15.0422 23.8614 15.0422C20.4152 15.0422 17.617 17.7476 17.6118 21.0679C17.6118 21.0889 17.6118 21.1061 17.6118 21.1233C17.6127 21.27 17.5805 21.4152 17.5175 21.5491C17.4545 21.6829 17.362 21.8023 17.2465 21.8991C17.1309 21.9959 16.9949 22.0678 16.8477 22.1101C16.7004 22.1523 16.5454 22.1639 16.3931 22.144C16.1489 22.1115 15.9027 22.095 15.6562 22.0948C12.6647 22.0948 10.2298 24.4461 10.2298 27.3384C10.2299 27.6999 10.2684 28.0604 10.3445 28.4145C10.3771 28.5654 10.3737 28.7214 10.3343 28.8709C10.2949 29.0203 10.2207 29.1594 10.1171 29.2776C10.0136 29.3959 9.88337 29.4903 9.73624 29.5537C9.58912 29.6172 9.42887 29.6481 9.26747 29.6442H9.15796C6.43963 29.6442 4.22761 31.7815 4.22761 34.4083C4.22761 37.035 6.44092 39.1735 9.15409 39.1735C9.23998 39.1735 9.32887 39.1711 9.42077 39.1661C9.62311 39.1557 9.82441 39.2002 10.0013 39.2945C10.1783 39.3888 10.3236 39.529 10.4204 39.6989C10.5172 39.8688 10.5616 40.0615 10.5484 40.2545C10.5352 40.4475 10.4649 40.633 10.3458 40.7894C9.73049 41.5954 9.40058 42.5677 9.40403 43.565C9.40403 46.1474 11.5787 48.2515 14.2532 48.2515C15.1025 48.2509 15.9365 48.0354 16.6701 47.6268C16.8334 47.5356 17.0193 47.4876 17.2086 47.4879V47.4879Z" fill="white"></path></svg> 