<?xml version="1.0" encoding="UTF-8"?> <svg xmlns="http://www.w3.org/2000/svg" width="66" height="63" viewBox="0 0 66 63" fill="none"><path d="M7.19056 62.9201C6.96791 62.9204 6.7507 62.8545 6.56908 62.7315C6.38745 62.6086 6.25044 62.4348 6.17707 62.2341C6.10369 62.0335 6.0976 61.816 6.15963 61.6119C6.22166 61.4077 6.34874 61.2271 6.52322 61.0951C6.56187 61.0668 10.4242 58.1105 14.2299 52.9911C17.7083 48.3045 21.8657 40.7821 21.8657 31.5639C21.8657 22.3199 17.6928 14.7803 14.1912 10.0839C10.3856 4.97925 6.56187 2.05983 6.52322 2.03154C6.30044 1.86244 6.15717 1.61578 6.12491 1.34584C6.09266 1.07589 6.17407 0.804773 6.35123 0.592124C6.52839 0.379474 6.78679 0.242713 7.06959 0.211925C7.35239 0.181136 7.63642 0.258844 7.85919 0.427953C8.02538 0.550927 11.9612 3.55889 15.9407 8.89723C19.624 13.8371 24.0146 21.7801 24.0146 31.5639C24.0146 41.3478 19.6202 49.2895 15.9369 54.2319C11.9573 59.5678 8.02152 62.5733 7.85919 62.6987C7.66945 62.8434 7.43342 62.9216 7.19056 62.9201V62.9201Z" fill="white"></path><path d="M23.4581 62.922C23.2925 62.921 23.1293 62.8836 22.9813 62.8127C22.8333 62.7417 22.7045 62.6391 22.6048 62.5129C22.5051 62.3867 22.4372 62.2402 22.4064 62.0849C22.3757 61.9295 22.3829 61.7695 22.4274 61.6173C22.4725 61.4672 26.9262 46.4053 26.9262 31.5647C26.9262 16.7241 22.4713 1.66211 22.4262 1.51208C22.3479 1.25116 22.3815 0.971256 22.5194 0.733946C22.6574 0.496635 22.8884 0.321356 23.1618 0.246668C23.4351 0.171979 23.7284 0.204 23.977 0.335686C24.2256 0.467371 24.4092 0.687934 24.4875 0.948854C24.5338 1.10257 29.0687 16.4289 29.0687 31.5696C29.0687 46.7102 24.5338 62.0317 24.4875 62.1903C24.4216 62.402 24.2857 62.5876 24.1002 62.7195C23.9147 62.8514 23.6894 62.9224 23.4581 62.922V62.922Z" fill="white"></path><path d="M58.8755 62.9203C58.634 62.921 58.3994 62.8429 58.2107 62.699C58.0445 62.576 54.1088 59.568 50.1292 54.2297C46.4459 49.2898 42.0566 41.3481 42.0566 31.5642C42.0566 21.7803 46.4459 13.8374 50.1292 8.89749C54.1088 3.55915 58.0497 0.553649 58.2159 0.428215C58.3246 0.335073 58.4522 0.26414 58.5907 0.219773C58.7292 0.175406 58.8758 0.158542 59.0214 0.170217C59.167 0.181892 59.3086 0.221859 59.4374 0.287664C59.5662 0.353468 59.6796 0.44372 59.7706 0.552876C59.8615 0.662031 59.9281 0.787785 59.9663 0.922411C60.0045 1.05704 60.0134 1.19769 59.9926 1.33574C59.9717 1.47379 59.9216 1.60631 59.8451 1.72516C59.7686 1.84402 59.6675 1.94669 59.548 2.02689C59.4823 2.07608 55.6341 5.02993 51.8413 10.1309C48.3629 14.8187 44.2055 22.3399 44.2055 31.5593C44.2055 40.7787 48.3577 48.3048 51.8413 52.9914C55.647 58.1108 59.5093 61.0671 59.548 61.0966C59.7223 61.229 59.8491 61.41 59.9106 61.6144C59.9722 61.8187 59.9656 62.0363 59.8916 62.2369C59.8176 62.4375 59.68 62.6111 59.4979 62.7336C59.3158 62.8561 59.0983 62.9213 58.8755 62.9203V62.9203Z" fill="white"></path><path d="M42.6119 62.9214C42.3795 62.9216 42.1533 62.8498 41.9675 62.7167C41.7816 62.5836 41.646 62.3965 41.5812 62.1835C41.5348 62.031 37 46.7034 37 31.5689C37 16.4344 41.5361 1.10682 41.5825 0.948185C41.6615 0.688274 41.8451 0.46882 42.0933 0.33786C42.3414 0.206901 42.6337 0.175103 42.9063 0.249429C43.1789 0.323754 43.4096 0.498147 43.5478 0.734435C43.686 0.970722 43.7205 1.24966 43.6438 1.51018C43.5987 1.66144 39.145 16.7222 39.145 31.564C39.145 46.4058 43.5987 61.4666 43.6438 61.6166C43.6884 61.7688 43.6956 61.9289 43.6648 62.0842C43.6341 62.2395 43.5662 62.386 43.4665 62.5122C43.3668 62.6385 43.2379 62.7411 43.0899 62.812C42.9419 62.883 42.7788 62.9204 42.6132 62.9214H42.6119Z" fill="white"></path><path d="M33.0426 62.9194C32.7583 62.9194 32.4857 62.8116 32.2846 62.6197C32.0836 62.4278 31.9707 62.1676 31.9707 61.8962V1.22908C31.9707 0.957727 32.0836 0.697484 32.2846 0.505606C32.4857 0.313729 32.7583 0.205933 33.0426 0.205933C33.3269 0.205933 33.5995 0.313729 33.8005 0.505606C34.0015 0.697484 34.1144 0.957727 34.1144 1.22908V61.8962C34.1146 62.0307 34.087 62.1638 34.0332 62.288C33.9794 62.4122 33.9004 62.525 33.8009 62.6201C33.7013 62.7151 33.5831 62.7905 33.453 62.8418C33.3228 62.8932 33.1834 62.9196 33.0426 62.9194V62.9194Z" fill="white"></path><path d="M45.9248 32.5884H20.1187C19.8345 32.5884 19.5618 32.4806 19.3608 32.2887C19.1598 32.0969 19.0469 31.8366 19.0469 31.5653C19.0469 31.2939 19.1598 31.0337 19.3608 30.8418C19.5618 30.6499 19.8345 30.5421 20.1187 30.5421H45.9248C46.2091 30.5421 46.4817 30.6499 46.6828 30.8418C46.8838 31.0337 46.9967 31.2939 46.9967 31.5653C46.9967 31.8366 46.8838 32.0969 46.6828 32.2887C46.4817 32.4806 46.2091 32.5884 45.9248 32.5884V32.5884Z" fill="white"></path><path d="M45.9248 37.9997H20.1187C19.8345 37.9997 19.5618 37.8919 19.3608 37.7C19.1598 37.5081 19.0469 37.2479 19.0469 36.9765C19.0469 36.7052 19.1598 36.4449 19.3608 36.253C19.5618 36.0612 19.8345 35.9534 20.1187 35.9534H45.9248C46.2091 35.9534 46.4817 36.0612 46.6828 36.253C46.8838 36.4449 46.9967 36.7052 46.9967 36.9765C46.9967 37.2479 46.8838 37.5081 46.6828 37.7C46.4817 37.8919 46.2091 37.9997 45.9248 37.9997V37.9997Z" fill="white"></path><path d="M45.9248 27.17H20.1187C19.8345 27.17 19.5618 27.0622 19.3608 26.8703C19.1598 26.6784 19.0469 26.4182 19.0469 26.1468C19.0469 25.8755 19.1598 25.6152 19.3608 25.4233C19.5618 25.2315 19.8345 25.1237 20.1187 25.1237H45.9248C46.2091 25.1237 46.4817 25.2315 46.6828 25.4233C46.8838 25.6152 46.9967 25.8755 46.9967 26.1468C46.9967 26.4182 46.8838 26.6784 46.6828 26.8703C46.4817 27.0622 46.2091 27.17 45.9248 27.17V27.17Z" fill="white"></path><path d="M17.1558 62.9216C17.0401 62.9218 16.9251 62.9035 16.8157 62.8675C16.6823 62.825 16.5589 62.7578 16.4527 62.6698C16.3465 62.5818 16.2595 62.4746 16.1966 62.3545C16.1338 62.2343 16.0964 62.1036 16.0866 61.9696C16.0768 61.8357 16.0947 61.7012 16.1393 61.5738C20.0223 50.4864 24.9153 40.6681 30.6805 32.3796C35.3068 25.7316 40.5038 20.0526 46.1221 15.4952C55.7574 7.68996 63.2424 5.90314 63.5568 5.8355C63.8332 5.7719 64.1248 5.81573 64.3673 5.95733C64.6099 6.09893 64.7836 6.32671 64.8502 6.59057C64.9169 6.85442 64.871 7.13274 64.7226 7.36428C64.5743 7.59583 64.3356 7.76164 64.0592 7.82524C63.9574 7.8486 56.6373 9.62559 47.3872 17.1553C38.8187 24.1342 26.7975 37.6159 18.1723 62.2256C18.1004 62.4285 17.9636 62.6048 17.7813 62.7296C17.5989 62.8545 17.3802 62.9216 17.1558 62.9216Z" fill="white"></path></svg> 