<?xml version="1.0" encoding="UTF-8"?> <svg xmlns="http://www.w3.org/2000/svg" width="66" height="63" viewBox="0 0 66 63" fill="none"><path d="M33.0003 30.0687C24.4253 30.0687 16.3515 29.2608 10.2655 27.7925C3.55215 26.1729 0.148438 24.0147 0.148438 21.3793C0.148438 18.744 3.55215 16.5833 10.2655 14.9662C16.3515 13.4979 24.4253 12.6899 33.0003 12.6899C41.5753 12.6899 49.6491 13.4979 55.735 14.9662C62.4484 16.5858 65.8521 18.744 65.8521 21.3793C65.8521 24.0147 62.4484 26.1754 55.735 27.7925C49.6491 29.2608 41.5753 30.0687 33.0003 30.0687ZM33.0003 14.735C24.5979 14.735 16.7096 15.5221 10.7911 16.9486C4.51838 18.4624 2.28832 20.2812 2.28832 21.3757C2.28832 22.4701 4.51451 24.2914 10.7911 25.8027C16.7096 27.2305 24.5979 28.0163 33.0003 28.0163C41.4026 28.0163 49.2909 27.2293 55.2094 25.8027C61.4822 24.2889 63.7122 22.4701 63.7122 21.3757C63.7122 20.2812 61.4861 18.4599 55.2094 16.9486C49.2909 15.5221 41.4026 14.735 33.0003 14.735Z" fill="white"></path><path d="M32.9992 57.1954C25.9573 57.1954 19.3213 56.3813 14.3188 54.9044C8.84733 53.2898 5.95508 51.0762 5.95508 48.5097C5.95508 48.2384 6.06801 47.9781 6.26902 47.7862C6.47004 47.5944 6.74267 47.4866 7.02695 47.4866C7.31123 47.4866 7.58386 47.5944 7.78488 47.7862C7.98589 47.9781 8.09882 48.2384 8.09882 48.5097C8.09882 50.0039 10.7244 51.7071 14.9513 52.954C19.758 54.3732 26.1686 55.1541 33.0018 55.1541C39.835 55.1541 46.2456 54.3732 51.0523 52.954C55.2792 51.7071 57.9048 50.0026 57.9048 48.5097C57.9048 48.3754 57.9325 48.2423 57.9864 48.1182C58.0403 47.994 58.1192 47.8813 58.2187 47.7862C58.3183 47.6912 58.4364 47.6159 58.5665 47.5645C58.6965 47.513 58.8359 47.4866 58.9767 47.4866C59.1174 47.4866 59.2568 47.513 59.3869 47.5645C59.5169 47.6159 59.6351 47.6912 59.7346 47.7862C59.8341 47.8813 59.9131 47.994 59.9669 48.1182C60.0208 48.2423 60.0485 48.3754 60.0485 48.5097C60.0485 51.0811 57.1563 53.2947 51.6848 54.9044C46.6772 56.3813 40.0424 57.1954 32.9992 57.1954Z" fill="white"></path><path d="M58.9754 49.528C58.9027 49.5283 58.8301 49.5212 58.7589 49.5071C58.6211 49.4803 58.4902 49.4278 58.3736 49.3526C58.2571 49.2775 58.1572 49.1811 58.0796 49.0691C58.0021 48.957 57.9485 48.8315 57.9218 48.6997C57.8951 48.5678 57.8959 48.4323 57.9241 48.3007L63.7292 21.1737C63.7909 20.9125 63.9574 20.6847 64.193 20.5393C64.4286 20.3939 64.7146 20.3425 64.9895 20.3961C65.2644 20.4497 65.5063 20.604 65.6633 20.826C65.8203 21.0479 65.8798 21.3198 65.8292 21.5832L60.0241 48.7102C59.9748 48.941 59.8435 49.1485 59.6524 49.2975C59.4613 49.4465 59.2221 49.528 58.9754 49.528Z" fill="white"></path><path d="M7.02376 49.528C6.777 49.528 6.53785 49.4465 6.34675 49.2975C6.15566 49.1485 6.02436 48.941 5.97507 48.7102L0.169959 21.5832C0.119309 21.3198 0.178877 21.0479 0.335875 20.826C0.492874 20.604 0.734785 20.4497 1.00967 20.3961C1.28456 20.3425 1.57051 20.3939 1.80613 20.5393C2.04175 20.6847 2.20826 20.9125 2.2699 21.1737L8.07501 48.3007C8.10324 48.4323 8.10404 48.5678 8.07736 48.6997C8.05067 48.8315 7.99703 48.957 7.9195 49.0691C7.84197 49.1811 7.74207 49.2775 7.62551 49.3526C7.50895 49.4278 7.37802 49.4803 7.24019 49.5071C7.169 49.5212 7.09647 49.5283 7.02376 49.528V49.528Z" fill="white"></path><path d="M13.292 54.5231C13.0396 54.5229 12.7954 54.4377 12.6024 54.2824C12.4094 54.1272 12.2799 53.912 12.2369 53.6746L7.2756 26.3877C7.22691 26.1203 7.29152 25.8453 7.45521 25.6233C7.61889 25.4014 7.86825 25.2506 8.14843 25.2041C8.42861 25.1576 8.71665 25.2193 8.9492 25.3755C9.18174 25.5318 9.33974 25.7698 9.38843 26.0372L14.3484 53.3254C14.397 53.5926 14.3325 53.8674 14.1689 54.0892C14.0054 54.3111 13.7562 54.4618 13.4762 54.5084C13.4153 54.5181 13.3537 54.523 13.292 54.5231Z" fill="white"></path><path d="M32.9996 57.195C32.7154 57.1947 32.443 57.0868 32.2421 56.895C32.0411 56.7032 31.9281 56.4431 31.9277 56.1719V29.0449C31.9277 28.7735 32.0407 28.5133 32.2417 28.3214C32.4427 28.1295 32.7153 28.0217 32.9996 28.0217C33.2839 28.0217 33.5565 28.1295 33.7575 28.3214C33.9585 28.5133 34.0715 28.7735 34.0715 29.0449V56.1719C34.0715 56.3063 34.0437 56.4393 33.9899 56.5634C33.936 56.6876 33.8571 56.8004 33.7575 56.8954C33.658 56.9904 33.5398 57.0657 33.4098 57.1172C33.2797 57.1686 33.1404 57.195 32.9996 57.195V57.195Z" fill="white"></path><path d="M22.2034 56.5028C21.9386 56.5027 21.6833 56.409 21.4865 56.2399C21.2898 56.0707 21.1656 55.838 21.138 55.5867L18.1465 28.3957C18.1318 28.2621 18.1448 28.127 18.1848 27.9981C18.2247 27.8693 18.2909 27.7492 18.3795 27.6448C18.4681 27.5404 18.5773 27.4536 18.7011 27.3895C18.8248 27.3254 18.9605 27.2852 19.1005 27.2711C19.2405 27.2571 19.382 27.2695 19.517 27.3076C19.652 27.3458 19.7777 27.409 19.8871 27.4935C19.9966 27.5781 20.0874 27.6824 20.1546 27.8005C20.2218 27.9185 20.2639 28.0481 20.2786 28.1817L23.2701 55.3727C23.2849 55.5063 23.272 55.6415 23.2321 55.7703C23.1922 55.8992 23.1261 56.0193 23.0376 56.1238C22.9491 56.2283 22.8399 56.3151 22.7162 56.3793C22.5925 56.4435 22.4568 56.4838 22.3168 56.4979C22.2791 56.5014 22.2412 56.503 22.2034 56.5028V56.5028Z" fill="white"></path><path d="M52.9875 54.5231C52.9258 54.5231 52.8642 54.5181 52.8033 54.5084C52.6646 54.4855 52.5319 54.4367 52.4129 54.3649C52.2939 54.293 52.1909 54.1995 52.1098 54.0896C52.0287 53.9797 51.971 53.8557 51.9402 53.7246C51.9093 53.5934 51.9058 53.4578 51.9298 53.3254L56.8911 26.0372C56.9152 25.9048 56.9664 25.7782 57.0418 25.6647C57.1171 25.5511 57.2152 25.4529 57.3303 25.3755C57.4455 25.2982 57.5755 25.2432 57.7129 25.2138C57.8502 25.1844 57.9924 25.1811 58.1311 25.2041C58.2698 25.2271 58.4025 25.276 58.5214 25.3479C58.6403 25.4198 58.7433 25.5134 58.8243 25.6233C58.9054 25.7333 58.963 25.8573 58.9938 25.9885C59.0246 26.1196 59.028 26.2553 59.0039 26.3877L54.0439 53.6746C54.0006 53.9121 53.8709 54.1274 53.6777 54.2826C53.4844 54.4378 53.2401 54.523 52.9875 54.5231V54.5231Z" fill="white"></path><path d="M44.0764 56.503C44.0391 56.5048 44.0017 56.5048 43.9644 56.503C43.6815 56.4745 43.4221 56.3399 43.2431 56.1289C43.0641 55.918 42.9802 55.6478 43.0097 55.3777L46.0025 28.1868C46.0129 28.05 46.052 27.9166 46.1174 27.7945C46.1829 27.6724 46.2735 27.5642 46.3836 27.4762C46.4938 27.3881 46.6214 27.3222 46.7589 27.2822C46.8963 27.2422 47.0408 27.2289 47.1837 27.2433C47.3266 27.2576 47.465 27.2993 47.5907 27.3657C47.7164 27.4321 47.8268 27.522 47.9154 27.63C48.004 27.7379 48.0689 27.8618 48.1064 27.9942C48.1438 28.1267 48.153 28.2649 48.1333 28.4008L45.1419 55.5843C45.1148 55.8361 44.9909 56.0694 44.7941 56.2391C44.5973 56.4088 44.3416 56.5028 44.0764 56.503V56.503Z" fill="white"></path><path d="M56.001 60.5295C53.253 60.5295 50.5901 60.1016 49.772 58.969C48.9913 57.8929 48.95 56.3927 49.6651 55.0522C50.1649 54.1139 51.7869 51.9213 56.0332 51.8266C59.5245 51.7479 62.2699 52.5276 63.763 54.0217C64.1987 54.4493 64.5331 54.9611 64.7435 55.5227C64.954 56.0843 65.0357 56.6825 64.983 57.2768V57.2768C64.889 58.4758 63.763 59.3674 61.6334 59.9159C60.2086 60.2848 58.079 60.5295 56.001 60.5295ZM51.5228 57.7872C51.6864 57.9286 52.6191 58.3283 54.9007 58.4476C56.8049 58.5459 58.8945 58.407 60.4881 58.0786C62.2235 57.7183 62.7774 57.2596 62.8406 57.1182C62.8701 56.8104 62.8284 56.5002 62.7184 56.2095C62.6085 55.9188 62.4329 55.6547 62.2041 55.4359C61.1542 54.3808 58.9228 53.8114 56.0834 53.8754C53.9384 53.9233 52.2533 54.7116 51.5743 55.9831C51.2291 56.6312 51.2084 57.3371 51.5228 57.7872V57.7872Z" fill="white"></path><path d="M38.7853 62.5035H38.5804C36.6763 62.4948 32.6748 61.5369 32.0603 59.3565C31.831 58.5437 31.9856 57.336 34.0211 56.1961C36.867 54.5974 40.0195 55.1717 41.6453 55.6513C43.9308 56.3227 45.8052 57.5525 46.412 58.7822C46.7444 59.4561 46.7174 60.1436 46.3347 60.7179C45.822 61.4877 44.4796 62.5035 38.7853 62.5035ZM38.5907 60.4572C42.6553 60.4719 44.1562 59.9333 44.4783 59.6689C44.4781 59.6648 44.4781 59.6607 44.4783 59.6566C44.2309 59.1573 42.9942 58.1895 41.0166 57.6066C39.7283 57.2254 37.247 56.7654 35.111 57.962C34.2453 58.4453 34.1203 58.7712 34.1358 58.8228C34.3161 59.4598 36.7394 60.4461 38.5959 60.4547L38.5907 60.4572Z" fill="white"></path><path d="M33.0002 27.1029C25.8758 27.1029 19.1689 26.611 14.1136 25.7096C11.6052 25.2632 9.61997 24.7368 8.21313 24.1453C7.54193 23.8625 5.49609 23.0029 5.49609 21.3796C5.49609 19.7564 7.54193 18.8968 8.21313 18.6139C9.61997 18.0224 11.6052 17.4961 14.1136 17.0497C19.1689 16.1507 25.8758 15.6564 33.0002 15.6564C40.1245 15.6564 46.8314 16.1483 51.8868 17.0497C54.3951 17.4961 56.3804 18.0224 57.7872 18.6139C58.4584 18.8968 60.5043 19.7564 60.5043 21.3796C60.5043 23.0029 58.4584 23.8576 57.7872 24.1453C56.3804 24.7368 54.3951 25.2632 51.8868 25.7096C46.8314 26.6085 40.1245 27.1029 33.0002 27.1029ZM7.65272 21.3796C7.78155 21.5727 8.8122 22.7434 15.0399 23.7899C19.9058 24.6065 26.2842 25.0566 33.0002 25.0566C39.7161 25.0566 46.0945 24.6065 50.9605 23.7899C57.1882 22.7434 58.2175 21.5764 58.3476 21.3796C58.2188 21.1853 57.1882 20.0158 50.9605 18.9693C46.0945 18.1528 39.7161 17.7027 33.0002 17.7027C26.2842 17.7027 19.9058 18.1528 15.0399 18.9693C8.8122 20.0158 7.78284 21.1853 7.65272 21.3796Z" fill="white"></path><path d="M33.5942 22.23C33.3822 22.2301 33.1749 22.1702 32.9986 22.0578C32.8223 21.9455 32.6848 21.7857 32.6036 21.5988C32.5224 21.4119 32.5011 21.2062 32.5423 21.0077C32.5836 20.8093 32.6856 20.6269 32.8354 20.4837L34.116 19.2601C34.3875 18.9983 34.5399 18.6448 34.5399 18.2763C34.5399 17.9079 34.3875 17.5543 34.116 17.2925L32.8354 16.0628C32.1616 15.4174 31.7832 14.5434 31.7832 13.6322C31.7832 12.721 32.1616 11.847 32.8354 11.2016L34.116 9.97185C34.3882 9.71035 34.5409 9.35669 34.5409 8.98805C34.5409 8.61942 34.3882 8.26575 34.116 8.00425L32.8354 6.77451C32.1616 6.12911 31.7832 5.25508 31.7832 4.34391C31.7832 3.43274 32.1616 2.55871 32.8354 1.91331L34.116 0.683563C34.2154 0.588444 34.3336 0.512959 34.4636 0.461419C34.5936 0.409879 34.733 0.383293 34.8739 0.383179C35.0147 0.383065 35.1541 0.409425 35.2842 0.460754C35.4144 0.512083 35.5326 0.587376 35.6323 0.682333C35.7319 0.777291 35.811 0.890054 35.865 1.01418C35.919 1.13831 35.9469 1.27138 35.947 1.40579C35.9471 1.54019 35.9195 1.6733 35.8657 1.79752C35.8119 1.92174 35.7331 2.03463 35.6336 2.12975L34.353 3.3595C34.0808 3.62099 33.928 3.97466 33.928 4.34329C33.928 4.71193 34.0808 5.0656 34.353 5.32709L35.6336 6.55069C36.3074 7.19609 36.6857 8.07012 36.6857 8.98129C36.6857 9.89246 36.3074 10.7665 35.6336 11.4119L34.353 12.6416C34.0808 12.9031 33.928 13.2568 33.928 13.6254C33.928 13.9941 34.0808 14.3477 34.353 14.6092L35.6336 15.839C36.3074 16.4844 36.6857 17.3584 36.6857 18.2696C36.6857 19.1807 36.3074 20.0548 35.6336 20.7002L34.353 21.9299C34.2536 22.0253 34.1353 22.101 34.0051 22.1525C33.8748 22.204 33.7352 22.2303 33.5942 22.23Z" fill="white"></path><path d="M45.3813 22.23C45.1696 22.2295 44.9628 22.1692 44.7868 22.0568C44.6109 21.9443 44.4738 21.7848 44.3926 21.5981C44.3115 21.4114 44.2901 21.206 44.331 21.0077C44.3719 20.8094 44.4733 20.6271 44.6225 20.4837L45.9031 19.2601C46.1746 18.9983 46.327 18.6448 46.327 18.2763C46.327 17.9079 46.1746 17.5543 45.9031 17.2925L44.6225 16.0628C43.9487 15.4174 43.5703 14.5434 43.5703 13.6322C43.5703 12.721 43.9487 11.847 44.6225 11.2016L45.9031 9.97185C46.1753 9.71035 46.328 9.35669 46.328 8.98805C46.328 8.61942 46.1753 8.26575 45.9031 8.00425L44.6225 6.77451C43.9487 6.12911 43.5703 5.25508 43.5703 4.34391C43.5703 3.43274 43.9487 2.55871 44.6225 1.91331L45.9031 0.683563C46.104 0.491461 46.3766 0.38341 46.661 0.383179C46.9453 0.382948 47.2182 0.490558 47.4194 0.682333C47.6207 0.874109 47.7339 1.13434 47.7341 1.40579C47.7343 1.67723 47.6216 1.93764 47.4207 2.12975L46.1401 3.3595C45.8679 3.62099 45.7151 3.97466 45.7151 4.34329C45.7151 4.71193 45.8679 5.0656 46.1401 5.32709L47.4207 6.55069C48.0945 7.19609 48.4729 8.07012 48.4729 8.98129C48.4729 9.89246 48.0945 10.7665 47.4207 11.4119L46.1401 12.6416C45.8679 12.9031 45.7151 13.2568 45.7151 13.6254C45.7151 13.9941 45.8679 14.3477 46.1401 14.6092L47.4207 15.839C48.0945 16.4844 48.4729 17.3584 48.4729 18.2696C48.4729 19.1807 48.0945 20.0548 47.4207 20.7002L46.1401 21.9299C46.0407 22.0253 45.9224 22.101 45.7922 22.1525C45.6619 22.204 45.5223 22.2303 45.3813 22.23Z" fill="white"></path><path d="M21.4477 22.2298C21.2357 22.2299 21.0285 22.17 20.8521 22.0576C20.6758 21.9453 20.5384 21.7855 20.4571 21.5986C20.3759 21.4117 20.3546 21.206 20.3958 21.0075C20.4371 20.8091 20.5391 20.6267 20.6889 20.4835L21.9682 19.2599C22.2398 18.9981 22.3921 18.6446 22.3921 18.2761C22.3921 17.9077 22.2398 17.5542 21.9682 17.2923L20.6889 16.0626C20.0151 15.4172 19.6367 14.5432 19.6367 13.632C19.6367 12.7208 20.0151 11.8468 20.6889 11.2014L21.9682 9.97165C22.2404 9.71016 22.3932 9.35649 22.3932 8.98785C22.3932 8.61922 22.2404 8.26555 21.9682 8.00405L20.6889 6.77431C20.0151 6.12891 19.6367 5.25488 19.6367 4.34371C19.6367 3.43254 20.0151 2.55851 20.6889 1.91311L21.9682 0.683364C22.1711 0.491262 22.4457 0.383988 22.7315 0.385141C23.0174 0.386294 23.291 0.49578 23.4922 0.689513C23.6935 0.883246 23.8059 1.14536 23.8047 1.41818C23.8035 1.69101 23.6888 1.9522 23.4858 2.1443L22.2065 3.37405C21.9343 3.63555 21.7815 3.98922 21.7815 4.35785C21.7815 4.72649 21.9343 5.08015 22.2065 5.34165L23.4858 6.56525C24.1596 7.21065 24.538 8.08467 24.538 8.99585C24.538 9.90702 24.1596 10.781 23.4858 11.4264L22.2065 12.6562C21.9343 12.9177 21.7815 13.2714 21.7815 13.64C21.7815 14.0086 21.9343 14.3623 22.2065 14.6238L23.4858 15.8535C24.1596 16.4989 24.538 17.373 24.538 18.2841C24.538 19.1953 24.1596 20.0693 23.4858 20.7147L22.2065 21.9445C22.003 22.1315 21.7302 22.2341 21.4477 22.2298V22.2298Z" fill="white"></path></svg> 