<?xml version="1.0" encoding="UTF-8"?> <svg xmlns="http://www.w3.org/2000/svg" width="66" height="63" viewBox="0 0 66 63" fill="none"><path d="M65.9549 26.9733C65.9549 25.317 65.9678 23.5313 65.9678 21.9527C65.9808 20.5164 65.9808 19.2224 65.9808 18.2907C65.9808 18.2907 65.9808 18.2907 65.9808 18.2778C65.9808 17.9155 65.9808 17.6179 65.9678 17.3849C65.929 15.2111 62.1506 13.4254 58.5663 12.3902C58.4886 12.3643 58.411 12.3384 58.3463 12.3255C57.4923 12.0797 56.6383 11.8856 55.8748 11.7432C52.0058 11.0057 50.3884 11.1221 49.6767 11.3421L45.6266 10.7469C44.8761 10.0093 42.9998 9.05176 38.2897 9C38.0956 9 37.9015 9 37.7204 9C37.6816 9 37.6298 9 37.591 9C32.428 9.01294 29.9566 9.85402 28.4685 10.3716C28.3132 10.4234 28.1579 10.4751 28.0156 10.5269C27.4074 10.721 24.056 11.7044 20.1612 12.8431C17.1851 13.7101 13.8078 14.7064 11.0646 15.5216C8.78717 16.1945 6.96267 16.7509 6.16041 17.0097C3.31367 17.9413 0.00110061 19.8176 0.00110061 22.0821V23.2078C0.00110061 23.2725 0.00110061 23.3243 0.00110061 23.389V34.5042C0.00110061 34.5818 0.00110061 34.6465 0.00110061 34.7112C-0.0247788 36.3805 0.376354 37.4286 4.36179 40.3918C8.3731 43.3808 20.2776 52.2057 22.348 53.435C22.4386 53.4868 22.5292 53.5385 22.6197 53.5903C23.9137 54.3667 26.0358 55.6477 28.8567 55.6477C30.7459 55.6477 32.9456 55.0783 35.4171 53.3962C41.1235 49.5143 61.84 34.9183 63.8975 33.4173C65.9549 31.9033 66.0325 31.0752 65.9937 28.4096C65.9678 27.9955 65.9549 27.5167 65.9549 26.9733ZM29.5684 35.0994C29.5037 35.0865 29.4649 35.0865 29.4002 35.0994C29.2708 35.0994 26.0876 35.1771 22.8268 30.9716C22.5162 30.5705 22.2057 30.1953 21.921 29.8459C24.3795 30.7905 26.9157 31.5281 29.4002 31.6833C29.6589 31.6963 29.9177 31.7092 30.1895 31.7092C32.0657 31.7092 34.1361 31.3081 36.3488 30.6352C36.0771 30.9716 35.7924 31.321 35.5206 31.7092C33.6832 34.2325 31.7293 34.9183 30.5906 35.0865C30.2412 35.0865 29.9048 35.0994 29.5684 35.0994ZM14.7006 24.3077C14.403 24.1783 14.1054 24.0489 13.8207 23.9195C14.1054 23.9195 14.3901 23.9195 14.6747 23.9195C16.8486 23.9195 19.126 23.816 20.7564 23.4796C23.5126 22.9102 25.3888 21.5515 26.8898 20.4517C27.6792 19.8823 28.365 19.3777 28.9214 19.1965C30.4224 18.7048 31.6775 19.1706 31.6775 19.1706C32.0916 19.3388 32.5704 19.2224 32.8809 18.8989C33.3468 18.3813 33.8126 17.9802 34.2525 17.592C35.3136 16.6733 36.4005 15.7287 37.0346 13.6195C37.4487 12.222 37.8757 11.4844 38.1215 11.148C38.1733 11.148 38.225 11.148 38.2768 11.148C40.0884 11.1739 41.3565 11.3292 42.2493 11.5232C41.5117 12.2996 40.9553 13.503 40.5542 15.1205C40.386 15.8451 40.2307 16.5568 40.0754 17.2426C39.1696 21.4221 38.5227 23.816 35.9088 24.2171C35.2618 24.3206 34.7831 24.0489 33.9161 23.5184C33.1527 23.0525 32.1822 22.4703 30.8494 22.2244C29.0767 21.9009 28.1709 22.4185 27.2133 22.9878C26.5017 23.4019 25.6994 23.8677 24.1984 24.243C21.494 24.9029 19.7989 25.7699 18.9837 26.2616C18.3755 25.9899 17.7803 25.7052 17.1851 25.4334C16.6286 25.1747 16.0852 24.9288 15.5417 24.6829C15.27 24.5665 14.9982 24.4371 14.7006 24.3077ZM7.84257 18.7436C8.77423 18.4589 10.12 18.0578 11.6598 17.592C14.83 16.6991 16.551 16.4662 18.5308 16.1945C19.3201 16.091 20.1224 15.9745 21.0799 15.8192C22.2186 15.6251 22.995 15.8451 23.8231 16.0651C25.143 16.4274 26.644 16.8415 28.9861 15.3016C31.5223 13.6324 33.7479 12.5972 35.3395 11.9632C35.223 12.2738 35.1066 12.6231 34.9901 12.9984C34.5372 14.4994 33.8385 15.1075 32.868 15.9486C32.5316 16.2462 32.1563 16.5697 31.7681 16.945C31.0047 16.7897 29.7236 16.6603 28.2744 17.1261C27.3816 17.4108 26.5793 18.006 25.6347 18.6919C24.2243 19.7141 22.6327 20.8787 20.3294 21.3574C16.7839 22.0821 9.55062 21.6033 8.3084 21.5127C7.11795 20.9822 6.10865 20.4905 5.6687 20.1799C5.91455 19.7529 6.87209 19.1189 7.84257 18.7436ZM25.8547 26.0157C26.7475 26.8439 28.779 27.7626 32.9068 29.2636C31.6905 29.4965 30.5518 29.6 29.5295 29.5353C26.9157 29.3671 24.2372 28.5002 21.5587 27.4003C22.348 27.0639 23.3961 26.6886 24.7289 26.3522C25.13 26.2357 25.5053 26.1322 25.8547 26.0157ZM42.0552 28.4355C44.8114 27.2191 47.6969 25.7699 50.6213 24.2559C53.041 23.0008 55.3961 21.7715 57.4535 20.6716C57.4535 20.6716 57.4664 20.6716 57.4664 20.6587C60.339 19.1318 62.6423 17.8896 63.7292 17.2944C63.781 17.3591 63.8198 17.4238 63.8328 17.4496C63.8328 17.5273 63.8328 17.6049 63.8328 17.6955C60.4555 19.6623 42.2364 30.2988 38.2121 32.4338C37.8886 32.6021 37.5651 32.7703 37.2416 32.9385C39.2214 30.2341 41.0588 28.966 42.0552 28.4355ZM61.7753 15.9098C60.8049 16.4274 59.4591 17.165 57.8546 18.019C57.8287 16.4015 58.2816 15.2628 58.631 14.6547C59.6662 14.9782 60.6366 15.3534 61.4777 15.7675C61.5812 15.8063 61.6718 15.8581 61.7753 15.9098ZM56.5089 14.0853C56.0042 15.1722 55.5125 16.8674 55.7713 19.1318C53.8821 20.1282 51.7859 21.241 49.6249 22.3538C47.1017 23.6607 44.5526 24.9547 42.0681 26.0675C41.9129 26.1193 41.6023 26.2487 41.1753 26.4686C39.5061 27.2062 37.8886 27.8532 36.3358 28.3578C36.2194 28.2284 36.077 28.1249 35.9088 28.0732C35.663 27.9826 35.3524 27.8661 34.9642 27.7367C33.7608 27.3097 31.9493 26.6627 30.3447 26.0028C29.2837 25.5628 28.5849 25.2264 28.1191 24.9806C28.1838 24.9417 28.2356 24.9159 28.3003 24.877C29.1543 24.3853 29.4778 24.1912 30.4612 24.3724C31.4058 24.5406 32.0787 24.9547 32.7904 25.3946C33.722 25.964 34.7831 26.598 36.2323 26.378C37.6686 26.1581 38.7168 25.5499 39.5061 24.6959C39.2214 25.6534 39.2861 26.2745 39.299 26.378L41.4341 26.0675C41.4341 26.0675 41.4341 26.0804 41.4341 26.0934C41.4341 26.0546 41.3694 25.2782 42.1717 24.0489C42.4563 23.6089 43.2457 23.0396 44.0867 22.4314C45.8465 21.1633 48.0334 19.5718 49.0038 17.0485C49.5991 15.4828 50.3884 14.0465 50.7895 13.3607C51.4236 13.3219 52.7693 13.3736 55.4608 13.8783C55.8231 13.93 56.1724 14.0077 56.5089 14.0853ZM48.3568 13.3348C47.9298 14.1371 47.4381 15.1593 47.0111 16.2721C46.2735 18.2001 44.449 19.52 42.8445 20.6846C42.1458 21.1892 41.4988 21.655 41.0071 22.1338C41.5117 20.801 41.8482 19.2871 42.1846 17.7343C42.3269 17.0614 42.4822 16.3627 42.6504 15.664C43.181 13.4771 43.8668 12.9207 44.1385 12.7784C44.3714 12.6619 44.5526 12.7266 44.5784 12.7396C44.5526 12.7266 44.5396 12.7137 44.5396 12.7137C44.6561 12.7784 44.7725 12.8172 44.9019 12.8302L48.3568 13.3348ZM28.6885 12.5843C28.8437 12.5325 28.999 12.4808 29.1672 12.4161C29.439 12.3255 29.7366 12.222 30.073 12.1185C29.3484 12.5325 28.5849 12.9984 27.7827 13.516C26.2558 14.5123 25.5441 14.3182 24.3795 14.0077C24.3019 13.9818 24.2243 13.9689 24.1337 13.943C26.5275 13.2313 28.2485 12.7266 28.6885 12.5843ZM3.44306 20.6716C3.5854 21.6033 4.58176 22.2373 7.57084 23.5701C7.59672 23.5831 7.60966 23.5831 7.63554 23.596C8.39898 23.9324 9.29182 24.3206 10.327 24.7606C11.3881 25.2135 12.6044 25.7311 13.8337 26.2875C14.196 26.4557 14.5712 26.611 14.9465 26.7921C16.6416 27.6073 18.3626 28.7719 21.1187 32.3044C21.3516 32.6021 21.5846 32.8867 21.8175 33.1455C21.3516 32.9385 20.8858 32.7056 20.3941 32.4468C12.462 28.2931 4.32296 23.8677 2.14909 22.6773V22.095C2.14909 21.8103 2.58904 21.2669 3.44306 20.6716ZM62.6035 31.6833C60.559 33.1843 39.8813 47.7415 34.1879 51.6105C29.1672 55.0266 25.7511 52.9692 23.7196 51.7399C23.6161 51.6752 23.5255 51.6234 23.4349 51.5717C21.5846 50.4718 10.6505 42.3974 5.62988 38.6578C2.12322 36.044 2.12322 35.4876 2.13615 34.7371C2.13615 34.6595 2.13615 34.5818 2.13615 34.5042V25.11C5.24169 26.8051 12.3844 30.674 19.3848 34.336C23.4996 36.484 26.8381 37.2604 29.6589 37.2604C29.6719 37.2604 29.6978 37.2604 29.7107 37.2604C29.7625 37.2604 29.8142 37.2604 29.866 37.2604C29.9954 37.2604 30.1377 37.2604 30.3059 37.2474C33.9938 37.0921 36.7758 35.6299 39.2085 34.336C42.9998 32.3303 58.6698 23.2078 63.8198 20.1929C63.8198 20.7363 63.8198 21.3186 63.8069 21.9268C63.7939 23.5054 63.7939 25.2911 63.7939 26.9603C63.7939 27.5297 63.8069 28.0085 63.8069 28.4355C63.8586 30.7646 63.8586 30.7646 62.6035 31.6833Z" fill="white"></path><path d="M50.5703 17.8766C50.5703 18.8342 51.3467 19.6105 52.3042 19.6105C53.2618 19.6105 54.0382 18.8342 54.0382 17.8766C54.0382 16.9191 53.2618 16.1427 52.3042 16.1427C51.3467 16.1427 50.5703 16.9191 50.5703 17.8766ZM52.3042 17.4496C52.5372 17.4496 52.7183 17.6437 52.7183 17.8637C52.7183 18.0837 52.5242 18.2778 52.3042 18.2778C52.0843 18.2778 51.8902 18.0837 51.8902 17.8637C51.8902 17.6437 52.0713 17.4496 52.3042 17.4496Z" fill="white"></path><path d="M36.2066 21.668C37.1641 21.668 37.9405 20.8917 37.9405 19.9341C37.9405 18.9766 37.1641 18.2002 36.2066 18.2002C35.249 18.2002 34.4727 18.9766 34.4727 19.9341C34.4727 20.8917 35.249 21.668 36.2066 21.668ZM36.2066 19.5071C36.4395 19.5071 36.6206 19.7012 36.6206 19.9212C36.6206 20.1412 36.4265 20.3352 36.2066 20.3352C35.9866 20.3352 35.7925 20.1412 35.7925 19.9212C35.7925 19.7012 35.9737 19.5071 36.2066 19.5071Z" fill="white"></path></svg> 