<?xml version="1.0" encoding="UTF-8"?> <svg xmlns="http://www.w3.org/2000/svg" width="66" height="63" viewBox="0 0 66 63" fill="none"><path d="M65.9871 27.4138C65.9871 27.3617 65.9871 27.3097 65.9741 27.2576C65.9741 27.2446 65.9741 27.2315 65.9741 27.2315C65.9612 27.1794 65.9482 27.1274 65.9353 27.0883V27.0753C65.9224 27.0232 65.8965 26.9841 65.8835 26.9451C65.8835 26.9451 65.8835 26.9321 65.8706 26.9321C65.8447 26.893 65.8189 26.8409 65.793 26.8019C65.793 26.7888 65.78 26.7888 65.78 26.7758C65.7542 26.7367 65.7153 26.6977 65.6765 26.6586C65.6377 26.6196 65.5989 26.5935 65.5601 26.5675C65.5471 26.5675 65.5471 26.5545 65.5342 26.5545C65.4954 26.5284 65.4566 26.5024 65.4048 26.4763C65.3919 26.4763 65.3919 26.4633 65.379 26.4633C65.3272 26.4373 65.2754 26.4112 65.2237 26.3982L32.4113 16.0338C32.1913 15.9687 31.9714 15.9687 31.7514 16.0338L28.6203 17.0624V11.8541C28.6203 9.73175 26.8865 8 24.7646 8C22.6426 8 20.9088 9.73175 20.9088 11.8541V12.5703C20.9088 13.1692 21.3876 13.651 21.9828 13.651C22.5779 13.651 23.0566 13.1692 23.0566 12.5703V11.8541C23.0566 10.9166 23.82 10.1614 24.7646 10.1614C25.7091 10.1614 26.4725 10.9166 26.4725 11.8541V17.7525L19.5891 20.0181V15.2135C19.5891 13.0911 17.8553 11.3593 15.7334 11.3593C13.6114 11.3593 11.8777 13.0911 11.8777 15.2135V15.9296C11.8777 16.5285 12.3564 17.0103 12.9516 17.0103C13.5468 17.0103 14.0255 16.5285 14.0255 15.9296V15.2135C14.0255 14.276 14.7889 13.5208 15.7334 13.5208C16.6779 13.5208 17.4413 14.276 17.4413 15.2135V20.7212L0.750447 26.2029H0.737496H0.724561C0.672806 26.2159 0.633993 26.242 0.582239 26.268C0.582239 26.268 0.569303 26.268 0.569303 26.281C0.530487 26.3071 0.478733 26.3331 0.439917 26.3591C0.426978 26.3591 0.426969 26.3722 0.41403 26.3722C0.375214 26.3982 0.336411 26.4373 0.297595 26.4763C0.258779 26.5154 0.232892 26.5545 0.207015 26.5935C0.207015 26.6065 0.19408 26.6065 0.19408 26.6196C0.168202 26.6586 0.142328 26.6977 0.116451 26.7498C0.116451 26.7498 0.116454 26.7628 0.103515 26.7628C0.0776382 26.8019 0.0646964 26.8539 0.0517577 26.893V26.906C0.0388191 26.9581 0.0258741 26.9972 0.0129355 27.0492C0.0129355 27.0623 0.0129355 27.0623 0.0129355 27.0753C-3.15904e-06 27.1274 0 27.1794 0 27.2315V42.4787C0 42.9345 0.284653 43.3381 0.69869 43.4943L32.1266 55.1218C32.1396 55.1218 32.1396 55.1218 32.1525 55.1348C32.1655 55.1348 32.1913 55.1478 32.2043 55.1478C32.2172 55.1478 32.2302 55.1609 32.256 55.1609C32.269 55.1609 32.2948 55.1739 32.3078 55.1739C32.3207 55.1739 32.3466 55.1739 32.3595 55.1869C32.3725 55.1869 32.3854 55.1869 32.3984 55.1869C32.4372 55.1869 32.463 55.1869 32.5019 55.1869C32.5407 55.1869 32.5666 55.1869 32.6054 55.1869C32.6183 55.1869 32.6442 55.1869 32.6571 55.1739C32.6701 55.1739 32.6959 55.1739 32.7089 55.1609C32.7348 55.1609 32.7477 55.1478 32.7736 55.1478C32.7865 55.1478 32.7994 55.1479 32.8124 55.1348C32.8383 55.1348 32.8512 55.1218 32.8771 55.1088C32.89 55.1088 32.89 55.1088 32.903 55.0958L65.3143 42.4527C65.7283 42.2964 66 41.8928 66 41.4371V27.4138C65.9871 27.4138 65.9871 27.4138 65.9871 27.4138ZM26.4725 20.0311V21.6326L19.5891 23.8982V22.2967L26.4725 20.0311ZM16.1086 27.3097L17.4413 26.867V27.7524L16.1086 27.3097ZM26.4725 30.7862L21.9569 29.2758L26.4725 27.8565V30.7862ZM28.6203 26.3982C28.6203 26.3852 28.6203 26.3852 28.6203 26.3982V23.2081L32.4242 21.9582L49.7361 27.4268L32.683 32.8825L28.6203 31.5153V26.3982ZM26.4725 25.5909L19.5891 27.7524V26.1638L26.4725 23.8982V25.5909ZM17.4413 22.9998V24.6014L12.3435 26.281C11.9036 26.4243 11.606 26.8409 11.606 27.3097C11.606 27.7784 11.9036 28.1951 12.3435 28.3383L32.3466 35.057C32.463 35.096 32.5666 35.109 32.683 35.109C32.7865 35.109 32.903 35.096 33.0065 35.057L53.6436 28.4555C54.0964 28.3122 54.394 27.8956 54.394 27.4268C54.394 26.9581 54.0835 26.5414 53.6436 26.3982L32.7348 19.7837C32.5148 19.7186 32.2948 19.7186 32.0749 19.7837L28.6203 20.9165V19.315L32.0878 18.1691L61.3292 27.4008L32.5019 36.6194L4.50265 27.2446L17.4413 22.9998ZM2.14781 28.7419L31.415 38.5725V52.5698L2.14781 41.7366V28.7419ZM33.5758 52.5307V38.5725L63.8263 28.8982V40.734L33.5758 52.5307Z" fill="white"></path></svg> 