<?xml version="1.0" encoding="UTF-8"?> <svg xmlns="http://www.w3.org/2000/svg" width="66" height="63" viewBox="0 0 66 63" fill="none"><path d="M16.0318 55.7612H5.10312C4.81884 55.7612 4.54621 55.6534 4.34519 55.4615C4.14418 55.2696 4.03125 55.0094 4.03125 54.738V9.42916C4.03108 9.29475 4.05869 9.16163 4.1125 9.03742C4.1663 8.91322 4.24525 8.80036 4.34482 8.70532C4.44438 8.61028 4.56261 8.53492 4.69273 8.48356C4.82286 8.4322 4.96231 8.40584 5.10312 8.40601H16.0318C16.3161 8.40601 16.5888 8.5138 16.7898 8.70568C16.9908 8.89756 17.1037 9.1578 17.1037 9.42916V54.738C17.1034 55.0093 16.9903 55.2693 16.7894 55.4611C16.5884 55.6529 16.316 55.7608 16.0318 55.7612ZM6.17499 53.7149H14.96V10.4523H6.17499V53.7149Z" fill="white"></path><path d="M19.9149 59.7781H1.22031C0.936136 59.7778 0.663699 59.6699 0.462758 59.4781C0.261817 59.2863 0.148778 59.0262 0.148438 58.755V58.2053C0.149802 57.0149 0.645797 55.8737 1.5276 55.0319C2.4094 54.1902 3.60499 53.7168 4.85205 53.7155H16.2832C17.5303 53.7168 18.7258 54.1902 19.6077 55.0319C20.4895 55.8737 20.9854 57.0149 20.9868 58.2053V58.755C20.9865 59.0262 20.8734 59.2863 20.6725 59.4781C20.4716 59.6699 20.1991 59.7778 19.9149 59.7781ZM2.33985 57.7318H18.7941C18.6783 57.1774 18.3648 56.6784 17.9071 56.3197C17.4493 55.9609 16.8755 55.7647 16.2832 55.7642H4.85205C4.25969 55.7649 3.68582 55.9612 3.22789 56.3198C2.76995 56.6785 2.45618 57.1774 2.33985 57.7318V57.7318Z" fill="white"></path><path d="M16.2832 10.4525H4.85205C3.60499 10.4512 2.4094 9.9778 1.5276 9.13608C0.645797 8.29436 0.149802 7.15311 0.148438 5.96274V5.41058C0.14912 5.13965 0.26235 4.88004 0.463291 4.6887C0.664232 4.49735 0.936477 4.38989 1.22031 4.38989H19.9149C20.1988 4.38989 20.471 4.49735 20.672 4.6887C20.8729 4.88004 20.9861 5.13965 20.9868 5.41058V5.96028C20.9861 7.15108 20.4904 8.29295 19.6086 9.13521C18.7267 9.97746 17.5307 10.4512 16.2832 10.4525V10.4525ZM2.33985 6.43619C2.45618 6.99061 2.76995 7.48951 3.22789 7.84818C3.68582 8.20684 4.25969 8.40316 4.85205 8.40379H16.2832C16.8755 8.40334 17.4493 8.20706 17.9071 7.84834C18.3648 7.48963 18.6783 6.99062 18.7941 6.43619H2.33985Z" fill="white"></path><path d="M38.4648 55.7612H27.5348C27.2506 55.7608 26.9782 55.6529 26.7772 55.4611C26.5763 55.2693 26.4632 55.0093 26.4629 54.738V9.42916C26.4629 9.1578 26.5758 8.89756 26.7768 8.70568C26.9778 8.5138 27.2505 8.40601 27.5348 8.40601H38.4648C38.749 8.40601 39.0217 8.5138 39.2227 8.70568C39.4237 8.89756 39.5366 9.1578 39.5366 9.42916V54.738C39.5363 55.0093 39.4233 55.2693 39.2223 55.4611C39.0214 55.6529 38.7489 55.7608 38.4648 55.7612ZM28.6066 53.7149H37.3929V10.4523H28.6066V53.7149Z" fill="white"></path><path d="M42.3472 59.7781H23.6539C23.3696 59.7781 23.097 59.6703 22.896 59.4784C22.695 59.2866 22.582 59.0263 22.582 58.755V58.2053C22.5831 57.015 23.0788 55.8738 23.9604 55.032C24.842 54.1902 26.0374 53.7168 27.2844 53.7155H38.7168C39.9633 53.7174 41.1581 54.1912 42.0391 55.0329C42.9202 55.8746 43.4155 57.0154 43.4165 58.2053V58.755C43.4165 59.0259 43.304 59.2858 43.1035 59.4776C42.903 59.6694 42.6311 59.7775 42.3472 59.7781V59.7781ZM24.7734 57.7318H41.2264C41.1101 57.1776 40.7965 56.6789 40.3389 56.3202C39.8812 55.9616 39.3076 55.7651 38.7155 55.7642H27.2844C26.6922 55.7649 26.1185 55.9613 25.6607 56.3199C25.203 56.6786 24.8895 57.1775 24.7734 57.7318V57.7318Z" fill="white"></path><path d="M38.7168 10.4529H27.2844C26.0374 10.4516 24.842 9.97815 23.9604 9.13639C23.0788 8.29463 22.5831 7.15339 22.582 5.96313V5.41097C22.5819 5.27656 22.6095 5.14344 22.6633 5.01923C22.7171 4.89503 22.796 4.78217 22.8956 4.68713C22.9952 4.59209 23.1134 4.51673 23.2435 4.46537C23.3736 4.41401 23.5131 4.38766 23.6539 4.38782H42.3473C42.4879 4.38798 42.627 4.41457 42.7569 4.46608C42.8867 4.51758 43.0046 4.59299 43.1039 4.688C43.2032 4.78301 43.2819 4.89576 43.3356 5.0198C43.3892 5.14385 43.4167 5.27677 43.4166 5.41097V5.96067C43.4162 7.15093 42.9212 8.29243 42.04 9.13465C41.1589 9.97687 39.9637 10.451 38.7168 10.4529V10.4529ZM24.7734 6.43658C24.8895 6.9909 25.203 7.48977 25.6607 7.84845C26.1185 8.20713 26.6922 8.40349 27.2844 8.40418H38.7168C39.3089 8.40326 39.8825 8.20681 40.3402 7.84818C40.7979 7.48954 41.1114 6.99079 41.2277 6.43658H24.7734Z" fill="white"></path><path d="M60.8971 55.7612H49.9684C49.6842 55.7608 49.4117 55.6529 49.2108 55.4611C49.0099 55.2693 48.8968 55.0093 48.8965 54.738V9.42916C48.8965 9.1578 49.0094 8.89756 49.2104 8.70568C49.4114 8.5138 49.6841 8.40601 49.9684 8.40601H60.8971C61.0378 8.40601 61.1771 8.43248 61.3071 8.48391C61.437 8.53535 61.5551 8.61073 61.6545 8.70575C61.754 8.80078 61.8328 8.91358 61.8865 9.03771C61.9403 9.16183 61.9678 9.29485 61.9677 9.42916V54.738C61.9677 55.0091 61.8549 55.2692 61.6542 55.461C61.4534 55.6529 61.1811 55.7608 60.8971 55.7612V55.7612ZM51.0402 53.7149H59.8252V10.4523H51.0402V53.7149Z" fill="white"></path><path d="M64.7802 59.7781H46.0855C45.8014 59.7778 45.5289 59.6699 45.328 59.4781C45.1271 59.2863 45.014 59.0262 45.0137 58.755V58.2053C45.015 57.0149 45.511 55.8737 46.3928 55.0319C47.2746 54.1902 48.4702 53.7168 49.7173 53.7155H61.1484C62.3955 53.7168 63.5911 54.1902 64.4729 55.0319C65.3547 55.8737 65.8507 57.0149 65.852 58.2053V58.755C65.8517 59.0262 65.7387 59.2863 65.5377 59.4781C65.3368 59.6699 65.0643 59.7778 64.7802 59.7781V59.7781ZM47.2064 57.7318H63.6606C63.5443 57.1774 63.2305 56.6785 62.7726 56.3198C62.3147 55.9612 61.7408 55.7649 61.1484 55.7642H49.7173C49.125 55.7647 48.5512 55.9609 48.0934 56.3197C47.6357 56.6784 47.3222 57.1774 47.2064 57.7318Z" fill="white"></path><path d="M61.1484 10.4531H49.7173C48.4702 10.4518 47.2746 9.9783 46.3928 9.13658C45.511 8.29486 45.015 7.15362 45.0137 5.96325V5.41109C45.0137 5.13973 45.1266 4.87949 45.3276 4.68761C45.5286 4.49574 45.8013 4.38794 46.0855 4.38794H64.7802C65.0645 4.38794 65.3371 4.49574 65.5381 4.68761C65.7391 4.87949 65.852 5.13973 65.852 5.41109V5.96079C65.8514 7.15158 65.3557 8.29346 64.4738 9.13571C63.5919 9.97796 62.3959 10.4518 61.1484 10.4531ZM47.2064 6.4367C47.3222 6.99113 47.6357 7.49013 48.0934 7.84885C48.5512 8.20757 49.125 8.40384 49.7173 8.40429H61.1484C61.7408 8.40366 62.3147 8.20735 62.7726 7.84868C63.2305 7.49002 63.5443 6.99112 63.6606 6.4367H47.2064Z" fill="white"></path></svg> 