<?xml version="1.0" encoding="UTF-8"?> <svg xmlns="http://www.w3.org/2000/svg" width="66" height="63" viewBox="0 0 66 63" fill="none"><path d="M17.0181 61.4184C16.5411 61.4229 16.0721 61.3016 15.6628 61.068C14.5252 60.415 14.0176 59.0831 14.3397 57.5927C14.6618 56.1022 15.9179 54.4507 17.9804 54.1851C18.8552 54.0732 19.2559 53.6108 19.4375 53.2418C19.5758 52.9755 19.6257 52.6752 19.5805 52.381C18.9802 52.4548 17.5836 53.3058 17.2693 53.7018C17.1173 53.9416 16.6999 54.5294 14.2199 54.5626C13.3181 54.5773 11.6265 54.5023 10.3665 53.8383C8.74328 52.9774 8.33359 51.4181 9.27019 49.6571C10.5778 47.1976 12.0877 46.6295 13.1738 46.5065C13.0769 46.4223 12.974 46.3446 12.8659 46.2741C12.3995 45.9667 12.0259 45.8953 11.8983 45.9052C11.3263 46.4155 10.5018 46.52 9.62448 46.1905C8.31685 45.6986 6.87265 44.2229 6.81983 42.6894C6.78634 41.7498 7.40472 40.9235 8.51653 40.4205C9.53301 39.9667 10.9501 39.8007 12.0929 40.1217C12.0001 39.5154 11.7991 38.8169 11.5969 38.523C10.3859 38.4332 8.66855 38.796 8.44954 39.2129C8.14035 39.8044 7.52711 40.1512 6.77474 40.1659C5.69385 40.1868 4.50345 39.5191 3.95592 38.5771C3.45606 37.7163 3.5179 36.7091 4.12727 35.8225C4.19417 35.7337 4.24471 35.6348 4.27671 35.5298C4.07316 35.2974 3.08889 35.0908 2.69209 35.1609C2.42413 35.2408 1.79028 35.3281 1.1822 34.669C0.41823 33.8426 -0.234942 31.8701 0.440132 30.5345C0.711964 29.9971 1.4244 29.1068 3.15202 29.1929C4.52806 29.2515 5.88275 29.5395 7.15479 30.0439L7.24497 30.0771C7.53742 29.6614 8.01796 29.113 8.84634 29.0109C9.62577 28.9162 10.44 29.2568 11.3354 30.066C13.0102 31.5798 13.6131 31.8036 13.8102 31.8172C13.9197 31.6942 14.0279 31.2576 13.9133 30.692C13.8089 30.173 13.4958 29.5188 12.9316 29.2409C11.2078 28.3886 11.2645 25.8172 12.0568 24.3489C12.7834 22.9962 14.1336 22.5178 15.418 23.1462C16.4486 23.6529 17.782 23.5643 18.4378 23.3442C18.1415 23.172 17.7073 22.9654 17.384 22.8117C16.4229 22.353 15.333 21.8341 14.5252 21.047C13.4585 20.0091 13.1532 18.7228 13.6414 17.3307C14.2031 15.7321 15.3033 15.175 16.1279 14.9942C17.8374 14.6118 19.8214 15.523 21.0453 16.3469C21.388 15.1455 21.9703 13.2185 23.8667 13.2185H23.9183C25.9087 13.2554 26.1251 15.0496 26.2295 15.9116C26.2668 16.2104 26.3338 16.7663 26.4459 16.888C26.4459 16.888 26.4614 16.888 26.4884 16.8979C26.8182 16.9544 27.3129 16.4994 27.7471 16.0973C28.3384 15.5501 29.0084 14.9303 29.9269 15.0077C30.4809 15.0545 30.9576 15.3472 31.3621 15.8759C31.4536 15.9989 31.5476 16.1219 31.6429 16.2523C32.0707 16.8253 32.9171 17.9653 33.3938 18.2494C33.4268 18.2006 33.4569 18.1501 33.4839 18.0981C33.5459 17.9838 33.5972 17.8644 33.6372 17.7415C33.5664 17.6997 33.4736 17.6505 33.4028 17.6124C32.93 17.3664 32.1377 16.9458 31.8826 15.9719C31.5708 14.7852 32.4468 13.794 33.2198 12.9196C33.5934 12.4954 34.2196 11.787 34.177 11.5103C33.9812 10.2683 34.9062 9.03978 36.2383 8.77046C37.4751 8.52451 39.0481 9.13078 39.7541 11.5866C40.2437 13.2922 42.1208 14.0461 42.904 14.292C44.3534 14.7458 45.7383 14.661 46.1905 14.3179C47.5072 13.323 55.8837 5.02342 59.0015 1.9097C59.1002 1.81093 59.2187 1.73207 59.3499 1.67778C59.4811 1.62349 59.6224 1.59489 59.7654 1.59365C59.9087 1.59271 60.0508 1.61885 60.1835 1.67056C60.3161 1.72227 60.4368 1.79853 60.5384 1.89494L65.5422 6.69096C65.7422 6.8827 65.8544 7.14225 65.8544 7.41282C65.8544 7.68339 65.7422 7.94294 65.5422 8.13468L52.7429 20.4027C52.0704 21.047 52.2198 21.5242 53.0881 22.8265C53.588 23.5779 54.1059 24.3563 53.8031 25.2159C53.6215 25.7324 53.1899 26.1161 52.5148 26.3534C52.2894 26.4333 52.0266 26.5268 51.7418 26.6166C52.5702 27.609 53.387 28.9297 53.2633 30.1828C53.2041 30.7694 52.9155 31.5958 51.8668 32.1947C50.9006 32.7481 49.4937 33.4097 48.4322 32.7764L48.369 32.7358C48.1629 32.9153 48.0135 33.0949 47.9916 33.2277C47.9787 33.3076 48.0946 33.4478 48.208 33.5536C48.7336 34.0393 49.4744 34.3025 50.1907 34.5571C51.3927 34.985 53.2092 35.6306 52.9142 37.7753C52.6823 39.449 51.5138 39.8905 50.63 40.0024C51.0255 40.6886 51.5048 41.5703 51.6993 42.4951C52.0781 44.3028 51.1917 45.3456 50.3801 45.9015C49.6702 46.3934 48.9411 46.5766 48.2132 46.4573C46.8836 46.2397 46.0359 45.0739 45.3557 44.1368C45.1418 43.8441 44.8301 43.4137 44.6561 43.2674C44.0416 43.2268 43.1823 43.5785 43.1102 43.7986C43.149 43.9371 43.2239 44.0641 43.3279 44.1675C43.7389 44.6533 44.2117 44.9656 44.669 45.2682C45.719 45.9605 47.0241 46.8226 46.1338 49.287C45.4008 51.3136 43.5366 51.8424 42.5356 52.1277L42.4969 52.1388C42.499 52.1443 42.5016 52.1497 42.5047 52.1547C42.9092 53.0291 43.4645 54.2269 42.9968 55.3423C42.7391 55.9571 42.2354 56.4109 41.4946 56.7036C39.4398 57.514 38.0239 55.6669 37.1788 54.5626C37.0319 54.3708 36.8477 54.131 36.706 53.9699C36.5218 54.051 36.2796 54.1777 36.0992 54.2724C35.6225 54.5183 35.0827 54.8024 34.5403 54.9303C33.252 55.2353 32.6079 54.5196 32.3837 54.1924C31.7731 53.291 32.1158 52.1769 32.3902 51.2816C32.434 51.1402 32.4881 50.9656 32.5306 50.8045C31.8723 50.9533 30.8017 51.4415 30.3972 52.0859C30.258 52.3097 30.231 52.4732 30.4706 52.7512C32.0578 54.5896 31.4458 57.3012 30.307 58.4388C29.4709 59.2738 28.5626 59.1299 28.0383 58.7536C27.7057 58.5071 27.4213 58.2065 27.1983 57.8657C27.121 58.087 27.0475 58.3453 26.9947 58.5359C26.7023 59.564 26.1599 61.4799 24.1605 61.2315C22.7433 61.0544 21.9987 60.019 21.5606 59.2455C20.4025 60.1543 18.6465 61.4184 17.0181 61.4184ZM19.6887 50.3359C20.0218 50.331 20.351 50.4045 20.6472 50.5499C21.4975 50.9791 21.9046 52.0158 21.6856 53.1902C21.4576 54.4113 20.4244 55.9362 18.2664 56.2129C17.2435 56.3445 16.6123 57.2078 16.4396 58.0059C16.3327 58.4978 16.392 59.0991 16.7669 59.3131C16.9575 59.4226 17.4613 59.3832 18.2999 58.9442C19.1386 58.5052 19.9747 57.8534 20.5236 57.4218C20.7612 57.2159 21.0202 57.0338 21.2965 56.8782C21.4385 56.8093 21.5933 56.7679 21.7521 56.7565C21.9109 56.7451 22.0704 56.7639 22.2216 56.8118C22.7794 56.9877 23.0229 57.4513 23.2793 57.9407C23.6232 58.5949 23.9479 59.1422 24.4503 59.2049H24.4722C24.641 59.0364 24.8304 58.3687 24.9334 58.0022C25.1666 57.182 25.4062 56.3347 26.0929 55.8305C26.5709 55.4788 27.0527 55.3386 27.5242 55.4271C28.2392 55.5501 28.5922 56.1096 28.8499 56.5142C28.895 56.5843 28.9388 56.6532 28.9787 56.7196C29.1318 56.4328 29.2316 56.1228 29.2737 55.8034C29.3279 55.4087 29.3433 54.6573 28.8216 54.0535C28.0241 53.1287 27.9352 52.0219 28.5768 51.0148C29.5649 49.4677 32.0732 48.4864 33.4324 48.7656C33.6565 48.8055 33.8692 48.8904 34.0564 49.0146C34.2437 49.1389 34.4011 49.2996 34.5184 49.4862C34.9629 50.1994 34.704 51.0431 34.4527 51.8584C34.3398 52.1956 34.2537 52.5405 34.1951 52.8901C34.4971 52.7664 34.7917 52.6268 35.0776 52.472C35.7307 52.1314 36.3466 51.8116 36.9868 51.8498C37.8049 51.9014 38.319 52.5729 38.9193 53.3501C39.5867 54.222 40.2244 54.9893 40.6856 54.8073C40.7912 54.7655 40.9729 54.6843 41.0167 54.5773C41.1455 54.2613 40.759 53.4275 40.5542 52.9787C40.4253 52.7032 40.3068 52.4437 40.2231 52.1978C40.1594 52.0225 40.134 51.8366 40.1484 51.6515C40.1628 51.4665 40.2167 51.2862 40.3068 51.1218C40.634 50.5302 41.2949 50.3421 41.9352 50.1613C42.9942 49.86 43.7698 49.5735 44.1176 48.6143C44.2954 48.1224 44.3418 47.7535 44.2465 47.585C44.1511 47.4165 43.8278 47.1915 43.4567 46.9455C42.9285 46.5975 42.2728 46.1646 41.666 45.4477C40.6031 44.1909 41.0296 43.153 41.2615 42.7644C42.0061 41.5236 43.9579 41.0846 45.08 41.2456C45.9715 41.3686 46.5332 42.1458 47.1271 42.9673C47.5561 43.5563 48.1436 44.3643 48.5868 44.4368C48.7272 44.4602 48.9127 44.3926 49.1395 44.2376C50.0503 43.6117 49.6651 42.5357 48.637 40.7697C48.2814 40.1549 48.0457 39.7564 48.0225 39.3285C48.0113 39.1589 48.0369 38.989 48.0979 38.8294C48.1589 38.6699 48.2538 38.5241 48.3768 38.4012C48.8109 37.9721 49.3933 37.9807 49.8622 37.988C50.7279 38.0003 50.7382 37.9438 50.7988 37.5048C50.8568 37.0879 50.8709 36.976 49.4538 36.4718C48.6151 36.1742 47.5729 35.8028 46.7252 35.017C45.8775 34.2312 45.7963 33.4294 45.8852 32.9006C46.1325 31.4249 47.8949 30.5284 48.2454 30.3648C48.3797 30.3019 48.5264 30.2666 48.676 30.2612C48.8255 30.2557 48.9746 30.2803 49.1136 30.3332C49.2526 30.3862 49.3785 30.4664 49.483 30.5686C49.5875 30.6709 49.6684 30.7929 49.7205 30.9268C50.0905 30.8014 50.4445 30.6364 50.7756 30.4349C51.1131 30.2419 51.1299 30.0746 51.1389 29.9848C51.2214 29.1535 49.9421 27.6213 48.9694 26.7518C48.782 26.6316 48.637 26.4601 48.5533 26.2599C48.4691 26.0714 48.4463 25.863 48.4878 25.6618C48.5293 25.4607 48.6332 25.2762 48.786 25.1321C48.9388 24.9881 49.1335 24.8913 49.3447 24.8543C49.5559 24.8172 49.7739 24.8417 49.9704 24.9244C50.1559 24.9072 50.6352 24.8297 51.6362 24.4817C51.5357 24.3059 51.3901 24.087 51.2793 23.921C50.5669 22.8511 49.2412 20.8589 51.2239 18.9565L63.2683 7.40667L59.7899 4.07282C57.2133 6.64423 48.981 14.8085 47.52 15.9128C46.3992 16.7589 44.325 16.8819 42.238 16.2289C39.8842 15.491 38.2262 13.9944 37.6877 12.1191C37.3965 11.107 36.9637 10.7085 36.6815 10.7663C36.4561 10.8118 36.2744 11.0492 36.295 11.2004C36.4818 12.3908 35.6187 13.3685 34.8573 14.2305C34.5442 14.5859 33.9619 15.2451 33.9632 15.4787C33.9864 15.5624 34.1023 15.6374 34.4386 15.8145C35.0557 16.1403 36.4999 16.904 35.3997 19.0057C34.8611 20.0448 34.1397 20.2994 33.6244 20.3375C32.1467 20.4482 31.0039 18.9134 29.9012 17.4304C29.8329 17.3381 29.7659 17.2471 29.6989 17.1586C29.5559 17.2742 29.3794 17.4365 29.2467 17.5595C28.5613 18.1953 27.5242 19.1581 26.1045 18.9036C24.4052 18.6035 24.2184 17.059 24.1063 16.1403C24.0741 15.8661 24.02 15.4222 23.9363 15.2623C23.9187 15.2607 23.901 15.2607 23.8835 15.2623V15.2623C23.6838 15.2623 23.4223 15.828 23.104 16.9446C22.8528 17.8288 22.6145 18.6662 21.7681 18.879C21.4898 18.9491 20.9435 18.9884 20.4025 18.4695C19.7325 17.8276 17.7923 16.7208 16.6239 16.9827C16.3482 17.0442 15.9501 17.2151 15.6821 17.98C15.2351 19.2565 16.1021 19.9095 18.3489 20.9806C19.3164 21.4418 20.1525 21.8415 20.5725 22.4748C20.7923 22.7881 20.8931 23.1639 20.8581 23.5395C20.8232 23.9151 20.6547 24.268 20.3806 24.5395C19.2623 25.7066 16.3791 25.9144 14.4466 24.9675C14.3178 24.906 14.2057 24.8445 13.9712 25.2848C13.4997 26.1616 13.6826 27.3003 13.9184 27.4159C14.9787 27.9373 15.7671 29.0146 16.0248 30.3009C16.2528 31.4323 16.0325 32.4997 15.4347 33.1551C15.2517 33.3641 15.0254 33.5347 14.77 33.6562C14.5146 33.7777 14.2356 33.8474 13.9506 33.861C12.7422 33.9188 11.4938 33.0211 9.86668 31.554C9.48019 31.2084 9.25087 31.0953 9.15167 31.0621C9.06493 31.1656 8.98614 31.2749 8.91591 31.3892C8.84119 31.5024 8.76389 31.6192 8.67371 31.7311C8.00121 32.5612 7.02338 32.1947 6.37537 31.9524C5.31587 31.5269 4.18569 31.2842 3.03736 31.2355C2.46793 31.2072 2.39321 31.3708 2.361 31.4323C2.16002 31.8602 2.41124 32.6952 2.64314 33.1121C3.66219 33.0568 5.23521 33.3728 5.98114 34.2939C6.26586 34.6456 6.83143 35.6097 5.91544 36.9428C5.68097 37.2834 5.74925 37.4752 5.85747 37.6314C6.04608 37.8795 6.32497 38.0514 6.63947 38.1135C7.77576 36.3808 11.2568 36.4078 12.089 36.5148C13.3168 36.6698 13.8733 38.1405 14.1232 39.3432C14.4698 41.0058 14.2585 42.0622 13.4958 42.484C13.3013 42.591 12.6069 42.8911 11.8339 42.2467C11.5234 41.9872 10.5804 41.89 9.72368 42.1643C9.18774 42.3352 8.97517 42.5652 8.96229 42.6242C8.98677 43.3485 10.0586 44.2524 10.5276 44.3323C11.1202 43.8404 11.9885 43.731 12.9367 44.0384C14.1877 44.4467 15.6138 45.5977 15.7903 46.9271C15.8522 47.3981 15.7414 47.7879 15.4605 48.0867C15.0264 48.5491 14.4389 48.5393 14.0112 48.5319C13.2846 48.5208 12.2913 48.5049 11.1769 50.593C10.7131 51.4661 10.9733 51.7293 11.07 51.8227C11.8919 52.6577 14.8061 52.611 15.6447 52.3749C16.3263 51.6493 18.1544 50.3359 19.6887 50.3359V50.3359ZM15.4579 52.6085C15.4509 52.618 15.4445 52.6279 15.4386 52.638C15.4445 52.6276 15.4514 52.6177 15.4592 52.6085H15.4579ZM2.70369 35.1461H2.69209H2.70369ZM49.7836 31.3585C49.7842 31.3638 49.7842 31.3692 49.7836 31.3745C49.7843 31.3692 49.7843 31.3638 49.7836 31.3585V31.3585Z" fill="white"></path><path d="M61.4516 13.6342C61.3106 13.6343 61.1709 13.6077 61.0407 13.556C60.9104 13.5043 60.7922 13.4284 60.6928 13.3329L53.9034 6.82874C53.8017 6.73404 53.7208 6.62099 53.6653 6.49616C53.6098 6.37134 53.5808 6.23722 53.5801 6.10162C53.5794 5.96601 53.6069 5.83162 53.6611 5.70626C53.7152 5.5809 53.795 5.46707 53.8956 5.37138C53.9963 5.2757 54.1159 5.20007 54.2475 5.14889C54.379 5.09772 54.5199 5.07202 54.662 5.07329C54.804 5.07456 54.9444 5.10277 55.075 5.15628C55.2055 5.2098 55.3236 5.28755 55.4224 5.38501L62.2053 11.8892C62.3548 12.0325 62.4564 12.2148 62.4973 12.4132C62.5383 12.6116 62.5167 12.8171 62.4354 13.0038C62.3541 13.1905 62.2166 13.3501 62.0404 13.4622C61.8641 13.5744 61.657 13.6343 61.4452 13.6342H61.4516Z" fill="white"></path><path d="M55.9335 18.9211C55.7922 18.9213 55.6523 18.8947 55.5219 18.843C55.3914 18.7913 55.273 18.7155 55.1734 18.6199L48.3917 12.1157C48.29 12.021 48.2091 11.908 48.1536 11.7832C48.0981 11.6583 48.0691 11.5242 48.0684 11.3886C48.0676 11.253 48.0952 11.1186 48.1493 10.9932C48.2035 10.8679 48.2832 10.7541 48.3839 10.6584C48.4846 10.5627 48.6042 10.4871 48.7357 10.4359C48.8673 10.3847 49.0082 10.359 49.1503 10.3603C49.2923 10.3615 49.4327 10.3898 49.5632 10.4433C49.6938 10.4968 49.8118 10.5745 49.9106 10.672L56.6936 17.1761C56.843 17.3194 56.9446 17.5018 56.9856 17.7002C57.0265 17.8986 57.005 18.1041 56.9237 18.2908C56.8423 18.4775 56.7049 18.637 56.5286 18.7492C56.3524 18.8614 56.1453 18.9212 55.9335 18.9211V18.9211Z" fill="white"></path><path d="M39.6151 37.9773C37.2188 37.9773 36.3234 36.8963 35.9163 36.1204C34.8857 36.6787 32.8824 37.7006 31.4317 36.2433C30.5299 35.3444 30.2014 34.17 30.5415 33.1038C30.785 32.3426 31.3338 31.7843 31.9754 31.649C32.235 31.5941 32.5066 31.6332 32.7377 31.7588C32.9687 31.8843 33.1426 32.0874 33.2256 32.3284C33.3087 32.5695 33.2948 32.8315 33.1869 33.0634C33.0789 33.2953 32.8845 33.4806 32.6415 33.5834C32.5487 33.7445 32.4031 34.2499 32.9829 34.8316C33.2972 35.1464 34.1604 34.7172 34.9462 34.2905C35.4938 33.9941 35.8906 33.7777 36.3505 33.7875C37.233 33.8035 37.5435 34.5401 37.6929 34.8943C37.9158 35.4256 38.1284 35.9285 39.6151 35.9285C40.218 35.9285 40.437 35.7969 40.4654 35.7502C40.5671 35.5891 40.4422 35.0124 40.2167 34.6078C40.0816 34.369 40.0513 34.0888 40.1326 33.8288C40.2139 33.5688 40.4001 33.3502 40.6502 33.2212C40.9003 33.0922 41.1939 33.0634 41.4663 33.141C41.7387 33.2186 41.9677 33.3963 42.1028 33.635C42.2084 33.8207 43.118 35.4957 42.3089 36.7955C41.9727 37.3366 41.2345 37.9773 39.6151 37.9773Z" fill="white"></path><path d="M36.5273 29.4276C36.3361 29.4279 36.1483 29.379 35.9836 29.2862C35.1746 28.8312 35.0651 28.1081 34.9994 27.6765C34.9453 27.3199 34.9208 27.2387 34.7585 27.1157C34.1388 26.6423 33.8902 25.9499 34.0924 25.2625C34.3977 24.2356 35.6861 23.3871 37.232 23.2002C37.3717 23.1832 37.5135 23.1927 37.6493 23.2281C37.7851 23.2634 37.9123 23.3239 38.0236 23.4062C38.135 23.4885 38.2282 23.5909 38.2981 23.7076C38.3679 23.8242 38.413 23.9529 38.4308 24.0862C38.4486 24.2195 38.4386 24.3549 38.4016 24.4845C38.3646 24.6142 38.3011 24.7356 38.215 24.8419C38.1288 24.9481 38.0215 25.0371 37.8993 25.1038C37.777 25.1705 37.6422 25.2136 37.5026 25.2305C37.0673 25.2762 36.653 25.4329 36.3032 25.6843C36.9615 26.2906 37.0645 26.9645 37.1277 27.3826C37.1367 27.4428 37.1483 27.5191 37.1599 27.5732C37.3443 27.6995 37.482 27.8785 37.553 28.0843C37.6241 28.2901 37.6248 28.5121 37.5552 28.7183C37.4856 28.9246 37.3491 29.1044 37.1656 29.2319C36.982 29.3593 36.7608 29.4279 36.5338 29.4276H36.5273Z" fill="white"></path><path d="M25.8227 33.2033C25.6173 33.203 25.4135 33.1698 25.2197 33.1049C24.0177 32.704 23.5449 31.2393 23.2873 30.4523C23.2589 30.365 23.237 30.2937 23.2177 30.2469C23.0206 29.7452 23.1752 29.2484 23.3375 28.7233C23.3852 28.5696 23.4663 28.3212 23.496 28.1453C23.2177 27.9943 22.9749 27.7904 22.7827 27.546C22.5906 27.3016 22.4532 27.0222 22.379 26.7249C22.1755 25.8727 22.5001 24.9332 23.3723 23.8523C23.5455 23.6373 23.8011 23.4969 24.0828 23.4618C24.2223 23.4445 24.364 23.4535 24.4998 23.4884C24.6357 23.5233 24.763 23.5835 24.8745 23.6653C24.986 23.7472 25.0795 23.8492 25.1496 23.9656C25.2198 24.082 25.2653 24.2104 25.2835 24.3436C25.3017 24.4767 25.2922 24.612 25.2556 24.7416C25.219 24.8713 25.1561 24.9928 25.0703 25.0992C24.5331 25.767 24.4416 26.1568 24.4686 26.2699C24.4777 26.3056 24.555 26.3757 24.7044 26.4483C26.0752 27.1086 25.6152 28.5917 25.3936 29.3037C25.3576 29.4267 25.306 29.5853 25.2829 29.6874C25.2983 29.7366 25.3151 29.7882 25.3344 29.846C25.5714 30.5753 25.7466 30.9245 25.8703 31.0869C26.5261 30.5753 27.0195 28.845 27.1509 27.7985C27.195 27.5381 27.3428 27.3041 27.5634 27.1452C27.784 26.9863 28.0603 26.9149 28.3347 26.9458C28.6092 26.9767 28.8605 27.1077 29.0362 27.3112C29.212 27.5148 29.2985 27.7753 29.2779 28.0383C29.2045 28.6397 28.7471 31.6944 27.0143 32.822C26.667 33.0619 26.2513 33.1949 25.8227 33.2033V33.2033Z" fill="white"></path><path d="M32.7009 47.4252C31.6329 47.4252 30.4334 47.1079 29.9658 46.5201C29.8565 46.3853 29.7792 46.2296 29.7391 46.0635C29.6991 45.8975 29.6973 45.7252 29.7339 45.5584C29.5857 45.2411 28.997 44.5377 28.3554 44.1553C27.6365 43.7261 27.3248 42.9563 27.5554 42.1458C27.853 41.0747 29.1284 39.9323 30.7491 39.8671C31.028 39.8642 31.2971 39.9652 31.4993 40.1487C31.7014 40.3321 31.8207 40.5836 31.8318 40.8496C31.8428 41.1157 31.7448 41.3753 31.5585 41.5735C31.3723 41.7717 31.1124 41.8927 30.8341 41.911C30.6054 41.928 30.3835 41.9937 30.1849 42.1033C29.9862 42.2129 29.8158 42.3636 29.6862 42.5443C30.4218 43.0423 31.6767 44.1786 31.8763 45.2792C32.2796 45.3776 32.907 45.4416 33.2935 45.2952C33.3734 45.2657 33.4223 45.2374 33.4223 45.2116C33.4966 44.9489 33.6772 44.7251 33.9244 44.5895C34.1716 44.4539 34.465 44.4176 34.7403 44.4885C35.0155 44.5595 35.2499 44.7318 35.392 44.9678C35.534 45.2037 35.5721 45.4838 35.4978 45.7465C35.2607 46.5779 34.5367 47.162 33.5138 47.3514C33.2459 47.4007 32.9737 47.4254 32.7009 47.4252V47.4252Z" fill="white"></path><path d="M20.549 40.1289C20.3896 40.129 20.2322 40.0951 20.0882 40.0298C19.9443 39.9645 19.8174 39.8694 19.7167 39.7514C19.4866 39.4979 19.3341 39.1887 19.2762 38.8578C19.2182 38.527 19.257 38.1872 19.3882 37.876C19.8649 36.7533 21.4495 36.0929 22.8048 35.938C23.087 35.9053 23.3713 35.9811 23.595 36.1485C23.8187 36.316 23.9636 36.5614 23.9978 36.8308C24.0319 37.1002 23.9526 37.3715 23.7772 37.585C23.6018 37.7986 23.3447 37.9369 23.0625 37.9695C22.2792 38.0593 21.6788 38.3581 21.4559 38.5573C21.5592 38.7117 21.617 38.8898 21.6234 39.0729C21.6298 39.2559 21.5846 39.4373 21.4924 39.5979C21.4002 39.7586 21.2645 39.8926 21.0994 39.9861C20.9344 40.0795 20.746 40.1288 20.5541 40.1289H20.549Z" fill="white"></path><path d="M22.1822 48.9444C21.8234 48.9467 21.471 48.8535 21.1645 48.6754C20.858 48.4973 20.6095 48.2413 20.4468 47.936C19.7357 46.6718 20.1376 44.2381 21.2044 43.3662C21.4197 43.1904 21.6992 43.1032 21.9817 43.1235C22.2642 43.1438 22.5268 43.2701 22.7121 43.4748C22.8974 43.6794 22.9902 43.9457 22.9703 44.2155C22.9505 44.4853 22.8195 44.7366 22.606 44.9145C22.3046 45.2269 22.1294 46.4271 22.2891 46.8747C23.5452 46.5119 23.8171 45.522 23.8196 45.5122C23.8513 45.3812 23.9096 45.2574 23.9914 45.148C24.0731 45.0386 24.1766 44.9455 24.296 44.8743C24.4154 44.803 24.5483 44.7549 24.6872 44.7327C24.8261 44.7105 24.9682 44.7146 25.1054 44.7448C25.2426 44.775 25.3722 44.8307 25.4869 44.9087C25.6015 44.9867 25.6989 45.0855 25.7736 45.1995C25.8482 45.3135 25.8986 45.4404 25.9219 45.5729C25.9452 45.7055 25.9409 45.8411 25.9093 45.9721C25.7122 46.7837 24.8451 48.3086 22.8405 48.8521C22.6266 48.912 22.4051 48.943 22.1822 48.9444Z" fill="white"></path></svg> 