<?xml version="1.0" encoding="UTF-8"?> <svg xmlns="http://www.w3.org/2000/svg" width="66" height="63" viewBox="0 0 66 63" fill="none"><g clip-path="url(#clip0)"><path d="M47.364 32.3749L45.3307 31.1553C44.9967 30.952 44.6046 30.9375 44.2705 31.0682C44.1398 31.0101 43.9946 30.9811 43.8348 30.9811H40.9301C40.262 30.9811 39.7246 31.5183 39.7246 32.1862V35.2642C39.7246 35.5982 39.8698 35.9176 40.1022 36.1499L42.5712 38.444C42.8036 38.6617 43.0941 38.7634 43.3991 38.7634C43.5734 38.7634 43.7476 38.7198 43.9219 38.6472L47.2624 37.0501C47.6835 36.8468 47.945 36.4258 47.945 35.9612V33.4058C47.9595 32.9847 47.7271 32.5927 47.364 32.3749ZM45.5341 35.2062L43.617 36.1209L42.1355 34.7416V33.4058H43.8348C43.98 33.4058 44.1253 33.3768 44.256 33.3332L45.5341 34.1027V35.2062V35.2062Z" fill="white"></path><path d="M7.63941 42.4941L5.6061 41.2744C5.27206 41.0712 4.87995 41.0567 4.54591 41.1873C4.41519 41.1293 4.26996 41.1002 4.1102 41.1002H1.20547C0.537382 41.1002 0 41.6374 0 42.3053V45.3834C0 45.7173 0.145215 46.0368 0.377593 46.2691L2.84661 48.5631C3.07899 48.7809 3.36949 48.8825 3.67449 48.8825C3.84877 48.8825 4.02303 48.839 4.19732 48.7664L7.53776 47.1693C7.95894 46.966 8.22036 46.5449 8.22036 46.0803V43.5249C8.22036 43.1039 8.00251 42.7119 7.63941 42.4941ZM5.80946 45.3253L3.89234 46.24L2.4109 44.8607V43.5249H4.1102C4.25543 43.5249 4.40066 43.4959 4.53137 43.4523L5.80946 44.2219V45.3253V45.3253Z" fill="white"></path><path d="M28.834 11.2789C29.1536 11.2789 29.4731 11.1482 29.7055 10.9159L31.3466 9.20263C31.6081 8.92677 31.7242 8.54927 31.6661 8.18629C31.7533 8.07013 31.8114 7.92494 31.8404 7.77975L32.494 4.9485C32.6392 4.29514 32.2326 3.65629 31.5935 3.49658L28.6016 2.79966C28.2821 2.72706 27.9336 2.78514 27.6576 2.97389L24.8545 4.86139C24.4479 5.13725 24.2446 5.64543 24.3462 6.12456L25.1596 9.73984C25.2612 10.1899 25.6098 10.5529 26.0746 10.6546L28.5726 11.2353C28.6597 11.2644 28.7469 11.2789 28.834 11.2789ZM27.3671 8.49119L26.9024 6.42946L28.5871 5.29696L29.8943 5.60187L29.5166 7.25706C29.4876 7.40225 29.4731 7.54744 29.4876 7.67812L28.4564 8.75254L27.3671 8.49119Z" fill="white"></path><path d="M44.7419 46.182L41.7501 45.4851C41.4306 45.4125 41.082 45.4706 40.806 45.6593L38.003 47.5468C37.5963 47.8227 37.393 48.3309 37.4947 48.81L38.308 52.4253C38.4097 52.8754 38.7582 53.2384 39.2229 53.34L41.721 53.9208C41.8082 53.9353 41.8953 53.9498 41.997 53.9498C42.3165 53.9498 42.636 53.8191 42.8684 53.5868L44.5096 51.8736C44.771 51.5977 44.8872 51.2202 44.8291 50.8572C44.9162 50.741 44.9743 50.5959 45.0033 50.4507L45.6569 47.6194C45.8021 46.9806 45.3955 46.3272 44.7419 46.182ZM42.6505 49.9135C42.6215 50.0586 42.607 50.2038 42.6215 50.3345L41.5903 51.4089L40.501 51.1621L40.0363 49.1004L41.721 47.9679L43.0282 48.2728L42.6505 49.9135Z" fill="white"></path><path d="M43.6991 17.58C44.3672 17.58 44.9046 17.0427 44.9046 16.3749V10.8576C44.9046 10.1897 44.3672 9.65247 43.6991 9.65247H38.1801C37.512 9.65247 36.9746 10.1897 36.9746 10.8576V16.3749C36.9746 17.0427 37.512 17.58 38.1801 17.58H43.6991ZM39.3856 12.0627H42.4936V15.1698H39.3856V12.0627Z" fill="white"></path><path d="M33.1072 35.5841H27.5883C26.9202 35.5841 26.3828 36.1213 26.3828 36.7892V42.3065C26.3828 42.9744 26.9202 43.5116 27.5883 43.5116H33.1072C33.7753 43.5116 34.3127 42.9744 34.3127 42.3065V36.7892C34.3127 36.1213 33.7608 35.5841 33.1072 35.5841ZM31.8873 41.1014H28.7792V37.9943H31.8873V41.1014Z" fill="white"></path><path d="M23.6106 17.7107L19.2681 14.2986C18.7452 13.8921 17.99 13.9792 17.5688 14.5019L14.1558 18.8432C13.7491 19.3658 13.8362 20.1209 14.3591 20.5419L18.7017 23.9539C18.9195 24.1282 19.1809 24.2153 19.4424 24.2153C19.8054 24.2153 20.154 24.0556 20.4009 23.7507L23.814 19.4094C24.2206 18.8722 24.1335 18.1172 23.6106 17.7107ZM19.2535 21.2969L16.8136 19.3804L18.7307 16.9411L21.1707 18.8577L19.2535 21.2969Z" fill="white"></path><path d="M21.892 49.9869L17.5494 46.5749C17.0265 46.1683 16.2713 46.2555 15.8501 46.7782L12.437 51.1194C12.0304 51.6421 12.1175 52.3971 12.6403 52.8182L16.983 56.2302C17.2008 56.4044 17.4622 56.4915 17.7236 56.4915C18.0867 56.4915 18.4353 56.3318 18.6822 56.0269L22.0953 51.6857C22.5165 51.163 22.4293 50.3934 21.892 49.9869ZM17.5349 53.5877L15.0949 51.6711L17.012 49.2319L19.452 51.1484L17.5349 53.5877Z" fill="white"></path><path d="M65.5336 35.3652L61.1911 31.9532C60.9442 31.75 60.6247 31.6628 60.3051 31.7064C59.9856 31.7499 59.6951 31.9097 59.5063 32.1565L56.0933 36.4977C55.6866 37.0204 55.7737 37.7754 56.2966 38.1965L60.6392 41.6085C60.857 41.7827 61.1184 41.8698 61.3799 41.8698C61.4234 41.8698 61.4815 41.8698 61.5251 41.8553C61.8446 41.8118 62.1351 41.6521 62.3239 41.4052L65.737 37.064C66.1582 36.5413 66.071 35.7863 65.5336 35.3652ZM61.1911 38.966L58.7511 37.0495L60.6682 34.6102L63.1082 36.5268L61.1911 38.966Z" fill="white"></path><path d="M33.0984 19.3661H31.3266C30.6585 19.3661 30.1211 19.9033 30.1211 20.5712V25.0721C30.1211 25.74 30.6585 26.2772 31.3266 26.2772H33.0984C33.7665 26.2772 34.3039 25.74 34.3039 25.0721V20.5712C34.3039 19.9178 33.752 19.3661 33.0984 19.3661Z" fill="white"></path><path d="M13.9887 37.3543H18.491C19.1591 37.3543 19.6964 36.8171 19.6964 36.1492V34.3924C19.6964 33.7245 19.1591 33.1873 18.491 33.1873H13.9887C13.3206 33.1873 12.7832 33.7245 12.7832 34.3924V36.1492C12.7832 36.8171 13.3206 37.3543 13.9887 37.3543Z" fill="white"></path><path d="M32.0906 57.4055H27.5883C26.9202 57.4055 26.3828 57.9427 26.3828 58.6106V60.382C26.3828 61.0498 26.9202 61.5871 27.5883 61.5871H32.0906C32.7587 61.5871 33.2961 61.0498 33.2961 60.382V58.6106C33.2961 57.9427 32.7441 57.4055 32.0906 57.4055Z" fill="white"></path><path d="M55.9956 3.04594L54.4706 2.16026C54.1947 2.00055 53.8606 1.957 53.5556 2.04411C53.2506 2.13123 52.9892 2.3345 52.8149 2.61036L50.5638 6.50151C50.2297 7.08228 50.433 7.82276 50.9995 8.15671L52.5244 9.04238C52.7133 9.14401 52.9166 9.20209 53.1345 9.20209C53.2361 9.20209 53.3378 9.18757 53.454 9.15853C53.759 9.07142 54.0204 8.86815 54.1947 8.59228L56.4458 4.70113C56.7799 4.12036 56.5766 3.37988 55.9956 3.04594Z" fill="white"></path><path d="M8.60819 5.81885H4.10586C3.43777 5.81885 2.90039 6.35606 2.90039 7.02394V8.79529C2.90039 9.46317 3.43777 10.0004 4.10586 10.0004H8.60819C9.27628 10.0004 9.81363 9.46317 9.81363 8.79529V7.02394C9.81363 6.35606 9.27628 5.81885 8.60819 5.81885Z" fill="white"></path><path d="M51.2547 22.9956H46.7523C46.0843 22.9956 45.5469 23.5328 45.5469 24.2007V25.972C45.5469 26.6399 46.0843 27.1771 46.7523 27.1771H51.2547C51.9228 27.1771 52.4601 26.6399 52.4601 25.972V24.2007C52.4601 23.5328 51.9082 22.9956 51.2547 22.9956Z" fill="white"></path></g><defs><clipPath id="clip0"><rect width="66" height="63" fill="white"></rect></clipPath></defs></svg> 