<?xml version="1.0" encoding="UTF-8"?> <svg xmlns="http://www.w3.org/2000/svg" width="66" height="63" viewBox="0 0 66 63" fill="none"><path d="M46.1872 41.763C46.0269 41.7632 45.8687 41.7291 45.7241 41.6632C45.5795 41.5974 45.4522 41.5014 45.3516 41.3823C45.251 41.2633 45.1796 41.1242 45.1427 40.9754C45.1058 40.8265 45.1044 40.6717 45.1385 40.5222L47.3995 30.6203L35.7068 33.9406C35.5294 33.9913 35.3414 33.9974 35.1608 33.9584C34.9803 33.9194 34.8133 33.8366 34.6761 33.718L23.6031 24.1149C23.457 23.9882 23.3503 23.8254 23.295 23.6445C23.2396 23.4636 23.2377 23.2716 23.2894 23.0897C23.3411 22.9078 23.4444 22.743 23.588 22.6136C23.7315 22.4842 23.9098 22.3952 24.103 22.3564L29.5538 21.2631L28.8053 20.5253C28.6691 20.3913 28.574 20.2242 28.5301 20.0422C28.4863 19.8603 28.4955 19.6703 28.5567 19.493C28.6178 19.3156 28.7287 19.1576 28.8772 19.0361C29.0257 18.9146 29.2062 18.8342 29.3992 18.8036L39.1775 17.216C39.344 17.1892 39.5148 17.2003 39.676 17.2484C39.8371 17.2965 39.9841 17.3802 40.105 17.4927L41.2542 18.5626L45.3021 17.5616C45.4638 17.5215 45.633 17.5181 45.7963 17.5516C45.9596 17.5851 46.1124 17.6547 46.2425 17.7547L50.7594 21.2324L52.6918 20.6372C52.856 20.5868 53.0304 20.5749 53.2004 20.6025C53.3704 20.6301 53.5309 20.6964 53.6684 20.7958L65.4203 29.3069C65.5807 29.4218 65.7041 29.5774 65.7765 29.756C65.8489 29.9345 65.8674 30.1289 65.8298 30.3169C65.7922 30.505 65.7001 30.6792 65.564 30.8198C65.4278 30.9604 65.253 31.0617 65.0596 31.1122L54.0987 33.9492C53.9357 33.9911 53.7647 33.9958 53.5996 33.9629C53.4344 33.93 53.2796 33.8605 53.1479 33.7598L49.511 30.9745L47.232 40.96C47.1795 41.1874 47.0474 41.3908 46.8574 41.5368C46.6675 41.6828 46.431 41.7626 46.1872 41.763V41.763ZM49.5148 28.3502L54.0652 31.8353L62.3953 29.6795L52.8206 22.7499L50.8663 23.35C50.6971 23.4021 50.5171 23.4132 50.3423 23.3823C50.1676 23.3514 50.0036 23.2794 49.8653 23.1729L45.3188 19.6755L41.2066 20.6925C41.0282 20.7366 40.8409 20.736 40.6628 20.6908C40.4847 20.6455 40.3219 20.5572 40.1901 20.4343L38.9984 19.3275L31.7607 20.4995L32.4448 21.1783C32.5774 21.3099 32.6708 21.473 32.7151 21.6506C32.7594 21.8283 32.7531 22.014 32.6969 22.1886C32.6406 22.3631 32.5364 22.5201 32.3951 22.6433C32.2538 22.7664 32.0806 22.8512 31.8934 22.8889L26.601 23.9501L35.6746 31.8205L46.5672 28.724L43.3181 26.235C43.2081 26.151 43.1166 26.047 43.0487 25.9292C42.9808 25.8114 42.9379 25.6819 42.9224 25.5483C42.9069 25.4146 42.9191 25.2794 42.9584 25.1502C42.9977 25.0211 43.0632 24.9006 43.1513 24.7956C43.2393 24.6906 43.3482 24.6032 43.4716 24.5384C43.5951 24.4736 43.7307 24.4326 43.8707 24.4178C44.0107 24.4031 44.1524 24.4147 44.2877 24.4522C44.423 24.4897 44.5492 24.5523 44.6592 24.6363L49.493 28.3366L49.5148 28.3502Z" fill="white"></path><path d="M11.8983 50.1863C11.7465 50.1863 11.5965 50.1554 11.4581 50.0959C11.3198 50.0363 11.1962 49.9493 11.0957 49.8408L5.33312 43.6219C5.21933 43.4992 5.13816 43.352 5.09645 43.193C5.05474 43.034 5.05373 42.8677 5.09349 42.7082L7.21534 34.159L5.38594 32.4448C5.25893 32.3256 5.16507 32.178 5.11288 32.0155C5.06069 31.8529 5.05181 31.6805 5.08705 31.5138L6.42432 25.1437L3.86574 24.3592C3.64956 24.293 3.46097 24.1631 3.32715 23.988C3.19332 23.813 3.12117 23.6019 3.12109 23.3852V17.7382C3.1209 17.5902 3.15432 17.4438 3.21907 17.3093C3.28381 17.1748 3.37834 17.0552 3.49613 16.9589C3.61392 16.8626 3.75219 16.7918 3.9014 16.7514C4.05061 16.711 4.20722 16.702 4.36045 16.7249L6.39984 17.0446L6.59824 15.5591C6.61685 15.4202 6.66513 15.2864 6.74011 15.166C6.81508 15.0456 6.91515 14.9412 7.03411 14.8593C7.15307 14.7773 7.28839 14.7195 7.43169 14.6895C7.575 14.6595 7.72323 14.6579 7.86722 14.6847L11.8919 15.4373L11.9293 14.504C11.9353 14.3525 11.9765 14.2043 12.0499 14.0699C12.1233 13.9355 12.227 13.8184 12.3536 13.727C12.4802 13.6356 12.6265 13.5721 12.782 13.5412C12.9374 13.5104 13.098 13.5128 13.2523 13.5485L21.0492 15.3488C21.2087 15.3858 21.3572 15.4571 21.4833 15.5572C21.6095 15.6574 21.71 15.7838 21.7771 15.9268L23.9517 20.5924C24.0158 20.73 24.0473 20.8794 24.044 21.0299C24.0406 21.1804 24.0025 21.3283 23.9324 21.4632C23.8622 21.598 23.7618 21.7164 23.6382 21.8099C23.5146 21.9034 23.3709 21.9698 23.2174 22.0042L9.7533 25.0306L16.6767 31.8028L30.3933 27.9021C30.5295 27.8591 30.6733 27.8426 30.8163 27.8537C30.9592 27.8648 31.0984 27.9031 31.2256 27.9664C31.3528 28.0298 31.4653 28.1168 31.5566 28.2225C31.6479 28.3281 31.716 28.4501 31.7569 28.5813C31.7979 28.7125 31.8109 28.8503 31.795 28.9863C31.7792 29.1224 31.735 29.2541 31.6649 29.3735C31.5948 29.493 31.5003 29.5978 31.387 29.6818C31.2736 29.7657 31.1438 29.8271 31.0052 29.8623L17.2461 33.7766L12.9354 49.4227C12.8866 49.6024 12.7875 49.7661 12.6485 49.8961C12.5096 50.0261 12.3362 50.1175 12.147 50.1605C12.0655 50.1788 11.982 50.1875 11.8983 50.1863V50.1863ZM7.30681 42.6627L11.3727 47.0505L15.1706 33.2601L8.31297 26.5518L7.30165 31.3724L9.1478 33.1027C9.27856 33.2257 9.37401 33.3788 9.425 33.5472C9.47598 33.7156 9.48079 33.8937 9.43896 34.0643L7.30681 42.6627ZM5.2584 22.6387L7.70618 23.3877L21.4666 20.2985L20.0327 17.2242L14.0215 15.837L13.9867 16.7151C13.9806 16.8626 13.9412 17.0071 13.8711 17.1387C13.801 17.2703 13.702 17.3859 13.5807 17.4774C13.4594 17.569 13.3187 17.6345 13.1685 17.6693C13.0182 17.7041 12.8618 17.7075 12.71 17.6792L8.57965 16.9081L8.38512 18.3605C8.36677 18.4966 8.31992 18.6278 8.24734 18.7463C8.17477 18.8648 8.07797 18.9681 7.96269 19.0502C7.84742 19.1322 7.71603 19.1913 7.57635 19.2238C7.43667 19.2564 7.29155 19.2618 7.14963 19.2397L5.2584 18.9384V22.6387Z" fill="white"></path><path d="M40.1467 60.6067C39.9476 60.6067 39.7526 60.5534 39.5837 60.453L36.9426 58.8924L34.0221 58.1054L31.1465 59.3671C30.9919 59.435 30.8226 59.4668 30.6525 59.4597C30.4824 59.4527 30.3166 59.407 30.1687 59.3265L21.5371 54.635C21.3215 54.5173 21.1552 54.3319 21.0667 54.1104C20.9781 53.8889 20.9727 53.6449 21.0514 53.42L25.572 40.5446C25.6256 40.3924 25.7159 40.2543 25.8356 40.1415C25.9553 40.0287 26.1011 39.9444 26.2613 39.8953L30.3723 38.6409C30.5311 38.5923 30.6997 38.5797 30.8646 38.6042C31.0294 38.6288 31.186 38.6898 31.3218 38.7824L32.7234 39.7403L34.3506 32.7381C34.4182 32.4794 34.589 32.2561 34.8266 32.1157C35.0642 31.9754 35.3498 31.9292 35.6225 31.9869C35.8953 32.0446 36.1337 32.2017 36.2869 32.4247C36.4401 32.6477 36.496 32.9191 36.4428 33.1809L34.4704 41.6882C34.4325 41.8535 34.3523 42.0071 34.2369 42.1355C34.1216 42.2639 33.9747 42.3629 33.8094 42.4239C33.6441 42.4848 33.4656 42.5056 33.2898 42.4846C33.114 42.4635 32.9464 42.4012 32.802 42.3031L30.514 40.7463L27.4311 41.6882L23.3639 53.2725L30.751 57.2888L33.4848 56.0886C33.7164 55.9875 33.978 55.9684 34.223 56.0345L37.6693 56.9617C37.7659 56.9873 37.8583 57.0258 37.9437 57.0761L39.8954 58.2308L41.4504 56.3333C41.5824 56.172 41.7618 56.0521 41.9658 55.989L50.122 53.5184L53.0581 46.3613L43.1961 48.367C43.0569 48.3951 42.9132 48.3965 42.7735 48.3712C42.6337 48.3458 42.5006 48.2943 42.3819 48.2194L38.4835 45.7599C38.366 45.6859 38.2649 45.5905 38.186 45.4792C38.1072 45.3678 38.052 45.2428 38.0238 45.1111C37.9956 44.9794 37.9948 44.8438 38.0215 44.7118C38.0482 44.5798 38.1019 44.4542 38.1794 44.342C38.257 44.2299 38.3569 44.1334 38.4736 44.0581C38.5902 43.9828 38.7212 43.9302 38.8592 43.9033C38.9971 43.8763 39.1392 43.8756 39.2775 43.9011C39.4157 43.9266 39.5473 43.9778 39.6648 44.0518L43.1884 46.2654L54.5564 43.9534C54.747 43.9128 54.9457 43.9227 55.1309 43.982C55.3161 44.0413 55.4808 44.1478 55.6072 44.29C55.7336 44.4322 55.8169 44.6046 55.8481 44.7887C55.8793 44.9728 55.8572 45.1615 55.7841 45.3345L51.9373 54.7236C51.8789 54.8658 51.788 54.9938 51.6712 55.0983C51.5544 55.2027 51.4147 55.281 51.2622 55.3274L42.9346 57.8496L40.9918 60.2193C40.8909 60.3409 40.7624 60.4389 40.616 60.506C40.4696 60.5731 40.3091 60.6076 40.1467 60.6067V60.6067Z" fill="white"></path><path d="M54.7793 45.9856C54.5463 45.9847 54.32 45.9108 54.1352 45.7754L47.9255 41.2524L45.8127 41.9472C45.6339 42.006 45.4419 42.0186 45.2564 41.9836C45.0708 41.9486 44.8983 41.8673 44.7563 41.7479L43.0222 40.2993L33.6769 42.4649C33.5393 42.4987 33.3961 42.506 33.2556 42.4865C33.115 42.467 32.9799 42.421 32.8582 42.3513C32.7364 42.2815 32.6303 42.1893 32.5462 42.0801C32.4621 41.9709 32.4015 41.8468 32.3681 41.7151C32.3346 41.5833 32.3289 41.4465 32.3513 41.3127C32.3737 41.1788 32.4237 41.0505 32.4985 40.9352C32.5733 40.82 32.6714 40.7201 32.7869 40.6413C32.9025 40.5625 33.0334 40.5065 33.1718 40.4764L43.0583 38.1854C43.2255 38.1465 43.4 38.1467 43.567 38.1858C43.7341 38.225 43.8888 38.302 44.0181 38.4104L45.6929 39.8185L47.7542 39.1396C47.9212 39.0846 48.0999 39.0699 48.2743 39.0967C48.4487 39.1235 48.6135 39.1911 48.7539 39.2934L54.6389 43.5803L57.0867 41.0162L57.9795 37.9763C58.0188 37.8417 58.0867 37.7163 58.1789 37.6078C58.2711 37.4993 58.3856 37.41 58.5154 37.3454L61.5301 35.8402L63.7717 29.7837C63.866 29.5277 64.063 29.3179 64.3194 29.2005C64.5757 29.0831 64.8704 29.0678 65.1386 29.1578C65.4068 29.2478 65.6266 29.4358 65.7496 29.6805C65.8726 29.9252 65.8887 30.2065 65.7944 30.4625L63.4213 36.9003C63.3313 37.1449 63.147 37.3477 62.906 37.4672L59.9274 38.954L59.0926 41.8008C59.0473 41.9544 58.9653 42.0959 58.853 42.214L55.5755 45.6573C55.474 45.7619 55.3508 45.8451 55.2137 45.9017C55.0766 45.9582 54.9287 45.9868 54.7793 45.9856V45.9856Z" fill="white"></path><path d="M51.3515 43.4883C51.2646 43.4883 51.1781 43.4779 51.0938 43.4575C50.8179 43.3921 50.5804 43.2248 50.4335 42.9924C50.2867 42.76 50.2424 42.4814 50.3105 42.2179L52.7789 32.7108C52.811 32.5785 52.8702 32.4537 52.9533 32.3436C53.0363 32.2334 53.1415 32.1402 53.2627 32.0692C53.3838 31.9982 53.5186 31.951 53.6591 31.9302C53.7996 31.9094 53.943 31.9155 54.081 31.9481C54.219 31.9807 54.3488 32.0392 54.4629 32.1202C54.5769 32.2012 54.673 32.303 54.7455 32.4198C54.8179 32.5365 54.8653 32.6658 54.8849 32.8003C54.9045 32.9347 54.8959 33.0715 54.8596 33.2026L52.3912 42.7074C52.3342 42.9297 52.2008 43.1274 52.0124 43.2689C51.8239 43.4105 51.5913 43.4877 51.3515 43.4883V43.4883Z" fill="white"></path><path d="M11.8981 50.1863C11.6506 50.1854 11.4111 50.1029 11.2202 49.9526C11.0292 49.8024 10.8986 49.5937 10.8505 49.362C10.8024 49.1303 10.8398 48.8898 10.9563 48.6814C11.0728 48.473 11.2613 48.3095 11.4897 48.2187L17.6581 45.7961L21.6042 30.9223C21.6369 30.7902 21.6968 30.6657 21.7805 30.556C21.8641 30.4462 21.9697 30.3535 22.0913 30.2831C22.2128 30.2127 22.3478 30.1661 22.4884 30.146C22.629 30.1258 22.7723 30.1326 22.9101 30.1659C23.048 30.1992 23.1775 30.2583 23.2911 30.3398C23.4048 30.4213 23.5003 30.5236 23.5722 30.6406C23.644 30.7577 23.6908 30.8873 23.7097 31.0218C23.7286 31.1563 23.7192 31.293 23.6822 31.424L19.6035 46.7959C19.5622 46.9506 19.4836 47.094 19.374 47.2146C19.2644 47.3352 19.1268 47.4297 18.9722 47.4907L12.3052 50.1088C12.1762 50.1599 12.0378 50.1862 11.8981 50.1863V50.1863Z" fill="white"></path><path d="M29.1874 20.6439H29.1449C29.0039 20.639 28.8653 20.6075 28.7371 20.5513C28.609 20.4952 28.4937 20.4154 28.3979 20.3165C28.3021 20.2177 28.2278 20.1017 28.1791 19.9754C28.1304 19.849 28.1083 19.7147 28.1142 19.5801L28.7944 3.37576C28.8008 3.22019 28.8444 3.06807 28.9218 2.93101C28.9991 2.79396 29.1083 2.67559 29.2409 2.58496C29.3735 2.49432 29.5261 2.4338 29.687 2.40802C29.8478 2.38225 30.0127 2.3919 30.1691 2.43623L37.1182 4.40383C37.2684 4.44614 37.407 4.51938 37.5243 4.6184C37.6416 4.71741 37.7348 4.83979 37.7971 4.97689L38.5276 6.57556L44.3185 8.16194C44.5417 8.22379 44.7377 8.35318 44.8772 8.53062C45.0166 8.70806 45.0918 8.92394 45.0915 9.14574V18.9382C45.0915 19.2096 44.9786 19.4698 44.7776 19.6617C44.5766 19.8536 44.3039 19.9614 44.0197 19.9614C43.7354 19.9614 43.4627 19.8536 43.2617 19.6617C43.0607 19.4698 42.9478 19.2096 42.9478 18.9382V9.91556L37.4506 8.41035C37.2987 8.36872 37.1584 8.29554 37.0397 8.19603C36.921 8.09653 36.8268 7.97318 36.7639 7.83482L36.0309 6.22631L30.8776 4.77152L30.2541 19.6613C30.2431 19.9247 30.1261 20.1739 29.9274 20.357C29.7286 20.5401 29.4635 20.6428 29.1874 20.6439V20.6439Z" fill="white"></path><path d="M56.6735 25.272C56.6438 25.272 56.6155 25.272 56.5859 25.272C56.4452 25.2612 56.3081 25.2239 56.1825 25.1623C56.0569 25.1008 55.9453 25.0161 55.8541 24.9133C55.7629 24.8105 55.6939 24.6914 55.651 24.5631C55.6081 24.4347 55.5922 24.2995 55.6042 24.1652L56.3939 14.8794L50.1237 11.5849L49.839 21.0404C49.8376 21.1764 49.8079 21.3108 49.7514 21.4357C49.695 21.5606 49.6131 21.6735 49.5104 21.7678C49.4077 21.8622 49.2864 21.936 49.1534 21.985C49.0205 22.034 48.8787 22.0572 48.7363 22.0533C48.5938 22.0494 48.4536 22.0184 48.3239 21.9621C48.1942 21.9059 48.0775 21.8255 47.9807 21.7257C47.8839 21.6259 47.8089 21.5087 47.7601 21.3809C47.7113 21.2531 47.6897 21.1173 47.6966 20.9814L48.0315 9.85219C48.0365 9.67693 48.0887 9.50585 48.183 9.3554C48.2773 9.20495 48.4106 9.08019 48.57 8.99311C48.7294 8.90603 48.9096 8.85957 49.0933 8.85819C49.2769 8.8568 49.4579 8.90055 49.6187 8.98522L58.0339 13.4037C58.216 13.499 58.3651 13.6427 58.4632 13.8173C58.5613 13.992 58.6042 14.19 58.5866 14.3875L57.7402 24.3374C57.7173 24.5924 57.595 24.8299 57.3975 25.0029C57.1999 25.176 56.9416 25.272 56.6735 25.272V25.272Z" fill="white"></path><path d="M46.4748 12.9509C46.3328 12.951 46.1923 12.9242 46.0612 12.8722L43.6031 11.8884C43.3409 11.7836 43.133 11.5836 43.0253 11.3324C42.9175 11.0813 42.9187 10.7996 43.0286 10.5492C43.1384 10.2989 43.3479 10.1005 43.611 9.99764C43.8741 9.89478 44.1693 9.89591 44.4315 10.0008L46.2957 10.746L48.4253 9.08829C48.5342 9.00209 48.66 8.93734 48.7953 8.89778C48.9306 8.85821 49.0728 8.84461 49.2136 8.85777C49.3545 8.87092 49.4912 8.91057 49.6159 8.97443C49.7406 9.03828 49.8509 9.12507 49.9402 9.2298C50.0296 9.33453 50.0964 9.45511 50.1367 9.5846C50.177 9.71409 50.1901 9.84991 50.1751 9.98424C50.1602 10.1186 50.1175 10.2487 50.0495 10.3672C49.9816 10.4857 49.8898 10.5902 49.7793 10.6747L47.1524 12.721C46.961 12.8698 46.7217 12.9511 46.4748 12.9509V12.9509Z" fill="white"></path><path d="M17.9156 16.4694C17.6313 16.4694 17.3587 16.3616 17.1577 16.1698C16.9567 15.9779 16.8438 15.7176 16.8438 15.4463V9.88169C16.8443 9.70015 16.8954 9.52201 16.9918 9.36555C17.0882 9.20908 17.2266 9.07993 17.3926 8.99135L29.3416 2.52656C29.4643 2.44854 29.6025 2.39551 29.7476 2.37078C29.8927 2.34605 30.0416 2.35016 30.185 2.38286C30.3284 2.41555 30.4632 2.47612 30.5809 2.56078C30.6987 2.64545 30.7968 2.75238 30.8693 2.87491C30.9418 2.99743 30.987 3.13291 31.0022 3.27287C31.0173 3.41284 31.0021 3.55428 30.9574 3.68836C30.9126 3.82244 30.8394 3.94628 30.7423 4.05213C30.6452 4.15798 30.5262 4.24357 30.3929 4.30355L18.9875 10.4769V15.4463C18.9872 15.7175 18.8741 15.9776 18.6732 16.1694C18.4722 16.3612 18.1998 16.4691 17.9156 16.4694V16.4694Z" fill="white"></path><path d="M6.38895 41.1966C6.27966 41.1963 6.17105 41.1801 6.06687 41.1486L3.86386 40.4821C3.5992 40.403 3.37703 40.2289 3.24414 39.9965C3.11125 39.7642 3.07801 39.4916 3.15143 39.2364L3.97852 36.3477L0.900757 35.4524C0.637574 35.3755 0.415462 35.205 0.280435 34.976C0.145407 34.7471 0.107813 34.4773 0.17544 34.2227L3.13855 23.134C3.21229 22.8747 3.38997 22.6535 3.63319 22.5181C3.87642 22.3828 4.16565 22.3442 4.43841 22.4108C4.71117 22.4773 4.94555 22.6436 5.09092 22.8738C5.23628 23.1039 5.28096 23.3794 5.2153 23.6407L2.50985 33.7824L5.60179 34.6838C5.86827 34.7617 6.0925 34.9356 6.22694 35.1686C6.36138 35.4016 6.39546 35.6754 6.32196 35.932L5.49228 38.8281L6.71102 39.197C6.95568 39.2701 7.16479 39.4245 7.30041 39.6322C7.43602 39.8399 7.48917 40.087 7.45021 40.3289C7.41126 40.5708 7.28277 40.7913 7.08806 40.9505C6.89335 41.1097 6.64531 41.197 6.38895 41.1966V41.1966Z" fill="white"></path></svg> 