<?xml version="1.0" encoding="UTF-8"?> <svg xmlns="http://www.w3.org/2000/svg" width="66" height="63" viewBox="0 0 66 63" fill="none"><path d="M18.405 44.9081C13.5765 44.9081 9.02616 43.4951 5.59283 40.9299C2.08219 38.3068 0.148438 34.8021 0.148438 31.0476C0.148438 27.2932 2.0809 23.7921 5.59283 21.1641C9.02616 18.5989 13.5803 17.1871 18.405 17.1871C23.2298 17.1871 27.7826 18.5989 31.216 21.1641C34.7279 23.7872 36.6617 27.2969 36.6617 31.0476C36.652 31.313 36.5348 31.5644 36.3347 31.7489C36.1346 31.9334 35.8673 32.0365 35.5891 32.0365C35.311 32.0365 35.0436 31.9334 34.8436 31.7489C34.6435 31.5644 34.5263 31.313 34.5166 31.0476C34.5166 24.53 27.2892 19.2334 18.405 19.2334C9.52088 19.2334 2.29218 24.5324 2.29218 31.0476C2.29218 37.5628 9.51959 42.8618 18.405 42.8618C20.4189 42.8674 22.4223 42.5864 24.3493 42.0281C24.6199 41.9526 24.9108 41.9819 25.1589 42.1096C25.407 42.2374 25.5924 42.4533 25.6749 42.7106C25.7574 42.968 25.7304 43.246 25.5997 43.4844C25.4691 43.7229 25.2452 43.9026 24.9767 43.9846C22.8464 44.6022 20.6315 44.9135 18.405 44.9081V44.9081Z" fill="white"></path><path d="M27.7221 56.701C25.4122 56.701 23.2247 56.1156 21.564 55.0544C19.772 53.9083 18.7852 52.3428 18.7852 50.6457C18.7852 48.9487 19.772 47.3844 21.564 46.2383C23.2247 45.1758 25.4122 44.5917 27.7221 44.5917C30.0321 44.5917 32.2209 45.1758 33.8815 46.2383C35.6736 47.3844 36.6604 48.9499 36.6604 50.6457C36.6604 52.3416 35.6736 53.9083 33.8815 55.0544C32.2209 56.1156 30.0334 56.701 27.7221 56.701ZM27.7221 46.638C24.0402 46.638 20.9289 48.4728 20.9289 50.6457C20.9289 52.8187 24.0402 54.6547 27.7221 54.6547C31.4041 54.6547 34.5154 52.8187 34.5154 50.6457C34.5154 48.4728 31.4054 46.638 27.7221 46.638Z" fill="white"></path><path d="M54.5295 49.0388C49.1689 49.0388 44.8066 45.3791 44.8066 40.8819C44.8066 36.3847 49.1689 32.7262 54.5295 32.7262C59.8901 32.7262 64.2524 36.3847 64.2524 40.8819C64.2524 45.3791 59.8901 49.0388 54.5295 49.0388ZM54.5295 34.7737C50.3502 34.7737 46.9504 37.5148 46.9504 40.8831C46.9504 44.2514 50.3502 46.9937 54.5295 46.9937C58.7088 46.9937 62.1086 44.2526 62.1086 40.8831C62.1086 37.5136 58.7088 34.7725 54.5295 34.7725V34.7737Z" fill="white"></path><path d="M4.66583 24.3587C4.38935 24.3589 4.12348 24.2571 3.92376 24.0746C1.68855 22.0271 0.665632 19.4175 1.11912 16.9138C1.46052 15.0286 2.63545 13.3475 4.4262 12.1682C6.84564 10.5818 10.1283 10.0309 13.4315 10.6556C15.4866 11.0343 17.4182 11.873 19.0678 13.1028C19.2712 13.277 19.3972 13.5188 19.4201 13.7787C19.443 14.0386 19.361 14.2971 19.1909 14.5013C19.0208 14.7054 18.7754 14.8398 18.5049 14.877C18.2344 14.9143 17.9593 14.8514 17.7357 14.7015C16.3521 13.6762 14.7335 12.9787 13.0128 12.6662C10.2713 12.1485 7.58384 12.5826 5.6385 13.8591C4.30768 14.731 3.47414 15.9091 3.22936 17.2655C2.90085 19.0843 3.69444 21.0285 5.41176 22.5977C5.56593 22.739 5.67229 22.9212 5.71717 23.1207C5.76206 23.3202 5.74341 23.528 5.66363 23.7173C5.58385 23.9067 5.44658 24.0689 5.26947 24.1832C5.09235 24.2975 4.88348 24.3586 4.66969 24.3587H4.66583Z" fill="white"></path><path d="M60.8359 37.0251C60.6211 37.0254 60.4113 36.964 60.2335 36.849C60.0558 36.7341 59.9183 36.5708 59.8389 36.3804C59.7595 36.19 59.7418 35.9812 59.7882 35.781C59.8346 35.5809 59.9428 35.3987 60.099 35.258C62.4269 33.1588 63.7062 30.5173 63.7062 27.8168C63.7062 21.2991 56.4788 16.0026 47.5934 16.0026C40.9998 16.0026 35.1354 18.9048 32.649 23.3971C32.5833 23.5159 32.4938 23.6213 32.3855 23.7071C32.2772 23.7929 32.1523 23.8576 32.0178 23.8973C31.8833 23.9371 31.742 23.9511 31.6018 23.9387C31.4617 23.9263 31.3254 23.8877 31.2009 23.825C31.0764 23.7624 30.966 23.6769 30.8761 23.5735C30.7862 23.4702 30.7185 23.3509 30.6769 23.2225C30.6352 23.0942 30.6205 22.9593 30.6335 22.8255C30.6465 22.6917 30.687 22.5616 30.7526 22.4428C33.6036 17.2877 40.2126 13.9575 47.5908 13.9575C52.4194 13.9575 56.9697 15.3705 60.403 17.9345C63.9136 20.5576 65.8474 24.0673 65.8474 27.818C65.8474 31.0867 64.3272 34.2582 61.5663 36.7472C61.3688 36.9253 61.1075 37.0247 60.8359 37.0251V37.0251Z" fill="white"></path><path d="M17.2797 19.2332C17.2104 19.2333 17.1414 19.2267 17.0735 19.2135C16.9354 19.1881 16.8038 19.1368 16.6865 19.0627C16.5691 18.9886 16.4682 18.8931 16.3896 18.7817C16.3109 18.6703 16.2561 18.5452 16.2282 18.4136C16.2003 18.2819 16.2 18.1463 16.2271 18.0145C16.8932 14.7446 19.091 11.76 22.411 9.60673C25.7065 7.47312 29.9154 6.29871 34.2634 6.29871C37.7199 6.29871 41.0837 7.03655 43.9914 8.42248C46.8553 9.79119 49.1575 11.7305 50.6494 14.0314C50.7267 14.1457 50.7793 14.2735 50.8042 14.4074C50.8292 14.5414 50.8258 14.6787 50.7945 14.8114C50.7631 14.9441 50.7044 15.0695 50.6216 15.1803C50.5389 15.2911 50.4338 15.385 50.3126 15.4565C50.1914 15.5281 50.0565 15.5758 49.9157 15.597C49.7749 15.6181 49.6311 15.6123 49.4927 15.5798C49.3544 15.5473 49.2242 15.4888 49.1097 15.4077C48.9953 15.3265 48.899 15.2245 48.8264 15.1074C46.1622 11 40.4524 8.34378 34.2686 8.34378C26.3545 8.34378 19.5033 12.6688 18.3335 18.4044C18.2859 18.6378 18.1548 18.8482 17.9625 18.9994C17.7702 19.1506 17.5288 19.2333 17.2797 19.2332Z" fill="white"></path><path d="M34.0112 46.8211C33.854 46.8211 33.6943 46.8211 33.5319 46.8149C29.8886 46.7166 25.6075 45.4438 24.479 43.2007C23.4483 41.147 24.6246 37.8267 26.253 35.4533C28.6557 31.9424 32.1573 29.9194 35.628 30.0289C37.8065 30.1014 40.1976 31.7997 41.7178 34.3576C43.4867 37.3348 43.6503 40.6625 42.1481 43.2573C40.8263 45.5335 37.8761 46.8211 34.0112 46.8211ZM35.3484 32.0641C32.701 32.0641 29.9865 33.7341 28.0476 36.5662C26.414 38.9532 25.9322 41.3622 26.4115 42.3128C26.9577 43.3975 30.0406 44.6727 33.5925 44.7723C35.1384 44.8154 38.8913 44.6494 40.2711 42.2673C41.4086 40.2997 41.2515 37.7173 39.8524 35.366C38.7096 33.4439 36.982 32.1195 35.5546 32.0727L35.3484 32.0641Z" fill="white"></path><path d="M43.7676 42.1497C42.4703 42.1497 41.678 41.8828 41.5556 41.8385C41.2981 41.7377 41.0918 41.5451 40.9803 41.3016C40.8688 41.0582 40.861 40.7828 40.9584 40.5339C41.0558 40.285 41.2508 40.082 41.5022 39.9679C41.7536 39.8538 42.0417 39.8376 42.3054 39.9226C42.3505 39.9374 43.6221 40.3382 45.6331 39.8857C45.9099 39.8236 46.2012 39.8689 46.4429 40.0118C46.6846 40.1547 46.857 40.3833 46.9221 40.6475C46.9872 40.9117 46.9396 41.1898 46.79 41.4205C46.6403 41.6512 46.4007 41.8158 46.124 41.8779C45.3521 42.055 44.5614 42.1462 43.7676 42.1497Z" fill="white"></path></svg> 