<?xml version="1.0" encoding="UTF-8"?> <svg xmlns="http://www.w3.org/2000/svg" width="66" height="63" viewBox="0 0 66 63" fill="none"><path d="M47.3343 13.0436H45.6707C45.1162 8.46889 41.2095 4.91498 36.4835 4.91498H33.7362V1.04601C33.7362 0.466293 33.2699 0 32.6901 0C32.1104 0 31.6441 0.466293 31.6441 1.04601V4.91498H28.8968C24.1708 4.91498 20.2641 8.46889 19.7095 13.0436H18.046C17.4663 13.0436 17 13.5099 17 14.0896C17 14.6693 17.4663 15.1356 18.046 15.1356H19.6465C19.6465 15.1482 19.6465 15.1608 19.6465 15.1734V27.6121C19.6465 28.1918 20.1128 28.6581 20.6925 28.6581C21.2723 28.6581 21.7386 28.1918 21.7386 27.6121V15.2112H24.4481V45.9992C24.4481 46.5789 24.9144 47.0452 25.4941 47.0452C26.0738 47.0452 26.5401 46.5789 26.5401 45.9992V15.2238H29.2496V35.6273C29.2496 36.207 29.7159 36.6733 30.2957 36.6733C30.8754 36.6733 31.3417 36.207 31.3417 35.6273V15.2238H34.0512V30.9266C34.0512 31.5063 34.5175 31.9726 35.0972 31.9726C35.6769 31.9726 36.1432 31.5063 36.1432 30.9266V15.2238H38.8528V27.6247C38.8528 28.2044 39.3191 28.6707 39.8988 28.6707C40.4785 28.6707 40.9448 28.2044 40.9448 27.6247V15.2238H43.6543V25.4571C43.6543 26.0368 44.1206 26.5031 44.7003 26.5031C45.2801 26.5031 45.7464 26.0368 45.7464 25.4571V15.1734C45.7464 15.1608 45.7464 15.1482 45.7464 15.1356H47.3469C47.9266 15.1356 48.3929 14.6693 48.3929 14.0896C48.3929 13.5099 47.914 13.0436 47.3343 13.0436ZM28.8842 7.007H36.4835C40.05 7.007 43.0116 9.62833 43.5535 13.0436H21.8268C22.3561 9.62833 25.3177 7.007 28.8842 7.007Z" fill="white"></path><path d="M20.6808 29.2882C20.1011 29.2882 19.6348 29.7545 19.6348 30.3342V39.7483C19.6348 40.328 20.1011 40.7943 20.6808 40.7943C21.2605 40.7943 21.7268 40.328 21.7268 39.7483V30.3342C21.7268 29.7545 21.2605 29.2882 20.6808 29.2882Z" fill="white"></path><path d="M20.6808 41.5884C20.1011 41.5884 19.6348 42.0547 19.6348 42.6344V61.9541C19.6348 62.5338 20.1011 63.0001 20.6808 63.0001C21.2605 63.0001 21.7268 62.5338 21.7268 61.9541V42.6344C21.7268 42.0547 21.2605 41.5884 20.6808 41.5884Z" fill="white"></path><path d="M25.4816 50.6244C24.9018 50.6244 24.4355 51.0907 24.4355 51.6704V61.9541C24.4355 62.5338 24.9018 63.0001 25.4816 63.0001C26.0613 63.0001 26.5276 62.5338 26.5276 61.9541V51.6704C26.5276 51.0907 26.0613 50.6244 25.4816 50.6244Z" fill="white"></path><path d="M30.2823 38.4377C29.7026 38.4377 29.2363 38.904 29.2363 39.4838V61.9414C29.2363 62.5212 29.7026 62.9875 30.2823 62.9875C30.862 62.9875 31.3283 62.5212 31.3283 61.9414V39.4838C31.3283 38.904 30.862 38.4377 30.2823 38.4377Z" fill="white"></path><path d="M35.0851 33.989C34.5054 33.989 34.0391 34.4553 34.0391 35.035V44.6003C34.0391 45.18 34.5054 45.6463 35.0851 45.6463C35.6648 45.6463 36.1311 45.18 36.1311 44.6003V35.035C36.1311 34.4553 35.6648 33.989 35.0851 33.989Z" fill="white"></path><path d="M35.0851 47.2468C34.5054 47.2468 34.0391 47.7131 34.0391 48.2928V61.9414C34.0391 62.5211 34.5054 62.9874 35.0851 62.9874C35.6648 62.9874 36.1311 62.5211 36.1311 61.9414V48.3054C36.1311 47.7257 35.6648 47.2468 35.0851 47.2468Z" fill="white"></path><path d="M39.8859 29.2882C39.3061 29.2882 38.8398 29.7545 38.8398 30.3342V39.7483C38.8398 40.328 39.3061 40.7943 39.8859 40.7943C40.4656 40.7943 40.9318 40.328 40.9318 39.7483V30.3342C40.9318 29.7545 40.4656 29.2882 39.8859 29.2882Z" fill="white"></path><path d="M39.8859 41.5884C39.3061 41.5884 38.8398 42.0547 38.8398 42.6344V61.9541C38.8398 62.5338 39.3061 63.0001 39.8859 63.0001C40.4656 63.0001 40.9318 62.5338 40.9318 61.9541V42.6344C40.9318 42.0547 40.4656 41.5884 39.8859 41.5884Z" fill="white"></path><path d="M44.6886 38.7023C45.2683 38.7023 45.7346 38.236 45.7346 37.6563V31.1156C45.7346 30.5359 45.2683 30.0696 44.6886 30.0696C44.1089 30.0696 43.6426 30.5359 43.6426 31.1156V37.6563C43.6426 38.236 44.1089 38.7023 44.6886 38.7023Z" fill="white"></path><path d="M44.6886 40.2776C44.1089 40.2776 43.6426 40.7439 43.6426 41.3236V43.7685C43.6426 44.3482 44.1089 44.8145 44.6886 44.8145C45.2683 44.8145 45.7346 44.3482 45.7346 43.7685V41.3236C45.7346 40.7439 45.2683 40.2776 44.6886 40.2776Z" fill="white"></path><path d="M44.6886 46.9443C44.1089 46.9443 43.6426 47.4106 43.6426 47.9903V61.9413C43.6426 62.5211 44.1089 62.9873 44.6886 62.9873C45.2683 62.9873 45.7346 62.5211 45.7346 61.9413V47.9903C45.7346 47.4106 45.2683 46.9443 44.6886 46.9443Z" fill="white"></path></svg> 