<?xml version="1.0" encoding="UTF-8"?> <svg xmlns="http://www.w3.org/2000/svg" width="66" height="63" viewBox="0 0 66 63" fill="none"><g clip-path="url(#clip0)"><path d="M53.2243 32.3262C53.3858 32.4256 53.5721 32.4628 53.746 32.4628C54.1063 32.4628 54.4417 32.2765 54.6405 31.9535C54.9262 31.4565 54.7647 30.8229 54.2678 30.5372L48.0688 26.9095L54.2057 23.17C54.6902 22.8718 54.8517 22.2382 54.5535 21.7537C54.2554 21.2692 53.6218 21.1077 53.1373 21.4059L47.0998 25.0957V17.9148C47.0998 17.3433 46.6402 16.8837 46.0687 16.8837C45.4973 16.8837 45.0376 17.3433 45.0376 17.9148V25.1329L38.9007 21.5425C38.4038 21.2568 37.7703 21.4183 37.4845 21.9152C37.1988 22.4122 37.3603 23.0458 37.8572 23.3315L44.0562 26.9592L37.9069 30.6863C37.4224 30.9844 37.2609 31.618 37.5591 32.1026C37.7578 32.4256 38.0933 32.5995 38.4411 32.5995C38.6274 32.5995 38.8138 32.5498 38.9753 32.4504L45.0128 28.7606V35.9414C45.0128 36.5129 45.4724 36.9726 46.0439 36.9726C46.6153 36.9726 47.075 36.5129 47.075 35.9414V28.7233L53.2243 32.3262Z" fill="white"></path><path d="M21.6461 20.9958C21.8076 21.0952 21.994 21.1325 22.1679 21.1325C22.5282 21.1325 22.8636 20.9461 23.0623 20.6231C23.3481 20.1262 23.1866 19.4926 22.6897 19.2068L16.4907 15.5792L22.6275 11.8397C23.112 11.5415 23.2735 10.9079 22.9754 10.4234C22.6772 9.93884 22.0437 9.77734 21.5592 10.0755L15.5217 13.7653V6.57205C15.5217 6.00057 15.062 5.54089 14.4906 5.54089C13.9191 5.54089 13.4595 6.00057 13.4595 6.57205V13.7902L7.32262 10.1997C6.82571 9.914 6.19214 10.0755 5.90642 10.5724C5.62069 11.0694 5.78219 11.703 6.2791 11.9887L12.4781 15.6164L6.34122 19.3559C5.85673 19.6541 5.69523 20.2877 5.99338 20.7722C6.19214 21.0952 6.52756 21.2692 6.8754 21.2692C7.06174 21.2692 7.24808 21.2195 7.40958 21.1201L13.4471 17.4303V24.6111C13.4471 25.1826 13.9067 25.6423 14.4782 25.6423C15.0496 25.6423 15.5093 25.1826 15.5093 24.6111V17.393L21.6461 20.9958Z" fill="white"></path><path d="M34.84 56.5522L28.6411 52.9245L34.7779 49.185C35.2624 48.8868 35.4239 48.2532 35.1258 47.7687C34.8276 47.2842 34.1941 47.1227 33.7096 47.4209L27.6721 51.1107V43.9298C27.6721 43.3584 27.2124 42.8987 26.641 42.8987C26.0695 42.8987 25.6099 43.3584 25.6099 43.9298V51.1479L19.473 47.5575C18.9761 47.2718 18.3425 47.4333 18.0568 47.9302C17.7711 48.4272 17.9326 49.0608 18.4295 49.3465L24.6285 52.9742L18.4916 56.7137C18.0071 57.0119 17.8456 57.6455 18.1438 58.13C18.3425 58.453 18.6779 58.6269 19.0258 58.6269C19.2121 58.6269 19.3985 58.5772 19.56 58.4779L25.5975 54.7881V61.9689C25.5975 62.5404 26.0571 63 26.6286 63C27.2 63 27.6596 62.5404 27.6596 61.9689V54.7508L33.7965 58.3412C33.958 58.4406 34.1444 58.4779 34.3183 58.4779C34.6785 58.4779 35.014 58.2915 35.2127 57.9685C35.4985 57.4715 35.337 56.8379 34.84 56.5522Z" fill="white"></path><path d="M51.536 47.2593C49.7471 47.2593 48.2812 48.7377 48.2812 50.5515C48.2812 52.3654 49.7347 53.8438 51.536 53.8438C53.3249 53.8438 54.7908 52.3654 54.7908 50.5515C54.7784 48.7377 53.3249 47.2593 51.536 47.2593ZM51.536 51.769C50.8776 51.769 50.3559 51.2224 50.3559 50.5515C50.3559 49.8807 50.89 49.334 51.536 49.334C52.182 49.334 52.7162 49.8807 52.7162 50.5515C52.7162 51.2224 52.182 51.769 51.536 51.769Z" fill="white"></path><path d="M6.25478 43.5447C4.46589 43.5447 3 45.0231 3 46.8369C3 48.6508 4.45347 50.1292 6.25478 50.1292C8.05609 50.1292 9.50956 48.6508 9.50956 46.8369C9.49714 45.0231 8.04367 43.5447 6.25478 43.5447ZM6.25478 48.0544C5.59637 48.0544 5.07461 47.5078 5.07461 46.8369C5.07461 46.1661 5.60879 45.6194 6.25478 45.6194C6.90077 45.6194 7.43495 46.1661 7.43495 46.8369C7.43495 47.5078 6.90077 48.0544 6.25478 48.0544Z" fill="white"></path><path d="M25.6337 32.8728C27.4226 32.8728 28.8885 31.3944 28.8885 29.5806C28.8885 27.7667 27.435 26.2883 25.6337 26.2883C23.8448 26.2883 22.3789 27.7667 22.3789 29.5806C22.3789 31.3944 23.8324 32.8728 25.6337 32.8728ZM25.6337 28.3631C26.2921 28.3631 26.8139 28.9097 26.8139 29.5806C26.8139 30.2515 26.2797 30.7981 25.6337 30.7981C24.9877 30.7981 24.4535 30.2515 24.4535 29.5806C24.4411 28.9097 24.9753 28.3631 25.6337 28.3631Z" fill="white"></path><path d="M37.4599 6.5845C39.2488 6.5845 40.7146 5.10609 40.7146 3.29225C40.7146 1.47841 39.2612 0 37.4599 0C35.6586 0 34.2051 1.49083 34.2051 3.29225C34.2051 5.10609 35.671 6.5845 37.4599 6.5845ZM37.4599 2.07474C38.1183 2.07474 38.64 2.62138 38.64 3.29225C38.64 3.96312 38.1059 4.50976 37.4599 4.50976C36.8139 4.50976 36.2797 3.96312 36.2797 3.29225C36.2797 2.62138 36.8015 2.07474 37.4599 2.07474Z" fill="white"></path><path d="M59.7353 10.0507C57.9464 10.0507 56.4805 11.5291 56.4805 13.3429C56.4805 15.1568 57.9339 16.6352 59.7353 16.6352C61.5366 16.6352 62.99 15.1568 62.99 13.3429C62.99 11.5291 61.5241 10.0507 59.7353 10.0507ZM59.7353 14.5604C59.0769 14.5604 58.5551 14.0138 58.5551 13.3429C58.5551 12.672 59.0893 12.1254 59.7353 12.1254C60.3812 12.1254 60.9154 12.672 60.9154 13.3429C60.9154 14.0138 60.3937 14.5604 59.7353 14.5604Z" fill="white"></path></g><defs><clipPath id="clip0"><rect width="66" height="63" fill="white"></rect></clipPath></defs></svg> 