<?xml version="1.0" encoding="UTF-8"?> <svg xmlns="http://www.w3.org/2000/svg" width="66" height="63" viewBox="0 0 66 63" fill="none"><path d="M61.7938 36.0713C59.542 34.1436 56.3974 32.4489 52.6703 31.1422C55.2974 29.2663 56.8373 26.9894 56.8373 24.5054C56.8373 22.4225 55.7632 20.4043 53.7185 18.6708C52.0879 17.2865 49.8492 16.0704 47.1703 15.126C47.7656 14.2333 48.0762 13.263 48.0762 12.241C48.0762 7.62241 41.4633 4 33.0128 4C24.5751 4 17.9493 7.62241 17.9493 12.241C17.9493 13.263 18.2728 14.2333 18.8552 15.126C16.1893 16.0704 13.9376 17.2865 12.307 18.6708C10.2623 20.4173 9.18819 22.4355 9.18819 24.5054C9.18819 26.9894 10.7152 29.2793 13.3552 31.1422C9.62818 32.4618 6.49643 34.1436 4.23174 36.0713C1.46234 38.4388 0 41.1556 0 43.9371C0 48.3357 3.54585 52.398 9.97758 55.3736C16.1505 58.2327 24.3293 59.811 32.9998 59.811C41.6833 59.811 49.8621 58.2327 56.0221 55.3736C62.4538 52.398 65.9997 48.3357 65.9997 43.9371C66.0255 41.1556 64.5632 38.4388 61.7938 36.0713ZM33.0257 6.14757C40.7386 6.14757 45.928 9.29131 45.928 12.241C45.928 15.1907 40.7515 18.3215 33.0257 18.3215C25.2999 18.3215 20.1234 15.1777 20.1234 12.228C20.1234 9.27837 25.3128 6.14757 33.0257 6.14757ZM11.3752 24.5054C11.3752 21.5687 14.8564 18.6449 20.4858 16.8466C23.1646 19.0459 27.7328 20.482 33.0387 20.482C38.3316 20.482 42.9127 19.0589 45.5915 16.8466C51.208 18.6449 54.7021 21.5687 54.7021 24.5054C54.7021 26.8471 52.5021 29.2016 48.6715 30.974C44.5174 32.9017 38.9657 33.9625 33.0516 33.9625C27.1375 33.9625 21.5858 32.9017 17.4317 30.974C13.5623 29.2016 11.3752 26.8471 11.3752 24.5054ZM55.1421 53.433C49.2538 56.1627 41.3986 57.6634 33.0257 57.6634C24.6528 57.6634 16.7976 56.1627 10.9094 53.433C5.27998 50.8197 2.18703 47.456 2.18703 43.95C2.18703 41.8154 3.39058 39.6549 5.66821 37.7143C7.99761 35.722 11.4011 33.9884 15.5164 32.7076C15.607 32.6817 15.6976 32.63 15.7882 32.5782C20.0975 34.7646 26.1928 36.1101 33.0516 36.1101C39.9104 36.1101 46.0057 34.7646 50.315 32.5782C50.3927 32.63 50.4833 32.6688 50.5868 32.7076C54.6891 33.9884 58.0926 35.722 60.435 37.7143C62.7126 39.6549 63.9161 41.8154 63.9161 43.95C63.8773 47.456 60.7714 50.8197 55.1421 53.433Z" fill="white"></path></svg> 