<?xml version="1.0" encoding="UTF-8"?> <svg xmlns="http://www.w3.org/2000/svg" width="66" height="63" viewBox="0 0 66 63" fill="none"><path d="M62.3772 7.513C60.6693 7.513 59.2331 8.71637 58.8579 10.3209L22.6038 2.02669C22.3062 1.96199 21.9957 2.01375 21.7499 2.1949C21.504 2.36311 21.3358 2.63484 21.297 2.94539L20.2619 10.9678H9.62635V8.59992C9.62635 8.0047 9.14762 7.52594 8.55244 7.52594H1.07391C0.47873 7.52594 0 8.0047 0 8.59992V60.1118C0 60.707 0.47873 61.1857 1.07391 61.1857H8.5395C9.13468 61.1857 9.61341 60.707 9.61341 60.1118V42.3589L17.1437 34.7764L16.0957 42.8506C16.018 43.407 16.3803 43.9116 16.9237 44.041L49.3868 51.4682C49.4644 51.4812 49.5421 51.4941 49.6326 51.4941C50.0855 51.4941 50.4995 51.2094 50.6548 50.7566L63.3993 12.5723C63.4899 12.2877 63.464 11.9642 63.3217 11.7054C63.1794 11.4466 62.9206 11.2525 62.623 11.1878L60.9669 10.8126C61.1221 10.1656 61.6914 9.68683 62.3901 9.68683C63.1923 9.68683 63.8522 10.3467 63.8522 11.1619V61.0952C63.8522 61.6904 64.3309 62.1691 64.9261 62.1691C65.5213 62.1691 66 61.6904 66 61.0952V11.149C65.9871 9.14337 64.3697 7.513 62.3772 7.513ZM41.546 47.457L51.8969 10.929L56.4254 11.9642L45.3887 48.3369L41.546 47.457ZM34.7014 45.8913L43.1762 8.93634L49.7879 10.4503L39.437 46.9783L34.7014 45.8913ZM27.6757 44.2869L31.9843 19.8831H34.4685C35.0637 19.8831 35.5424 19.4043 35.5424 18.8091V12.0289C35.5424 11.4337 35.0637 10.9549 34.4685 10.9549H33.5628L34.2745 6.90485L41.0672 8.45758L32.6054 45.4126L27.6757 44.2869ZM21.724 42.9282L24.1176 27.7761L29.3448 22.5227L25.5797 43.8081L21.724 42.9282ZM32.1784 6.42609L31.3762 10.9549H26.77L27.6499 5.39094L32.1784 6.42609ZM23.2766 4.38166L25.5538 4.89924L24.5964 10.942H22.4227L23.2766 4.38166ZM25.515 13.1028H33.3946V17.7222H23.0178C22.8108 17.6575 22.5909 17.6575 22.3968 17.7222H9.62635V13.1028H25.515ZM9.62635 19.8831H19.0974L18.9551 20.9312C18.9551 20.9571 18.9551 20.9829 18.9551 21.0088L9.62635 30.3899V19.8831V19.8831ZM7.4656 59.0249H2.14781V9.67389H7.4656V12.0289V18.8091V59.0249ZM9.62635 33.4436L23.1084 19.8702H28.9308L9.62635 39.3052V33.4436ZM19.6409 32.3567C19.6409 32.3308 19.6409 32.3049 19.6538 32.2791L21.5299 30.3899L19.6279 42.4495L18.3729 42.1648L19.6409 32.3567ZM48.921 49.1521L47.4977 48.8286L58.5344 12.4559L60.9798 13.0123L48.921 49.1521Z" fill="white"></path></svg> 