<svg width="66" height="63" viewBox="0 0 66 63" fill="none" xmlns="http://www.w3.org/2000/svg">
<path d="M42.2002 13.7765V10.1061C42.2002 8.94972 41.647 7.91899 40.7794 7.27793L42.5272 3.72067C42.6026 3.5824 42.6403 3.41899 42.6403 3.25559C42.6403 1.4581 41.1818 0 39.3837 0H36.9696C35.1716 0 33.713 1.4581 33.713 3.25559C33.713 3.41899 33.7508 3.56983 33.8262 3.72067L35.5739 7.27793C34.7189 7.93156 34.1531 8.94972 34.1531 10.1061V13.7765C31.236 14.5936 29.0859 17.2835 29.0859 20.4511V61.7933C29.0859 62.3715 29.5512 62.8366 30.1295 62.8366H46.2238C46.8022 62.8366 47.2674 62.3715 47.2674 61.7933V20.4511C47.2674 17.2835 45.1173 14.5936 42.2002 13.7765ZM37.6989 8.64804H38.6419C39.0317 8.64804 39.3963 8.79888 39.6478 9.06285H36.6804C36.957 8.81145 37.3091 8.64804 37.6989 8.64804ZM40.1004 11.1494V13.5126H36.2403V11.1494H40.1004ZM37.548 6.56145L35.8128 3.05447C35.9134 2.51397 36.3912 2.09916 36.957 2.09916H39.3712C39.9496 2.09916 40.4148 2.51397 40.5154 3.05447L38.7802 6.56145H38.6293H37.6863H37.548ZM35.5991 15.6243H40.7417C43.2187 15.838 45.1676 17.9246 45.1676 20.4511V21.6704H31.1732V20.4511C31.1732 17.9246 33.1221 15.8506 35.5991 15.6243ZM31.1732 60.75V23.7696H45.1676V60.75H31.1732Z" fill="white"/>
<path d="M61.9507 35.095V33.5992H62.5417C63.12 33.5992 63.5853 33.1341 63.5853 32.5559V26.8744C63.5853 26.2961 63.12 25.8311 62.5417 25.8311H52.4828C51.9044 25.8311 51.4391 26.2961 51.4391 26.8744V32.5559C51.4391 33.1341 51.9044 33.5992 52.4828 33.5992H53.0486V35.007C51.0619 36.0378 49.6914 38.0992 49.6914 40.4875V61.7933C49.6914 62.3716 50.1566 62.8366 50.735 62.8366H64.0756C64.654 62.8366 65.1193 62.3716 65.1193 61.7933V40.4875C65.1318 38.1746 63.8493 36.1509 61.9507 35.095ZM53.5389 27.9176H61.498V31.5126H61.2843C61.1711 31.4623 61.0454 31.4372 60.9071 31.4372H54.1047C53.9664 31.4372 53.8407 31.4623 53.7275 31.5126H53.5389V27.9176V27.9176ZM55.1484 33.6118H59.8635V34.3911C59.5743 34.3534 59.2725 34.3283 58.9707 34.3283H55.8776C55.6262 34.3283 55.3873 34.3408 55.1484 34.3785V33.6118ZM63.0446 60.75H51.7912V40.4875C51.7912 38.2375 53.6144 36.4149 55.8651 36.4149H58.9582C61.2089 36.4149 63.032 38.2375 63.032 40.4875V60.75H63.0446Z" fill="white"/>
<path d="M55.8539 37.9861C54.9611 38.1621 53.2637 39.1299 53.2637 41.5559C53.2637 42.1341 53.7289 42.5992 54.3073 42.5992C54.8857 42.5992 55.3509 42.1341 55.3509 41.5559C55.3509 40.3492 56.055 40.0852 56.2688 40.035H56.2436L55.8539 37.9861Z" fill="white"/>
<path d="M54.3073 44.5601C53.7289 44.5601 53.2637 45.0251 53.2637 45.6034V58.852C53.2637 59.4302 53.7289 59.8953 54.3073 59.8953C54.8857 59.8953 55.3509 59.4302 55.3509 58.852V45.6034C55.3509 45.0251 54.8857 44.5601 54.3073 44.5601Z" fill="white"/>
<path d="M26.394 23.1033C25.4006 21.6452 23.8164 20.803 22.056 20.803H18.5731V18C18.5731 17.4217 18.1079 16.9567 17.5295 16.9567H10.8906C10.3122 16.9567 9.84702 17.4217 9.84702 18V20.803H6.36411C4.6038 20.803 3.0321 21.6452 2.0262 23.1033C1.29693 24.1592 0.303613 26.472 1.71186 30.0419C2.49143 32.0279 3.13269 33.6871 3.5099 34.6927C2.30283 36.8798 1.61127 39.4567 1.61127 42.222C1.61127 43.7681 1.8376 45.3142 2.29026 46.8226C2.30283 46.9106 2.32798 46.986 2.35312 47.074L2.40341 47.2122C2.62974 47.9036 2.89379 48.5572 3.18298 49.148L8.4765 62.3463C8.63995 62.7486 9.01716 63 9.44466 63H18.8623C19.2898 63 19.667 62.7486 19.8305 62.3463L25.7275 48.0167C25.7401 47.9664 25.7653 47.9287 25.7778 47.8784C26.4568 46.081 26.8089 44.1829 26.8089 42.2346C26.8089 39.4692 26.1173 36.8924 24.9103 34.7053C25.2875 33.6997 25.9287 32.0405 26.7083 30.0544C28.1165 26.4846 27.1107 24.1717 26.394 23.1033ZM21.3142 27.9301C20.9999 28.7346 20.7484 29.3757 20.5472 29.891C19.9185 29.4762 19.2647 29.1243 18.5731 28.8352V26.5977H21.616C21.6285 26.8617 21.5657 27.3016 21.3142 27.9301ZM7.88553 29.891C7.68435 29.3757 7.43288 28.7346 7.11853 27.9301C6.86706 27.3016 6.81677 26.8617 6.81677 26.5977H9.8596V28.8352C9.16805 29.1117 8.50164 29.4762 7.88553 29.891ZM11.9468 23.053H16.4859V28.1815C15.7441 28.0307 14.9896 27.9427 14.2101 27.9427C13.4305 27.9427 12.6761 28.0181 11.9342 28.1815V23.053H11.9468ZM16.4859 19.0433V20.9539H11.9468V19.0433H16.4859ZM4.94329 32.5684C4.59123 31.6508 4.16373 30.5321 3.66078 29.2877C2.60459 26.6103 3.271 25.0139 3.76137 24.2849C4.36491 23.405 5.30793 22.9022 6.36411 22.9022H9.84702V24.5111H6.36411C5.8486 24.5111 5.39595 24.75 5.09418 25.1899C4.56609 25.9692 4.59123 27.2514 5.15705 28.6969C5.6097 29.8407 5.92404 30.6578 6.16294 31.2486C5.8486 31.5377 5.54683 31.8519 5.27021 32.1787C5.23249 32.229 5.1822 32.2793 5.14448 32.3296C5.11933 32.3547 5.09418 32.3798 5.06903 32.4176C5.03131 32.4678 4.98101 32.5181 4.94329 32.5684ZM23.7786 47.2374C23.7661 47.2751 23.7535 47.3002 23.7409 47.3379L18.1582 60.9008H10.1488L5.10675 48.331C5.09418 48.3058 5.0816 48.2807 5.06903 48.2555C4.81756 47.7276 4.57866 47.1494 4.37748 46.5209C4.36491 46.4958 4.3649 46.4706 4.35233 46.4581V46.4455C4.35233 46.4203 4.33976 46.3952 4.32719 46.3701C3.89968 45.0125 3.68593 43.6298 3.68593 42.2346C3.68593 39.6452 4.39005 37.2444 5.57198 35.2583C5.64742 35.1452 5.71029 35.0321 5.78573 34.919C5.7983 34.9064 5.81088 34.8812 5.82345 34.8687C6.45213 33.9259 7.19398 33.0712 8.06156 32.3547C8.09928 32.3296 8.12443 32.2919 8.14958 32.2667C9.85959 30.8715 11.9468 30.0419 14.1849 30.0419C16.4356 30.0419 18.5103 30.8715 20.2203 32.2667C20.2454 32.2919 20.2832 32.3296 20.3083 32.3547C21.1759 33.0838 21.9177 33.9259 22.5464 34.8812C22.559 34.8938 22.5716 34.919 22.5716 34.9315C22.647 35.0447 22.7224 35.1578 22.7853 35.2835C23.9798 37.2569 24.6714 39.6578 24.6714 42.2472C24.7217 43.9692 24.4073 45.6536 23.7786 47.2374ZM24.7594 29.2877C24.269 30.5321 23.8289 31.6634 23.4769 32.5684C23.4391 32.5181 23.3888 32.4678 23.3385 32.405C23.3134 32.3798 23.3008 32.3547 23.2757 32.3296C23.2254 32.2793 23.1877 32.2164 23.1374 32.1662C22.8482 31.8393 22.559 31.5251 22.2446 31.236C22.471 30.6452 22.7979 29.8282 23.2505 28.6843C23.8289 27.2388 23.8541 25.9567 23.3134 25.1773C23.0116 24.7374 22.559 24.4986 22.0435 24.4986H18.5606V22.8896H22.0435C23.0997 22.8896 24.0427 23.3924 24.6462 24.2723C25.1492 25.0014 25.8156 26.6103 24.7594 29.2877Z" fill="white"/>
<path d="M11.0546 32.8198C10.9792 32.8575 9.29428 33.6996 7.92375 35.5851C6.65381 37.3198 5.39645 40.3239 6.60352 44.7108C6.72926 45.1759 7.15676 45.4776 7.60941 45.4776C7.69743 45.4776 7.79802 45.465 7.88603 45.4399C8.43928 45.289 8.76619 44.7108 8.61531 44.1577C6.76698 37.4077 11.7587 34.8058 11.985 34.6927C12.5006 34.4413 12.7143 33.8128 12.4628 33.2974C12.1988 32.782 11.5701 32.5684 11.0546 32.8198Z" fill="white"/>
</svg>
