<svg width="66" height="63" viewBox="0 0 66 63" fill="none" xmlns="http://www.w3.org/2000/svg">
<path d="M22.7408 37.0091C23.6424 35.7621 24.0994 34.4039 24.0871 33.0704L24.0377 5.46201C24.9146 6.25223 26.162 7.01776 27.9035 7.68451C32.9304 9.59833 32.2264 14.1298 32.1893 14.3273C32.0905 14.8829 32.461 15.4139 33.0168 15.5126C33.5726 15.6114 34.1161 15.241 34.2149 14.6854C34.2272 14.6236 34.4989 13.0432 33.9432 11.1664C33.4244 9.42546 32.0905 7.06715 28.6322 5.75834C24.8899 4.33842 24.1488 2.53572 24.0253 1.68377V1.02936C24.0253 0.498435 23.6177 0.0539353 23.099 0.00454644C22.5803 -0.0448424 22.0986 0.313227 21.9874 0.831809C21.9751 0.881198 21.9133 1.22692 21.9751 1.7455L22.0245 28.7612C19.9989 27.0573 16.7753 26.4399 13.5641 27.403C11.3903 28.0574 9.53766 29.3292 8.33961 30.9837C7.07982 32.7246 6.69693 34.6755 7.24038 36.4905C8.09259 39.3057 11.0445 41.0343 14.4657 41.0343C15.4661 41.0343 16.5036 40.8861 17.5287 40.5775C19.6778 39.9354 21.5428 38.6636 22.7408 37.0091ZM16.9235 38.6143C13.4282 39.6638 9.95759 38.4537 9.19183 35.9102C8.83366 34.7249 9.11773 33.4161 9.99465 32.2061C10.9333 30.9096 12.4031 29.9095 14.1446 29.3909C14.9968 29.1316 15.849 29.0081 16.6642 29.0081C19.1714 29.0081 21.2958 30.1688 21.8763 32.0949C22.2344 33.2803 21.9504 34.5891 21.0734 35.7991C20.1348 37.0956 18.665 38.0957 16.9235 38.6143Z" fill="white"/>
<path d="M59.5715 45.714C59.5715 45.7016 59.5715 45.6893 59.5715 45.6769V19.2539V13.8335C59.5715 13.4877 59.3986 13.1667 59.1146 12.9815C58.8305 12.7963 58.46 12.7593 58.1389 12.8951L37.0434 21.9209C36.6605 22.0814 36.4258 22.4518 36.4258 22.8593V28.0945C36.3023 28.3538 36.2776 28.6625 36.4135 28.9588C36.4135 28.9711 36.4258 28.9835 36.4258 28.9958V50.5664C34.4003 48.9736 31.2631 48.4303 28.1383 49.3687C25.9645 50.0231 24.1119 51.2949 22.9138 52.9494C21.654 54.6904 21.2712 56.6412 21.8146 58.4563C22.6668 61.2714 25.6187 63 29.0399 63C30.0404 63 31.0778 62.8519 32.103 62.5432C34.2767 61.8888 36.1294 60.617 37.3274 58.9625C38.5502 57.2709 38.9454 55.3818 38.4761 53.6285V29.1687L57.5213 20.8343V41.5529C55.4957 39.8367 52.2598 39.2193 49.0485 40.1948C46.8747 40.8492 45.0221 42.1209 43.824 43.7754C42.5642 45.5164 42.1814 47.4673 42.7248 49.2823C43.577 52.0975 46.5289 53.8261 49.9501 53.8261C50.9506 53.8261 51.9881 53.6779 53.0132 53.3692C55.187 52.7148 57.0396 51.4431 58.2377 49.7885C59.164 48.4921 59.6086 47.0968 59.5715 45.714ZM35.6601 57.7401C34.7214 59.0366 33.2516 60.0367 31.5101 60.5553C28.0148 61.6048 24.5442 60.3948 23.7784 57.8513C23.4202 56.6659 23.7043 55.3571 24.5812 54.1471C25.5199 52.8506 26.9897 51.8505 28.7311 51.3319C29.5834 51.0726 30.4356 50.9492 31.2508 50.9492C33.758 50.9492 35.8824 52.1098 36.4629 54.036C36.8211 55.2213 36.5246 56.5301 35.6601 57.7401ZM38.4761 26.9215V23.526L57.5213 15.3769V18.5871L38.4761 26.9215ZM56.5703 48.5785C55.6316 49.875 54.1618 50.8751 52.4203 51.3937C48.925 52.4432 45.4544 51.2332 44.6886 48.6896C44.3304 47.5043 44.6145 46.1955 45.4914 44.9855C46.4301 43.689 47.8999 42.6889 49.6414 42.1703C50.4936 41.911 51.3458 41.7875 52.161 41.7875C54.6682 41.7875 56.7926 42.9482 57.3731 44.8743C57.7189 46.0473 57.4349 47.3685 56.5703 48.5785Z" fill="white"/>
</svg>
