<svg width="66" height="63" viewBox="0 0 66 63" fill="none" xmlns="http://www.w3.org/2000/svg">
<g clip-path="url(#clip0)">
<path d="M44.871 43.1574C47.1695 40.549 48.6481 37.2077 48.8842 33.5311H59.1222C59.6938 33.5311 60.1535 33.0715 60.1535 32.5001C60.1535 31.9288 59.6938 31.4692 59.1222 31.4692H48.8842C48.6481 27.7926 47.1695 24.4513 44.871 21.8429L52.1022 14.6511C52.5122 14.2536 52.5122 13.5953 52.1022 13.1854C51.7046 12.7755 51.0461 12.7755 50.6361 13.1854L43.3924 20.3896C40.7708 18.0917 37.4036 16.6261 33.701 16.3901V6.21723C33.701 5.64586 33.2413 5.18628 32.6698 5.18628C32.0982 5.18628 31.6385 5.64586 31.6385 6.21723V16.3901C27.9359 16.6261 24.5688 18.0917 21.9472 20.3896L14.7035 13.1854C14.2935 12.788 13.6474 12.788 13.2374 13.1854C12.8398 13.5953 12.8398 14.2412 13.2374 14.6511L20.4686 21.8429C18.17 24.4513 16.6915 27.7926 16.4554 31.4692H6.2422C5.67066 31.4692 5.21094 31.9288 5.21094 32.5001C5.21094 33.0715 5.67066 33.5311 6.2422 33.5311H16.4802C16.7163 37.2077 18.1949 40.549 20.4935 43.1574L13.2622 50.3492C12.8522 50.7467 12.8522 51.405 13.2622 51.8149C13.461 52.0136 13.7344 52.1254 13.9953 52.1254C14.2562 52.1254 14.5171 52.026 14.7283 51.8273L21.972 44.6231C24.5937 46.921 27.9608 48.3866 31.6634 48.6226V58.7955C31.6634 59.3669 32.1231 59.8264 32.6946 59.8264C33.2662 59.8264 33.7259 59.3669 33.7259 58.7955V48.6226C37.4285 48.3866 40.7956 46.921 43.4172 44.6231L50.6609 51.8273C50.8597 52.026 51.1206 52.1254 51.394 52.1254C51.6549 52.1254 51.9282 52.026 52.127 51.8149C52.5246 51.405 52.5246 50.7591 52.127 50.3492L44.871 43.1574ZM32.6822 18.4271C40.4974 18.4271 46.8465 24.737 46.8465 32.5001C46.8465 40.2633 40.4974 46.5732 32.6822 46.5732C24.867 46.5732 18.5179 40.2633 18.5179 32.5001C18.5179 24.737 24.867 18.4271 32.6822 18.4271Z" fill="white"/>
<path d="M39.3676 15.943C39.4919 15.9927 39.6285 16.0175 39.7528 16.0175C40.1628 16.0175 40.548 15.7691 40.7095 15.3716L45.9404 2.41649C46.1516 1.88239 45.9031 1.28618 45.3688 1.07502C44.8345 0.863865 44.2382 1.11229 44.0269 1.64639L38.7961 14.6015C38.5849 15.1232 38.8458 15.7194 39.3676 15.943Z" fill="white"/>
<path d="M25.9974 49.0574C25.4631 48.8463 24.8667 49.0947 24.6555 49.6288L19.4247 62.584C19.2134 63.1181 19.4619 63.7143 19.9962 63.9254C20.1204 63.9751 20.2571 64 20.3814 64C20.7914 64 21.1766 63.7515 21.3381 63.3541L26.5689 50.3989C26.7801 49.8772 26.5192 49.281 25.9974 49.0574Z" fill="white"/>
<path d="M49.1936 25.4947C49.3552 25.8922 49.7403 26.1282 50.1504 26.1282C50.287 26.1282 50.4237 26.1033 50.5479 26.0412L63.4573 20.576C63.9792 20.3524 64.2277 19.7438 64.004 19.2221C63.7804 18.7004 63.1716 18.452 62.6497 18.6756L49.7403 24.1532C49.2185 24.3644 48.97 24.973 49.1936 25.4947Z" fill="white"/>
<path d="M16.17 39.5058C15.9464 38.9841 15.3376 38.7357 14.8157 38.9592L1.90635 44.4245C1.38451 44.6481 1.13601 45.2567 1.35966 45.7784C1.52118 46.1759 1.90635 46.4119 2.31637 46.4119C2.45304 46.4119 2.58972 46.387 2.71396 46.3249L15.6233 40.8472C16.1452 40.6361 16.3937 40.0275 16.17 39.5058Z" fill="white"/>
<path d="M24.2708 15.5331C24.4448 15.9305 24.8175 16.1541 25.2151 16.1541C25.3518 16.1541 25.4884 16.1293 25.6251 16.0672C26.147 15.8436 26.3955 15.235 26.1718 14.7133L20.6552 1.88236C20.4315 1.36067 19.8227 1.11225 19.3009 1.33583C18.779 1.55941 18.5305 2.16804 18.7542 2.68972L24.2708 15.5331Z" fill="white"/>
<path d="M41.0946 49.4673C40.871 48.9456 40.2622 48.6972 39.7403 48.9208C39.2185 49.1444 38.97 49.753 39.1936 50.2747L44.7103 63.118C44.8842 63.5155 45.257 63.7391 45.6545 63.7391C45.7912 63.7391 45.9279 63.7142 46.0646 63.6521C46.5864 63.4286 46.8349 62.8199 46.6113 62.2982L41.0946 49.4673Z" fill="white"/>
<path d="M63.7204 43.791L50.6868 38.5866C50.1525 38.3754 49.5561 38.6363 49.3449 39.158C49.1337 39.6921 49.3946 40.2883 49.9165 40.4994L62.9377 45.7038C63.0619 45.7535 63.1986 45.7784 63.3228 45.7784C63.7329 45.7784 64.118 45.53 64.2795 45.1325C64.5032 44.6108 64.2423 44.0022 63.7204 43.791Z" fill="white"/>
<path d="M1.64497 21.2095L14.6786 26.4139C14.8029 26.4636 14.9395 26.4884 15.0638 26.4884C15.4738 26.4884 15.859 26.24 16.0205 25.8425C16.2317 25.3084 15.9708 24.7122 15.4489 24.5011L2.41531 19.2842C1.88104 19.0731 1.28465 19.3339 1.07343 19.8556C0.86221 20.3897 1.12313 20.9983 1.64497 21.2095Z" fill="white"/>
</g>
<defs>
<clipPath id="clip0">
<rect width="66" height="63" fill="white"/>
</clipPath>
</defs>
</svg>
